<?xml version="1.0" encoding="utf-8"?>
<!-- Generator: Adobe Illustrator 25.4.2, SVG Export Plug-In . SVG Version: 6.00 Build 0)  -->
<svg version="1.1" id="Capa_1" xmlns="http://www.w3.org/2000/svg" xmlns:xlink="http://www.w3.org/1999/xlink" x="0px" y="0px"
	 viewBox="0 0 50 50" style="enable-background:new 0 0 50 50;" xml:space="preserve">
<style type="text/css">
	.st0{opacity:0.25;fill:#FFFFFF;}
	.st1{fill:#020203;}
</style>
<path class="st0" d="M5.6,49.4h38.7c2.8,0,5-2.2,5-5V5.6c0-2.8-2.2-5-5-5H5.6c-2.8,0-5,2.2-5,5v38.7C0.6,47.1,2.9,49.4,5.6,49.4z"/>
<path class="st1" d="M24.1,21.7v2.4l1.5-0.4l1.2-0.7v9.7h2.9V19.9h-1.8c-0.5,0.4-1,0.8-1.7,1.1C25.5,21.3,24.8,21.5,24.1,21.7"/>
<path class="st1" d="M15.1,19.1c-0.3-0.3-0.6-0.4-0.9-0.4c-0.3,0-0.6,0.1-0.9,0.3c-0.3,0.3-0.4,0.6-0.4,1c0,0.2,0.2,0.5,0.5,0.8
	l4.8,4.7l-4.9,4.9c-0.3,0.2-0.4,0.4-0.4,0.7c0,0.4,0.2,0.7,0.6,1c0.3,0.3,0.8,0.4,1.3,0.2l0.4-0.3l5.5-5.5c0.3-0.3,0.4-0.6,0.4-0.9
	c-0.1-0.3-0.2-0.6-0.5-0.9L15.1,19.1"/>
<path class="st1" d="M36.1,14.1c0.3,0,0.5,0.1,0.8,0.2c0.3,0.3,0.4,0.5,0.4,0.8v21.4c0,0.3-0.1,0.6-0.3,0.8
	c-0.3,0.2-0.5,0.3-0.8,0.3H13.4v2.1h22.8c0.9,0,1.7-0.3,2.4-1c0.5-0.4,0.8-0.9,0.9-1.4V15.1c0-0.8-0.3-1.5-1-2.2
	C37.8,12.3,37,12,36.1,12H13.4v2.1H36.1"/>
</svg>
