<?xml version="1.0" encoding="utf-8"?>
<!-- Generator: Adobe Illustrator 25.4.2, SVG Export Plug-In . SVG Version: 6.00 Build 0)  -->
<svg version="1.1" id="Capa_1" xmlns="http://www.w3.org/2000/svg" xmlns:xlink="http://www.w3.org/1999/xlink" x="0px" y="0px"
	 viewBox="0 0 269.3 73.1" style="enable-background:new 0 0 269.3 73.1;" xml:space="preserve">
<style type="text/css">
	.st0{fill:#FFF2DA;}
	.st1{fill:#EC650C;}
</style>
<path class="st0" d="M267.6,62.9V12.2c0-6.8-3.4-10.2-10.2-10.2H10.1C3.4,2.1,0,5.5,0,12.2v50.7C0,69.6,3.4,73,10.1,73h247.4
	C264.2,73,267.6,69.6,267.6,62.9z"/>
<g transform="matrix( 1.50775146484375, 0, 0, 1.50775146484375, 55.9,117.7) ">
	<g transform="matrix( 1, 0, 0, 1, 0,0) ">
		<g>
			<g id="S_mbolo_3_0_Layer0_0_FILL">
				<path class="st1" d="M-9.8-57.7c-1.8,0-3.2,0.5-4.3,1.5s-1.6,2.4-1.6,4.2c0,1.6,0.5,2.8,1.5,3.8c1,1,2.4,1.5,4,1.5
					c1.4,0,2.4-0.2,3.2-0.7v-2.6c-0.8,0.5-1.5,0.8-2.4,0.8c-0.9,0-1.7-0.3-2.2-0.8c-0.5-0.5-0.8-1.3-0.8-2.2c0-0.9,0.3-1.7,0.8-2.2
					c0.6-0.6,1.3-0.9,2.2-0.9c0.9,0,1.6,0.3,2.3,0.8v-2.8C-7.7-57.5-8.6-57.7-9.8-57.7 M4.3-56.2c-1-1-2.4-1.5-4.2-1.5
					s-3.2,0.5-4.2,1.5c-1,1-1.5,2.4-1.5,4.1c0,1.7,0.5,3,1.5,4c1,1,2.4,1.5,4.1,1.5c1.8,0,3.2-0.5,4.2-1.5c1-1,1.5-2.4,1.5-4.2
					C5.8-53.9,5.3-55.2,4.3-56.2 M2.4-52.2c0,2.1-0.8,3.2-2.3,3.2c-1.7,0-2.5-1-2.5-3c0-1,0.2-1.7,0.7-2.3c0.4-0.5,1-0.8,1.7-0.8
					C1.6-55.2,2.4-54.2,2.4-52.2 M11.6-54.5c0.4-0.4,0.8-0.7,1.4-0.7c1.2,0,1.7,0.8,1.7,2.5v5.8H18v-6.5c0-2.9-1.2-4.4-3.5-4.4
					c-1.5,0-2.6,0.6-3.4,1.9v-1.7H7.8v10.6h3.3v-6C11.1-53.5,11.2-54.1,11.6-54.5 M31.9-46.9v-10.6h-3.3v10.6H31.9 M26.3-60.2
					c0.4,0,0.8,0.1,1.2,0.3v-2.6c-0.4-0.1-1-0.2-1.7-0.2c-1.3,0-2.4,0.4-3.2,1.1c-0.8,0.8-1.2,1.7-1.2,3v1.3h-1.7v2.4h1.7v8.1h3.2
					V-55h2.4v-2.4h-2.4v-1.1C24.6-59.7,25.2-60.2,26.3-60.2 M31.6-62c-0.4-0.3-0.8-0.4-1.3-0.4s-1,0.1-1.3,0.4
					c-0.4,0.3-0.5,0.7-0.5,1.2c0,0.5,0.2,0.9,0.5,1.2s0.8,0.5,1.3,0.5s1-0.2,1.3-0.5s0.5-0.7,0.5-1.2C32.2-61.3,32-61.7,31.6-62
					 M41.7-57.4v1.2h-0.1c-0.6-1-1.6-1.5-2.9-1.5c-1.4,0-2.6,0.5-3.4,1.6c-0.9,1-1.3,2.4-1.3,4.2c0,1.6,0.4,2.9,1.2,3.8
					c0.8,0.9,1.8,1.4,3.2,1.4c1.5,0,2.6-0.6,3.3-1.8h0.1v0.9c0,1-0.3,1.8-0.9,2.4c-0.6,0.6-1.4,0.9-2.6,0.9c-1.1,0-2.2-0.3-3.3-0.9
					v2.8c0.9,0.4,2,0.6,3.4,0.6c2.2,0,3.8-0.5,4.9-1.6s1.7-2.6,1.7-4.6v-9.3H41.7 M39.6-55.2c0.6,0,1.1,0.2,1.5,0.7
					c0.4,0.4,0.5,1,0.5,1.7v0.9c0,0.9-0.2,1.5-0.6,2c-0.4,0.5-0.9,0.8-1.6,0.8s-1.2-0.3-1.6-0.8c-0.4-0.5-0.6-1.2-0.6-2.1
					c0-1,0.2-1.8,0.6-2.4C38.3-54.9,38.9-55.2,39.6-55.2 M57.6-57.4h-3.2v6.1c0,0.7-0.2,1.3-0.5,1.7c-0.3,0.4-0.8,0.6-1.3,0.6
					c-1.2,0-1.8-0.7-1.8-2.2v-6.1h-3.2v6.4c0,3,1.2,4.4,3.6,4.4c1.3,0,2.4-0.6,3.2-1.9h0.1v1.6h3.2V-57.4 M70.8-57.4
					C70-57.2,69.4-57,69-56.8v2.5c1.1-0.8,2.3-1.1,3.6-1.1c1.2,0,1.8,0.6,1.8,1.7l-2.8,0.4c-2.4,0.3-3.6,1.5-3.6,3.5
					c0,1,0.3,1.8,0.9,2.4c0.6,0.6,1.4,0.9,2.4,0.9c1.4,0,2.4-0.6,3.1-1.8h0.1v1.5h3.1v-6.3c0-3-1.5-4.5-4.5-4.5
					C72.3-57.7,71.6-57.6,70.8-57.4 M70.9-50.2c0-0.9,0.5-1.3,1.6-1.5l1.9-0.2v0.7c0,0.7-0.2,1.2-0.5,1.6c-0.4,0.4-0.9,0.7-1.5,0.7
					c-0.4,0-0.8-0.1-1.1-0.4C71-49.5,70.9-49.8,70.9-50.2 M67.2-54.5v-3c-0.2-0.1-0.5-0.1-0.8-0.1c-1.3,0-2.3,0.7-2.8,2.2v-1.9h-3.3
					v10.6h3.3v-5c0-0.9,0.2-1.6,0.6-2.1c0.4-0.5,0.9-0.8,1.6-0.8C66.3-54.8,66.8-54.7,67.2-54.5 M91.4-57.4h-3.3v10.6h3.3V-57.4
					 M86.4-55v-2.4H84v-3.2l-3.2,0.9v2.3H79v2.4h1.7v4.8c0,2.4,1.1,3.6,3.4,3.6c0.9,0,1.7-0.1,2.2-0.4v-2.4
					c-0.4,0.2-0.7,0.3-1.1,0.3c-0.9,0-1.3-0.6-1.3-1.7V-55H86.4 M91.1-59.6c0.4-0.3,0.5-0.7,0.5-1.2c0-0.5-0.2-0.9-0.5-1.2
					c-0.4-0.3-0.8-0.4-1.3-0.4s-1,0.1-1.3,0.4c-0.4,0.3-0.5,0.7-0.5,1.2c0,0.5,0.2,0.9,0.5,1.2s0.8,0.5,1.3,0.5S90.8-59.3,91.1-59.6
					 M99.3-57.7c-1.7,0-3.2,0.5-4.2,1.5c-1,1-1.5,2.4-1.5,4.1c0,1.7,0.5,3,1.5,4c1,1,2.4,1.5,4.1,1.5c1.8,0,3.2-0.5,4.2-1.5
					c1-1,1.5-2.4,1.5-4.2c0-1.6-0.5-2.9-1.5-3.9C102.4-57.2,101-57.7,99.3-57.7 M99.3-49.1c-1.7,0-2.5-1-2.5-3c0-1,0.2-1.7,0.7-2.3
					c0.4-0.5,1-0.8,1.7-0.8c1.6,0,2.4,1,2.4,3C101.6-50.1,100.8-49.1,99.3-49.1 M110.8-54.5c0.4-0.4,0.8-0.7,1.4-0.7
					c1.2,0,1.7,0.8,1.7,2.5v5.8h3.2v-6.5c0-2.9-1.2-4.4-3.5-4.4c-1.5,0-2.6,0.6-3.4,1.9v-1.7h-3.3v10.6h3.3v-6
					C110.2-53.5,110.4-54.1,110.8-54.5z"/>
			</g>
		</g>
	</g>
</g>
</svg>
