<?xml version="1.0" encoding="utf-8"?>
<!-- Generator: Adobe Illustrator 25.4.2, SVG Export Plug-In . SVG Version: 6.00 Build 0)  -->
<svg version="1.1" id="Capa_1" xmlns="http://www.w3.org/2000/svg" xmlns:xlink="http://www.w3.org/1999/xlink" x="0px" y="0px"
	 viewBox="0 0 271 73.1" style="enable-background:new 0 0 271 73.1;" xml:space="preserve">
<style type="text/css">
	.st0{fill:#9DF9EB;}
	.st1{fill:#246A7F;}
</style>
<path class="st0" d="M10.7,1.6C4.3,1.6,1.1,5,1.1,11.7v50.6c0,6.8,3.2,10.2,9.6,10.2h250.8c6.4,0,9.6-3.4,9.6-10.2V11.7
	c0-6.8-3.2-10.2-9.6-10.2H10.7V1.6z"/>
<g>
	<path class="st1" d="M50.8,44.8c-1.1,0.7-2.8,1-5,1c-2.5,0-4.6-0.8-6.2-2.3s-2.4-3.5-2.4-5.9c0-2.8,0.8-5,2.5-6.6s3.9-2.4,6.7-2.4
		c1.9,0,3.4,0.3,4.2,0.8v4.3c-1.1-0.8-2.3-1.2-3.6-1.2c-1.5,0-2.6,0.4-3.5,1.3c-0.9,0.9-1.3,2-1.3,3.5c0,1.5,0.4,2.6,1.2,3.4
		s1.9,1.2,3.4,1.2c1.3,0,2.5-0.4,3.7-1.2V44.8z"/>
	<path class="st1" d="M67.9,45.4H63v-2.4H63c-1.1,1.8-2.7,2.8-4.9,2.8c-1.6,0-2.9-0.5-3.8-1.4c-0.9-0.9-1.4-2.1-1.4-3.6
		c0-3.2,1.9-5,5.7-5.5l4.5-0.6c0-1.8-1-2.7-2.9-2.7c-2,0-3.8,0.6-5.6,1.8v-3.8c0.7-0.4,1.7-0.7,2.9-1s2.4-0.4,3.4-0.4
		c4.7,0,7.1,2.3,7.1,7V45.4z M63.1,38.7v-1.1l-3,0.4c-1.7,0.2-2.5,1-2.5,2.2c0,0.6,0.2,1.1,0.6,1.4c0.4,0.4,0.9,0.6,1.6,0.6
		c1,0,1.7-0.3,2.3-1C62.8,40.6,63.1,39.7,63.1,38.7z"/>
	<path class="st1" d="M77,43.5L77,43.5L77,53h-5.1V28.9H77v2.5H77c1.3-1.9,3-2.9,5.3-2.9c2.1,0,3.8,0.7,5,2.2c1.2,1.5,1.7,3.5,1.7,6
		c0,2.8-0.7,5-2,6.6c-1.4,1.7-3.2,2.5-5.4,2.5C79.6,45.8,78.1,45,77,43.5z M76.9,36.7v1.3c0,1.1,0.3,2.1,0.9,2.8s1.4,1.1,2.4,1.1
		c1.2,0,2.1-0.4,2.7-1.3s1-2.2,1-3.8c0-2.9-1.1-4.4-3.4-4.4c-1,0-1.9,0.4-2.6,1.2C77.2,34.4,76.9,35.4,76.9,36.7z"/>
	<path class="st1" d="M91.3,45v-4.1c0.8,0.5,1.7,0.9,2.5,1.1c0.8,0.2,1.6,0.4,2.4,0.4c0.9,0,1.6-0.1,2.1-0.4s0.8-0.6,0.8-1.1
		c0-0.3-0.1-0.6-0.4-0.8s-0.5-0.4-0.9-0.6c-0.4-0.2-0.8-0.3-1.2-0.4s-0.9-0.3-1.3-0.4c-0.7-0.2-1.2-0.5-1.7-0.8
		c-0.5-0.3-0.9-0.6-1.3-1c-0.3-0.4-0.6-0.8-0.8-1.3c-0.2-0.5-0.3-1.1-0.3-1.8c0-0.9,0.2-1.7,0.6-2.4c0.4-0.7,0.9-1.2,1.6-1.6
		c0.7-0.4,1.4-0.7,2.3-0.9s1.8-0.3,2.7-0.3c0.7,0,1.5,0.1,2.2,0.2c0.8,0.1,1.5,0.3,2.2,0.5v3.9c-0.6-0.4-1.3-0.7-2.1-0.8
		c-0.7-0.2-1.5-0.3-2.2-0.3c-0.3,0-0.6,0-0.9,0.1s-0.6,0.1-0.8,0.3c-0.2,0.1-0.4,0.3-0.5,0.4c-0.1,0.2-0.2,0.4-0.2,0.6
		c0,0.3,0.1,0.6,0.3,0.8s0.4,0.4,0.8,0.6c0.3,0.2,0.7,0.3,1,0.4c0.4,0.1,0.8,0.2,1.1,0.4c0.7,0.2,1.3,0.5,1.8,0.8s1,0.6,1.4,1
		s0.7,0.8,0.9,1.3c0.2,0.5,0.3,1.1,0.3,1.8c0,1-0.2,1.8-0.6,2.5c-0.4,0.7-1,1.3-1.7,1.7c-0.7,0.4-1.5,0.8-2.4,1
		c-0.9,0.2-1.9,0.3-2.9,0.3C94.5,45.8,92.8,45.5,91.3,45z"/>
	<path class="st1" d="M121.1,45.4H116V21h5.1V45.4z"/>
	<path class="st1" d="M133.2,45.8c-2.8,0-4.9-0.8-6.5-2.3s-2.4-3.6-2.4-6.3c0-2.7,0.8-4.9,2.4-6.4c1.6-1.5,3.8-2.3,6.6-2.3
		c2.7,0,4.9,0.8,6.4,2.3c1.6,1.5,2.3,3.6,2.3,6.1c0,2.7-0.8,4.9-2.4,6.5C138.2,45,136,45.8,133.2,45.8z M133.3,32.4
		c-1.2,0-2.1,0.4-2.8,1.2c-0.7,0.8-1,2-1,3.5c0,3.2,1.3,4.8,3.8,4.8c2.4,0,3.7-1.6,3.7-4.9C137,34,135.8,32.4,133.3,32.4z"/>
	<path class="st1" d="M158,44.8c-1.1,0.7-2.8,1-5,1c-2.5,0-4.6-0.8-6.2-2.3s-2.4-3.5-2.4-5.9c0-2.8,0.8-5,2.5-6.6
		c1.7-1.6,3.9-2.4,6.7-2.4c1.9,0,3.4,0.3,4.2,0.8v4.3c-1.1-0.8-2.2-1.2-3.6-1.2c-1.5,0-2.6,0.4-3.5,1.3c-0.9,0.9-1.3,2-1.3,3.5
		c0,1.5,0.4,2.6,1.2,3.4s1.9,1.2,3.4,1.2c1.3,0,2.5-0.4,3.7-1.2V44.8z"/>
	<path class="st1" d="M177.9,45.4h-6.1l-5.3-8.2h-0.1v8.2h-5.1V21h5.1v15.5h0.1l4.9-7.6h6l-5.9,7.8L177.9,45.4z"/>
</g>
<path class="st1" d="M204.1,46.9l0.3,10.4l21.4-0.3V46.3L204.1,46.9z M222.5,53.9l-14.9,0.1l-0.1-3.9l0.1-0.1l14.8-0.1l0.1,0.1V53.9
	z"/>
<path class="st1" d="M225.6,35.5l10.7-0.3l-21.9-21.1L193.2,36h10.7c0.1,0,0.1,0,0.1,0.1v6.6l21.6-0.3l-0.3-6.6
	C225.4,35.7,225.5,35.6,225.6,35.5z M207.4,39.5c-0.1,0-0.1,0-0.1-0.1c-0.2,0-0.3,0-0.3-0.1v-6.6h-5.7v-0.4l13-13.3h0.3l13.5,13V32
	c0,0.1-0.1,0.1-0.3,0.1l-5.6,0.1l0.1,6.9L207.4,39.5z"/>
</svg>
