<?xml version="1.0" encoding="utf-8"?>
<!-- Generator: Adobe Illustrator 25.4.2, SVG Export Plug-In . SVG Version: 6.00 Build 0)  -->
<svg version="1.1" id="Capa_1" xmlns="http://www.w3.org/2000/svg" xmlns:xlink="http://www.w3.org/1999/xlink" x="0px" y="0px"
	 viewBox="0 0 191.5 73.1" style="enable-background:new 0 0 191.5 73.1;" xml:space="preserve">
<style type="text/css">
	.st0{fill:#E8CCE4;}
	.st1{fill:#971C77;}
</style>
<path class="st0" d="M190.5,62.2V11.5c0-6.8-3.4-10.2-10.2-10.2H12.1C5.3,1.4,1.9,4.8,1.9,11.5v50.7c0,6.8,3.4,10.2,10.2,10.2h168.3
	C187.1,72.4,190.5,69,190.5,62.2"/>
<g transform="matrix( 1.50775146484375, 0, 0, 1.50775146484375, 29,415.8) ">
	<g transform="matrix( 1, 0, 0, 1, 0,0) ">
		<g>
			<g id="S_mbolo_1_0_Layer0_0_FILL">
				<path class="st1" d="M7.5-255.8c-1.4,0-2.5,0.6-3.3,1.8v-6.6H0.9v15.6h3.3v-6c0-0.7,0.2-1.2,0.5-1.7s0.8-0.7,1.4-0.7
					c1.1,0,1.7,0.8,1.7,2.4v6h3.2v-6.5C11.1-254.3,9.9-255.8,7.5-255.8 M23.6-255.5h-3.2l-2.4,7.9c-0.1-0.6-0.2-1.1-0.3-1.4
					l-1.9-6.5h-3.6l4.3,10.6l-0.5,1.3c-0.4,0.8-0.9,1.2-1.7,1.2c-0.5,0-1-0.1-1.4-0.4v2.6c0.5,0.2,1.1,0.3,1.9,0.3
					c2.1,0,3.6-1.4,4.6-4.1L23.6-255.5 M31.6-255.8c-1.5,0-2.6,0.6-3.4,1.9v-1.6h-3.3v15.4h3.3v-6.1c0.7,1,1.7,1.5,3,1.5
					c1.4,0,2.6-0.5,3.4-1.6c0.9-1.1,1.3-2.5,1.3-4.2c0-1.6-0.4-2.9-1.1-3.8C34-255.3,32.9-255.8,31.6-255.8 M28.7-252.5
					c0.4-0.5,0.9-0.8,1.6-0.8c1.4,0,2.2,0.9,2.2,2.8c0,1-0.2,1.8-0.6,2.4c-0.4,0.6-1,0.9-1.7,0.9c-0.6,0-1.1-0.2-1.5-0.7
					c-0.4-0.4-0.6-1-0.6-1.7v-0.9C28.1-251.3,28.3-252,28.7-252.5 M46.2-254.4c-0.9-0.9-2.1-1.4-3.6-1.4c-1.5,0-2.7,0.5-3.7,1.5
					c-1,1-1.5,2.4-1.5,4.2c0,1.7,0.5,3,1.4,4s2.3,1.4,4,1.4c1.6,0,2.8-0.3,3.8-0.8v-2.4c-0.9,0.6-1.9,0.9-3.1,0.9
					c-1.8,0-2.8-0.8-2.9-2.4h6.9v-1.3C47.4-252.2,47-253.5,46.2-254.4 M42.5-253.5c1.2,0,1.8,0.8,1.8,2.3h-3.8
					c0.1-0.7,0.3-1.2,0.7-1.6C41.6-253.3,42-253.5,42.5-253.5 M56.2-255.6c-0.2-0.1-0.5-0.1-0.8-0.1c-1.3,0-2.3,0.7-2.8,2.2v-1.9
					h-3.3v10.6h3.3v-5c0-0.9,0.2-1.6,0.6-2.1c0.4-0.5,0.9-0.8,1.6-0.8c0.5,0,1,0.1,1.4,0.3V-255.6 M84.3-252.5v10.2h4v-10.1
					c0-5.1-2.4-7.7-7.1-7.7c-4.8,0-7.3,2.6-7.3,7.9v9.9h3.9v-10.3c0-2.7,1.1-4,3.2-4C83.2-256.7,84.3-255.3,84.3-252.5z"/>
			</g>
		</g>
	</g>
</g>
</svg>
