<?xml version="1.0" encoding="utf-8"?>
<!-- Generator: Adobe Illustrator 25.4.2, SVG Export Plug-In . SVG Version: 6.00 Build 0)  -->
<svg version="1.1" xmlns="http://www.w3.org/2000/svg" xmlns:xlink="http://www.w3.org/1999/xlink" x="0px" y="0px"
	 viewBox="0 0 50 50" style="enable-background:new 0 0 50 50;" xml:space="preserve">
<style type="text/css">
	.st0{opacity:0.5;fill:#FFFFFF;}
	.st1{fill:#020203;}
</style>
<g id="Capa_1">
	<path class="st0" d="M5.6,49.4h38.7c2.8,0,5-2.2,5-5V5.6c0-2.8-2.2-5-5-5H5.6c-2.8,0-5,2.2-5,5v38.7C0.6,47.1,2.9,49.4,5.6,49.4z"
		/>
</g>
<g id="Capa_2">
	<path class="st1" d="M26.7,13.5c-0.3,0-0.5,0-0.8,0c-3.3,0-6,1.1-8.2,3.4c-2.3,2.3-3.4,5.1-3.4,8.2c-0.1,3.2,1.1,5.9,3.4,8.2
		c2.2,2.2,5,3.4,8.2,3.4c1.6,0,3.2-0.3,4.6-0.9c-0.7-0.5-1.4-1.2-2.1-1.9c-3.1-3.1-4.6-6.8-4.6-11.1C23.8,19.2,24.8,16.1,26.7,13.5"
		/>
</g>
</svg>
