<?xml version="1.0" encoding="utf-8"?>
<!-- Generator: Adobe Illustrator 25.4.2, SVG Export Plug-In . SVG Version: 6.00 Build 0)  -->
<svg version="1.1" xmlns="http://www.w3.org/2000/svg" xmlns:xlink="http://www.w3.org/1999/xlink" x="0px" y="0px"
	 viewBox="0 0 50 50" style="enable-background:new 0 0 50 50;" xml:space="preserve">
<style type="text/css">
	.st0{opacity:0.5;fill:#FFFFFF;}
	.st1{fill:#020203;}
</style>
<g id="Capa_1">
	<path class="st0" d="M5.6,49.4h38.7c2.8,0,5-2.2,5-5V5.6c0-2.8-2.2-5-5-5H5.6c-2.8,0-5,2.2-5,5v38.7C0.6,47.1,2.9,49.4,5.6,49.4z"
		/>
</g>
<g id="Capa_2">
	<path class="st1" d="M15.2,27.1c0-0.2-0.1-0.4-0.2-0.6c-0.2-0.2-0.4-0.3-0.6-0.3h-2.7c-0.2,0-0.3,0.1-0.5,0.3
		C11.1,26.8,11,27,11,27.1c0,0.3,0.1,0.4,0.3,0.6c0.1,0.1,0.3,0.2,0.5,0.2h2.7c0.2,0,0.4-0.1,0.6-0.2C15.1,27.6,15.2,27.4,15.2,27.1
		"/>
	<path class="st1" d="M35.2,36.6c0-0.3-0.1-0.4-0.2-0.6l-2-2c-0.2-0.1-0.4-0.2-0.6-0.2c-0.3,0.1-0.4,0.2-0.6,0.4
		c-0.1,0.1-0.2,0.3-0.2,0.5s0.1,0.3,0.2,0.5l2,1.9c0.1,0.2,0.3,0.3,0.5,0.3s0.4-0.1,0.6-0.2V37C35.1,36.9,35.2,36.8,35.2,36.6"/>
	<path class="st1" d="M18.1,35.2c0.1-0.2,0.2-0.4,0.1-0.6c0-0.3-0.1-0.4-0.3-0.6c-0.1-0.1-0.3-0.2-0.5-0.2c-0.1,0-0.3,0.1-0.5,0.2
		L15,36c-0.2,0.1-0.3,0.3-0.3,0.5s0.1,0.4,0.2,0.6H15c0.1,0.2,0.3,0.3,0.5,0.3s0.4-0.1,0.6-0.2L18.1,35.2"/>
	<path class="st1" d="M25,36.9c-0.2,0-0.4,0.1-0.6,0.2c-0.2,0.1-0.3,0.3-0.3,0.6v2.7c0,0.2,0.1,0.4,0.3,0.6c0.2,0.1,0.4,0.2,0.6,0.2
		c0.3,0,0.4-0.1,0.6-0.2c0.1-0.2,0.2-0.4,0.2-0.6v-2.7c0-0.3-0.1-0.4-0.2-0.6C25.4,37,25.3,36.9,25,36.9"/>
	<path class="st1" d="M35,27.7c0.1,0.1,0.3,0.2,0.6,0.2h2.7c0.2,0,0.4-0.1,0.6-0.2c0.1-0.1,0.2-0.3,0.2-0.6c0-0.2-0.1-0.4-0.2-0.6
		c-0.2-0.2-0.4-0.3-0.6-0.3h-2.7c-0.3,0-0.4,0.1-0.6,0.3c-0.1,0.2-0.2,0.4-0.2,0.6C34.8,27.4,34.9,27.6,35,27.7"/>
	<path class="st1" d="M31.9,19.1c-0.1,0.2-0.2,0.4-0.2,0.6s0.1,0.3,0.2,0.5v0.1c0.1,0.1,0.3,0.2,0.6,0.2c0.2,0,0.4-0.1,0.6-0.2
		l1.9-2c0.2-0.1,0.3-0.3,0.3-0.5c0.1-0.3,0-0.4-0.1-0.6s-0.3-0.3-0.5-0.4c-0.3,0-0.4,0.1-0.6,0.2c-0.1,0.1-0.2,0.1-0.2,0.2
		L31.9,19.1"/>
	<path class="st1" d="M18.3,19.8c0.1-0.3,0-0.4-0.2-0.6l-2-2c-0.2-0.1-0.4-0.2-0.6-0.2c-0.2,0-0.3,0.1-0.5,0.4
		c-0.1,0.1-0.2,0.3-0.2,0.4c0,0.2,0.1,0.3,0.2,0.5l1.9,2c0.2,0.1,0.4,0.2,0.6,0.3c0.2,0,0.3-0.1,0.5-0.3h0.1
		C18.2,20.1,18.3,19.9,18.3,19.8"/>
	<path class="st1" d="M21.7,19.2c-1.1,0.4-2,1.1-2.7,1.9c-0.8,0.8-1.4,1.7-1.9,2.7c-0.4,1-0.7,2.1-0.7,3.3c0,1.1,0.2,2.3,0.7,3.4
		c0.4,1,1.1,1.9,1.9,2.7s1.7,1.4,2.7,1.8c1,0.4,2.1,0.7,3.3,0.7c1.1,0,2.3-0.2,3.4-0.7c1-0.4,1.9-1,2.7-1.8c0.8-0.8,1.4-1.7,1.8-2.7
		c0.4-1.1,0.7-2.3,0.7-3.4c0-1.2-0.2-2.3-0.7-3.3c-0.4-1.1-1-2-1.8-2.7c-0.8-0.8-1.7-1.4-2.7-1.9c-1.1-0.4-2.3-0.7-3.4-0.7
		C23.8,18.6,22.7,18.8,21.7,19.2"/>
	<path class="st1" d="M24.4,13.4c-0.2,0.1-0.3,0.3-0.3,0.5v2.7c0,0.2,0.1,0.4,0.3,0.6c0.2,0.2,0.4,0.3,0.6,0.3
		c0.3,0,0.4-0.1,0.6-0.3c0.1-0.2,0.2-0.4,0.2-0.6v-2.7c0-0.2-0.1-0.3-0.2-0.5s-0.3-0.3-0.6-0.3C24.8,13.1,24.6,13.2,24.4,13.4"/>
</g>
</svg>
