<?xml version="1.0" encoding="utf-8"?>
<!-- Generator: Adobe Illustrator 25.4.2, SVG Export Plug-In . SVG Version: 6.00 Build 0)  -->
<svg version="1.1" xmlns="http://www.w3.org/2000/svg" xmlns:xlink="http://www.w3.org/1999/xlink" x="0px" y="0px"
	 viewBox="0 0 50 50" style="enable-background:new 0 0 50 50;" xml:space="preserve">
<style type="text/css">
	.st0{opacity:0.5;fill:#FFFFFF;}
	.st1{fill:#020203;}
</style>
<g id="Capa_1">
	<path class="st0" d="M5.6,49.4h38.7c2.8,0,5-2.2,5-5V5.6c0-2.8-2.2-5-5-5H5.6c-2.8,0-5,2.2-5,5v38.7C0.6,47.1,2.9,49.4,5.6,49.4z"
		/>
</g>
<g id="Capa_2">
	<path class="st1" d="M26.9,29.5c1.2-1.2,1.7-2.7,1.7-4.5c0-1.7-0.6-3.2-1.7-4.4s-2.7-1.7-4.5-1.7s-3.3,0.6-4.5,1.7
		c-1.2,1.2-1.8,2.7-1.8,4.5c0,1.7,0.6,3.2,1.7,4.5c1.2,1.2,2.7,1.8,4.5,1.8C24.1,31.3,25.7,30.7,26.9,29.5"/>
</g>
</svg>
