<?xml version="1.0" encoding="utf-8"?>
<!-- Generator: Adobe Illustrator 25.4.2, SVG Export Plug-In . SVG Version: 6.00 Build 0)  -->
<svg version="1.1" xmlns="http://www.w3.org/2000/svg" xmlns:xlink="http://www.w3.org/1999/xlink" x="0px" y="0px"
	 viewBox="0 0 50 50" style="enable-background:new 0 0 50 50;" xml:space="preserve">
<style type="text/css">
	.st0{opacity:0.5;fill:#FFFFFF;}
</style>
<g id="Capa_1">
	<path class="st0" d="M5.6,49.4h38.7c2.8,0,5-2.2,5-5V5.6c0-2.8-2.2-5-5-5H5.6c-2.8,0-5,2.2-5,5v38.7C0.6,47.1,2.9,49.4,5.6,49.4z"
		/>
	<path d="M33.3,23.7c-0.5-0.5-1.2-0.8-2-0.8h-1c-0.2,0-0.3-0.1-0.4-0.3L28.6,21c-0.3-0.3-0.6-0.5-0.9-0.7c-0.3-0.1-0.7-0.1-1-0.1
		h-3.2c-0.3,0-0.7,0-1,0.1c-0.4,0.2-0.7,0.4-0.9,0.7l-1.5,1.8c-0.1,0.1-0.2,0.1-0.3,0.1h-1.2c-0.7,0-1.3,0.3-1.8,0.8
		s-0.7,1.1-0.7,1.8v7.1c0,0.7,0.3,1.3,0.8,1.8s1.1,0.8,1.8,0.8h12.7c0.8,0,1.4-0.3,2-0.8s0.8-1.1,0.8-1.8v-7.1
		C34.1,24.8,33.9,24.2,33.3,23.7z M27.8,31.5c-0.8,0.8-1.7,1.2-2.7,1.2s-1.8-0.4-2.6-1.2c-0.7-0.7-1-1.6-1-2.6s0.4-1.9,1-2.6
		c0.8-0.8,1.6-1.2,2.6-1.2s1.9,0.4,2.7,1.2c0.7,0.7,1,1.6,1,2.6S28.4,30.8,27.8,31.5z"/>
	<path d="M41.8,9.7c-0.9-1-2-1.4-3.2-1.4H11.7c-1.3,0-2.4,0.5-3.2,1.4c-0.9,0.9-1.4,1.9-1.4,3.1v24c0,1.2,0.4,2.2,1.3,3.1
		c0.9,0.9,2,1.3,3.2,1.3h26.9c1.3,0,2.4-0.4,3.2-1.3C42.6,39,43,38,43,36.8v-24C43.1,11.6,42.6,10.6,41.8,9.7z M40.1,36.8
		c0,0.3-0.2,0.7-0.5,1s-0.6,0.4-1,0.4H11.7c-0.4,0-0.8-0.1-1.2-0.4c-0.3-0.3-0.4-0.7-0.4-1v-21h30V36.8z"/>
	<path d="M33.3,23.7c-0.5-0.5-1.2-0.8-2-0.8h-1c-0.2,0-0.3-0.1-0.4-0.3L28.6,21c-0.3-0.3-0.6-0.5-0.9-0.7c-0.3-0.1-0.7-0.1-1-0.1
		h-3.2c-0.3,0-0.7,0-1,0.1c-0.4,0.2-0.7,0.4-0.9,0.7l-1.5,1.8c-0.1,0.1-0.2,0.1-0.3,0.1h-1.2c-0.7,0-1.3,0.3-1.8,0.8
		s-0.7,1.1-0.7,1.8v7.1c0,0.7,0.3,1.3,0.8,1.8s1.1,0.8,1.8,0.8h12.7c0.8,0,1.4-0.3,2-0.8s0.8-1.1,0.8-1.8v-7.1
		C34.1,24.8,33.9,24.2,33.3,23.7z M27.8,31.5c-0.8,0.8-1.7,1.2-2.7,1.2s-1.8-0.4-2.6-1.2c-0.7-0.7-1-1.6-1-2.6s0.4-1.9,1-2.6
		c0.8-0.8,1.6-1.2,2.6-1.2s1.9,0.4,2.7,1.2c0.7,0.7,1,1.6,1,2.6S28.4,30.8,27.8,31.5z"/>
	<path d="M33.3,23.7c-0.5-0.5-1.2-0.8-2-0.8h-1c-0.2,0-0.3-0.1-0.4-0.3L28.6,21c-0.3-0.3-0.6-0.5-0.9-0.7c-0.3-0.1-0.7-0.1-1-0.1
		h-3.2c-0.3,0-0.7,0-1,0.1c-0.4,0.2-0.7,0.4-0.9,0.7l-1.5,1.8c-0.1,0.1-0.2,0.1-0.3,0.1h-1.2c-0.7,0-1.3,0.3-1.8,0.8
		s-0.7,1.1-0.7,1.8v7.1c0,0.7,0.3,1.3,0.8,1.8s1.1,0.8,1.8,0.8h12.7c0.8,0,1.4-0.3,2-0.8s0.8-1.1,0.8-1.8v-7.1
		C34.1,24.8,33.9,24.2,33.3,23.7z M27.8,31.5c-0.8,0.8-1.7,1.2-2.7,1.2s-1.8-0.4-2.6-1.2c-0.7-0.7-1-1.6-1-2.6s0.4-1.9,1-2.6
		c0.8-0.8,1.6-1.2,2.6-1.2s1.9,0.4,2.7,1.2c0.7,0.7,1,1.6,1,2.6S28.4,30.8,27.8,31.5z"/>
</g>
<g id="Capa_2">
</g>
</svg>
