<?xml version="1.0" encoding="utf-8"?>
<!-- Generator: Adobe Illustrator 25.4.2, SVG Export Plug-In . SVG Version: 6.00 Build 0)  -->
<svg version="1.1" id="Capa_1" xmlns="http://www.w3.org/2000/svg" xmlns:xlink="http://www.w3.org/1999/xlink" x="0px" y="0px"
	 viewBox="0 0 50 50" style="enable-background:new 0 0 50 50;" xml:space="preserve">
<style type="text/css">
	.st0{opacity:0.5;fill:#FFFFFF;enable-background:new    ;}
</style>
<g id="Capa_1_00000106855749326036549140000018308998415981303200_">
	<path class="st0" d="M5.6,49.4h38.7c2.8,0,5-2.2,5-5V5.6c0-2.8-2.2-5-5-5H5.6c-2.8,0-5,2.2-5,5v38.7C0.6,47.1,2.9,49.4,5.6,49.4z"
		/>
</g>
<g id="Capa_2_00000040546708832197930810000010517503183828918159_">
</g>
<path d="M32.5,26.4h-3v-2.9h3c1.7,0,3.1-0.6,4.2-1.8c1.2-1.2,1.8-2.6,1.8-4.2c0-1.7-0.6-3.1-1.8-4.2c-1.1-1.2-2.5-1.8-4.2-1.8
	c-1.6,0-3,0.6-4.2,1.8c-1.1,1.2-1.6,2.6-1.6,4.2v3h-3v-3c0-1.7-0.6-3.1-1.8-4.2c-1.1-1.2-2.5-1.8-4.2-1.8c-1.7,0-3.1,0.6-4.2,1.8
	c-1.2,1.2-1.8,2.6-1.8,4.2s0.6,3,1.8,4.2s2.6,1.8,4.2,1.8h3v2.9h-3c-1.7,0-3.1,0.6-4.2,1.8c-1.2,1.2-1.8,2.6-1.8,4.2
	c0,1.7,0.6,3.1,1.8,4.2c1.2,1.2,2.6,1.8,4.2,1.8c1.7,0,3.1-0.6,4.2-1.8c1.2-1.1,1.8-2.5,1.8-4.2v-3h3v3c0,1.7,0.5,3.1,1.6,4.2
	c1.2,1.2,2.6,1.8,4.2,1.8c1.7,0,3.1-0.6,4.2-1.8c1.2-1.1,1.8-2.5,1.8-4.2c0-1.6-0.6-3-1.8-4.2C35.6,27.1,34.2,26.4,32.5,26.4z
	 M29.5,17.5c0-0.8,0.3-1.5,0.9-2.1s1.3-0.9,2.1-0.9c0.8,0,1.5,0.3,2.1,0.9c0.6,0.6,0.9,1.3,0.9,2.1c0,0.8-0.3,1.5-0.9,2.1
	c-0.6,0.6-1.3,0.9-2.2,0.9h-3v-3H29.5z M20.6,32.5c0,0.8-0.3,1.5-0.9,2.1s-1.3,0.9-2.1,0.9c-0.8,0-1.5-0.3-2.1-0.9
	c-0.6-0.6-0.9-1.3-0.9-2.1s0.3-1.5,0.9-2.1c0.6-0.6,1.3-0.9,2.1-0.9h3V32.5z M20.6,20.6h-3c-0.8,0-1.5-0.3-2.1-0.9s-0.9-1.3-0.9-2.1
	c0-0.8,0.3-1.5,0.9-2.1c0.6-0.6,1.3-0.9,2.1-0.9c0.8,0,1.5,0.3,2.1,0.9c0.6,0.6,0.9,1.3,0.9,2.1V20.6z M26.6,26.4h-3v-2.9h3V26.4z
	 M34.7,34.6c-0.6,0.6-1.3,0.9-2.2,0.9c-0.8,0-1.5-0.3-2.1-0.9c-0.6-0.6-0.9-1.3-0.9-2.1v-3h3c0.8,0,1.5,0.3,2.1,0.9s0.9,1.3,0.9,2.1
	C35.5,33.3,35.2,34,34.7,34.6z"/>
</svg>
