<?xml version="1.0" encoding="utf-8"?>
<!-- Generator: Adobe Illustrator 25.4.2, SVG Export Plug-In . SVG Version: 6.00 Build 0)  -->
<svg version="1.1" id="Capa_1" xmlns="http://www.w3.org/2000/svg" xmlns:xlink="http://www.w3.org/1999/xlink" x="0px" y="0px"
	 viewBox="0 0 50 50" style="enable-background:new 0 0 50 50;" xml:space="preserve">
<style type="text/css">
	.st0{opacity:0.5;fill:#FFFFFF;enable-background:new    ;}
	.st1{fill:#020203;}
</style>
<g id="Capa_1_00000106855749326036549140000018308998415981303200_">
	<path class="st0" d="M5.6,49.4h38.7c2.8,0,5-2.2,5-5V5.6c0-2.8-2.2-5-5-5H5.6c-2.8,0-5,2.2-5,5v38.7C0.6,47.1,2.9,49.4,5.6,49.4z"
		/>
</g>
<g id="Capa_2_00000040546708832197930810000010517503183828918159_">
</g>
<polygon class="st1" points="14.9,25.5 21.3,19 25.5,19 19,25.6 25.4,32 21.5,32 "/>
<polygon class="st1" points="36.9,31.9 27.1,31.9 27.1,18.8 30.8,18.8 30.8,28.5 36.9,28.5 "/>
<path class="st1" d="M17.9,14.2L6.6,25.6L17.9,37h23.2l0.1-22.6L17.9,14.2z M38.5,34.4l-19.1-0.1l-8.8-8.6l8.7-8.7h19.3L38.5,34.4z"
	/>
<polygon class="st1" points="25.5,19 19,25.6 25.4,32 21.5,32 14.9,25.5 21.3,19 "/>
<polygon class="st1" points="36.9,28.5 36.9,31.9 27.1,31.9 27.1,18.8 30.8,18.8 30.8,28.5 "/>
<polygon class="st1" points="36.9,28.5 36.9,31.9 27.1,31.9 27.1,18.8 30.8,18.8 30.8,28.5 "/>
<polygon class="st1" points="19,25.6 25.4,32 21.5,32 14.9,25.5 21.3,19 25.5,19 "/>
</svg>
