<?xml version="1.0" encoding="utf-8"?>
<!-- Generator: Adobe Illustrator 25.4.2, SVG Export Plug-In . SVG Version: 6.00 Build 0)  -->
<svg version="1.1" id="Capa_1" xmlns="http://www.w3.org/2000/svg" xmlns:xlink="http://www.w3.org/1999/xlink" x="0px" y="0px"
	 viewBox="0 0 50 50" style="enable-background:new 0 0 50 50;" xml:space="preserve">
<style type="text/css">
	.st0{opacity:0.5;fill:#FFFFFF;enable-background:new    ;}
	.st1{fill:#020203;}
</style>
<g id="Capa_1_00000106855749326036549140000018308998415981303200_">
	<path class="st0" d="M5.6,49.4h38.7c2.8,0,5-2.2,5-5V5.6c0-2.8-2.2-5-5-5H5.6c-2.8,0-5,2.2-5,5v38.7C0.6,47.1,2.9,49.4,5.6,49.4z"
		/>
</g>
<g id="Capa_2_00000040546708832197930810000010517503183828918159_">
</g>
<path class="st1" d="M18.7,19.3h3.2l1.9,10.3v0.1c0.1-0.5,0.3-1,0.4-1.6l2.5-8.8h3.2l2.2,9.9l2.1-9.8h3l-3.6,13.1h-3.2l-2.2-8.4
	c-0.1-0.5-0.1-1-0.1-1.5c-0.1,0.7-0.2,1.2-0.3,1.5l-2.2,8.4l-3.4-0.1L18.7,19.3z"/>
<path class="st1" d="M17.7,13.9L6.1,25.5l11.7,11.8h23.8l0.1-23.2L17.7,13.9z M38.9,34.6l-19.8-0.1l-8.9-8.9l8.9-9L39,16.8
	L38.9,34.6z"/>
<path class="st1" d="M37.3,19.4l-3.6,13.1h-3.3l-2.2-8.4c-0.1-0.5-0.1-1-0.1-1.5c-0.1,0.7-0.2,1.2-0.3,1.5l-2.2,8.4l-3.4-0.1
	l-3.4-13.1H22l1.9,10.3v0.1c0.1-0.5,0.3-1,0.4-1.6l2.5-8.8H30l2.2,9.9l2.1-9.8H37.3z"/>
<path class="st1" d="M37.3,19.4l-3.6,13.1h-3.3l-2.2-8.4c-0.1-0.5-0.1-1-0.1-1.5c-0.1,0.7-0.2,1.2-0.3,1.5l-2.2,8.4l-3.4-0.1
	l-3.4-13.1H22l1.9,10.3v0.1c0.1-0.5,0.3-1,0.4-1.6l2.5-8.8H30l2.2,9.9l2.1-9.8H37.3z"/>
</svg>
