<?xml version="1.0" encoding="utf-8"?>
<!-- Generator: Adobe Illustrator 25.4.2, SVG Export Plug-In . SVG Version: 6.00 Build 0)  -->
<svg version="1.1" id="Capa_1" xmlns="http://www.w3.org/2000/svg" xmlns:xlink="http://www.w3.org/1999/xlink" x="0px" y="0px"
	 viewBox="0 0 50 50" style="enable-background:new 0 0 50 50;" xml:space="preserve">
<style type="text/css">
	.st0{opacity:0.5;fill:#FFFFFF;enable-background:new    ;}
</style>
<g id="Capa_1_00000106855749326036549140000018308998415981303200_">
	<path class="st0" d="M5.6,49.4h38.7c2.8,0,5-2.2,5-5V5.6c0-2.8-2.2-5-5-5H5.6c-2.8,0-5,2.2-5,5v38.7C0.6,47.1,2.9,49.4,5.6,49.4z"
		/>
</g>
<g id="Capa_2_00000040546708832197930810000010517503183828918159_">
</g>
<path d="M18,20.2c0.2-1.5,0.9-2.3,2.4-2.4c1.4,0.1,2.1,0.9,2.2,2.3c-0.1,1.5-0.8,2.3-2.3,2.4C18.8,22.4,18.1,21.7,18,20.2z"/>
<path d="M31.9,20.1c-0.1,1.5-0.8,2.3-2.3,2.4c-1.5-0.1-2.2-0.9-2.2-2.3c0-1.5,0.8-2.3,2.3-2.4C31.1,17.9,31.8,18.7,31.9,20.1z"/>
<path d="M30.5,24.7h1.3c-0.2,4.5-2.6,6.9-7,7.1c-4.2-0.3-6.5-2.6-6.8-7h1.3c1.3,3.3,3.2,4.8,5.6,4.7C27.6,29.7,29.5,28.1,30.5,24.7z
	"/>
<path d="M35.1,14.4c-2.8-2.8-6.2-4.3-10.2-4.3c-3.9,0-7.3,1.4-10.2,4.3c-2.8,2.8-4.3,6.3-4.3,10.3c0,3.9,1.4,7.3,4.3,10.2
	c2.8,2.8,6.2,4.2,10.2,4.2s7.4-1.4,10.2-4.2s4.3-6.2,4.3-10.2S37.9,17.3,35.1,14.4z M33,32.8c-2.2,2.3-4.9,3.4-8.1,3.4
	c-3.1,0-5.8-1.1-8.1-3.4c-2.3-2.3-3.4-5-3.4-8.1c0-3.2,1.1-6,3.4-8.2c2.3-2.3,5-3.4,8.1-3.4c3.2,0,5.9,1.1,8.1,3.4
	c2.3,2.3,3.4,5,3.4,8.2C36.4,27.8,35.3,30.5,33,32.8z"/>
<path d="M18,20.2c0.2-1.5,0.9-2.3,2.4-2.4c1.4,0.1,2.1,0.9,2.2,2.3c-0.1,1.5-0.8,2.3-2.3,2.4C18.8,22.4,18.1,21.7,18,20.2z"/>
<path d="M27.4,20.2c0-1.5,0.8-2.3,2.3-2.4c1.4,0.1,2.1,0.9,2.2,2.3c-0.1,1.5-0.8,2.3-2.3,2.4C28.1,22.4,27.4,21.7,27.4,20.2z"/>
<path d="M30.5,24.7h1.3c-0.2,4.5-2.6,6.9-7,7.1c-4.2-0.3-6.5-2.6-6.8-7h1.3c1.3,3.3,3.2,4.8,5.6,4.7C27.6,29.7,29.5,28.1,30.5,24.7z
	"/>
<path d="M31.8,24.7c-0.2,4.5-2.6,6.9-7,7.1c-4.2-0.3-6.5-2.6-6.8-7h1.3c1.3,3.3,3.2,4.8,5.6,4.7c2.7,0.1,4.6-1.5,5.6-4.8H31.8z"/>
<path d="M31.9,20.1c-0.1,1.5-0.8,2.3-2.3,2.4c-1.5-0.1-2.2-0.9-2.2-2.3c0-1.5,0.8-2.3,2.3-2.4C31.1,17.9,31.8,18.7,31.9,20.1z"/>
<path d="M22.6,20.1c-0.1,1.5-0.8,2.3-2.3,2.4c-1.5-0.1-2.2-0.9-2.3-2.3c0.2-1.5,0.9-2.3,2.4-2.4C21.8,17.9,22.5,18.7,22.6,20.1z"/>
</svg>
