<?xml version="1.0" encoding="utf-8"?>
<!-- Generator: Adobe Illustrator 25.4.2, SVG Export Plug-In . SVG Version: 6.00 Build 0)  -->
<svg version="1.1" id="Capa_1" xmlns="http://www.w3.org/2000/svg" xmlns:xlink="http://www.w3.org/1999/xlink" x="0px" y="0px"
	 viewBox="0 0 50 50" style="enable-background:new 0 0 50 50;" xml:space="preserve">
<style type="text/css">
	.st0{opacity:0.5;fill:#FFFFFF;enable-background:new    ;}
</style>
<g id="Capa_1_00000106855749326036549140000018308998415981303200_">
	<path class="st0" d="M5.6,49.4h38.7c2.8,0,5-2.2,5-5V5.6c0-2.8-2.2-5-5-5H5.6c-2.8,0-5,2.2-5,5v38.7C0.6,47.1,2.9,49.4,5.6,49.4z"
		/>
</g>
<g id="Capa_2_00000040546708832197930810000010517503183828918159_">
</g>
<path d="M30.4,30.8c-1.6-1.5-3.4-2.2-5.3-2.2c-2.1,0-3.8,0.7-5.3,2.1l-0.1,0.1c-1.4,1.4-2,3.2-2,5.3c0,2,0.7,3.7,2.1,5.2
	c1.5,1.6,3.3,2.4,5.3,2.4s3.8-0.8,5.3-2.4c1.5-1.5,2.2-3.2,2.2-5.2C32.7,34,31.9,32.3,30.4,30.8"/>
<path d="M24.9,25.5c0.1,0,0.1,0,0.2,0s0.2,0,0.3,0L37.6,13c0.1-0.1,0.1-0.1,0.1-0.2c0-0.1,0-0.1-0.1-0.2h-5.9V5.7
	c0-0.1,0-0.1-0.1-0.1c-0.1-0.1-0.2-0.2-0.3-0.2H18.8c-0.1,0-0.1,0.1-0.1,0.2c-0.1,0-0.1,0-0.1,0.1v6.8h-5.9c-0.1,0-0.2,0-0.3,0
	c0,0.1,0,0.1,0,0.2c0,0.1,0,0.1,0,0.2L24.9,25.5"/>
<path d="M20.9,15c0.1,0,0.1,0,0.2,0c0.1-0.1,0.1-0.1,0.1-0.2V8.1h7.6v6.7c0,0.1,0,0.1,0.1,0.2h2.8l-6.6,6.7L18.3,15H20.9"/>
</svg>
