<?xml version="1.0" encoding="utf-8"?>
<!-- Generator: Adobe Illustrator 25.4.2, SVG Export Plug-In . SVG Version: 6.00 Build 0)  -->
<svg version="1.1" id="Capa_1" xmlns="http://www.w3.org/2000/svg" xmlns:xlink="http://www.w3.org/1999/xlink" x="0px" y="0px"
	 viewBox="0 0 50 50" style="enable-background:new 0 0 50 50;" xml:space="preserve">
<style type="text/css">
	.st0{opacity:0.5;fill:#FFFFFF;enable-background:new    ;}
</style>
<g id="Capa_1_00000106855749326036549140000018308998415981303200_">
	<path class="st0" d="M5.6,49.4h38.7c2.8,0,5-2.2,5-5V5.6c0-2.8-2.2-5-5-5H5.6c-2.8,0-5,2.2-5,5v38.7C0.6,47.1,2.9,49.4,5.6,49.4z"
		/>
</g>
<g id="Capa_2_00000040546708832197930810000010517503183828918159_">
</g>
<path d="M25.4,24.6c2,0,3.7,0.4,5.1,1.2V22c-1.4-0.5-3.1-0.8-5-0.8c-3,0-5.4,0.9-7.3,2.7c-1.8,1.8-2.7,4.1-2.7,6.9s0.8,4.9,2.5,6.6
	c1.7,1.6,3.9,2.3,6.8,2.3c2.7,0,4.8-0.5,6.6-1.5v-9h-7.6v3.3h3.6V36c-0.5,0.3-1.3,0.4-2.3,0.4c-1.6,0-2.9-0.5-3.8-1.5
	c-1-1-1.5-2.5-1.5-4.3s0.5-3.3,1.6-4.4C22.4,25.2,23.7,24.6,25.4,24.6"/>
<path d="M20.6,14.7c0.5-0.5,0.8-1.1,0.8-1.9c0-0.7-0.3-1.3-0.9-1.8s-1.2-0.8-1.9-0.8c-0.8,0-1.4,0.2-1.9,0.7s-0.8,1.1-0.8,1.9
	c0,0.7,0.3,1.4,0.8,1.9c0.6,0.5,1.2,0.8,2,0.8C19.4,15.5,20,15.2,20.6,14.7"/>
<path d="M30,14.7c0.5-0.5,0.8-1.1,0.8-1.9c0-0.7-0.3-1.3-0.9-1.8c-0.5-0.5-1.2-0.8-2-0.8c-0.7,0-1.4,0.2-1.9,0.7s-0.8,1.1-0.8,1.9
	c0,0.8,0.3,1.4,0.9,1.9c0.5,0.5,1.1,0.8,1.9,0.8C28.8,15.5,29.5,15.2,30,14.7"/>
</svg>
