<?xml version="1.0" encoding="utf-8"?>
<!-- Generator: Adobe Illustrator 25.4.2, SVG Export Plug-In . SVG Version: 6.00 Build 0)  -->
<svg version="1.1" id="Capa_1" xmlns="http://www.w3.org/2000/svg" xmlns:xlink="http://www.w3.org/1999/xlink" x="0px" y="0px"
	 viewBox="0 0 50 50" style="enable-background:new 0 0 50 50;" xml:space="preserve">
<style type="text/css">
	.st0{opacity:0.5;fill:#FFFFFF;enable-background:new    ;}
</style>
<g id="Capa_1_00000106855749326036549140000018308998415981303200_">
	<path class="st0" d="M5.6,49.4h38.7c2.8,0,5-2.2,5-5V5.6c0-2.8-2.2-5-5-5H5.6c-2.8,0-5,2.2-5,5v38.7C0.6,47.1,2.9,49.4,5.6,49.4z"
		/>
</g>
<g id="Capa_2_00000040546708832197930810000010517503183828918159_">
</g>
<polyline points="22.3,26.4 14.4,26.4 14.4,28.2 22.3,28.2 22.3,26.4 "/>
<polyline points="22.3,22.6 14.4,22.6 14.4,24.5 22.3,24.5 22.3,22.6 "/>
<polyline points="11.7,24.8 4.1,20.8 4.1,22.9 9.5,25.5 9.5,25.6 4.1,27.8 4.1,30 11.7,26.1 11.7,24.8 "/>
<polyline points="39.2,20.4 38.4,22.3 43.6,24.8 38.4,27.3 39.2,29.2 45.8,25.9 45.8,23.7 39.2,20.4 "/>
<polyline points="31.5,20.4 30.6,22.3 35.8,24.8 30.6,27.3 31.5,29.2 38,25.9 38,23.7 31.5,20.4 "/>
</svg>
