<?xml version="1.0" encoding="utf-8"?>
<!-- Generator: Adobe Illustrator 25.4.2, SVG Export Plug-In . SVG Version: 6.00 Build 0)  -->
<svg version="1.1" id="Capa_1" xmlns="http://www.w3.org/2000/svg" xmlns:xlink="http://www.w3.org/1999/xlink" x="0px" y="0px"
	 viewBox="0 0 50 50" style="enable-background:new 0 0 50 50;" xml:space="preserve">
<style type="text/css">
	.st0{opacity:0.5;fill:#FFFFFF;enable-background:new    ;}
</style>
<g id="Capa_1_00000106855749326036549140000018308998415981303200_">
	<path class="st0" d="M5.6,49.4h38.7c2.8,0,5-2.2,5-5V5.6c0-2.8-2.2-5-5-5H5.6c-2.8,0-5,2.2-5,5v38.7C0.6,47.1,2.9,49.4,5.6,49.4z"
		/>
</g>
<g id="Capa_2_00000040546708832197930810000010517503183828918159_">
</g>
<path d="M24.6,24v0.5l12.1,11.8c0.1,0.1,0.1,0.1,0.2,0.1c0.1,0,0.1,0,0.2-0.1v-5.7h6.6c0.1,0,0.1,0,0.1-0.1c0.1-0.1,0.2-0.2,0.2-0.3
	V18.1c0-0.1-0.1-0.1-0.2-0.1c0-0.1,0-0.1-0.1-0.1h-6.6v-6h-0.4L24.6,24z M34.7,20.4c0.1,0.1,0.1,0.1,0.2,0.1h6.5v7.3h-6.5
	c-0.1,0-0.1,0-0.2,0.1v2.7l-6.5-6.4l6.5-6.5C34.7,17.7,34.7,20.4,34.7,20.4z"/>
<path d="M9.3,19C7.8,20.4,7,22.2,7,24.2c0,1.9,0.7,3.6,2.3,5.2c1.4,1.4,3.1,2.2,5.1,2.2c2.1,0,3.8-0.7,5.2-2.2
	c1.4-1.5,2.2-3.2,2.2-5.2s-0.7-3.7-2.1-5.2l-0.1-0.1c-1.4-1.3-3.1-2-5.2-2C12.4,17,10.7,17.7,9.3,19z M17.4,21.1
	c0.8,0.8,1.2,1.9,1.2,3.1s-0.4,2.3-1.2,3.1c-0.9,0.9-1.9,1.3-3.1,1.3c-1.2,0-2.2-0.5-2.9-1.3l-0.2-0.2c-0.8-0.8-1.1-1.8-1.1-2.9
	c0-1.2,0.4-2.3,1.1-3.1c0.8-0.8,1.9-1.1,3.1-1.1C15.5,20,16.5,20.3,17.4,21.1z"/>
</svg>
