<?xml version="1.0" encoding="utf-8"?>
<!-- Generator: Adobe Illustrator 25.4.2, SVG Export Plug-In . SVG Version: 6.00 Build 0)  -->
<svg version="1.1" id="Capa_1" xmlns="http://www.w3.org/2000/svg" xmlns:xlink="http://www.w3.org/1999/xlink" x="0px" y="0px"
	 viewBox="0 0 50 50" style="enable-background:new 0 0 50 50;" xml:space="preserve">
<style type="text/css">
	.st0{opacity:0.5;fill:#FFFFFF;enable-background:new    ;}
</style>
<g id="Capa_1_00000106855749326036549140000018308998415981303200_">
	<path class="st0" d="M5.6,49.4h38.7c2.8,0,5-2.2,5-5V5.6c0-2.8-2.2-5-5-5H5.6c-2.8,0-5,2.2-5,5v38.7C0.6,47.1,2.9,49.4,5.6,49.4z"
		/>
</g>
<g id="Capa_2_00000040546708832197930810000010517503183828918159_">
</g>
<path d="M25.6,23.2h-0.5L13.3,35.3c-0.1,0.1-0.1,0.1-0.1,0.2c0,0.1,0,0.1,0.1,0.2H19v6.6c0,0.1,0,0.1,0.1,0.1
	c0.1,0.1,0.2,0.2,0.3,0.2h12.1c0.1,0,0.1-0.1,0.1-0.2c0.1,0,0.1,0,0.1-0.1v-6.6h6v-0.4L25.6,23.2z M29.2,33.3
	c-0.1,0.1-0.1,0.1-0.1,0.2V40h-7.3v-6.5c0-0.1,0-0.1-0.1-0.2H19l6.4-6.5l6.5,6.5C32,33.3,29.2,33.3,29.2,33.3z"/>
<path d="M30.6,7.9c-1.4-1.5-3.2-2.3-5.2-2.3c-1.9,0-3.6,0.7-5.2,2.3C18.8,9.4,18,11,18,13c0,2.1,0.7,3.8,2.2,5.2
	c1.5,1.4,3.2,2.2,5.2,2.2s3.7-0.7,5.2-2.1l0.1-0.1c1.3-1.4,2-3.1,2-5.2C32.6,11.1,32,9.4,30.6,7.9z M28.5,16.1
	c-0.8,0.8-1.9,1.2-3.1,1.2s-2.3-0.4-3.1-1.2C21.5,15.2,21,14.2,21,13c0-1.2,0.5-2.2,1.3-2.9l0.2-0.2c0.8-0.8,1.8-1.1,2.9-1.1
	c1.2,0,2.3,0.4,3.1,1.1c0.8,0.8,1.1,1.9,1.1,3.1C29.6,14.2,29.3,15.2,28.5,16.1z"/>
</svg>
