<?xml version="1.0" encoding="utf-8"?>
<!-- Generator: Adobe Illustrator 25.4.2, SVG Export Plug-In . SVG Version: 6.00 Build 0)  -->
<svg version="1.1" id="Capa_1" xmlns="http://www.w3.org/2000/svg" xmlns:xlink="http://www.w3.org/1999/xlink" x="0px" y="0px"
	 viewBox="0 0 50 50" style="enable-background:new 0 0 50 50;" xml:space="preserve">
<style type="text/css">
	.st0{opacity:0.5;fill:#FFFFFF;enable-background:new    ;}
	.st1{fill:#020203;}
</style>
<g id="Capa_1_00000106855749326036549140000018308998415981303200_">
	<path class="st0" d="M5.6,49.4h38.7c2.8,0,5-2.2,5-5V5.6c0-2.8-2.2-5-5-5H5.6c-2.8,0-5,2.2-5,5v38.7C0.6,47.1,2.9,49.4,5.6,49.4z"
		/>
</g>
<g id="Capa_2_00000040546708832197930810000010517503183828918159_">
</g>
<path class="st1" d="M13.6,37.5h5.6V22.7c0-3.9,1.6-5.8,4.7-5.8c3.2,0,4.8,2,4.8,6v14.6h5.7V23c0-7.4-3.4-11.1-10.3-11.1
	c-7,0-10.5,3.8-10.5,11.3L13.6,37.5"/>
</svg>
