<?xml version="1.0" encoding="utf-8"?>
<!-- Generator: Adobe Illustrator 25.4.2, SVG Export Plug-In . SVG Version: 6.00 Build 0)  -->
<svg version="1.1" id="Capa_1" xmlns="http://www.w3.org/2000/svg" xmlns:xlink="http://www.w3.org/1999/xlink" x="0px" y="0px"
	 viewBox="0 0 50 50" style="enable-background:new 0 0 50 50;" xml:space="preserve">
<style type="text/css">
	.st0{opacity:0.5;fill:#FFFFFF;enable-background:new    ;}
</style>
<g id="Capa_1_00000106855749326036549140000018308998415981303200_">
	<path class="st0" d="M5.6,49.4h38.7c2.8,0,5-2.2,5-5V5.6c0-2.8-2.2-5-5-5H5.6c-2.8,0-5,2.2-5,5v38.7C0.6,47.1,2.9,49.4,5.6,49.4z"
		/>
</g>
<g id="Capa_2_00000040546708832197930810000010517503183828918159_">
</g>
<path d="M28.3,27c-0.7-0.6-1.5-0.9-2.3-0.9h-2c-0.9,0-1.7,0.3-2.3,0.9c-0.6,0.6-0.9,1.4-0.9,2.2v3.2c0,0.9,0.3,1.6,0.9,2.2
	c0.6,0.6,1.4,0.9,2.3,0.9h2c0.9,0,1.7-0.3,2.3-0.9c0.6-0.6,0.9-1.4,0.9-2.2v-3.2C29.2,28.4,28.9,27.6,28.3,27z M26.3,32.5
	c0,0.1,0,0.1-0.1,0.2s-0.1,0.1-0.2,0.1h-2c-0.1,0-0.1,0-0.2-0.1s-0.1-0.1-0.1-0.2v-3.2c0-0.1,0-0.1,0.1-0.2S23.9,29,24,29h2
	c0.1,0,0.1,0,0.2,0.1s0.1,0.1,0.1,0.2V32.5z M28.3,27c-0.7-0.6-1.5-0.9-2.3-0.9h-2c-0.9,0-1.7,0.3-2.3,0.9c-0.6,0.6-0.9,1.4-0.9,2.2
	v3.2c0,0.9,0.3,1.6,0.9,2.2c0.6,0.6,1.4,0.9,2.3,0.9h2c0.9,0,1.7-0.3,2.3-0.9c0.6-0.6,0.9-1.4,0.9-2.2v-3.2
	C29.2,28.4,28.9,27.6,28.3,27z M26.3,32.5c0,0.1,0,0.1-0.1,0.2s-0.1,0.1-0.2,0.1h-2c-0.1,0-0.1,0-0.2-0.1s-0.1-0.1-0.1-0.2v-3.2
	c0-0.1,0-0.1,0.1-0.2S23.9,29,24,29h2c0.1,0,0.1,0,0.2,0.1s0.1,0.1,0.1,0.2V32.5z M37.8,23.9c-0.8-0.9-1.8-1.4-3-1.6v-4
	c0-1.3-0.2-2.5-0.7-3.6c-0.5-1.2-1.3-2.2-2.1-3c-0.9-0.9-2-1.6-3.1-2C27.7,9.2,26.4,9,25.1,9s-2.6,0.2-3.8,0.7
	c-1.3,0.3-2.4,1-3.3,1.9c-0.9,0.9-1.7,1.9-2.1,3c-0.5,1.2-0.8,2.4-0.8,3.6v4C14,22.5,13,23,12.2,23.9s-1.2,2-1.2,3.2v8.8
	c0,0.7,0.1,1.3,0.4,1.9c0.3,0.6,0.6,1.2,1.1,1.6c0.5,0.5,1,0.8,1.7,1.1c0.6,0.3,1.3,0.4,2,0.4h17.6c0.7,0,1.4-0.1,2-0.4
	c0.7-0.3,1.3-0.6,1.7-1.1c0.5-0.5,0.8-1,1.1-1.6s0.4-1.3,0.4-1.9v-8.8C39,25.9,38.6,24.8,37.8,23.9z M18.1,18.2
	c0-0.9,0.2-1.7,0.5-2.5c0.3-0.8,0.8-1.5,1.5-2.1c0.6-0.6,1.3-1.1,2.1-1.4c0.9-0.3,1.8-0.5,2.7-0.5s1.8,0.2,2.6,0.5
	c0.9,0.3,1.6,0.8,2.2,1.4c0.6,0.6,1.1,1.3,1.5,2.1c0.3,0.8,0.5,1.7,0.5,2.5v3.9H18.1V18.2z M36,35.9c0,0.6-0.2,1.1-0.6,1.5
	c-0.5,0.4-1,0.6-1.6,0.6H16.2c-0.6,0-1.2-0.2-1.6-0.6C14.2,37,14,36.5,14,35.9v-8.8c0-0.6,0.2-1.1,0.6-1.5c0.5-0.4,1-0.6,1.6-0.6
	h17.6c0.6,0,1.2,0.2,1.6,0.6c0.4,0.4,0.6,0.9,0.6,1.5V35.9z M26,26.1h-2c-0.9,0-1.7,0.3-2.3,0.9c-0.6,0.6-0.9,1.4-0.9,2.2v3.2
	c0,0.9,0.3,1.6,0.9,2.2c0.6,0.6,1.4,0.9,2.3,0.9h2c0.9,0,1.7-0.3,2.3-0.9c0.6-0.6,0.9-1.4,0.9-2.2v-3.2c0-0.9-0.3-1.6-0.9-2.2
	C27.7,26.4,26.9,26.1,26,26.1z M26.3,32.5c0,0.1,0,0.1-0.1,0.2s-0.1,0.1-0.2,0.1h-2c-0.1,0-0.1,0-0.2-0.1s-0.1-0.1-0.1-0.2v-3.2
	c0-0.1,0-0.1,0.1-0.2S23.9,29,24,29h2c0.1,0,0.1,0,0.2,0.1s0.1,0.1,0.1,0.2V32.5z"/>
<path d="M28.3,27c-0.7-0.6-1.5-0.9-2.3-0.9h-2c-0.9,0-1.7,0.3-2.3,0.9c-0.6,0.6-0.9,1.4-0.9,2.2v3.2c0,0.9,0.3,1.6,0.9,2.2
	c0.6,0.6,1.4,0.9,2.3,0.9h2c0.9,0,1.7-0.3,2.3-0.9c0.6-0.6,0.9-1.4,0.9-2.2v-3.2C29.2,28.4,28.9,27.6,28.3,27z M26.3,32.5
	c0,0.1,0,0.1-0.1,0.2s-0.1,0.1-0.2,0.1h-2c-0.1,0-0.1,0-0.2-0.1s-0.1-0.1-0.1-0.2v-3.2c0-0.1,0-0.1,0.1-0.2S23.9,29,24,29h2
	c0.1,0,0.1,0,0.2,0.1s0.1,0.1,0.1,0.2V32.5z"/>
<path d="M28.3,27c-0.7-0.6-1.5-0.9-2.3-0.9h-2c-0.9,0-1.7,0.3-2.3,0.9c-0.6,0.6-0.9,1.4-0.9,2.2v3.2c0,0.9,0.3,1.6,0.9,2.2
	c0.6,0.6,1.4,0.9,2.3,0.9h2c0.9,0,1.7-0.3,2.3-0.9c0.6-0.6,0.9-1.4,0.9-2.2v-3.2C29.2,28.4,28.9,27.6,28.3,27z M26.3,32.5
	c0,0.1,0,0.1-0.1,0.2s-0.1,0.1-0.2,0.1h-2c-0.1,0-0.1,0-0.2-0.1s-0.1-0.1-0.1-0.2v-3.2c0-0.1,0-0.1,0.1-0.2S23.9,29,24,29h2
	c0.1,0,0.1,0,0.2,0.1s0.1,0.1,0.1,0.2V32.5z"/>
</svg>
