<?xml version="1.0" encoding="utf-8"?>
<!-- Generator: Adobe Illustrator 25.4.2, SVG Export Plug-In . SVG Version: 6.00 Build 0)  -->
<svg version="1.1" id="Capa_1" xmlns="http://www.w3.org/2000/svg" xmlns:xlink="http://www.w3.org/1999/xlink" x="0px" y="0px"
	 viewBox="0 0 50 50" style="enable-background:new 0 0 50 50;" xml:space="preserve">
<style type="text/css">
	.st0{opacity:0.5;fill:#FFFFFF;enable-background:new    ;}
</style>
<g id="Capa_1_00000106855749326036549140000018308998415981303200_">
	<path class="st0" d="M5.6,49.4h38.7c2.8,0,5-2.2,5-5V5.6c0-2.8-2.2-5-5-5H5.6c-2.8,0-5,2.2-5,5v38.7C0.6,47.1,2.9,49.4,5.6,49.4z"
		/>
</g>
<g id="Capa_2_00000040546708832197930810000010517503183828918159_">
</g>
<path d="M38.1,20.2c-0.8-0.9-1.9-1.5-3.1-1.7v-1.2c0-1.2-0.2-2.5-0.7-3.7s-1.2-2.2-2.2-3.1c-1-0.8-2-1.5-3.2-2.1
	c-1.2-0.5-2.5-0.7-3.9-0.7s-2.7,0.2-3.9,0.7c-1.2,0.6-2.2,1.2-3.2,2.1c-0.9,0.9-1.6,1.9-2.2,3.1c-0.6,1.2-0.8,2.5-0.8,3.7v1.2
	c-1.2,0.3-2.1,0.9-2.9,1.7c-0.9,0.9-1.3,2-1.3,3.2v11.3c0,0.6,0.1,1.2,0.4,1.9s0.7,1.2,1.2,1.6c0.4,0.4,1,0.8,1.6,1.1s1.3,0.4,2,0.4
	h18.8c0.4-0.1,0.8-0.2,1.2-0.3l0.1-0.1c0.6-0.3,1.1-0.7,1.6-1.1c0.5-0.5,0.9-1,1.1-1.6s0.4-1.2,0.4-1.9V23.3
	C39.3,22.1,38.9,21,38.1,20.2z M18,17.2c0-0.9,0.2-1.7,0.6-2.6c0.3-0.8,0.8-1.5,1.4-2.2c0.7-0.6,1.4-1.1,2.2-1.3
	c0.9-0.4,1.8-0.6,2.8-0.6s1.9,0.2,2.8,0.6c0.8,0.3,1.5,0.7,2.2,1.3c0.6,0.7,1.1,1.4,1.5,2.2c0.3,0.8,0.5,1.7,0.5,2.6v1.1H18V17.2z
	 M36.3,34.6c0,0.6-0.2,1-0.7,1.4c-0.3,0.2-0.6,0.4-0.8,0.5s-0.6,0.2-0.8,0.2H16c-0.6,0-1.1-0.2-1.5-0.7c-0.5-0.4-0.7-0.9-0.7-1.4
	V23.3c0-0.6,0.2-1,0.7-1.4c0.5-0.5,1-0.7,1.5-0.7h18c0.6,0,1.2,0.2,1.6,0.7c0.5,0.4,0.7,0.9,0.7,1.4V34.6z M29.7,26.2l-4,1.5
	l0.5-4.6h-2.7l0.3,4.6l-4-1.5l-0.7,2.5l4.2,0.7l-3,3.6l2.4,1.4l2.3-3.9l2.4,3.9l2.2-1.4l-3-3.6l4.2-0.7L29.7,26.2z"/>
<polygon points="26.4,29.4 29.4,33 27.3,34.4 24.9,30.5 22.6,34.4 20.3,33 23.4,29.4 19.1,28.7 19.9,26.2 23.9,27.8 23.6,23.1 
	26.2,23.1 25.7,27.8 29.7,26.2 30.7,28.7 "/>
<polygon points="26.4,29.4 29.4,33 27.3,34.4 24.9,30.5 22.6,34.4 20.3,33 23.4,29.4 19.1,28.7 19.9,26.2 23.9,27.8 23.6,23.1 
	26.2,23.1 25.7,27.8 29.7,26.2 30.7,28.7 "/>
</svg>
