<?xml version="1.0" encoding="utf-8"?>
<!-- Generator: Adobe Illustrator 25.4.2, SVG Export Plug-In . SVG Version: 6.00 Build 0)  -->
<svg version="1.1" id="Capa_1" xmlns="http://www.w3.org/2000/svg" xmlns:xlink="http://www.w3.org/1999/xlink" x="0px" y="0px"
	 viewBox="0 0 50 50" style="enable-background:new 0 0 50 50;" xml:space="preserve">
<style type="text/css">
	.st0{opacity:0.5;fill:#FFFFFF;enable-background:new    ;}
	.st1{fill:#020203;}
</style>
<g id="Capa_1_00000106855749326036549140000018308998415981303200_">
	<path class="st0" d="M5.6,49.4h38.7c2.8,0,5-2.2,5-5V5.6c0-2.8-2.2-5-5-5H5.6c-2.8,0-5,2.2-5,5v38.7C0.6,47.1,2.9,49.4,5.6,49.4z"
		/>
</g>
<g id="Capa_2_00000040546708832197930810000010517503183828918159_">
</g>
<path class="st1" d="M23.3,14.3C22.8,14.1,22.4,14,22,14s-0.8,0.1-1.2,0.3c-0.3,0.2-0.6,0.5-0.7,0.9l-4,11.3H10
	c-0.1,0-0.2,0-0.2,0.1c-0.1,0-0.2,0-0.2,0.1v2.9c0,0.1,0.1,0.1,0.2,0.2c0,0.1,0.1,0.1,0.2,0.1h7.6c0.5,0,0.9-0.1,1.2-0.4
	c0.4-0.2,0.7-0.5,0.8-0.8l2.5-7.1l5.7,14.8h0.1c0.1,0.3,0.4,0.6,0.7,0.9c0.3,0.2,0.7,0.3,1.2,0.3s0.9-0.1,1.2-0.3s0.6-0.5,0.8-0.8
	h-0.1l3.3-8.1h5.2c0.1,0,0.2,0,0.3-0.1c0-0.1,0-0.1,0-0.2v-3C40.4,25,40.3,25,40.2,25h-6.6c-0.5,0-0.8,0.1-1.1,0.3
	c-0.4,0.2-0.7,0.5-0.8,0.9L30,30.5l-6-15.4C23.8,14.7,23.6,14.5,23.3,14.3"/>
</svg>
