<?xml version="1.0" encoding="utf-8"?>
<!-- Generator: Adobe Illustrator 25.4.2, SVG Export Plug-In . SVG Version: 6.00 Build 0)  -->
<svg version="1.1" id="Capa_1" xmlns="http://www.w3.org/2000/svg" xmlns:xlink="http://www.w3.org/1999/xlink" x="0px" y="0px"
	 viewBox="0 0 50 50" style="enable-background:new 0 0 50 50;" xml:space="preserve">
<style type="text/css">
	.st0{opacity:0.5;fill:#FFFFFF;enable-background:new    ;}
</style>
<g id="Capa_1_00000106855749326036549140000018308998415981303200_">
	<path class="st0" d="M5.6,49.4h38.7c2.8,0,5-2.2,5-5V5.6c0-2.8-2.2-5-5-5H5.6c-2.8,0-5,2.2-5,5v38.7C0.6,47.1,2.9,49.4,5.6,49.4z"
		/>
</g>
<g id="Capa_2_00000040546708832197930810000010517503183828918159_">
</g>
<path d="M24.6,25.8c0.2-0.3,0.3-0.5,0.3-0.9s-0.1-0.7-0.4-1l-8-7.8c-0.3-0.3-0.5-0.4-0.9-0.4s-0.7,0.1-0.9,0.4
	c-0.3,0.3-0.4,0.5-0.4,0.9l0.2,16c0,0.3,0.1,0.6,0.4,0.9c0.3,0.3,0.5,0.4,0.9,0.4s0.7-0.1,0.9-0.4L24.6,25.8"/>
<path d="M27.9,16.2c-0.3-0.3-0.6-0.4-1-0.4c-0.3,0-0.6,0.1-0.9,0.4s-0.4,0.5-0.3,0.9V33c0,0.3,0.1,0.6,0.4,0.9
	c0.3,0.3,0.6,0.4,1,0.4c0.3,0,0.6-0.1,0.9-0.4l7.9-8.1c0.3-0.3,0.4-0.5,0.4-0.9s-0.1-0.7-0.4-1L27.9,16.2"/>
</svg>
