<?xml version="1.0" encoding="utf-8"?>
<!-- Generator: Adobe Illustrator 25.4.2, SVG Export Plug-In . SVG Version: 6.00 Build 0)  -->
<svg version="1.1" id="Capa_1" xmlns="http://www.w3.org/2000/svg" xmlns:xlink="http://www.w3.org/1999/xlink" x="0px" y="0px"
	 viewBox="0 0 50 50" style="enable-background:new 0 0 50 50;" xml:space="preserve">
<style type="text/css">
	.st0{opacity:0.5;fill:#FFFFFF;enable-background:new    ;}
</style>
<g id="Capa_1_00000106855749326036549140000018308998415981303200_">
	<path class="st0" d="M5.6,49.4h38.7c2.8,0,5-2.2,5-5V5.6c0-2.8-2.2-5-5-5H5.6c-2.8,0-5,2.2-5,5v38.7C0.6,47.1,2.9,49.4,5.6,49.4z"
		/>
</g>
<g id="Capa_2_00000040546708832197930810000010517503183828918159_">
</g>
<path d="M26.3,11.8c-0.5-0.5-1.1-0.8-1.8-0.8c-0.8,0-1.4,0.3-1.9,0.8s-0.8,1.2-0.8,1.9v11c0,0.8,0.3,1.4,0.8,1.9s1.2,0.8,1.9,0.8
	c0.7,0,1.3-0.3,1.8-0.8s0.8-1.2,0.8-1.9v-11C27.1,13,26.8,12.3,26.3,11.8"/>
<path d="M18.1,17.7c0.4-0.4,0.6-0.8,0.8-1.4v-0.1c0-0.5-0.2-1-0.5-1.5v-0.1c-0.5-0.4-0.9-0.6-1.5-0.7c-0.6-0.1-1.1,0.1-1.6,0.5
	c-1.7,1.4-3.1,3.1-4.1,5.1s-1.5,4.1-1.5,6.3c0,4.1,1.4,7.5,4.3,10.3c2.9,2.9,6.3,4.3,10.4,4.3c4,0,7.4-1.4,10.3-4.3
	c2.9-2.8,4.3-6.2,4.3-10.3c0-2.2-0.5-4.3-1.5-6.3s-2.4-3.7-4.2-5.1C33,14,32.5,13.9,32,13.9c-0.6,0.1-1.1,0.3-1.5,0.7v0.1
	c-0.4,0.5-0.5,0.9-0.5,1.5v0.1c0.1,0.5,0.3,1,0.8,1.4c2.6,2,4,4.7,4,8.1c0,2.9-1,5.3-3.1,7.4s-4.4,3.1-7.2,3.1c-2.9,0-5.4-1-7.5-3.1
	c-2-2-2.9-4.5-2.9-7.4c0-3.4,1.3-6.1,3.8-8.1H18.1"/>
</svg>
