<?xml version="1.0" encoding="utf-8"?>
<!-- Generator: Adobe Illustrator 25.4.2, SVG Export Plug-In . SVG Version: 6.00 Build 0)  -->
<svg version="1.1" id="Capa_1" xmlns="http://www.w3.org/2000/svg" xmlns:xlink="http://www.w3.org/1999/xlink" x="0px" y="0px"
	 viewBox="0 0 50 50" style="enable-background:new 0 0 50 50;" xml:space="preserve">
<style type="text/css">
	.st0{opacity:0.5;fill:#FFFFFF;enable-background:new    ;}
</style>
<g id="Capa_1_00000106855749326036549140000018308998415981303200_">
	<path class="st0" d="M5.6,49.4h38.7c2.8,0,5-2.2,5-5V5.6c0-2.8-2.2-5-5-5H5.6c-2.8,0-5,2.2-5,5v38.7C0.6,47.1,2.9,49.4,5.6,49.4z"
		/>
</g>
<g id="Capa_2_00000040546708832197930810000010517503183828918159_">
</g>
<path d="M24.4,18.1c-1.5-1.5-3.4-2.3-5.8-2.3c-2.5,0-4.5,0.8-5.9,2.4c-1.6,1.6-2.4,3.8-2.4,6.4c0,2.5,0.8,4.6,2.3,6.1
	c1.5,1.6,3.4,2.4,5.8,2.4s4.4-0.8,5.9-2.5c1.5-1.6,2.3-3.7,2.3-6.3C26.5,21.7,25.8,19.7,24.4,18.1z M21.4,28.3
	c-0.8,0.9-1.7,1.3-3,1.3s-2.3-0.5-3.1-1.4c-0.8-0.9-1.1-2.3-1.1-3.9s0.4-2.9,1.1-3.9c0.8-0.9,1.8-1.4,3.1-1.4s2.3,0.5,3.1,1.4
	c0.7,1,1,2.3,1,4S22.2,27.4,21.4,28.3z"/>
<path d="M39.1,19.8v-3.4c-0.5-0.2-1.2-0.4-1.8-0.5s-1.4-0.1-2.3-0.1c-0.9,0-1.7,0.1-2.5,0.2c-0.8,0.2-1.5,0.5-2.2,0.9
	c-0.5,0.4-1,0.9-1.4,1.5c-0.3,0.6-0.5,1.4-0.5,2.3c0,1.1,0.3,2,1,2.8c0.6,0.8,1.6,1.5,2.9,1.9l2.6,1.2c0.3,0.3,0.6,0.5,0.7,0.7
	c0.2,0.3,0.3,0.6,0.3,0.9c0,0.2-0.1,0.4-0.2,0.6c-0.1,0.2-0.2,0.4-0.5,0.6c-0.2,0.1-0.5,0.2-0.8,0.3c-0.4,0.1-0.8,0.1-1.2,0.1
	c-0.8,0-1.6-0.1-2.5-0.4c-0.8-0.3-1.5-0.7-2.2-1.2V32c0.6,0.3,1.3,0.5,2.2,0.7c0.8,0.1,1.7,0.2,2.6,0.2c0.9,0,1.7-0.1,2.6-0.3
	c0.8-0.1,1.5-0.4,2.1-0.8c0.6-0.4,1.1-0.9,1.4-1.5c0.3-0.6,0.5-1.4,0.5-2.3c0-0.7-0.1-1.3-0.3-1.8c-0.1-0.5-0.4-0.9-0.8-1.3
	c-0.4-0.4-0.9-0.8-1.3-1l-3.1-1.4l-1-0.6c-0.3-0.2-0.5-0.4-0.6-0.6s-0.2-0.4-0.2-0.7c0-0.3,0.1-0.5,0.2-0.7c0.1-0.2,0.3-0.4,0.5-0.5
	c0.3-0.1,0.6-0.3,0.9-0.4l1.1-0.1l2.1,0.3L39.1,19.8L39.1,19.8z"/>
</svg>
