<?xml version="1.0" encoding="utf-8"?>
<!-- Generator: Adobe Illustrator 25.4.2, SVG Export Plug-In . SVG Version: 6.00 Build 0)  -->
<svg version="1.1" id="Capa_1" xmlns="http://www.w3.org/2000/svg" xmlns:xlink="http://www.w3.org/1999/xlink" x="0px" y="0px"
	 viewBox="0 0 50 50" style="enable-background:new 0 0 50 50;" xml:space="preserve">
<style type="text/css">
	.st0{opacity:0.5;fill:#FFFFFF;enable-background:new    ;}
</style>
<g id="Capa_1_00000106855749326036549140000018308998415981303200_">
	<path class="st0" d="M5.6,49.4h38.7c2.8,0,5-2.2,5-5V5.6c0-2.8-2.2-5-5-5H5.6c-2.8,0-5,2.2-5,5v38.7C0.6,47.1,2.9,49.4,5.6,49.4z"
		/>
</g>
<g id="Capa_2_00000040546708832197930810000010517503183828918159_">
</g>
<path d="M35.1,24.2v-10c-0.1-1.1-0.5-2-1.3-2.8c-0.7-0.7-1.7-1.2-2.8-1.2h-4.3c-0.3-0.7-0.7-1.3-1.4-1.8c-0.7-0.5-1.5-0.7-2.3-0.7
	S21.5,8,20.7,8.6s-1.2,1.2-1.4,1.9h-4.4c-1.1,0.1-2,0.5-2.8,1.3c-0.7,0.7-1.2,1.7-1.1,2.8l0.1,20.6c0,1.1,0.4,2,1.2,2.8
	c0.7,0.7,1.7,1.2,2.8,1.1h8.6c0.3,0.7,0.8,1.4,1.5,1.9c0.7,0.5,1.5,0.7,2.3,0.6h8.8c1.1,0,2-0.4,2.8-1.3c0.7-0.7,1.1-1.7,1.1-2.8V29
	L35.1,24.2z M35.7,28.4H34c-0.3,0-0.6-0.1-1-0.4c-0.3-0.2-0.4-0.5-0.4-0.8l-0.1-1.8L35.7,28.4z M21.7,13.1v-1.4
	c0-0.3,0.1-0.6,0.4-0.8c0.3-0.3,0.6-0.4,1-0.4c0.3,0,0.6,0.1,1,0.4c0.2,0.2,0.3,0.5,0.3,0.8v1.4L27,13l0.1,2.5l-7.9,0.1L19,13.1
	C19,13.1,21.7,13.1,21.7,13.1z M24.5,22.1c-0.7,0.7-1.2,1.7-1.2,2.8l0.1,11.4h-8.3c-0.3,0.1-0.6,0-1-0.2c-0.2-0.3-0.3-0.6-0.3-1
	l-0.1-20.6c-0.1-0.3,0-0.6,0.2-0.8c0.3-0.3,0.6-0.4,1-0.5h1.5l0.1,5.2l13.2-0.1L29.7,13h1.4c0.3,0,0.6,0.1,1,0.4
	c0.2,0.2,0.3,0.5,0.4,0.8v7.3l-0.7-0.7h-4.4C26.2,20.9,25.4,21.3,24.5,22.1z M37.5,37.5c0,0.3-0.1,0.6-0.3,0.8
	c-0.3,0.3-0.6,0.4-1,0.4h-8.8c-0.3,0-0.6-0.1-1-0.3c-0.2-0.2-0.3-0.5-0.3-0.8L26,24.8c0-0.3,0.1-0.6,0.3-0.8c0.3-0.3,0.6-0.5,1-0.5
	h2.5l0.1,3.6c0,1.1,0.4,2,1.2,2.8c0.7,0.7,1.7,1.2,2.9,1.2h3.5V37.5z"/>
</svg>
