<?xml version="1.0" encoding="utf-8"?>
<!-- Generator: Adobe Illustrator 25.4.2, SVG Export Plug-In . SVG Version: 6.00 Build 0)  -->
<svg version="1.1" id="Capa_1" xmlns="http://www.w3.org/2000/svg" xmlns:xlink="http://www.w3.org/1999/xlink" x="0px" y="0px"
	 viewBox="0 0 50 50" style="enable-background:new 0 0 50 50;" xml:space="preserve">
<style type="text/css">
	.st0{opacity:0.5;fill:#FFFFFF;enable-background:new    ;}
</style>
<g id="Capa_1_00000106855749326036549140000018308998415981303200_">
	<path class="st0" d="M5.6,49.4h38.7c2.8,0,5-2.2,5-5V5.6c0-2.8-2.2-5-5-5H5.6c-2.8,0-5,2.2-5,5v38.7C0.6,47.1,2.9,49.4,5.6,49.4z"
		/>
</g>
<g id="Capa_2_00000040546708832197930810000010517503183828918159_">
</g>
<path d="M33.8,19.3c0-0.7-0.2-1.3-0.7-1.8c-0.4-0.5-1-0.7-1.6-0.7h-0.1c-0.7,0-1.3,0.2-1.7,0.7c-0.6,0.4-0.8,1.1-0.8,1.8v11.8
	c0,0.7,0.2,1.3,0.7,1.8s1.1,0.7,1.7,0.7h0.1c0.7,0,1.2-0.2,1.6-0.7c0.5-0.5,0.7-1.1,0.7-1.8L33.8,19.3"/>
<path d="M13.1,15.6c-0.4,0-0.7,0.1-1,0.4c-0.2,0.2-0.4,0.6-0.4,1l0.2,16.6c0,0.3,0.1,0.6,0.4,0.8c0.2,0.3,0.5,0.5,0.9,0.5
	s0.7-0.2,0.9-0.5l8.2-8.4c0.2-0.2,0.4-0.5,0.4-0.9c0-0.3-0.1-0.6-0.4-0.9L13.9,16C13.7,15.8,13.4,15.6,13.1,15.6"/>
<path d="M40.6,19.3c0-0.7-0.2-1.3-0.7-1.8s-1.1-0.7-1.7-0.7h-0.1c-0.7,0-1.3,0.2-1.7,0.7c-0.5,0.5-0.7,1.1-0.7,1.8v11.8
	c0,0.7,0.2,1.3,0.7,1.8s1.1,0.7,1.7,0.7h0.1c0.7,0,1.3-0.2,1.7-0.7c0.5-0.5,0.7-1.1,0.7-1.8V19.3"/>
</svg>
