<?xml version="1.0" encoding="utf-8"?>
<!-- Generator: Adobe Illustrator 25.4.2, SVG Export Plug-In . SVG Version: 6.00 Build 0)  -->
<svg version="1.1" id="Capa_1" xmlns="http://www.w3.org/2000/svg" xmlns:xlink="http://www.w3.org/1999/xlink" x="0px" y="0px"
	 viewBox="0 0 50 50" style="enable-background:new 0 0 50 50;" xml:space="preserve">
<style type="text/css">
	.st0{opacity:0.5;fill:#FFFFFF;enable-background:new    ;}
	.st1{fill:#020203;}
</style>
<g id="Capa_1_00000106855749326036549140000018308998415981303200_">
	<path class="st0" d="M5.6,49.4h38.7c2.8,0,5-2.2,5-5V5.6c0-2.8-2.2-5-5-5H5.6c-2.8,0-5,2.2-5,5v38.7C0.6,47.1,2.9,49.4,5.6,49.4z"
		/>
</g>
<g id="Capa_2_00000040546708832197930810000010517503183828918159_">
</g>
<path class="st1" d="M18.5,35.4c0.5,0,0.9-0.2,1.3-0.5c0.3-0.3,0.5-0.8,0.5-1.3c0-0.3-0.2-0.6-0.6-1.1l-5-4.9l16.6,0.1
	c0.5,0,0.9-0.2,1.3-0.5c0.3-0.3,0.5-0.7,0.5-1.2s-0.1-0.8-0.4-1.1c-0.4-0.4-0.9-0.6-1.4-0.6l-16.6,0.1l5.1-5
	c0.3-0.4,0.5-0.8,0.5-1.1c0-0.5-0.3-0.9-0.8-1.4c-0.5-0.3-1-0.4-1.7-0.1l-0.6,0.4l-7.6,7.6c-0.3,0.3-0.5,0.7-0.5,1.2
	c0.1,0.5,0.3,0.9,0.6,1.2l7.7,7.7C17.8,35.2,18.2,35.4,18.5,35.4"/>
<path class="st1" d="M41,26.2c0-2.9-1-5.4-3.1-7.5c-2.1-2.1-4.6-3.1-7.6-3.1c-2.9,0-5.4,1-7.5,3.1c-0.4,0.3-0.7,0.7-1,1.1
	c-0.2,0.2-0.3,0.5-0.3,0.8c0.1,0.3,0.2,0.6,0.4,0.7c0.3,0.2,0.6,0.3,0.9,0.3c0.3-0.1,0.5-0.2,0.7-0.5c0.3-0.3,0.5-0.6,0.8-0.9
	c1.7-1.6,3.7-2.5,6-2.5c2.4,0,4.4,0.8,6.1,2.5c1.6,1.6,2.5,3.6,2.5,6s-0.8,4.4-2.5,6.1c-1.7,1.6-3.7,2.5-6.1,2.5
	c-2.3,0-4.3-0.8-6-2.5c-0.1-0.2-0.3-0.4-0.4-0.5c-0.2-0.2-0.5-0.3-0.8-0.3s-0.5,0.1-0.8,0.3C22.1,32,22,32.3,22,32.6
	s0.1,0.5,0.3,0.8c0.2,0.1,0.4,0.3,0.5,0.4c2.1,2.1,4.6,3.1,7.5,3.1s5.5-1,7.6-3.1C40,31.6,41,29.1,41,26.2"/>
</svg>
