<?xml version="1.0" encoding="utf-8"?>
<!-- Generator: Adobe Illustrator 25.4.2, SVG Export Plug-In . SVG Version: 6.00 Build 0)  -->
<svg version="1.1" id="Capa_1" xmlns="http://www.w3.org/2000/svg" xmlns:xlink="http://www.w3.org/1999/xlink" x="0px" y="0px"
	 viewBox="0 0 50 50" style="enable-background:new 0 0 50 50;" xml:space="preserve">
<style type="text/css">
	.st0{opacity:0.5;fill:#FFFFFF;enable-background:new    ;}
	.st1{fill:#020203;}
</style>
<g id="Capa_1_00000106855749326036549140000018308998415981303200_">
	<path class="st0" d="M5.6,49.4h38.7c2.8,0,5-2.2,5-5V5.6c0-2.8-2.2-5-5-5H5.6c-2.8,0-5,2.2-5,5v38.7C0.6,47.1,2.9,49.4,5.6,49.4z"
		/>
</g>
<g id="Capa_2_00000040546708832197930810000010517503183828918159_">
</g>
<path class="st1" d="M11.1,34.7l3.5-1.6c1.6,2.7,4.1,4.4,7.4,5.3c3.4,0.9,6.6,0.5,9.6-1.3c3-1.7,4.9-4.2,5.8-7.4h-3.9
	c-0.7,1.8-2,3.2-3.8,4.3c-2.2,1.2-4.4,1.5-6.8,0.9c-2-0.5-3.6-1.6-4.9-3.2l4.2-1.3l-9.1-8.5L11.1,34.7"/>
<path class="st1" d="M20.2,16c2.2-1.2,4.5-1.5,6.9-0.9c1.9,0.5,3.5,1.6,4.8,3.2l-4.2,1.3l9.2,8.5l2.1-13l-3.5,1.6
	c-1.6-2.6-4-4.4-7.3-5.3c-3.5-0.9-6.7-0.4-9.7,1.3s-4.9,4.2-5.8,7.6h3.9C17.1,18.6,18.4,17.1,20.2,16"/>
</svg>
