<?xml version="1.0" encoding="utf-8"?>
<!-- Generator: Adobe Illustrator 25.4.2, SVG Export Plug-In . SVG Version: 6.00 Build 0)  -->
<svg version="1.1" id="Capa_1" xmlns="http://www.w3.org/2000/svg" xmlns:xlink="http://www.w3.org/1999/xlink" x="0px" y="0px"
	 viewBox="0 0 50 50" style="enable-background:new 0 0 50 50;" xml:space="preserve">
<style type="text/css">
	.st0{opacity:0.5;fill:#FFFFFF;enable-background:new    ;}
</style>
<g id="Capa_1_00000106855749326036549140000018308998415981303200_">
	<path class="st0" d="M5.6,49.4h38.7c2.8,0,5-2.2,5-5V5.6c0-2.8-2.2-5-5-5H5.6c-2.8,0-5,2.2-5,5v38.7C0.6,47.1,2.9,49.4,5.6,49.4z"
		/>
</g>
<g id="Capa_2_00000040546708832197930810000010517503183828918159_">
</g>
<polygon points="26,19.9 31.8,19.9 31.8,23.1 26,23.1 26,28.4 22.9,28.4 22.9,23.1 17.6,23.1 17.6,19.9 22.9,19.9 22.9,14.2 
	26,14.2 "/>
<path d="M37.3,15.6c-0.7-1.6-1.7-3.1-3-4.4C33,10,31.6,9,30,8.3c-1.6-0.6-3.3-1-5-1.1h-0.6c-1.8,0.1-3.4,0.4-5,1.1S16.3,10,15,11.2
	c-1.2,1.3-2.2,2.7-2.9,4.4S11,19.1,11,20.9c0,2.3,0.5,4.4,1.6,6.4c1,1.9,2.3,3.3,3.9,4.5c0,0.1,0.2,0.2,0.6,0.4l0.9,7
	c0,0.3,0.1,0.5,0.3,0.7c0.2,0.1,0.5,0.2,0.7,0.2h1.5v0.4c0,1.1,0.4,2,1.2,2.8c0.8,0.8,1.7,1.2,2.9,1.2c1.1,0,2-0.4,2.8-1.2
	s1.2-1.7,1.2-2.8v-0.4h1.6c0.3,0,0.5-0.1,0.7-0.2c0.1-0.2,0.2-0.5,0.3-0.7l0.8-7c0.5-0.2,0.7-0.3,0.7-0.4c1.6-1.1,2.9-2.6,3.8-4.5
	c1.1-2,1.7-4.1,1.7-6.4C38.4,19.1,38,17.3,37.3,15.6z M26.6,40.7c0,0.5-0.2,0.9-0.5,1.3c-0.4,0.4-0.8,0.5-1.3,0.5s-0.9-0.2-1.3-0.5
	c-0.3-0.3-0.5-0.8-0.5-1.3v-0.4h3.6C26.6,40.3,26.6,40.7,26.6,40.7z M29.3,38.1h-9.2l0-1.1h9.4L29.3,38.1z M29.7,34.9h-9.8l-0.1-1
	h10L29.7,34.9z M34.2,26.4c-0.9,1.6-2.2,3-3.8,3.9c-0.1,0.1-0.3,0.3-0.4,0.4c-0.1,0.2-0.1,0.4-0.2,0.5v0.4H19.6v-0.4
	c0-0.1-0.1-0.3-0.2-0.5c-0.1-0.1-0.2-0.3-0.4-0.4c-1.6-1-2.9-2.3-3.8-3.9c-1-1.7-1.5-3.5-1.5-5.4c0-1.5,0.3-2.9,1-4.2
	c0.5-1.4,1.3-2.5,2.3-3.5c1-1.1,2.2-1.8,3.5-2.3c1.4-0.6,2.8-1,4.3-1s2.9,0.3,4.3,1c1.3,0.5,2.5,1.3,3.5,2.3s1.8,2.2,2.3,3.5
	c0.6,1.3,0.8,2.8,0.8,4.2C35.7,22.9,35.2,24.7,34.2,26.4z"/>
<polygon points="31.8,19.9 31.8,23.1 26,23.1 26,28.4 22.9,28.4 22.9,23.1 17.6,23.1 17.6,19.9 22.9,19.9 22.9,14.2 26,14.2 
	26,19.9 "/>
<polygon points="31.8,19.9 31.8,23.1 26,23.1 26,28.4 22.9,28.4 22.9,23.1 17.6,23.1 17.6,19.9 22.9,19.9 22.9,14.2 26,14.2 
	26,19.9 "/>
</svg>
