<?xml version="1.0" encoding="utf-8"?>
<!-- Generator: Adobe Illustrator 25.4.2, SVG Export Plug-In . SVG Version: 6.00 Build 0)  -->
<svg version="1.1" id="Capa_1" xmlns="http://www.w3.org/2000/svg" xmlns:xlink="http://www.w3.org/1999/xlink" x="0px" y="0px"
	 viewBox="0 0 50 50" style="enable-background:new 0 0 50 50;" xml:space="preserve">
<style type="text/css">
	.st0{opacity:0.5;fill:#FFFFFF;enable-background:new    ;}
	.st1{fill:#020203;}
</style>
<g id="Capa_1_00000106855749326036549140000018308998415981303200_">
	<path class="st0" d="M5.6,49.4h38.7c2.8,0,5-2.2,5-5V5.6c0-2.8-2.2-5-5-5H5.6c-2.8,0-5,2.2-5,5v38.7C0.6,47.1,2.9,49.4,5.6,49.4z"
		/>
</g>
<g id="Capa_2_00000040546708832197930810000010517503183828918159_">
</g>
<polyline class="st1" points="10,26.6 10,30.8 30,30.8 30,26.6 10,26.6 "/>
<polyline class="st1" points="10,19.9 10,24.2 30,24.2 30,19.9 10,19.9 "/>
<path class="st1" d="M38.7,19.2c-0.5-1.2-1.3-2.3-2.2-3.5c-2.7-3-6.1-4.6-10.1-4.8c-3.9-0.3-7.4,0.8-10.4,3.4
	c-0.2,0.2-0.4,0.3-0.5,0.5c-0.4,0.5-0.4,1.1-0.1,1.8c0.8,0.7,1.6,0.7,2.6,0c2.3-2,5.1-3,8.3-2.8c3.1,0.2,5.8,1.5,8,3.9
	c0.2,0.5,0.5,0.9,0.9,1.4c1.4,2,2,4.3,1.9,6.9c-0.2,2.3-0.9,4.2-2.1,6c-0.5,0.7-1.2,1.4-1.9,2c-2.4,2.1-5.2,3-8.4,2.8
	c-2.4-0.2-4.5-0.9-6.3-2.3c-0.7-0.6-1.5-0.7-2.3-0.2c-0.5,0.5-0.6,1.2-0.1,2c2.5,2.2,5.4,3.4,8.7,3.5c3.9,0.3,7.4-0.8,10.4-3.4
	c1.5-1.2,2.6-2.7,3.4-4.2c0.9-1.7,1.4-3.6,1.6-5.7C40,23.7,39.6,21.4,38.7,19.2"/>
</svg>
