<?xml version="1.0" encoding="utf-8"?>
<!-- Generator: Adobe Illustrator 25.4.2, SVG Export Plug-In . SVG Version: 6.00 Build 0)  -->
<svg version="1.1" id="Capa_1" xmlns="http://www.w3.org/2000/svg" xmlns:xlink="http://www.w3.org/1999/xlink" x="0px" y="0px"
	 viewBox="0 0 50 50" style="enable-background:new 0 0 50 50;" xml:space="preserve">
<style type="text/css">
	.st0{opacity:0.5;fill:#FFFFFF;enable-background:new    ;}
	.st1{fill:#020203;}
</style>
<g id="Capa_1_00000106855749326036549140000018308998415981303200_">
	<path class="st0" d="M5.6,49.4h38.7c2.8,0,5-2.2,5-5V5.6c0-2.8-2.2-5-5-5H5.6c-2.8,0-5,2.2-5,5v38.7C0.6,47.1,2.9,49.4,5.6,49.4z"
		/>
</g>
<g id="Capa_2_00000040546708832197930810000010517503183828918159_">
</g>
<path class="st1" d="M45,33.5l-5.5-4v-0.1c-0.1,0-0.1,0,0-0.1c0.6-1.3,0.9-2.8,0.9-4.4c0-2.9-1-5.4-3.1-7.5s-4.7-3.2-7.6-3.2
	s-5.5,1.1-7.6,3.2S19,22,19,24.9s1,5.5,3.1,7.6s4.7,3.1,7.6,3.1c2.6,0,4.8-0.8,6.8-2.4h0.2l5.6,4.1c0.4,0.4,1,0.5,1.7,0.4
	c0.6-0.1,1.1-0.3,1.4-0.9c0.4-0.5,0.5-1.1,0.5-1.7C45.8,34.4,45.5,33.9,45,33.5z M34.7,29.8c-1.4,1.4-3.1,2.1-5,2.1s-3.6-0.7-5-2.1
	c-1.3-1.3-2-3-2-5c0-1.9,0.7-3.6,2-4.9c1.4-1.4,3.1-2.1,5-2.1c1.9,0,3.6,0.7,5,2.1c1.3,1.3,2,3,2,4.9C36.7,26.8,36.1,28.5,34.7,29.8
	z"/>
<polygon class="st1" points="30.8,24.8 33.1,28 31.7,28.9 29.8,25.5 27.7,28.9 26.4,28 28.9,24.8 25.2,24.1 25.7,22.5 29.1,23.8 
	28.9,19.9 30.6,19.9 30.3,23.8 33.8,22.5 34.2,24.1 "/>
<polygon class="st1" points="5,24.1 5,27.5 16.3,32.7 17.5,29.7 8.7,25.9 17.5,21.9 16.3,19 "/>
</svg>
