<?xml version="1.0" encoding="utf-8"?>
<!-- Generator: Adobe Illustrator 25.4.2, SVG Export Plug-In . SVG Version: 6.00 Build 0)  -->
<svg version="1.1" id="Capa_1" xmlns="http://www.w3.org/2000/svg" xmlns:xlink="http://www.w3.org/1999/xlink" x="0px" y="0px"
	 viewBox="0 0 50 50" style="enable-background:new 0 0 50 50;" xml:space="preserve">
<style type="text/css">
	.st0{opacity:0.5;fill:#FFFFFF;enable-background:new    ;}
	.st1{fill:#020203;}
</style>
<g id="Capa_1_00000106855749326036549140000018308998415981303200_">
	<path class="st0" d="M5.6,49.4h38.7c2.8,0,5-2.2,5-5V5.6c0-2.8-2.2-5-5-5H5.6c-2.8,0-5,2.2-5,5v38.7C0.6,47.1,2.9,49.4,5.6,49.4z"
		/>
</g>
<g id="Capa_2_00000040546708832197930810000010517503183828918159_">
</g>
<path class="st1" d="M22.5,16.5l0.1-2.8c-2.7,0.1-4.4,0.8-5.4,2.2c-0.9-1.4-2.7-2-5.1-2l0.1,2.6c2.2,0,3.2,0.8,3.2,2.4v14.6
	c-0.1,0.7-0.2,1.2-0.4,1.5c-0.4,0.4-1.2,0.6-2.6,0.6l0.1,2.7c2.2-0.1,3.7-0.8,4.7-2.2c0.9,1.4,2.7,2.1,5.1,2.2l-0.1-2.9
	c-1.4,0.1-2.4-0.1-2.8-0.5c-0.3-0.2-0.5-0.7-0.5-1.4V18.6C18.9,17.1,20.1,16.4,22.5,16.5"/>
<polyline class="st1" points="34.3,17.5 29.5,17.5 30.2,23.6 25.3,21.2 23.9,25.3 29.5,26.2 25.3,30.4 29.1,32.9 31.9,27.8 
	34.7,32.9 38.4,30.4 34.5,26.2 39.9,25.3 38.4,21.2 33.3,23.6 34.3,17.5 "/>
</svg>
