<?xml version="1.0" encoding="utf-8"?>
<!-- Generator: Adobe Illustrator 25.4.2, SVG Export Plug-In . SVG Version: 6.00 Build 0)  -->
<svg version="1.1" id="Capa_1" xmlns="http://www.w3.org/2000/svg" xmlns:xlink="http://www.w3.org/1999/xlink" x="0px" y="0px"
	 viewBox="0 0 50 50" style="enable-background:new 0 0 50 50;" xml:space="preserve">
<style type="text/css">
	.st0{opacity:0.5;fill:#FFFFFF;enable-background:new    ;}
</style>
<g id="Capa_1_00000106855749326036549140000018308998415981303200_">
	<path class="st0" d="M5.6,49.4h38.7c2.8,0,5-2.2,5-5V5.6c0-2.8-2.2-5-5-5H5.6c-2.8,0-5,2.2-5,5v38.7C0.6,47.1,2.9,49.4,5.6,49.4z"
		/>
</g>
<g id="Capa_2_00000040546708832197930810000010517503183828918159_">
</g>
<path d="M20.1,16.7c-0.2,0.1-0.4,0.2-0.6,0.3c-0.1,0.1-0.3,0.3-0.3,0.4c-0.1,0.3-0.1,0.6-0.1,0.8V29c0,0.4,0.1,0.8,0.4,1.1
	c0.3,0.3,0.7,0.4,1.1,0.4h10.8c0.4,0,0.8-0.1,1.1-0.4c0.4-0.3,0.6-0.7,0.6-1.1s-0.2-0.8-0.6-1.1c-0.3-0.4-0.7-0.6-1.1-0.6h-6.9
	l11.2-11.2c0.3-0.3,0.4-0.7,0.4-1.1s-0.1-0.8-0.4-1.1c-0.3-0.3-0.7-0.4-1.1-0.4s-0.8,0.1-1.1,0.4L22.3,25.1v-6.9
	c0-0.4-0.2-0.8-0.6-1.1c-0.3-0.4-0.7-0.6-1.1-0.6C20.4,16.5,20.2,16.6,20.1,16.7"/>
<path d="M17.1,11.8V9.7h-3.3c-0.9,0-1.7,0.3-2.3,0.9c-0.6,0.7-0.9,1.4-0.9,2.3v22.7c0,0.9,0.3,1.6,0.9,2.2c0.7,0.7,1.4,1,2.3,1h22.7
	c0.9,0,1.6-0.3,2.2-1c0.7-0.6,1-1.3,1-2.2v-2.7h-2.1v2.7c0,0.3-0.1,0.6-0.3,0.8c-0.2,0.1-0.5,0.2-0.8,0.2H13.7
	c-0.3,0-0.6-0.1-0.8-0.2c-0.2-0.2-0.3-0.5-0.3-0.8V12.9c0-0.3,0.1-0.6,0.3-0.8s0.5-0.3,0.8-0.3H17.1"/>
</svg>
