<?xml version="1.0" encoding="utf-8"?>
<!-- Generator: Adobe Illustrator 25.4.2, SVG Export Plug-In . SVG Version: 6.00 Build 0)  -->
<svg version="1.1" id="Capa_1" xmlns="http://www.w3.org/2000/svg" xmlns:xlink="http://www.w3.org/1999/xlink" x="0px" y="0px"
	 viewBox="0 0 50 50" style="enable-background:new 0 0 50 50;" xml:space="preserve">
<style type="text/css">
	.st0{opacity:0.5;fill:#FFFFFF;enable-background:new    ;}
	.st1{fill:#CC0021;}
	.st2{fill:#0000FF;}
	.st3{fill:#006600;}
	.st4{fill:#252526;}
</style>
<g id="Capa_1_00000106855749326036549140000018308998415981303200_">
	<path class="st0" d="M5.6,49.4h38.7c2.8,0,5-2.2,5-5V5.6c0-2.8-2.2-5-5-5H5.6c-2.8,0-5,2.2-5,5v38.7C0.6,47.1,2.9,49.4,5.6,49.4z"
		/>
</g>
<g id="Capa_2_00000040546708832197930810000010517503183828918159_">
</g>
<g transform="matrix( 1.49871826171875, -0.0000152587890625, 0.000030517578125, 1.4271087646484375, 73.5,133.45) ">
	<g transform="matrix( 1, 0, 0, 1, 0,0) ">
		<g>
			<g id="navshift_0_Layer0_0_FILL">
				<path class="st1" d="M-35.5-72.8l6.4,0l0-3.5l3.2,0l-6.2-6.3l-6.6,6.2l3.2,0L-35.5-72.8 M-34.4-77.4l-1.7,0l3.9-3.7l3.8,3.8
					h-1.7l0,3.6l-4.3,0L-34.4-77.4z"/>
				<path class="st2" d="M-36.1-80v-3.5l3.2,0l-6.2-6.3l-6.6,6.1l3.2,0v3.5L-36.1-80 M-37.1-84.6l0,3.6l-4.3,0l0-3.6h-1.7l3.9-3.7
					l3.7,3.8L-37.1-84.6z"/>
				<path class="st3" d="M-18.7-83.4l-6.2-6.3l-6.6,6.2h3.2l0,3.5l6.4,0.1l0-3.5L-18.7-83.4 M-21.1-84.5h-1.7l0,3.6l-4.2,0l0-3.6
					l-1.7,0l3.9-3.7L-21.1-84.5z"/>
			</g>
		</g>
	</g>
</g>
<g transform="matrix( 1.0599365234375, -0.0000152587890625, 0.0000152587890625, 1.0599365234375, 80.6,167.8) ">
	<g transform="matrix( 1, 0, 0, 1, 0,0) ">
		<g>
			<g id="espaciadora_0_Layer0_0_FILL">
				<path class="st4" d="M-41.3-122.8H-45v3.7l-16.3,0v-3.7l-3.7,0v7l23.7,0L-41.3-122.8z"/>
			</g>
		</g>
	</g>
</g>
</svg>
