<?xml version="1.0" encoding="utf-8"?>
<!-- Generator: Adobe Illustrator 25.4.2, SVG Export Plug-In . SVG Version: 6.00 Build 0)  -->
<svg version="1.1" id="Capa_1" xmlns="http://www.w3.org/2000/svg" xmlns:xlink="http://www.w3.org/1999/xlink" x="0px" y="0px"
	 viewBox="0 0 50 50" style="enable-background:new 0 0 50 50;" xml:space="preserve">
<style type="text/css">
	.st0{opacity:0.5;fill:#FFFFFF;enable-background:new    ;}
	.st1{fill:#020203;}
</style>
<g id="Capa_1_00000106855749326036549140000018308998415981303200_">
	<path class="st0" d="M5.6,49.4h38.7c2.8,0,5-2.2,5-5V5.6c0-2.8-2.2-5-5-5H5.6c-2.8,0-5,2.2-5,5v38.7C0.6,47.1,2.9,49.4,5.6,49.4z"
		/>
</g>
<g id="Capa_2_00000040546708832197930810000010517503183828918159_">
</g>
<path class="st1" d="M40.4,34.5l-6.5-4.8v-0.1c-0.1,0-0.1,0,0-0.1c0.7-1.6,1-3.3,1-5.2c0-3.5-1.2-6.4-3.6-8.9
	c-2.5-2.5-5.5-3.7-9-3.7s-6.5,1.2-9,3.7c-2.4,2.5-3.6,5.4-3.6,8.9s1.2,6.5,3.6,9c2.5,2.4,5.5,3.6,9,3.6c3,0,5.7-1,8.1-2.8h0.2
	l6.6,4.9c0.5,0.5,1.2,0.6,2,0.5c0.7-0.1,1.2-0.4,1.7-1s0.6-1.3,0.6-2C41.4,35.6,41,35,40.4,34.5z M28.3,30.2
	c-1.7,1.7-3.6,2.5-5.9,2.5s-4.2-0.8-5.9-2.5c-1.6-1.6-2.4-3.6-2.4-5.9s0.8-4.2,2.4-5.8c1.7-1.7,3.6-2.5,5.9-2.5s4.2,0.8,5.9,2.5
	c1.6,1.6,2.4,3.5,2.4,5.8C30.6,26.6,29.8,28.6,28.3,30.2z"/>
</svg>
