<?xml version="1.0" encoding="utf-8"?>
<!-- Generator: Adobe Illustrator 25.4.2, SVG Export Plug-In . SVG Version: 6.00 Build 0)  -->
<svg version="1.1" id="Capa_1" xmlns="http://www.w3.org/2000/svg" xmlns:xlink="http://www.w3.org/1999/xlink" x="0px" y="0px"
	 viewBox="0 0 50 50" style="enable-background:new 0 0 50 50;" xml:space="preserve">
<style type="text/css">
	.st0{opacity:0.5;fill:#FFFFFF;enable-background:new    ;}
</style>
<g id="Capa_1_00000106855749326036549140000018308998415981303200_">
	<path class="st0" d="M5.6,49.4h38.7c2.8,0,5-2.2,5-5V5.6c0-2.8-2.2-5-5-5H5.6c-2.8,0-5,2.2-5,5v38.7C0.6,47.1,2.9,49.4,5.6,49.4z"
		/>
</g>
<g id="Capa_2_00000040546708832197930810000010517503183828918159_">
</g>
<polyline points="17.6,27.2 17.6,25.4 6.4,20.7 6.4,23.3 14.4,26.3 14.4,26.4 6.4,29.2 6.4,31.7 17.6,27.2 "/>
<polyline points="31.8,20 29.1,20 22.8,33.6 25.4,33.6 31.8,20 "/>
<polyline points="34.2,28.8 34.2,30.9 44.1,27 44.1,25.4 34.2,21.2 34.2,23.5 41.2,26.2 34.2,28.8 "/>
</svg>
