<?xml version="1.0" encoding="utf-8"?>
<!-- Generator: Adobe Illustrator 25.4.2, SVG Export Plug-In . SVG Version: 6.00 Build 0)  -->
<svg version="1.1" id="Capa_1" xmlns="http://www.w3.org/2000/svg" xmlns:xlink="http://www.w3.org/1999/xlink" x="0px" y="0px"
	 viewBox="0 0 50 50" style="enable-background:new 0 0 50 50;" xml:space="preserve">
<style type="text/css">
	.st0{opacity:0.5;fill:#FFFFFF;enable-background:new    ;}
</style>
<g id="Capa_1_00000106855749326036549140000018308998415981303200_">
	<path class="st0" d="M5.6,49.4h38.7c2.8,0,5-2.2,5-5V5.6c0-2.8-2.2-5-5-5H5.6c-2.8,0-5,2.2-5,5v38.7C0.6,47.1,2.9,49.4,5.6,49.4z"
		/>
</g>
<g id="Capa_2_00000040546708832197930810000010517503183828918159_">
</g>
<polyline points="34.7,33.8 37.2,33.8 43.4,20.7 40.9,20.7 34.7,33.8 "/>
<polyline points="17.4,29.6 9.6,26.8 17.4,23.8 17.4,21.4 6.5,26 6.5,27.7 17.4,32.1 17.4,29.6 "/>
<polyline points="22.9,26.1 22.9,27.5 32.6,31.4 32.6,29.2 25.7,26.8 25.7,26.7 32.6,24.1 32.6,22 22.9,26.1 "/>
</svg>
