<?xml version="1.0" encoding="utf-8"?>
<!-- Generator: Adobe Illustrator 25.4.2, SVG Export Plug-In . SVG Version: 6.00 Build 0)  -->
<svg version="1.1" id="Capa_1" xmlns="http://www.w3.org/2000/svg" xmlns:xlink="http://www.w3.org/1999/xlink" x="0px" y="0px"
	 viewBox="0 0 50 50" style="enable-background:new 0 0 50 50;" xml:space="preserve">
<style type="text/css">
	.st0{opacity:0.5;fill:#FFFFFF;enable-background:new    ;}
</style>
<g id="Capa_1_00000106855749326036549140000018308998415981303200_">
	<path class="st0" d="M5.6,49.4h38.7c2.8,0,5-2.2,5-5V5.6c0-2.8-2.2-5-5-5H5.6c-2.8,0-5,2.2-5,5v38.7C0.6,47.1,2.9,49.4,5.6,49.4z"
		/>
</g>
<g id="Capa_2_00000040546708832197930810000010517503183828918159_">
</g>
<path d="M38.4,19c-0.3-0.4-0.7-0.6-1.2-0.6c-0.5-0.1-1,0-1.4,0.3s-0.6,0.7-0.6,1.2c-0.1,0.5,0,1,0.3,1.4c0.9,1.2,1.4,2.6,1.4,4
	s-0.5,2.8-1.4,4c-0.3,0.4-0.4,0.8-0.3,1.4c0,0.5,0.2,0.8,0.6,1.2c0.4,0.3,0.8,0.5,1.4,0.5c0.5-0.1,0.8-0.3,1.2-0.7
	c1.5-1.9,2.2-4,2.2-6.4C40.5,22.9,39.8,20.8,38.4,19L38.4,19z"/>
<path d="M31.6,12.3c-0.1-0.3-0.4-0.5-0.7-0.7c-0.2-0.2-0.5-0.2-0.9-0.2c-0.3,0-0.6,0.1-0.8,0.2l-11.8,6.7h-6.6
	c-0.5,0-0.9,0.2-1.3,0.6c-0.3,0.3-0.5,0.7-0.5,1.3v10.4c0,0.5,0.2,1,0.5,1.3c0.4,0.4,0.8,0.6,1.3,0.6h6.6l11.8,6.7
	c0.4,0.2,0.8,0.3,1.3,0.1c0.5-0.1,0.9-0.3,1.1-0.8c0.2-0.2,0.2-0.5,0.2-0.8V13.1C31.8,12.8,31.8,12.5,31.6,12.3z M28.4,34.4L18.7,29
	c-0.2-0.1-0.5-0.2-0.8-0.2h-5.2v-7h5.2c0.3,0,0.6-0.1,0.8-0.2l9.6-5.4V34.4z"/>
</svg>
