<?xml version="1.0" encoding="utf-8"?>
<!-- Generator: Adobe Illustrator 25.4.2, SVG Export Plug-In . SVG Version: 6.00 Build 0)  -->
<svg version="1.1" id="Capa_1" xmlns="http://www.w3.org/2000/svg" xmlns:xlink="http://www.w3.org/1999/xlink" x="0px" y="0px"
	 viewBox="0 0 50 50" style="enable-background:new 0 0 50 50;" xml:space="preserve">
<style type="text/css">
	.st0{opacity:0.5;fill:#FFFFFF;enable-background:new    ;}
	.st1{fill:#020203;}
</style>
<g id="Capa_1_00000106855749326036549140000018308998415981303200_">
	<path class="st0" d="M5.6,49.4h38.7c2.8,0,5-2.2,5-5V5.6c0-2.8-2.2-5-5-5H5.6c-2.8,0-5,2.2-5,5v38.7C0.6,47.1,2.9,49.4,5.6,49.4z"
		/>
</g>
<g id="Capa_2_00000040546708832197930810000010517503183828918159_">
</g>
<polygon class="st1" points="24,23.3 30,23.3 30,26.6 24,26.6 24,32.5 20.9,32.5 20.9,26.6 14.8,26.6 14.8,23.3 20.9,23.3 
	20.9,17.4 24,17.4 "/>
<path class="st1" d="M42.6,37.2c-0.1,0-0.2-0.1-0.3-0.1l-7.1-5.4H35l-0.1-0.1c-0.1-0.2-0.1-0.3-0.1-0.4v-0.4
	c0.8-1.7,1.2-3.6,1.2-5.7c0-3.9-1.3-7.1-4-9.7c-2.6-2.7-5.8-4-9.6-4c-3.9,0-7.1,1.3-9.7,4c-2.7,2.7-4,5.9-4,9.7s1.3,7,4,9.7
	c2.6,2.6,5.8,3.9,9.7,3.9c3.3,0,6.2-1.1,8.6-3.1c0.1-0.1,0.2-0.1,0.4-0.1h0.3c0.1,0,0.2,0,0.3,0.1l7.4,5.5c0.6,0.4,1.3,0.5,2,0.4
	c0.6-0.1,1.1-0.4,1.5-0.9H43c0.4-0.6,0.5-1.3,0.4-1.9C43.3,38.1,43,37.6,42.6,37.2z M29.4,32.1c-2,2-4.3,3-7,3c-2.8,0-5.1-1-7-3
	c-2-1.9-3-4.2-3-7c0-2.7,1-5,3-7c1.9-2,4.2-3,7-3c2.7,0,5,0.9,7,2.8V18c1.9,2,2.8,4.3,2.8,7C32.2,27.9,31.2,30.2,29.4,32.1z"/>
<polygon class="st1" points="30,23.3 30,26.6 24,26.6 24,32.5 20.9,32.5 20.9,26.6 14.8,26.6 14.8,23.3 20.9,23.3 20.9,17.4 
	24,17.4 24,23.3 "/>
<polygon class="st1" points="30,23.3 30,26.6 24,26.6 24,32.5 20.9,32.5 20.9,26.6 14.8,26.6 14.8,23.3 20.9,23.3 20.9,17.4 
	24,17.4 24,23.3 "/>
</svg>
