<?xml version="1.0" encoding="utf-8"?>
<!-- Generator: Adobe Illustrator 25.4.2, SVG Export Plug-In . SVG Version: 6.00 Build 0)  -->
<svg version="1.1" id="Capa_1" xmlns="http://www.w3.org/2000/svg" xmlns:xlink="http://www.w3.org/1999/xlink" x="0px" y="0px"
	 viewBox="0 0 50 50" style="enable-background:new 0 0 50 50;" xml:space="preserve">
<style type="text/css">
	.st0{fill:#020203;}
</style>
<polygon class="st0" points="20.2,29.7 24.5,25.3 20.2,21 21.8,19.3 26.1,23.7 30.4,19.3 32.1,21 27.8,25.3 32.1,29.7 30.4,31.4 
	26.1,27 21.8,31.4 "/>
<path class="st0" d="M18.1,15.3L8.1,25.3l9.9,10.1h20.3V15.3H18.1z M36.1,33.1H19.2l-7.6-7.7l7.6-7.7h16.9V33.1z"/>
<polygon class="st0" points="27.8,25.3 32.1,29.7 30.4,31.4 26.1,27 21.8,31.4 20.2,29.7 24.5,25.3 20.2,21 21.8,19.3 26.1,23.7 
	30.4,19.3 32.1,21 "/>
<polygon class="st0" points="27.8,25.3 32.1,29.7 30.4,31.4 26.1,27 21.8,31.4 20.2,29.7 24.5,25.3 20.2,21 21.8,19.3 26.1,23.7 
	30.4,19.3 32.1,21 "/>
</svg>
