<?xml version="1.0" encoding="utf-8"?>
<!-- Generator: Adobe Illustrator 25.4.2, SVG Export Plug-In . SVG Version: 6.00 Build 0)  -->
<svg version="1.1" id="Capa_1" xmlns="http://www.w3.org/2000/svg" xmlns:xlink="http://www.w3.org/1999/xlink" x="0px" y="0px"
	 viewBox="0 0 50 50" style="enable-background:new 0 0 50 50;" xml:space="preserve">
<polyline points="24.3,35.5 24.3,33.5 12.2,33.5 12.2,25.8 10.1,25.8 10.1,35.5 24.3,35.5 "/>
<polyline points="25.9,33.5 25.9,35.5 39.9,35.5 39.9,25.8 37.8,25.8 37.8,33.5 25.9,33.5 "/>
<polyline points="17.1,28.7 17.1,25.8 15,25.8 15,30.7 24.3,30.7 24.3,28.7 17.1,28.7 "/>
<polyline points="17.1,21.4 24.3,21.4 24.3,19.3 15,19.3 15,23.7 17.1,23.7 17.1,21.4 "/>
<polyline points="34.7,30.7 34.7,25.8 32.5,25.8 32.5,28.7 25.9,28.7 25.9,30.7 34.7,30.7 "/>
<polyline points="32.5,21.4 32.5,23.7 34.7,23.7 34.7,19.3 25.9,19.3 25.9,21.4 32.5,21.4 "/>
<polyline points="24.3,16.5 24.3,14.5 10.1,14.5 10.1,23.7 12.2,23.7 12.2,16.5 24.3,16.5 "/>
<polyline points="25.9,14.5 25.9,16.5 37.8,16.5 37.8,23.7 39.9,23.7 39.9,14.5 25.9,14.5 "/>
</svg>
