<?xml version="1.0" encoding="utf-8"?>
<!-- Generator: Adobe Illustrator 25.4.2, SVG Export Plug-In . SVG Version: 6.00 Build 0)  -->
<svg version="1.1" id="Capa_1" xmlns="http://www.w3.org/2000/svg" xmlns:xlink="http://www.w3.org/1999/xlink" x="0px" y="0px"
	 viewBox="0 0 50 50" style="enable-background:new 0 0 50 50;" xml:space="preserve">
<path d="M33.2,22.9c-0.5-0.5-1.2-0.8-2-0.8h-1c-0.2,0-0.3-0.1-0.4-0.3l-1.3-1.6c-0.3-0.3-0.6-0.5-0.9-0.7c-0.3-0.1-0.7-0.1-1-0.1
	h-3.2c-0.3,0-0.7,0-1,0.1c-0.4,0.2-0.7,0.4-0.9,0.7L20,22c-0.1,0.1-0.2,0.1-0.3,0.1h-1.2c-0.7,0-1.3,0.3-1.8,0.8
	C16.2,23.4,16,24,16,24.7v7.1c0,0.7,0.3,1.3,0.8,1.8s1.1,0.8,1.8,0.8h12.7c0.8,0,1.4-0.3,2-0.8s0.8-1.1,0.8-1.8v-7.1
	C34,24,33.8,23.4,33.2,22.9z M27.7,30.7c-0.8,0.8-1.7,1.2-2.7,1.2c-1,0-1.8-0.4-2.6-1.2c-0.7-0.7-1-1.6-1-2.6c0-1,0.4-1.9,1-2.6
	c0.8-0.8,1.6-1.2,2.6-1.2c1,0,1.9,0.4,2.7,1.2c0.7,0.7,1,1.6,1,2.6C28.7,29.1,28.3,30,27.7,30.7z"/>
<path d="M41.7,8.9c-0.9-1-2-1.4-3.2-1.4H11.6c-1.3,0-2.4,0.5-3.2,1.4C7.5,9.8,7,10.8,7,12v24c0,1.2,0.4,2.2,1.3,3.1
	c0.9,0.9,2,1.3,3.2,1.3h26.9c1.3,0,2.4-0.4,3.2-1.3c0.9-0.9,1.3-1.9,1.3-3.1V12C43,10.8,42.5,9.8,41.7,8.9z M40,36
	c0,0.3-0.2,0.7-0.5,1c-0.3,0.3-0.6,0.4-1,0.4H11.6c-0.4,0-0.8-0.1-1.2-0.4c-0.3-0.3-0.4-0.7-0.4-1V15h30V36z"/>
<path d="M33.2,22.9c-0.5-0.5-1.2-0.8-2-0.8h-1c-0.2,0-0.3-0.1-0.4-0.3l-1.3-1.6c-0.3-0.3-0.6-0.5-0.9-0.7c-0.3-0.1-0.7-0.1-1-0.1
	h-3.2c-0.3,0-0.7,0-1,0.1c-0.4,0.2-0.7,0.4-0.9,0.7L20,22c-0.1,0.1-0.2,0.1-0.3,0.1h-1.2c-0.7,0-1.3,0.3-1.8,0.8
	C16.2,23.4,16,24,16,24.7v7.1c0,0.7,0.3,1.3,0.8,1.8s1.1,0.8,1.8,0.8h12.7c0.8,0,1.4-0.3,2-0.8s0.8-1.1,0.8-1.8v-7.1
	C34,24,33.8,23.4,33.2,22.9z M27.7,30.7c-0.8,0.8-1.7,1.2-2.7,1.2c-1,0-1.8-0.4-2.6-1.2c-0.7-0.7-1-1.6-1-2.6c0-1,0.4-1.9,1-2.6
	c0.8-0.8,1.6-1.2,2.6-1.2c1,0,1.9,0.4,2.7,1.2c0.7,0.7,1,1.6,1,2.6C28.7,29.1,28.3,30,27.7,30.7z"/>
<path d="M33.2,22.9c-0.5-0.5-1.2-0.8-2-0.8h-1c-0.2,0-0.3-0.1-0.4-0.3l-1.3-1.6c-0.3-0.3-0.6-0.5-0.9-0.7c-0.3-0.1-0.7-0.1-1-0.1
	h-3.2c-0.3,0-0.7,0-1,0.1c-0.4,0.2-0.7,0.4-0.9,0.7L20,22c-0.1,0.1-0.2,0.1-0.3,0.1h-1.2c-0.7,0-1.3,0.3-1.8,0.8
	C16.2,23.4,16,24,16,24.7v7.1c0,0.7,0.3,1.3,0.8,1.8s1.1,0.8,1.8,0.8h12.7c0.8,0,1.4-0.3,2-0.8s0.8-1.1,0.8-1.8v-7.1
	C34,24,33.8,23.4,33.2,22.9z M27.7,30.7c-0.8,0.8-1.7,1.2-2.7,1.2c-1,0-1.8-0.4-2.6-1.2c-0.7-0.7-1-1.6-1-2.6c0-1,0.4-1.9,1-2.6
	c0.8-0.8,1.6-1.2,2.6-1.2c1,0,1.9,0.4,2.7,1.2c0.7,0.7,1,1.6,1,2.6C28.7,29.1,28.3,30,27.7,30.7z"/>
</svg>
