<?xml version="1.0" encoding="utf-8"?>
<!-- Generator: Adobe Illustrator 25.4.2, SVG Export Plug-In . SVG Version: 6.00 Build 0)  -->
<svg version="1.1" id="Capa_1" xmlns="http://www.w3.org/2000/svg" xmlns:xlink="http://www.w3.org/1999/xlink" x="0px" y="0px"
	 viewBox="0 0 50 50" style="enable-background:new 0 0 50 50;" xml:space="preserve">
<style type="text/css">
	.st0{fill:#020203;}
</style>
<path class="st0" d="M14.2,9c-1,0.1-1.8,0.4-2.5,1.1c-0.7,0.7-1,1.4-1,2.4l0.1,18.8c0,0.9,0.3,1.7,1,2.4c0.7,0.7,1.4,1,2.4,1
	l1.2-0.1c0.3,0,0.5-0.1,0.7-0.3h0.1c0.1-0.2,0.2-0.4,0.3-0.7c-0.1-0.3-0.2-0.5-0.4-0.7c-0.2-0.2-0.4-0.3-0.7-0.3l-1.2,0.1
	c-0.4,0-0.7-0.1-1-0.4c-0.3-0.3-0.4-0.6-0.4-1l-0.1-18.8c0-0.3,0.2-0.6,0.5-0.9c0.3-0.3,0.6-0.4,0.9-0.5L28.2,11
	c0.4,0.1,0.7,0.2,1,0.5c0.3,0.3,0.4,0.6,0.4,0.9c0,0.3,0.1,0.6,0.3,0.8c0.2,0.2,0.4,0.3,0.7,0.3c0.3,0,0.5-0.1,0.7-0.3
	c0.2-0.2,0.3-0.4,0.3-0.7c0-1-0.3-1.8-0.9-2.5c-0.7-0.7-1.4-1-2.4-1H14.2L14.2,9z"/>
<path class="st0" d="M23.4,31.8c-0.2-0.2-0.3-0.4-0.3-0.7c0-0.3,0.1-0.5,0.3-0.7c0.2-0.2,0.5-0.3,0.8-0.3l9.4-0.1
	c0.3,0,0.5,0.1,0.7,0.3c0.2,0.2,0.3,0.5,0.3,0.8c0,0.3-0.1,0.5-0.3,0.7c-0.2,0.2-0.4,0.3-0.7,0.3h-9.5C23.9,32.1,23.6,32,23.4,31.8
	L23.4,31.8z"/>
<path class="st0" d="M23.4,23.4c-0.2-0.3-0.3-0.5-0.3-0.8c0-0.3,0.1-0.5,0.3-0.7h0.1c0.1-0.2,0.4-0.3,0.7-0.3l9.4-0.1
	c0.3,0.1,0.5,0.2,0.7,0.3v0.1c0.2,0.2,0.3,0.4,0.3,0.7c0,0.3-0.1,0.5-0.3,0.7c-0.2,0.2-0.4,0.3-0.7,0.3l-9.5,0.1
	C23.9,23.7,23.7,23.6,23.4,23.4L23.4,23.4z"/>
<path class="st0" d="M34.3,26.4c0.3,0.2,0.4,0.4,0.4,0.7c-0.1,0.3-0.2,0.5-0.4,0.7c-0.2,0.2-0.4,0.3-0.7,0.3l-9.4,0.1
	c-0.3,0-0.5-0.1-0.7-0.3c-0.2-0.2-0.3-0.4-0.3-0.7c0-0.3,0.1-0.6,0.2-0.7c0.2-0.2,0.4-0.3,0.7-0.3l9.5-0.1
	C33.9,26.1,34,26.2,34.3,26.4L34.3,26.4z"/>
<path class="st0" d="M34.4,34.5c0.2,0.2,0.3,0.4,0.3,0.7c-0.1,0.3-0.2,0.6-0.4,0.8c-0.2,0.1-0.4,0.2-0.7,0.2l-9.4,0.1
	c-0.3,0-0.5-0.1-0.7-0.3c-0.2-0.2-0.3-0.4-0.3-0.7c0-0.3,0.1-0.5,0.3-0.7c0.2-0.2,0.4-0.3,0.7-0.3l9.4-0.1
	C33.9,34.2,34.1,34.3,34.4,34.5L34.4,34.5z"/>
<path class="st0" d="M38.3,17.7c-0.7-0.7-1.4-1-2.4-1.1l-14.2,0.1c-0.9-0.1-1.7,0.3-2.4,1v0.1c-0.7,0.6-1,1.4-1,2.3l0.1,17.7
	c-0.1,1,0.3,1.8,1,2.5c0.7,0.7,1.5,1,2.4,0.9h14.1c1,0,1.8-0.3,2.5-1c0.6-0.7,0.9-1.5,0.9-2.5V20C39.3,19.1,39,18.3,38.3,17.7z
	 M37.2,37.7c0,0.3-0.1,0.6-0.4,0.9c-0.3,0.3-0.6,0.4-0.9,0.4H21.8c-0.4,0-0.7-0.1-1-0.4c-0.3-0.3-0.4-0.6-0.4-0.9V20.1
	c0-0.4,0.1-0.7,0.4-1c0.3-0.3,0.6-0.4,0.9-0.3l14.1-0.1c0.4,0,0.7,0.1,1,0.4c0.3,0.3,0.4,0.6,0.5,1L37.2,37.7z"/>
<path class="st0" d="M23.4,31.8c-0.2-0.2-0.3-0.4-0.3-0.7c0-0.3,0.1-0.5,0.3-0.7c0.2-0.2,0.5-0.3,0.8-0.3l9.4-0.1
	c0.3,0,0.5,0.1,0.7,0.3c0.2,0.2,0.3,0.5,0.3,0.8c0,0.3-0.1,0.5-0.3,0.7c-0.2,0.2-0.4,0.3-0.7,0.3h-9.5C23.9,32.1,23.6,32,23.4,31.8
	L23.4,31.8z"/>
<path class="st0" d="M23.4,23.4c-0.2-0.3-0.3-0.5-0.3-0.8c0-0.3,0.1-0.5,0.3-0.7h0.1c0.1-0.2,0.4-0.3,0.7-0.3l9.4-0.1
	c0.3,0.1,0.5,0.2,0.7,0.3v0.1c0.2,0.2,0.3,0.4,0.3,0.7c0,0.3-0.1,0.5-0.3,0.7c-0.2,0.2-0.4,0.3-0.7,0.3l-9.5,0.1
	C23.9,23.7,23.7,23.6,23.4,23.4L23.4,23.4z"/>
<path class="st0" d="M34.3,26.4c0.3,0.2,0.4,0.4,0.4,0.7c-0.1,0.3-0.2,0.5-0.4,0.7c-0.2,0.2-0.4,0.3-0.7,0.3l-9.4,0.1
	c-0.3,0-0.5-0.1-0.7-0.3c-0.2-0.2-0.3-0.4-0.3-0.7c0-0.3,0.1-0.6,0.2-0.7c0.2-0.2,0.4-0.3,0.7-0.3l9.5-0.1
	C33.9,26.1,34,26.2,34.3,26.4L34.3,26.4z"/>
<path class="st0" d="M34.4,34.5c0.2,0.2,0.3,0.4,0.3,0.7c-0.1,0.3-0.2,0.6-0.4,0.8c-0.2,0.1-0.4,0.2-0.7,0.2l-9.4,0.1
	c-0.3,0-0.5-0.1-0.7-0.3c-0.2-0.2-0.3-0.4-0.3-0.7c0-0.3,0.1-0.5,0.3-0.7c0.2-0.2,0.4-0.3,0.7-0.3l9.4-0.1
	C33.9,34.2,34.1,34.3,34.4,34.5L34.4,34.5z"/>
<path class="st0" d="M34.7,35.1c-0.1,0.3-0.2,0.6-0.4,0.8c-0.2,0.1-0.4,0.2-0.7,0.2l-9.4,0.1c-0.3,0-0.5-0.1-0.7-0.3
	c-0.2-0.2-0.3-0.4-0.3-0.7c0-0.3,0.1-0.5,0.3-0.7c0.2-0.2,0.4-0.3,0.7-0.3l9.4-0.1c0.3,0,0.6,0.1,0.7,0.3h0.1
	C34.6,34.7,34.7,34.9,34.7,35.1z"/>
<path class="st0" d="M34.6,31.1c0,0.3-0.1,0.5-0.3,0.7c-0.2,0.2-0.4,0.3-0.7,0.3h-9.5c-0.3,0-0.5-0.1-0.7-0.2v-0.1
	c-0.2-0.2-0.3-0.4-0.3-0.7c0-0.3,0.1-0.5,0.3-0.7c0.2-0.2,0.5-0.3,0.8-0.3l9.4-0.1c0.3,0,0.5,0.1,0.7,0.3
	C34.5,30.5,34.6,30.8,34.6,31.1z"/>
<path class="st0" d="M34.7,27.1c-0.1,0.3-0.2,0.5-0.4,0.7c-0.2,0.2-0.4,0.3-0.7,0.3l-9.4,0.1c-0.3,0-0.5-0.1-0.7-0.3
	c-0.2-0.2-0.3-0.4-0.3-0.7c0-0.3,0.1-0.6,0.2-0.7c0.2-0.2,0.4-0.3,0.7-0.3l9.5-0.1c0.3,0,0.5,0.1,0.6,0.3h0.1
	C34.5,26.6,34.7,26.8,34.7,27.1z"/>
<path class="st0" d="M34.6,22.6c0,0.3-0.1,0.5-0.3,0.7c-0.2,0.2-0.4,0.3-0.7,0.3l-9.5,0.1c-0.3-0.1-0.5-0.2-0.6-0.3h-0.1
	c-0.2-0.3-0.3-0.5-0.3-0.8c0-0.3,0.1-0.5,0.3-0.7h0.1c0.1-0.2,0.4-0.3,0.7-0.3l9.4-0.1c0.3,0.1,0.5,0.2,0.7,0.3v0.1
	C34.5,22.1,34.6,22.4,34.6,22.6z"/>
</svg>
