<?xml version="1.0" encoding="utf-8"?>
<!-- Generator: Adobe Illustrator 25.4.2, SVG Export Plug-In . SVG Version: 6.00 Build 0)  -->
<svg version="1.1" id="Capa_1" xmlns="http://www.w3.org/2000/svg" xmlns:xlink="http://www.w3.org/1999/xlink" x="0px" y="0px"
	 viewBox="0 0 50 50" style="enable-background:new 0 0 50 50;" xml:space="preserve">
<polyline points="38.8,27 38.8,31.6 43.2,31.6 43.2,27 38.8,27 "/>
<path d="M4.8,26.4c0,1.4,0.4,2.6,1.3,3.5c0.9,0.9,2,1.3,3.3,1.3c1.2,0,2.1-0.2,2.7-0.6v-2.4c-0.6,0.5-1.3,0.7-2,0.7
	c-0.8,0-1.4-0.2-1.8-0.7c-0.5-0.5-0.7-1.2-0.7-2c0-0.9,0.3-1.6,0.8-2.1c0.5-0.5,1.1-0.7,1.9-0.7c0.7,0,1.4,0.2,1.9,0.7v-2.5
	c-0.5-0.3-1.2-0.5-2.3-0.5c-1.5,0-2.8,0.5-3.7,1.4C5.3,23.4,4.8,24.7,4.8,26.4"/>
<polyline points="38.8,20.9 38.8,25.5 43.2,25.5 43.2,20.9 38.8,20.9 "/>
<polyline points="32.7,21 32.7,25.5 37.1,25.5 37.1,21 32.7,21 "/>
<polyline points="37.1,27 32.7,27 32.7,31.7 37.1,31.7 37.1,27 "/>
<path d="M19.4,23.5v-2.2h-2v-2.9l-2.8,0.9v2.1h-1.5v2.2h1.5v4.4c0,2.2,1,3.3,3,3.3c0.8,0,1.4-0.1,1.8-0.3v-2.2
	c-0.3,0.2-0.6,0.2-0.9,0.2c-0.7,0-1.1-0.5-1.1-1.5v-3.9H19.4"/>
<path d="M26.2,21.1c-1.1,0-2,0.7-2.4,2v-1.8H21V31h2.8v-4.6c0-0.8,0.2-1.5,0.5-2c0.4-0.5,0.8-0.7,1.5-0.7c0.4,0,0.8,0.1,1.1,0.3
	v-2.8C26.7,21.1,26.5,21.1,26.2,21.1"/>
</svg>
