<?xml version="1.0" encoding="utf-8"?>
<!-- Generator: Adobe Illustrator 25.4.2, SVG Export Plug-In . SVG Version: 6.00 Build 0)  -->
<svg version="1.1" id="Capa_1" xmlns="http://www.w3.org/2000/svg" xmlns:xlink="http://www.w3.org/1999/xlink" x="0px" y="0px"
	 viewBox="0 0 50 50" style="enable-background:new 0 0 50 50;" xml:space="preserve">
<style type="text/css">
	.st0{fill:#020203;}
</style>
<path class="st0" d="M27,25.9l14-6.2c-0.6-0.5-1.3-0.8-1.9-1c-0.6-0.2-1.2-0.3-1.8-0.3c-1,0.1-2.6,0.5-4.9,1.4
	c-2.4,0.9-5.8,2.4-10.4,4.5c-1.6-0.6-3.3-1-4.9-1.2c-1.7-0.2-2.5-0.4-2.5-0.6l0.1-0.1l0.4-1.2l0.1-1.1c-0.1-1.1-0.5-1.9-1.2-2.4
	c-0.8-0.6-1.8-0.9-3-0.8c-1.1,0.1-2.1,0.5-2.7,1.2c-0.8,0.8-1.1,1.7-1,2.8c0.1,1.2,0.7,2.1,1.6,2.6c1,0.6,2.4,0.9,4.1,0.8l1.5-0.1
	c1.6-0.1,2.8,0.1,3.5,0.4c0.8,0.3,1.3,0.9,1.7,1.8c-0.3,0.9-0.8,1.5-1.5,2c-0.6,0.4-1.8,0.6-3.4,0.7L13.2,29c-1.8,0.1-3.1,0.5-4,1.1
	c-0.9,0.8-1.3,1.7-1.2,2.9c0.1,1.1,0.5,2.1,1.3,2.7c0.8,0.7,1.7,1,2.8,0.9c1.2-0.1,2.2-0.5,2.9-1.2c0.7-0.8,1-1.6,0.9-2.6l-0.8-2.2
	v-0.1c-0.1,0-0.1,0-0.1-0.1c-0.1-0.1,0.8-0.4,2.4-0.8c1.6-0.4,3.2-1,4.7-1.8c4.6,1.5,8.1,2.6,10.6,3.3c2.4,0.7,4.2,1,5.2,0.9
	c0.6-0.1,1.2-0.2,1.8-0.5c0.6-0.3,1.1-0.8,1.7-1.3L27,25.9z M13.4,22.3c-0.5,0.5-1.1,0.7-1.9,0.8c-0.9,0.1-1.6-0.2-2.1-0.7
	c-0.6-0.4-1-1-1-1.8c0-0.7,0.2-1.3,0.7-1.9c0.5-0.4,1.1-0.7,2-0.8c0.8-0.1,1.5,0.2,2,0.7c0.6,0.4,0.9,0.9,0.9,1.7
	C14,21.1,13.8,21.8,13.4,22.3z M14,34.7c-0.5,0.5-1.2,0.8-2,0.8c-0.8,0.1-1.5-0.1-2-0.6c-0.5-0.4-0.8-1-0.8-1.8
	c-0.1-0.8,0.2-1.4,0.8-2c0.5-0.5,1.1-0.8,2-0.8c0.8-0.1,1.4,0.2,2,0.7c0.5,0.5,0.8,1,0.8,1.7C14.8,33.4,14.5,34.1,14,34.7z"/>
</svg>
