<?xml version="1.0" encoding="utf-8"?>
<!-- Generator: Adobe Illustrator 25.4.2, SVG Export Plug-In . SVG Version: 6.00 Build 0)  -->
<svg version="1.1" id="Capa_1" xmlns="http://www.w3.org/2000/svg" xmlns:xlink="http://www.w3.org/1999/xlink" x="0px" y="0px"
	 viewBox="0 0 50 50" style="enable-background:new 0 0 50 50;" xml:space="preserve">
<style type="text/css">
	.st0{fill:#020203;}
</style>
<path class="st0" d="M18.3,19.9h3.2l1.9,10.3v0.1c0.1-0.5,0.3-1,0.4-1.6l2.5-8.8h3.2l2.2,9.9l2.1-9.8h3l-3.6,13.1H30l-2.2-8.4
	c-0.1-0.5-0.1-1-0.1-1.5c-0.1,0.7-0.2,1.2-0.3,1.5l-2.2,8.4l-3.4-0.1L18.3,19.9z"/>
<path class="st0" d="M17.3,14.5L5.7,26.1l11.7,11.8h23.8l0.1-23.2L17.3,14.5z M38.5,35.2l-19.8-0.1l-8.9-8.9l8.9-9l19.9,0.2
	L38.5,35.2z"/>
<path class="st0" d="M36.9,20l-3.6,13.1H30l-2.2-8.4c-0.1-0.5-0.1-1-0.1-1.5c-0.1,0.7-0.2,1.2-0.3,1.5l-2.2,8.4l-3.4-0.1l-3.4-13.1
	h3.2l1.9,10.3v0.1c0.1-0.5,0.3-1,0.4-1.6l2.5-8.8h3.2l2.2,9.9l2.1-9.8H36.9z"/>
<path class="st0" d="M36.9,20l-3.6,13.1H30l-2.2-8.4c-0.1-0.5-0.1-1-0.1-1.5c-0.1,0.7-0.2,1.2-0.3,1.5l-2.2,8.4l-3.4-0.1l-3.4-13.1
	h3.2l1.9,10.3v0.1c0.1-0.5,0.3-1,0.4-1.6l2.5-8.8h3.2l2.2,9.9l2.1-9.8H36.9z"/>
</svg>
