<?xml version="1.0" encoding="utf-8"?>
<!-- Generator: Adobe Illustrator 25.4.2, SVG Export Plug-In . SVG Version: 6.00 Build 0)  -->
<svg version="1.1" id="Capa_1" xmlns="http://www.w3.org/2000/svg" xmlns:xlink="http://www.w3.org/1999/xlink" x="0px" y="0px"
	 viewBox="0 0 50 50" style="enable-background:new 0 0 50 50;" xml:space="preserve">
<style type="text/css">
	.st0{fill:#020203;}
</style>
<path class="st0" d="M38.2,16.5l-0.6-2c-0.2-0.6-0.5-1-0.9-1.2c-0.4-0.3-0.9-0.5-1.5-0.5h-5v-1.1c0-0.6-0.2-1.1-0.6-1.6V9.9h-0.1
	c-0.4-0.4-0.9-0.6-1.6-0.6h-5.1c-0.6,0-1.2,0.2-1.6,0.6h-0.1c-0.4,0.5-0.6,1-0.6,1.7v1.1h-5c-0.5,0-1,0.2-1.5,0.5
	c-0.4,0.3-0.7,0.7-0.8,1.2l-0.7,2c-0.1,0.4-0.1,0.7-0.1,0.9c0.1,0.4,0.2,0.7,0.4,0.9c0.2,0.3,0.5,0.5,0.7,0.6
	c0.3,0.2,0.6,0.3,0.9,0.3h0.2l1.5,18.3c0.1,0.9,0.4,1.6,1,2.2c0.7,0.6,1.5,0.9,2.3,0.9h12.1c0.9,0,1.7-0.3,2.3-0.9
	c0.6-0.5,1-1.3,1-2.2l1.6-18.3c0.2-0.1,0.5-0.1,0.7-0.2V19c0.3-0.1,0.5-0.3,0.7-0.6c0.2-0.3,0.4-0.6,0.4-0.9
	C38.4,17.1,38.4,16.8,38.2,16.5z M31.9,37.4c0,0.1,0,0.1-0.1,0.2c-0.1,0.1-0.1,0.1-0.2,0.1H19.5c-0.1,0-0.1,0-0.2-0.1
	c-0.1-0.1-0.1-0.1-0.1-0.2l-1.5-18.1h15.7L31.9,37.4z"/>
</svg>
