<?xml version="1.0" encoding="utf-8"?>
<!-- Generator: Adobe Illustrator 25.4.2, SVG Export Plug-In . SVG Version: 6.00 Build 0)  -->
<svg version="1.1" id="Capa_1" xmlns="http://www.w3.org/2000/svg" xmlns:xlink="http://www.w3.org/1999/xlink" x="0px" y="0px"
	 viewBox="0 0 50 50" style="enable-background:new 0 0 50 50;" xml:space="preserve">
<style type="text/css">
	.st0{fill:#020203;}
</style>
<polygon class="st0" points="16.3,26 22.7,19.5 26.9,19.5 20.4,26.1 26.8,32.5 22.9,32.5 "/>
<polygon class="st0" points="38.3,32.4 28.5,32.4 28.5,19.3 32.2,19.3 32.2,29 38.3,29 "/>
<path class="st0" d="M19.3,14.7L8,26.1l11.3,11.4h23.2l0.1-22.6L19.3,14.7z M39.9,34.9l-19.1-0.1L12,26.2l8.7-8.7L40,17.5L39.9,34.9
	z"/>
<polygon class="st0" points="26.9,19.5 20.4,26.1 26.8,32.5 22.9,32.5 16.3,26 22.7,19.5 "/>
<polygon class="st0" points="38.3,29 38.3,32.4 28.5,32.4 28.5,19.3 32.2,19.3 32.2,29 "/>
<polygon class="st0" points="38.3,29 38.3,32.4 28.5,32.4 28.5,19.3 32.2,19.3 32.2,29 "/>
<polygon class="st0" points="20.4,26.1 26.8,32.5 22.9,32.5 16.3,26 22.7,19.5 26.9,19.5 "/>
</svg>
