<?xml version="1.0" encoding="utf-8"?>
<!-- Generator: Adobe Illustrator 25.4.2, SVG Export Plug-In . SVG Version: 6.00 Build 0)  -->
<svg version="1.1" id="Capa_1" xmlns="http://www.w3.org/2000/svg" xmlns:xlink="http://www.w3.org/1999/xlink" x="0px" y="0px"
	 viewBox="0 0 50 50" style="enable-background:new 0 0 50 50;" xml:space="preserve">
<path d="M17.1,20.2c0.2-1.5,0.9-2.3,2.4-2.4c1.4,0.1,2.1,0.9,2.2,2.3c-0.1,1.5-0.8,2.3-2.3,2.4C17.9,22.4,17.2,21.7,17.1,20.2z"/>
<path d="M31,20.1c-0.1,1.5-0.8,2.3-2.3,2.4c-1.5-0.1-2.2-0.9-2.2-2.3c0-1.5,0.8-2.3,2.3-2.4C30.2,17.9,30.9,18.7,31,20.1z"/>
<path d="M29.6,24.7h1.3c-0.2,4.5-2.6,6.9-7,7.1c-4.2-0.3-6.5-2.6-6.8-7h1.3c1.3,3.3,3.2,4.8,5.6,4.7C26.7,29.7,28.6,28.1,29.6,24.7z
	"/>
<path d="M34.2,14.4c-2.8-2.8-6.2-4.3-10.2-4.3c-3.9,0-7.3,1.4-10.2,4.3c-2.8,2.8-4.3,6.3-4.3,10.3c0,3.9,1.4,7.3,4.3,10.2
	c2.8,2.8,6.2,4.2,10.2,4.2c4,0,7.4-1.4,10.2-4.2c2.8-2.8,4.3-6.2,4.3-10.2C38.5,20.7,37,17.3,34.2,14.4z M32.1,32.8
	c-2.2,2.3-4.9,3.4-8.1,3.4c-3.1,0-5.8-1.1-8.1-3.4c-2.3-2.3-3.4-5-3.4-8.1c0-3.2,1.1-6,3.4-8.2c2.3-2.3,5-3.4,8.1-3.4
	c3.2,0,5.9,1.1,8.1,3.4c2.3,2.3,3.4,5,3.4,8.2C35.5,27.8,34.4,30.5,32.1,32.8z"/>
<path d="M17.1,20.2c0.2-1.5,0.9-2.3,2.4-2.4c1.4,0.1,2.1,0.9,2.2,2.3c-0.1,1.5-0.8,2.3-2.3,2.4C17.9,22.4,17.2,21.7,17.1,20.2z"/>
<path d="M26.5,20.2c0-1.5,0.8-2.3,2.3-2.4c1.4,0.1,2.1,0.9,2.2,2.3c-0.1,1.5-0.8,2.3-2.3,2.4C27.2,22.4,26.5,21.7,26.5,20.2z"/>
<path d="M29.6,24.7h1.3c-0.2,4.5-2.6,6.9-7,7.1c-4.2-0.3-6.5-2.6-6.8-7h1.3c1.3,3.3,3.2,4.8,5.6,4.7C26.7,29.7,28.6,28.1,29.6,24.7z
	"/>
<path d="M30.9,24.7c-0.2,4.5-2.6,6.9-7,7.1c-4.2-0.3-6.5-2.6-6.8-7h1.3c1.3,3.3,3.2,4.8,5.6,4.7c2.7,0.1,4.6-1.5,5.6-4.8H30.9z"/>
<path d="M31,20.1c-0.1,1.5-0.8,2.3-2.3,2.4c-1.5-0.1-2.2-0.9-2.2-2.3c0-1.5,0.8-2.3,2.3-2.4C30.2,17.9,30.9,18.7,31,20.1z"/>
<path d="M21.7,20.1c-0.1,1.5-0.8,2.3-2.3,2.4c-1.5-0.1-2.2-0.9-2.3-2.3c0.2-1.5,0.9-2.3,2.4-2.4C20.9,17.9,21.6,18.7,21.7,20.1z"/>
</svg>
