<?xml version="1.0" encoding="utf-8"?>
<!-- Generator: Adobe Illustrator 25.4.2, SVG Export Plug-In . SVG Version: 6.00 Build 0)  -->
<svg version="1.1" id="Capa_1" xmlns="http://www.w3.org/2000/svg" xmlns:xlink="http://www.w3.org/1999/xlink" x="0px" y="0px"
	 viewBox="0 0 50 50" style="enable-background:new 0 0 50 50;" xml:space="preserve">
<path d="M31.3,19.2c-1.5,1.6-2.2,3.4-2.2,5.3c0,2.1,0.7,3.8,2.1,5.3l0.1,0.1c1.4,1.4,3.2,2,5.3,2c2,0,3.7-0.7,5.2-2.1
	c1.6-1.5,2.4-3.3,2.4-5.3c0-2-0.8-3.8-2.4-5.3c-1.5-1.5-3.2-2.2-5.2-2.2C34.5,16.9,32.7,17.7,31.3,19.2"/>
<path d="M25.9,24.7c0-0.1,0-0.1,0-0.2c0-0.1,0-0.2,0-0.3L13.4,12c-0.1-0.1-0.1-0.1-0.2-0.1c-0.1,0-0.1,0-0.2,0.1v5.9H6.2
	c-0.1,0-0.1,0-0.1,0.1c-0.1,0.1-0.2,0.2-0.2,0.3v12.5c0,0.1,0.1,0.1,0.2,0.1c0,0.1,0,0.1,0.1,0.1H13v5.9c0,0.1,0,0.2,0,0.3
	c0.1,0,0.1,0,0.2,0c0.1,0,0.1,0,0.2,0L25.9,24.7"/>
<path d="M15.5,28.7c0-0.1,0-0.1,0-0.2c-0.1-0.1-0.1-0.1-0.2-0.1H8.5v-7.6h6.7c0.1,0,0.1,0,0.2-0.1v-2.8l6.7,6.6l-6.7,6.7V28.7"/>
</svg>
