<?xml version="1.0" encoding="utf-8"?>
<!-- Generator: Adobe Illustrator 25.4.2, SVG Export Plug-In . SVG Version: 6.00 Build 0)  -->
<svg version="1.1" id="Capa_1" xmlns="http://www.w3.org/2000/svg" xmlns:xlink="http://www.w3.org/1999/xlink" x="0px" y="0px"
	 viewBox="0 0 50 50" style="enable-background:new 0 0 50 50;" xml:space="preserve">
<polyline points="22,27.2 14,27.2 14,29 22,29 22,27.2 "/>
<polyline points="22,23.3 14,23.3 14,25.2 22,25.2 22,23.3 "/>
<polyline points="11.3,25.5 3.6,21.5 3.6,23.6 9.1,26.2 9.1,26.3 3.6,28.6 3.6,30.8 11.3,26.9 11.3,25.5 "/>
<polyline points="39.1,21.1 38.3,23 43.6,25.5 38.3,28.1 39.1,30 45.8,26.6 45.8,24.4 39.1,21.1 "/>
<polyline points="31.3,21.1 30.4,23 35.7,25.5 30.4,28.1 31.3,30 37.9,26.6 37.9,24.4 31.3,21.1 "/>
</svg>
