<?xml version="1.0" encoding="utf-8"?>
<!-- Generator: Adobe Illustrator 25.4.2, SVG Export Plug-In . SVG Version: 6.00 Build 0)  -->
<svg version="1.1" id="Capa_1" xmlns="http://www.w3.org/2000/svg" xmlns:xlink="http://www.w3.org/1999/xlink" x="0px" y="0px"
	 viewBox="0 0 50 50" style="enable-background:new 0 0 50 50;" xml:space="preserve">
<path d="M24.4,24h0.5l11.8-12.1c0.1-0.1,0.1-0.1,0.1-0.2c0-0.1,0-0.1-0.1-0.2H31V4.9c0-0.1,0-0.1-0.1-0.1c-0.1-0.1-0.2-0.2-0.3-0.2
	H18.5c-0.1,0-0.1,0.1-0.1,0.2c-0.1,0-0.1,0-0.1,0.1v6.6h-6v0.4L24.4,24z M20.8,13.9c0.1-0.1,0.1-0.1,0.1-0.2V7.2h7.3v6.5
	c0,0.1,0,0.1,0.1,0.2H31l-6.4,6.5l-6.5-6.5C18.1,13.9,20.8,13.9,20.8,13.9z"/>
<path d="M19.4,39.4c1.4,1.5,3.2,2.3,5.2,2.3c1.9,0,3.6-0.7,5.2-2.3c1.4-1.4,2.2-3.1,2.2-5.1c0-2.1-0.7-3.8-2.2-5.2
	c-1.5-1.4-3.2-2.2-5.2-2.2s-3.7,0.7-5.2,2.1l-0.1,0.1c-1.3,1.4-2,3.1-2,5.2C17.4,36.2,18.1,38,19.4,39.4z M21.5,31.2
	c0.8-0.8,1.9-1.2,3.1-1.2s2.3,0.4,3.1,1.2c0.9,0.9,1.3,1.9,1.3,3.1c0,1.2-0.5,2.2-1.3,2.9l-0.2,0.2c-0.8,0.8-1.8,1.1-2.9,1.1
	c-1.2,0-2.3-0.4-3.1-1.1c-0.8-0.8-1.1-1.9-1.1-3.1C20.4,33.2,20.7,32.2,21.5,31.2z"/>
</svg>
