<?xml version="1.0" encoding="utf-8"?>
<!-- Generator: Adobe Illustrator 25.4.2, SVG Export Plug-In . SVG Version: 6.00 Build 0)  -->
<svg version="1.1" id="Capa_1" xmlns="http://www.w3.org/2000/svg" xmlns:xlink="http://www.w3.org/1999/xlink" x="0px" y="0px"
	 viewBox="0 0 50 50" style="enable-background:new 0 0 50 50;" xml:space="preserve">
<path d="M25.4,23.3v-0.5L13.3,11c-0.1-0.1-0.1-0.1-0.2-0.1c-0.1,0-0.1,0-0.2,0.1v5.7H6.3c-0.1,0-0.1,0-0.1,0.1C6.1,16.9,6,17,6,17.1
	v12.1c0,0.1,0.1,0.1,0.2,0.1c0,0.1,0,0.1,0.1,0.1h6.6v6h0.4L25.4,23.3z M15.3,26.9c-0.1-0.1-0.1-0.1-0.2-0.1H8.6v-7.3h6.5
	c0.1,0,0.1,0,0.2-0.1v-2.7l6.5,6.4l-6.5,6.5C15.3,29.6,15.3,26.9,15.3,26.9z"/>
<path d="M40.7,28.3c1.5-1.4,2.3-3.2,2.3-5.2c0-1.9-0.7-3.6-2.3-5.2c-1.4-1.4-3.1-2.2-5.1-2.2c-2.1,0-3.8,0.7-5.2,2.2
	c-1.4,1.5-2.2,3.2-2.2,5.2s0.7,3.7,2.1,5.2l0.1,0.1c1.4,1.3,3.1,2,5.2,2C37.6,30.3,39.3,29.6,40.7,28.3z M32.6,26.2
	c-0.8-0.8-1.2-1.9-1.2-3.1s0.4-2.3,1.2-3.1c0.9-0.9,1.9-1.3,3.1-1.3c1.2,0,2.2,0.5,2.9,1.3l0.2,0.2c0.8,0.8,1.1,1.8,1.1,2.9
	c0,1.2-0.4,2.3-1.1,3.1c-0.8,0.8-1.9,1.1-3.1,1.1C34.5,27.3,33.5,27,32.6,26.2z"/>
</svg>
