<?xml version="1.0" encoding="utf-8"?>
<!-- Generator: Adobe Illustrator 25.4.2, SVG Export Plug-In . SVG Version: 6.00 Build 0)  -->
<svg version="1.1" id="Capa_1" xmlns="http://www.w3.org/2000/svg" xmlns:xlink="http://www.w3.org/1999/xlink" x="0px" y="0px"
	 viewBox="0 0 50 50" style="enable-background:new 0 0 50 50;" xml:space="preserve">
<path d="M24.6,22.2h-0.5L12.3,34.3c-0.1,0.1-0.1,0.1-0.1,0.2c0,0.1,0,0.1,0.1,0.2H18v6.6c0,0.1,0,0.1,0.1,0.1
	c0.1,0.1,0.2,0.2,0.3,0.2h12.1c0.1,0,0.1-0.1,0.1-0.2c0.1,0,0.1,0,0.1-0.1v-6.6h6v-0.4L24.6,22.2z M28.2,32.3
	c-0.1,0.1-0.1,0.1-0.1,0.2V39h-7.3v-6.5c0-0.1,0-0.1-0.1-0.2H18l6.4-6.5l6.5,6.5C30.9,32.4,28.2,32.4,28.2,32.3z"/>
<path d="M29.6,6.9c-1.4-1.5-3.2-2.3-5.2-2.3c-1.9,0-3.6,0.7-5.2,2.3C17.8,8.4,17,10,17,12c0,2.1,0.7,3.8,2.2,5.2
	c1.5,1.4,3.2,2.2,5.2,2.2s3.7-0.7,5.2-2.1l0.1-0.1c1.3-1.4,2-3.1,2-5.2C31.6,10.1,31,8.4,29.6,6.9z M27.5,15.1
	c-0.8,0.8-1.9,1.2-3.1,1.2s-2.3-0.4-3.1-1.2C20.5,14.2,20,13.2,20,12c0-1.2,0.5-2.2,1.3-2.9l0.2-0.2c0.8-0.8,1.8-1.1,2.9-1.1
	c1.2,0,2.3,0.4,3.1,1.1c0.8,0.8,1.1,1.9,1.1,3.1C28.6,13.2,28.3,14.2,27.5,15.1z"/>
</svg>
