<?xml version="1.0" encoding="utf-8"?>
<!-- Generator: Adobe Illustrator 25.4.2, SVG Export Plug-In . SVG Version: 6.00 Build 0)  -->
<svg version="1.1" id="Capa_1" xmlns="http://www.w3.org/2000/svg" xmlns:xlink="http://www.w3.org/1999/xlink" x="0px" y="0px"
	 viewBox="0 0 50 50" style="enable-background:new 0 0 50 50;" xml:space="preserve">
<style type="text/css">
	.st0{fill:#020203;}
</style>
<path class="st0" d="M35.9,23.9c0-6.4-3.2-9.7-9.7-10h-2.8c-6.2,0.5-9.3,3.9-9.3,10.3v15.3h5.2V25.3c0.1-3.7,1.6-5.8,4.4-6.2
	l0.6-0.2c0.2,0,0.4,0,0.6,0c0.1,0,0.1,0,0.2,0h0.4c3.2,0.2,4.8,2.4,4.9,6.5v14.2h5.5V23.9"/>
<path class="st0" d="M26.8,24.6c0-0.5-0.2-1-0.6-1.4c-0.2-0.3-0.5-0.4-0.8-0.5c-0.2-0.1-0.4-0.1-0.6-0.1c-0.3,0-0.4,0-0.5,0.1
	c-0.3,0.1-0.6,0.2-0.9,0.5l-0.1,0.1c-0.3,0.3-0.4,0.5-0.5,0.9c-0.1,0.1-0.1,0.2-0.1,0.4v14.9h3.8L26.8,24.6"/>
</svg>
