<?xml version="1.0" encoding="utf-8"?>
<!-- Generator: Adobe Illustrator 25.4.2, SVG Export Plug-In . SVG Version: 6.00 Build 0)  -->
<svg version="1.1" id="Capa_1" xmlns="http://www.w3.org/2000/svg" xmlns:xlink="http://www.w3.org/1999/xlink" x="0px" y="0px"
	 viewBox="0 0 50 50" style="enable-background:new 0 0 50 50;" xml:space="preserve">
<style type="text/css">
	.st0{fill:#020203;}
</style>
<path class="st0" d="M39.8,13.4c-0.1-0.1-0.1-0.1-0.1,0h-0.1c-0.6,0.4-1.1,0.8-1.5,1.1c-1.3,0.8-2.6,1.4-3.8,1.8
	c-0.8,0.2-1.5,0.3-2.3,0.3h-0.5c-0.3-0.1-0.5-0.1-0.6-0.1c-0.4-0.1-0.9-0.2-1.5-0.4c-0.4-0.1-0.9-0.3-1.3-0.5
	c-0.3-0.1-0.7-0.4-1.2-0.6c-0.4-0.2-0.7-0.4-0.9-0.5c-0.4-0.2-0.8-0.4-1-0.5c-0.9-0.4-1.7-0.6-2.4-0.7C21.9,13,21.4,13,20.9,13
	c-0.6,0-1.2,0.1-1.9,0.2c-0.6,0.1-1.1,0.2-1.8,0.4c-1,0.3-2,0.8-3.1,1.5c-0.1,0-0.1,0-0.1,0.1v21.8c-0.1,0.2-0.2,0.3-0.3,0.4
	l-0.1,0.1c-0.1,0-0.1,0-0.1,0.1c-0.6,0.5-0.8,1.1-0.6,2c0.1,0.4,0.4,0.8,0.8,1.1c0.5,0.5,1.2,0.6,2.1,0.5c0.5-0.1,0.9-0.3,1.3-0.7
	c0.5-0.5,0.6-1.1,0.5-1.9c-0.1-0.5-0.3-0.9-0.7-1.2c-0.1-0.1-0.1-0.1-0.2-0.2v-7.5c0.1-0.1,0.1-0.1,0.2-0.1c0.7-0.4,1.5-0.6,2.2-0.6
	c0.5-0.1,1-0.2,1.4-0.2h0.7c0.1,0,0.3,0,0.7,0.1c0.5,0.1,0.9,0.2,1.4,0.4c0.5,0.1,1.1,0.3,1.8,0.6c0.3,0.1,0.8,0.4,1.6,0.8
	c0.6,0.3,1.1,0.6,1.5,0.8c0.5,0.3,1.1,0.5,1.6,0.6c0.5,0.1,1,0.2,1.5,0.2c0.6,0.1,1.3,0,2.1-0.1c0.7-0.2,1.4-0.5,2.2-0.7
	c0.6-0.3,1.3-0.6,2.1-1c0.5-0.4,1.1-0.8,1.9-1.2c0.1-0.1,0.1-0.1,0.1-0.2c0.1-0.1,0.1-0.1,0.1-0.2V13.4H39.8z M35.5,27l-0.1,0.1
	c-0.5,0.2-0.9,0.4-1.2,0.5c-0.5,0.2-1,0.4-1.4,0.5c-0.5,0.1-1,0.2-1.5,0.2c-0.2,0.1-0.4,0.1-0.6,0.1c-0.3,0-0.5,0-0.7-0.1
	c-0.4-0.1-0.7-0.1-1-0.2c-0.4-0.1-0.7-0.3-1-0.4c-0.3-0.1-0.6-0.3-1-0.5c-0.6-0.3-0.9-0.5-1-0.5c-0.4-0.2-0.8-0.4-1.1-0.5
	c-0.4-0.1-0.7-0.1-1-0.2c-0.2-0.1-0.4-0.1-0.4-0.1h-0.4c-0.4-0.1-0.7-0.1-1,0c-0.4,0-0.9,0.1-1.4,0.2L19,26.5L18.9,18
	c0.7-0.3,1.5-0.5,2.2-0.6c0.4-0.1,0.8-0.1,1.1-0.2h1.2c0.3,0.1,0.6,0.1,1,0.2c0.5,0.1,1,0.2,1.5,0.5c0.2,0.1,0.4,0.2,0.6,0.3
	c0.2,0.1,0.4,0.2,0.7,0.3c0.3,0.2,0.6,0.3,0.7,0.4c0.3,0.1,0.6,0.3,0.9,0.4c0.3,0.1,0.7,0.2,1,0.3h0.3c0.1,0.1,0.3,0.1,0.4,0.1
	c0.5,0,1,0,1.5-0.1c0.8-0.1,1.7-0.4,2.7-0.8c0.1-0.1,0.3-0.1,0.5-0.2V27z"/>
</svg>
