<?xml version="1.0" encoding="utf-8"?>
<!-- Generator: Adobe Illustrator 25.4.2, SVG Export Plug-In . SVG Version: 6.00 Build 0)  -->
<svg version="1.1" id="Capa_1" xmlns="http://www.w3.org/2000/svg" xmlns:xlink="http://www.w3.org/1999/xlink" x="0px" y="0px"
	 viewBox="0 0 50 50" style="enable-background:new 0 0 50 50;" xml:space="preserve">
<path d="M28.3,26c-0.7-0.6-1.5-0.9-2.3-0.9h-2c-0.9,0-1.7,0.3-2.3,0.9c-0.6,0.6-0.9,1.4-0.9,2.2v3.2c0,0.9,0.3,1.6,0.9,2.2
	c0.6,0.6,1.4,0.9,2.3,0.9h2c0.9,0,1.7-0.3,2.3-0.9c0.6-0.6,0.9-1.4,0.9-2.2v-3.2C29.2,27.4,28.9,26.6,28.3,26z M26.3,31.5
	c0,0.1,0,0.1-0.1,0.2c-0.1,0.1-0.1,0.1-0.2,0.1h-2c-0.1,0-0.1,0-0.2-0.1c-0.1-0.1-0.1-0.1-0.1-0.2v-3.2c0-0.1,0-0.1,0.1-0.2
	c0.1-0.1,0.1-0.1,0.2-0.1h2c0.1,0,0.1,0,0.2,0.1c0.1,0.1,0.1,0.1,0.1,0.2V31.5z M28.3,26c-0.7-0.6-1.5-0.9-2.3-0.9h-2
	c-0.9,0-1.7,0.3-2.3,0.9c-0.6,0.6-0.9,1.4-0.9,2.2v3.2c0,0.9,0.3,1.6,0.9,2.2c0.6,0.6,1.4,0.9,2.3,0.9h2c0.9,0,1.7-0.3,2.3-0.9
	c0.6-0.6,0.9-1.4,0.9-2.2v-3.2C29.2,27.4,28.9,26.6,28.3,26z M26.3,31.5c0,0.1,0,0.1-0.1,0.2c-0.1,0.1-0.1,0.1-0.2,0.1h-2
	c-0.1,0-0.1,0-0.2-0.1c-0.1-0.1-0.1-0.1-0.1-0.2v-3.2c0-0.1,0-0.1,0.1-0.2c0.1-0.1,0.1-0.1,0.2-0.1h2c0.1,0,0.1,0,0.2,0.1
	c0.1,0.1,0.1,0.1,0.1,0.2V31.5z M37.8,22.9c-0.8-0.9-1.8-1.4-3-1.6v-4c0-1.3-0.2-2.5-0.7-3.6c-0.5-1.2-1.3-2.2-2.1-3
	c-0.9-0.9-2-1.6-3.1-2c-1.2-0.5-2.5-0.7-3.8-0.7s-2.6,0.2-3.8,0.7C20,9,18.9,9.7,18,10.6c-0.9,0.9-1.7,1.9-2.1,3
	c-0.5,1.2-0.8,2.4-0.8,3.6v4C14,21.5,13,22,12.2,22.9c-0.8,0.9-1.2,2-1.2,3.2v8.8c0,0.7,0.1,1.3,0.4,1.9c0.3,0.6,0.6,1.2,1.1,1.6
	c0.5,0.5,1,0.8,1.7,1.1c0.6,0.3,1.3,0.4,2,0.4h17.6c0.7,0,1.4-0.1,2-0.4c0.7-0.3,1.3-0.6,1.7-1.1c0.5-0.5,0.8-1,1.1-1.6
	c0.3-0.6,0.4-1.3,0.4-1.9v-8.8C39,24.9,38.6,23.8,37.8,22.9z M18.1,17.2c0-0.9,0.2-1.7,0.5-2.5c0.3-0.8,0.8-1.5,1.5-2.1
	c0.6-0.6,1.3-1.1,2.1-1.4c0.9-0.3,1.8-0.5,2.7-0.5s1.8,0.2,2.6,0.5c0.9,0.3,1.6,0.8,2.2,1.4c0.6,0.6,1.1,1.3,1.5,2.1
	c0.3,0.8,0.5,1.7,0.5,2.5v3.9H18.1V17.2z M36,34.9c0,0.6-0.2,1.1-0.6,1.5c-0.5,0.4-1,0.6-1.6,0.6H16.2c-0.6,0-1.2-0.2-1.6-0.6
	C14.2,36,14,35.5,14,34.9v-8.8c0-0.6,0.2-1.1,0.6-1.5c0.5-0.4,1-0.6,1.6-0.6h17.6c0.6,0,1.2,0.2,1.6,0.6c0.4,0.4,0.6,0.9,0.6,1.5
	V34.9z M26,25.1h-2c-0.9,0-1.7,0.3-2.3,0.9c-0.6,0.6-0.9,1.4-0.9,2.2v3.2c0,0.9,0.3,1.6,0.9,2.2c0.6,0.6,1.4,0.9,2.3,0.9h2
	c0.9,0,1.7-0.3,2.3-0.9c0.6-0.6,0.9-1.4,0.9-2.2v-3.2c0-0.9-0.3-1.6-0.9-2.2C27.7,25.4,26.9,25.1,26,25.1z M26.3,31.5
	c0,0.1,0,0.1-0.1,0.2c-0.1,0.1-0.1,0.1-0.2,0.1h-2c-0.1,0-0.1,0-0.2-0.1c-0.1-0.1-0.1-0.1-0.1-0.2v-3.2c0-0.1,0-0.1,0.1-0.2
	c0.1-0.1,0.1-0.1,0.2-0.1h2c0.1,0,0.1,0,0.2,0.1c0.1,0.1,0.1,0.1,0.1,0.2V31.5z"/>
<path d="M28.3,26c-0.7-0.6-1.5-0.9-2.3-0.9h-2c-0.9,0-1.7,0.3-2.3,0.9c-0.6,0.6-0.9,1.4-0.9,2.2v3.2c0,0.9,0.3,1.6,0.9,2.2
	c0.6,0.6,1.4,0.9,2.3,0.9h2c0.9,0,1.7-0.3,2.3-0.9c0.6-0.6,0.9-1.4,0.9-2.2v-3.2C29.2,27.4,28.9,26.6,28.3,26z M26.3,31.5
	c0,0.1,0,0.1-0.1,0.2c-0.1,0.1-0.1,0.1-0.2,0.1h-2c-0.1,0-0.1,0-0.2-0.1c-0.1-0.1-0.1-0.1-0.1-0.2v-3.2c0-0.1,0-0.1,0.1-0.2
	c0.1-0.1,0.1-0.1,0.2-0.1h2c0.1,0,0.1,0,0.2,0.1c0.1,0.1,0.1,0.1,0.1,0.2V31.5z"/>
<path d="M28.3,26c-0.7-0.6-1.5-0.9-2.3-0.9h-2c-0.9,0-1.7,0.3-2.3,0.9c-0.6,0.6-0.9,1.4-0.9,2.2v3.2c0,0.9,0.3,1.6,0.9,2.2
	c0.6,0.6,1.4,0.9,2.3,0.9h2c0.9,0,1.7-0.3,2.3-0.9c0.6-0.6,0.9-1.4,0.9-2.2v-3.2C29.2,27.4,28.9,26.6,28.3,26z M26.3,31.5
	c0,0.1,0,0.1-0.1,0.2c-0.1,0.1-0.1,0.1-0.2,0.1h-2c-0.1,0-0.1,0-0.2-0.1c-0.1-0.1-0.1-0.1-0.1-0.2v-3.2c0-0.1,0-0.1,0.1-0.2
	c0.1-0.1,0.1-0.1,0.2-0.1h2c0.1,0,0.1,0,0.2,0.1c0.1,0.1,0.1,0.1,0.1,0.2V31.5z"/>
</svg>
