<?xml version="1.0" encoding="utf-8"?>
<!-- Generator: Adobe Illustrator 25.4.2, SVG Export Plug-In . SVG Version: 6.00 Build 0)  -->
<svg version="1.1" id="Capa_1" xmlns="http://www.w3.org/2000/svg" xmlns:xlink="http://www.w3.org/1999/xlink" x="0px" y="0px"
	 viewBox="0 0 50 50" style="enable-background:new 0 0 50 50;" xml:space="preserve">
<style type="text/css">
	.st0{fill:#020203;}
</style>
<path class="st0" d="M19.9,16.2c0.1,0,0.2,0,0.4-0.1v-1.9c0-0.1,0-0.2,0-0.2c-0.2-0.1-0.3-0.1-0.4-0.1h-6.1c-0.9,0-1.7,0.3-2.3,0.8
	c-0.7,0.6-1.1,1.3-1.1,2.1v18.7c0,0.4,0.1,0.7,0.4,1.1c0.2,0.4,0.4,0.7,0.7,0.9c0.6,0.5,1.4,0.8,2.5,0.8h22.3c0.9,0,1.7-0.3,2.3-0.8
	c0.4-0.2,0.7-0.5,0.8-0.9c0.2-0.3,0.2-0.7,0.2-1.1v-2.2c0-0.1,0-0.2-0.1-0.2c-0.1-0.1-0.2-0.1-0.2-0.1h-2.1c-0.1,0-0.2,0-0.2,0.1
	c-0.1,0.1-0.1,0.2-0.1,0.2v1.9c0,0.1-0.1,0.2-0.2,0.4c-0.1,0.1-0.2,0.1-0.4,0.1H13.9c-0.2,0-0.3,0-0.5-0.1c-0.2-0.2-0.2-0.3-0.2-0.4
	V16.8c0-0.2,0.1-0.3,0.2-0.4c0.2-0.2,0.3-0.2,0.5-0.2H19.9"/>
<path class="st0" d="M27.2,13.1c-0.5,0-1,0.2-1.3,0.6c-0.3,0.3-0.5,0.7-0.5,1.2c0,0.5,0.2,0.9,0.5,1.3c0.3,0.3,0.7,0.5,1.3,0.5H35
	L22.4,29.2c-0.3,0.3-0.5,0.7-0.5,1.2c0,0.5,0.2,0.9,0.5,1.3c0.3,0.4,0.7,0.6,1.3,0.6c0.5,0,0.9-0.2,1.2-0.6l12.6-12.4v7.6
	c0,0.5,0.2,0.9,0.5,1.3c0.4,0.4,0.8,0.6,1.3,0.6c0.2,0,0.5-0.1,0.7-0.2c0.2-0.1,0.4-0.2,0.6-0.4c0.2-0.2,0.3-0.4,0.4-0.6
	c0.1-0.2,0.1-0.5,0.1-0.7v-12c0-0.5-0.2-0.9-0.5-1.2c-0.4-0.4-0.8-0.6-1.3-0.6H27.2"/>
</svg>
