<?xml version="1.0" encoding="utf-8"?>
<!-- Generator: Adobe Illustrator 25.4.2, SVG Export Plug-In . SVG Version: 6.00 Build 0)  -->
<svg version="1.1" id="Capa_1" xmlns="http://www.w3.org/2000/svg" xmlns:xlink="http://www.w3.org/1999/xlink" x="0px" y="0px"
	 viewBox="0 0 50 50" style="enable-background:new 0 0 50 50;" xml:space="preserve">
<path d="M23.3,15.2c-0.1-0.2-0.3-0.3-0.5-0.5c-0.2-0.1-0.5-0.2-0.7-0.2s-0.5,0.1-0.6,0.2l-8.9,5.1h-5c-0.4,0-0.7,0.1-0.9,0.4
	c-0.2,0.3-0.4,0.6-0.4,1v7.9c0,0.4,0.1,0.7,0.4,0.9c0.2,0.2,0.5,0.4,0.9,0.4h5l8.9,5.1c0.3,0.2,0.6,0.2,1,0.2
	c0.4-0.1,0.6-0.3,0.8-0.6c0.1-0.2,0.2-0.4,0.2-0.6V15.9C23.5,15.7,23.4,15.5,23.3,15.2z M20.9,32.1l-7.3-4.2
	c-0.2-0.1-0.4-0.2-0.7-0.2H9v-5.3h3.9c0.2,0,0.5-0.1,0.7-0.2l7.3-4.1V32.1z"/>
<path d="M40.7,18.6c-0.4,0-0.7,0.1-0.9,0.4l-4.5,4.6l-4.6-4.6c-0.2-0.2-0.5-0.4-0.8-0.4c-0.4,0-0.7,0.1-0.9,0.4
	c-0.2,0.2-0.4,0.5-0.4,0.9c0,0.3,0.1,0.6,0.4,0.8l4.6,4.6L28.7,30c-0.2,0.2-0.4,0.5-0.4,0.9c0,0.4,0.1,0.7,0.4,0.9
	c0.2,0.2,0.5,0.4,0.9,0.4c0.3,0,0.6-0.1,0.8-0.4l4.8-4.8l4.5,4.6c0.2,0.2,0.5,0.4,0.9,0.4c0.4,0,0.7-0.1,0.9-0.4
	c0.2-0.2,0.4-0.5,0.4-0.9c0-0.4-0.1-0.7-0.4-0.9l-4.6-4.5l4.6-4.6c0.2-0.2,0.4-0.5,0.4-0.8c0-0.4-0.1-0.7-0.4-0.9
	C41.3,18.7,41,18.6,40.7,18.6L40.7,18.6z"/>
</svg>
