<?xml version="1.0" encoding="utf-8"?>
<!-- Generator: Adobe Illustrator 25.4.2, SVG Export Plug-In . SVG Version: 6.00 Build 0)  -->
<svg version="1.1" id="Capa_1" xmlns="http://www.w3.org/2000/svg" xmlns:xlink="http://www.w3.org/1999/xlink" x="0px" y="0px"
	 viewBox="0 0 50 50" style="enable-background:new 0 0 50 50;" xml:space="preserve">
<polyline points="20.5,25.2 20.6,25.2 29.1,38.3 33.3,38.3 33.3,20 29.4,20 29.4,32.7 29.4,32.7 21.2,20 16.7,20 16.7,38.3 
	20.6,38.3 20.5,25.2 "/>
<path d="M32.3,8.8h-2.7c0,0.6-0.1,1.2-0.4,1.6c-0.3,0.4-0.7,0.6-1.1,0.6c-0.5,0-1.3-0.3-2.4-1c-1.1-0.6-2.2-1-3.1-1
	c-1.3,0-2.3,0.4-3,1.3c-0.7,0.9-1.1,2-1.2,3.5H21c0.1-1.4,0.6-2.2,1.8-2.2c0.4,0,1,0.3,2,0.9c1.3,0.7,2.5,1.1,3.4,1.1
	c1.2,0,2.2-0.4,2.9-1.3C31.9,11.5,32.3,10.3,32.3,8.8"/>
</svg>
