<?xml version="1.0" encoding="utf-8"?>
<!-- Generator: Adobe Illustrator 25.4.2, SVG Export Plug-In . SVG Version: 6.00 Build 0)  -->
<svg version="1.1" id="Capa_1" xmlns="http://www.w3.org/2000/svg" xmlns:xlink="http://www.w3.org/1999/xlink" x="0px" y="0px"
	 viewBox="0 0 50 50" style="enable-background:new 0 0 50 50;" xml:space="preserve">
<path d="M24.6,25.8c0.2-0.3,0.3-0.5,0.3-0.9c0-0.4-0.1-0.7-0.4-1l-8-7.8c-0.3-0.3-0.5-0.4-0.9-0.4c-0.4,0-0.7,0.1-0.9,0.4
	c-0.3,0.3-0.4,0.5-0.4,0.9L14.5,33c0,0.3,0.1,0.6,0.4,0.9c0.3,0.3,0.5,0.4,0.9,0.4c0.4,0,0.7-0.1,0.9-0.4L24.6,25.8"/>
<path d="M27.9,16.2c-0.3-0.3-0.6-0.4-1-0.4c-0.3,0-0.6,0.1-0.9,0.4c-0.3,0.3-0.4,0.5-0.3,0.9V33c0,0.3,0.1,0.6,0.4,0.9
	c0.3,0.3,0.6,0.4,1,0.4c0.3,0,0.6-0.1,0.9-0.4l7.9-8.1c0.3-0.3,0.4-0.5,0.4-0.9c0-0.4-0.1-0.7-0.4-1L27.9,16.2"/>
</svg>
