<?xml version="1.0" encoding="utf-8"?>
<!-- Generator: Adobe Illustrator 25.4.2, SVG Export Plug-In . SVG Version: 6.00 Build 0)  -->
<svg version="1.1" id="Capa_1" xmlns="http://www.w3.org/2000/svg" xmlns:xlink="http://www.w3.org/1999/xlink" x="0px" y="0px"
	 viewBox="0 0 50 50" style="enable-background:new 0 0 50 50;" xml:space="preserve">
<polygon points="18.1,31.2 30.6,20.3 30.6,23.8 18.1,34.7 "/>
<path d="M36.5,12.6c0-0.9-0.3-1.6-0.8-2.1c-0.6-0.6-1.2-0.9-2-0.9l-5.8,0.1c-0.2-0.9-0.7-1.7-1.4-2.2c-0.7-0.6-1.5-0.9-2.5-0.9
	c-0.9,0-1.7,0.3-2.4,0.9c-0.7,0.5-1.2,1.3-1.5,2.2h-5.8c-0.7,0-1.3,0.3-1.9,0.8c-0.5,0.6-0.8,1.3-0.8,2.1l0.1,24.3
	c0,0.8,0.3,1.6,0.8,2.1c0.6,0.6,1.2,1,1.9,1l19.2-0.1c0.8,0,1.5-0.3,2-1c0.5-0.6,0.8-1.3,0.8-2.1L36.5,12.6z M23.1,10.1
	c0.3-0.2,0.6-0.3,1-0.3c0.4,0,0.8,0.1,1.1,0.3c0.2,0.3,0.3,0.7,0.3,1.2c0,0.4-0.1,0.8-0.3,1.1c-0.3,0.3-0.6,0.4-1.1,0.4
	c-0.4,0-0.7-0.1-1-0.4c-0.2-0.3-0.3-0.6-0.3-1.1C22.8,10.8,22.9,10.4,23.1,10.1z M14.6,37.1l-0.1-24.3h2.8v4.6H31v-4.6l2.7-0.1
	L33.8,37L14.6,37.1z"/>
<polygon points="30.6,20.3 30.6,23.8 18.1,34.7 18.1,31.2 "/>
<polygon points="30.6,20.3 30.6,23.8 18.1,34.7 18.1,31.2 "/>
</svg>
