<?xml version="1.0" encoding="utf-8"?>
<!-- Generator: Adobe Illustrator 25.4.2, SVG Export Plug-In . SVG Version: 6.00 Build 0)  -->
<svg version="1.1" id="Capa_1" xmlns="http://www.w3.org/2000/svg" xmlns:xlink="http://www.w3.org/1999/xlink" x="0px" y="0px"
	 viewBox="0 0 50 50" style="enable-background:new 0 0 50 50;" xml:space="preserve">
<path d="M33.8,25.2v-9.4c-0.1-1-0.5-1.9-1.2-2.6c-0.7-0.7-1.6-1.1-2.6-1.1h-4.1c-0.3-0.7-0.7-1.2-1.3-1.7c-0.7-0.5-1.4-0.7-2.2-0.7
	s-1.5,0.2-2.2,0.7c-0.7,0.5-1.1,1.1-1.3,1.8h-4.2c-1,0.1-1.9,0.5-2.6,1.2c-0.7,0.7-1.1,1.6-1,2.6l0.1,19.5c0,1,0.4,1.9,1.1,2.6
	c0.7,0.7,1.6,1.1,2.6,1H23c0.3,0.7,0.8,1.3,1.4,1.8c0.7,0.5,1.4,0.7,2.2,0.6h8.3c1,0,1.9-0.4,2.6-1.2c0.7-0.7,1-1.6,1-2.6v-8
	L33.8,25.2z M34.3,29.1h-1.6c-0.3,0-0.6-0.1-0.9-0.4c-0.3-0.2-0.4-0.5-0.4-0.8l-0.1-1.7L34.3,29.1z M21.1,14.7v-1.3
	c0-0.3,0.1-0.6,0.4-0.8c0.3-0.3,0.6-0.4,0.9-0.4s0.6,0.1,0.9,0.4c0.2,0.2,0.3,0.5,0.3,0.8v1.3l2.5-0.1l0.1,2.4l-7.5,0.1l-0.1-2.4
	H21.1z M23.8,23.2c-0.7,0.7-1.1,1.6-1.1,2.6l0.1,10.8H15c-0.3,0.1-0.6,0-0.9-0.2c-0.2-0.3-0.3-0.6-0.3-0.9L13.7,16
	c-0.1-0.3,0-0.6,0.2-0.8c0.3-0.3,0.6-0.4,0.9-0.5h1.4l0.1,4.9l12.5-0.1l-0.1-4.9H30c0.3,0,0.6,0.1,0.9,0.4c0.2,0.2,0.3,0.5,0.4,0.8
	v6.9L30.6,22h-4.2C25.4,22,24.6,22.4,23.8,23.2z M36,37.7c0,0.3-0.1,0.6-0.3,0.8c-0.3,0.3-0.6,0.4-0.9,0.4h-8.3
	c-0.3,0-0.6-0.1-0.9-0.3c-0.2-0.2-0.3-0.5-0.3-0.8l-0.1-12.1c0-0.3,0.1-0.6,0.3-0.8c0.3-0.3,0.6-0.5,0.9-0.5h2.4l0.1,3.4
	c0,1,0.4,1.9,1.1,2.6c0.7,0.7,1.6,1.1,2.7,1.1H36V37.7z"/>
</svg>
