<?xml version="1.0" encoding="utf-8"?>
<!-- Generator: Adobe Illustrator 25.4.2, SVG Export Plug-In . SVG Version: 6.00 Build 0)  -->
<svg version="1.1" id="Capa_1" xmlns="http://www.w3.org/2000/svg" xmlns:xlink="http://www.w3.org/1999/xlink" x="0px" y="0px"
	 viewBox="0 0 50 50" style="enable-background:new 0 0 50 50;" xml:space="preserve">
<path d="M24.6,22.3h-0.5L12.4,34.3c-0.1,0.1-0.1,0.1-0.1,0.2c0,0.1,0,0.1,0.1,0.2h5.7v6.6c0,0.1,0,0.1,0.1,0.1
	c0.1,0.1,0.2,0.2,0.3,0.2h12.1c0.1,0,0.1-0.1,0.1-0.2c0.1,0,0.1,0,0.1-0.1v-6.6h6v-0.4L24.6,22.3z M28.3,32.4
	c-0.1,0.1-0.1,0.1-0.1,0.2v6.5h-7.3v-6.5c0-0.1,0-0.1-0.1-0.2h-2.7l6.4-6.5l6.5,6.5H28.3z"/>
<path d="M29.6,6.9c-1.4-1.5-3.2-2.3-5.2-2.3c-1.9,0-3.6,0.7-5.2,2.3c-1.4,1.4-2.2,3.1-2.2,5.1c0,2.1,0.7,3.8,2.2,5.2
	c1.5,1.4,3.2,2.2,5.2,2.2c2,0,3.7-0.7,5.2-2.1l0.1-0.1c1.3-1.4,2-3.1,2-5.2C31.7,10,31,8.4,29.6,6.9z M27.5,15.1
	c-0.8,0.8-1.9,1.2-3.1,1.2c-1.2,0-2.3-0.4-3.1-1.2C20.5,14.2,20,13.1,20,12c0-1.2,0.5-2.2,1.3-2.9l0.2-0.2c0.8-0.8,1.8-1.1,2.9-1.1
	c1.2,0,2.3,0.4,3.1,1.1c0.8,0.8,1.1,1.9,1.1,3.1C28.7,13.1,28.3,14.2,27.5,15.1z"/>
</svg>
