<?xml version="1.0" encoding="utf-8"?>
<!-- Generator: Adobe Illustrator 25.4.2, SVG Export Plug-In . SVG Version: 6.00 Build 0)  -->
<svg version="1.1" id="Capa_1" xmlns="http://www.w3.org/2000/svg" xmlns:xlink="http://www.w3.org/1999/xlink" x="0px" y="0px"
	 viewBox="0 0 50 50" style="enable-background:new 0 0 50 50;" xml:space="preserve">
<path d="M31.9,18.4c0-0.7-0.2-1.3-0.7-1.8c-0.4-0.5-1-0.7-1.6-0.7h-0.1c-0.7,0-1.3,0.2-1.7,0.7C27.2,17,27,17.7,27,18.4v11.8
	c0,0.7,0.2,1.3,0.7,1.8c0.5,0.5,1.1,0.7,1.7,0.7h0.1c0.7,0,1.2-0.2,1.6-0.7c0.5-0.5,0.7-1.1,0.7-1.8V18.4"/>
<path d="M11.2,14.7c-0.4,0-0.7,0.1-1,0.4c-0.2,0.2-0.4,0.6-0.4,1L10,32.7c0,0.3,0.1,0.6,0.4,0.8c0.2,0.3,0.5,0.5,0.9,0.5
	c0.4,0,0.7-0.2,0.9-0.5l8.2-8.4c0.2-0.2,0.4-0.5,0.4-0.9c0-0.3-0.1-0.6-0.4-0.9L12,15.1C11.8,14.9,11.5,14.7,11.2,14.7"/>
<path d="M38.7,18.4c0-0.7-0.2-1.3-0.7-1.8c-0.5-0.5-1.1-0.7-1.7-0.7h-0.1c-0.7,0-1.3,0.2-1.7,0.7c-0.5,0.5-0.7,1.1-0.7,1.8v11.8
	c0,0.7,0.2,1.3,0.7,1.8c0.5,0.5,1.1,0.7,1.7,0.7h0.1c0.7,0,1.3-0.2,1.7-0.7c0.5-0.5,0.7-1.1,0.7-1.8V18.4"/>
</svg>
