<?xml version="1.0" encoding="utf-8"?>
<!-- Generator: Adobe Illustrator 25.4.2, SVG Export Plug-In . SVG Version: 6.00 Build 0)  -->
<svg version="1.1" id="Capa_1" xmlns="http://www.w3.org/2000/svg" xmlns:xlink="http://www.w3.org/1999/xlink" x="0px" y="0px"
	 viewBox="0 0 50 50" style="enable-background:new 0 0 50 50;" xml:space="preserve">
<style type="text/css">
	.st0{fill:#020203;}
</style>
<path class="st0" d="M25,19.9v-5.8l13.7,9.1L25,32.5v-5.8c-1.3,0.1-2.5,0.2-3.5,0.5c-0.8,0.2-1.7,0.6-2.6,1.1
	c-1,0.4-2.1,1.1-3.1,2.1c-0.8,0.9-1.6,2-2.4,3.3L12,35.9h-0.7v-2.4c0-0.7,0-1.2,0-1.4c0.1-0.9,0.2-1.7,0.4-2.4
	c0.5-2.3,1.5-4.3,3.2-5.9c1.3-1.3,2.7-2.2,4.4-2.8C20.9,20.3,22.8,20,25,19.9"/>
</svg>
