<?xml version="1.0" encoding="utf-8"?>
<!-- Generator: Adobe Illustrator 25.4.2, SVG Export Plug-In . SVG Version: 6.00 Build 0)  -->
<svg version="1.1" id="Capa_1" xmlns="http://www.w3.org/2000/svg" xmlns:xlink="http://www.w3.org/1999/xlink" x="0px" y="0px"
	 viewBox="0 0 50 50" style="enable-background:new 0 0 50 50;" xml:space="preserve">
<path d="M43.8,37.5v-0.5c0-0.4-0.1-0.7-0.4-1c-0.3-0.3-0.6-0.4-1-0.4c-0.3,0-0.5,0.1-0.8,0.4l-0.1,0.1h-3.6c-0.4,0-0.6,0.1-0.8,0.4
	c-0.3,0.3-0.4,0.6-0.4,1s0.1,0.7,0.4,1c0.2,0.2,0.5,0.3,0.8,0.3h4.5c0.4,0,0.7-0.1,1-0.3C43.7,38.2,43.8,37.8,43.8,37.5"/>
<path d="M43.8,26.4c0-0.4-0.1-0.7-0.4-1c-0.3-0.3-0.6-0.4-1-0.4c-0.3,0-0.5,0.1-0.8,0.4c-0.3,0.3-0.4,0.6-0.4,1v5.2
	c0,0.4,0.1,0.7,0.4,1c0.3,0.3,0.5,0.4,0.8,0.4c0.4,0,0.7-0.1,1-0.4c0.3-0.3,0.4-0.6,0.4-1V26.4"/>
<path d="M42.4,14.4c-0.3,0-0.5,0.1-0.8,0.3c-0.3,0.3-0.4,0.6-0.4,1V21c0,0.4,0.1,0.7,0.4,1c0.3,0.3,0.5,0.4,0.8,0.4
	c0.4,0,0.7-0.1,1-0.4c0.3-0.3,0.4-0.6,0.4-1v-5.4c0-0.4-0.1-0.7-0.4-1C43.1,14.5,42.8,14.4,42.4,14.4"/>
<path d="M43.8,9.7c0-0.4-0.1-0.7-0.4-1s-0.6-0.4-1-0.4H38c-0.4,0-0.7,0.1-1,0.4c-0.2,0.3-0.3,0.6-0.3,1s0.1,0.6,0.3,0.8
	c0.3,0.3,0.6,0.4,1,0.4h3.4c0,0.1,0,0.2,0.1,0.3c0.3,0.3,0.5,0.4,0.8,0.4c0.4,0,0.7-0.1,1-0.4c0.3-0.3,0.4-0.5,0.4-0.8V9.7"/>
<path d="M26.5,37.5c0,0.4,0.1,0.7,0.3,1c0.3,0.2,0.6,0.3,1,0.3h5.1c0.4,0,0.6-0.1,0.8-0.3c0.3-0.3,0.4-0.6,0.4-1s-0.1-0.7-0.4-1
	c-0.2-0.3-0.5-0.4-0.8-0.4h-5.1c-0.4,0-0.7,0.1-1,0.4C26.6,36.8,26.5,37.1,26.5,37.5"/>
<path d="M16.6,38.4c0.3,0.2,0.6,0.3,1,0.3h5.1c0.3,0,0.5-0.1,0.8-0.3c0.3-0.3,0.4-0.6,0.4-1s-0.1-0.7-0.4-1
	c-0.3-0.3-0.5-0.4-0.8-0.4h-5.1c-0.4,0-0.7,0.1-1,0.4c-0.3,0.3-0.4,0.6-0.4,1S16.3,38.2,16.6,38.4"/>
<path d="M13.3,36.5c-0.3-0.3-0.6-0.4-1-0.4H8.1C7.8,36,7.6,36,7.4,36c-0.3,0-0.5,0.1-0.8,0.4c-0.3,0.3-0.4,0.6-0.4,1v0.1
	c0,0.4,0.1,0.7,0.4,1c0.3,0.2,0.5,0.3,0.8,0.3h4.9c0.4,0,0.7-0.1,1-0.3c0.3-0.3,0.4-0.6,0.4-1S13.6,36.8,13.3,36.5"/>
<path d="M8.8,26.6c0-0.3-0.1-0.5-0.4-0.8c-0.3-0.3-0.6-0.4-1-0.4c-0.3,0-0.5,0.1-0.8,0.4c-0.3,0.3-0.4,0.5-0.4,0.8V32
	c0,0.4,0.1,0.7,0.4,1c0.3,0.3,0.5,0.4,0.8,0.4c0.4,0,0.7-0.1,1-0.4c0.3-0.3,0.4-0.6,0.4-1V26.6"/>
<path d="M26.9,8.8c-0.3,0.3-0.4,0.6-0.4,1s0.1,0.6,0.4,0.8c0.3,0.3,0.6,0.4,1,0.4H33c0.4,0,0.6-0.1,0.8-0.4c0.3-0.2,0.4-0.5,0.4-0.8
	s-0.1-0.7-0.4-1c-0.2-0.3-0.5-0.4-0.8-0.4h-5.1C27.5,8.4,27.2,8.5,26.9,8.8"/>
<path d="M8.8,16.1c0-0.4-0.1-0.7-0.4-1c-0.3-0.3-0.6-0.4-1-0.4c-0.3,0-0.5,0.1-0.8,0.4c-0.3,0.3-0.4,0.6-0.4,1v5.4
	c0,0.4,0.1,0.7,0.4,1c0.3,0.2,0.5,0.3,0.8,0.3c0.4,0,0.7-0.1,1-0.3c0.3-0.3,0.4-0.6,0.4-1V16.1"/>
<path d="M16.8,8.8c-0.3,0.3-0.4,0.6-0.4,1s0.1,0.6,0.4,0.8c0.3,0.3,0.6,0.4,1,0.4h5.1c0.3,0,0.5-0.1,0.8-0.4
	c0.3-0.2,0.4-0.5,0.4-0.8s-0.1-0.7-0.4-1c-0.3-0.3-0.5-0.4-0.8-0.4h-5.1C17.4,8.4,17,8.5,16.8,8.8"/>
<path d="M13.5,8.8c-0.3-0.3-0.6-0.4-1-0.4H7.4c-0.3,0-0.5,0.1-0.8,0.4C6.3,9,6.2,9.4,6.2,9.7v1c0,0.4,0.1,0.7,0.4,1
	c0.3,0.3,0.5,0.4,0.8,0.4c0.4,0,0.7-0.1,1-0.4c0.2-0.2,0.3-0.4,0.4-0.7h3.7c0.4,0,0.7-0.1,1-0.4c0.3-0.2,0.4-0.5,0.4-0.8
	S13.7,9,13.5,8.8"/>
</svg>
