<?xml version="1.0" encoding="utf-8"?>
<!-- Generator: Adobe Illustrator 25.4.2, SVG Export Plug-In . SVG Version: 6.00 Build 0)  -->
<svg version="1.1" id="Capa_1" xmlns="http://www.w3.org/2000/svg" xmlns:xlink="http://www.w3.org/1999/xlink" x="0px" y="0px"
	 viewBox="0 0 50 50" style="enable-background:new 0 0 50 50;" xml:space="preserve">
<style type="text/css">
	.st0{fill:#020203;}
</style>
<path class="st0" d="M36.9,26.3h-3.7c-0.5,2.1-1.5,3.8-3.2,5.2c-1.7,1.4-3.6,2.1-5.8,2.1c-1.2,0-2.4-0.2-3.6-0.7
	c-1.1-0.5-2-1.1-2.9-1.9l4.6-4.7H11.5v10.9l3.8-3.7c1.2,1.2,2.5,2.1,4,2.8c1.6,0.6,3.3,0.9,5,0.9c1.4,0,2.8-0.2,4.1-0.6
	c0.6-0.2,1.6-0.6,2.9-1.3l5.9,4.6c0.5,0.4,1.2,0.6,1.8,0.5c0.7-0.1,1.3-0.5,1.7-1c0.3-0.5,0.5-1.2,0.4-1.8c-0.1-0.7-0.4-1.3-0.9-1.7
	h-0.1l-5.4-4c0.5-0.7,1-1.6,1.4-2.5C36.5,28.4,36.8,27.3,36.9,26.3"/>
<path class="st0" d="M37,11.7l-3.7,3.8c-1.2-1.2-2.6-2.1-4.1-2.8c-1.6-0.7-3.2-1-5-1c-1.6,0-3.1,0.3-4.6,0.9
	c-1.4,0.5-2.6,1.3-3.8,2.2c-1.2,1-2.1,2.2-2.8,3.5c-0.7,1.4-1.3,2.8-1.5,4.4h3.8c0.4-2.1,1.4-3.8,3.1-5.2c1.7-1.4,3.6-2.1,5.8-2.1
	c1.2,0,2.4,0.2,3.6,0.7c1.1,0.5,2,1.1,2.9,1.9l-4.6,4.7H37V11.7"/>
</svg>
