<?xml version="1.0" encoding="utf-8"?>
<!-- Generator: Adobe Illustrator 25.4.2, SVG Export Plug-In . SVG Version: 6.00 Build 0)  -->
<svg version="1.1" id="Capa_1" xmlns="http://www.w3.org/2000/svg" xmlns:xlink="http://www.w3.org/1999/xlink" x="0px" y="0px"
	 viewBox="0 0 50 50" style="enable-background:new 0 0 50 50;" xml:space="preserve">
<style type="text/css">
	.st0{fill:#020203;}
</style>
<path class="st0" d="M31.4,20.6c-0.6-0.6-1.3-0.9-2-0.9H12.1c-0.8,0-1.5,0.3-2,0.9c-0.5,0.5-0.8,1.2-0.8,2v12.9c0,0.8,0.3,1.5,0.8,2
	c0.5,0.6,1.2,0.9,2,0.9h17.3c0.7,0,1.4-0.3,2-0.9c0.5-0.5,0.8-1.2,0.8-2V22.6C32.2,21.8,32,21.1,31.4,20.6z M30.3,35.5
	c0,0.3-0.1,0.5-0.3,0.6c-0.2,0.3-0.4,0.4-0.6,0.4H12.1c-0.3,0-0.5-0.1-0.6-0.4c-0.2-0.1-0.3-0.3-0.3-0.6v-11h19.1V35.5z"/>
<path class="st0" d="M22.6,11.9c-0.7,0-1.4,0.3-2,0.9c-0.5,0.5-0.8,1.2-0.8,1.9v3h1.8v-3c0-0.2,0.1-0.4,0.3-0.6
	c0.2-0.2,0.4-0.3,0.7-0.3h17.2c0.3,0,0.6,0.1,0.7,0.3c0.2,0.2,0.3,0.4,0.3,0.6v12.2c0,0.3-0.1,0.5-0.3,0.6c-0.2,0.3-0.4,0.4-0.7,0.4
	h-4.2v1.9h4.2c0.8,0,1.5-0.3,2-0.9c0.6-0.5,0.9-1.2,0.9-2V14.7c0-0.7-0.3-1.4-0.9-1.9c-0.5-0.6-1.2-0.9-2-0.9H22.6L22.6,11.9z"/>
</svg>
