<?xml version="1.0" encoding="utf-8"?>
<!-- Generator: Adobe Illustrator 25.4.2, SVG Export Plug-In . SVG Version: 6.00 Build 0)  -->
<svg version="1.1" id="Capa_1" xmlns="http://www.w3.org/2000/svg" xmlns:xlink="http://www.w3.org/1999/xlink" x="0px" y="0px"
	 viewBox="0 0 50 50" style="enable-background:new 0 0 50 50;" xml:space="preserve">
<path d="M29.6,26.3c-1,1.7-2.3,3.1-3.9,4c-0.2,0.1-0.4,0.2-0.5,0.5c-0.1,0.2-0.2,0.3-0.2,0.5v0.5H14.6v-0.5c0-0.2-0.1-0.3-0.2-0.5
	c-0.1-0.2-0.2-0.4-0.4-0.5c-1.7-1-3.1-2.3-4-4c-1-1.8-1.5-3.7-1.5-5.6c0-1.5,0.3-3,0.9-4.4c0.6-1.4,1.4-2.6,2.4-3.7s2.3-1.9,3.7-2.4
	s2.9-0.8,4.4-0.8c1.5,0,3,0.3,4.4,0.8c1.3,0.6,2.5,1.4,3.5,2.4c0.5,0.5,0.9,1,1.2,1.5h3.2c-0.7-1.2-1.5-2.3-2.4-3.3
	c-1.3-1.3-2.8-2.3-4.5-3c-1.6-0.6-3.3-1-5.1-1.1h-0.6c-1.8,0.1-3.5,0.5-5.1,1.1c-1.7,0.7-3.2,1.8-4.4,3c-1.3,1.2-2.3,2.7-3,4.4
	c-0.7,1.7-1.1,3.5-1.1,5.5c0,2.4,0.6,4.5,1.7,6.6c1,1.9,2.3,3.4,3.9,4.6c0.1,0,0.3,0.1,0.7,0.4L11.9,32c0.1,0.1,0.2,0.2,0.2,0.2v0.1
	l0.9,7.3c0,0.2,0.1,0.4,0.4,0.6c0.2,0.2,0.4,0.4,0.7,0.4h1.6V41c0,1.1,0.4,2.1,1.2,2.8c0.8,0.8,1.8,1.2,2.9,1.2s2.1-0.4,2.8-1.2
	c0.8-0.7,1.2-1.7,1.2-2.8v-0.4h1.6c0.3,0,0.6-0.1,0.7-0.4c0.2-0.2,0.4-0.4,0.4-0.6l0.8-7.3l0.7-0.4c1.6-1.2,3-2.8,4-4.6
	c0.2-0.3,0.3-0.7,0.5-1H29.6z M21.7,41c0,0.5-0.2,0.9-0.6,1.2c-0.3,0.4-0.7,0.6-1.2,0.6c-0.6,0-1-0.2-1.3-0.6
	c-0.4-0.3-0.6-0.7-0.6-1.2v-0.4h3.8V41z M24.5,38.3h-9.4l-0.1-1h9.6L24.5,38.3z M24.9,35.1H14.8L14.6,34H25L24.9,35.1z"/>
<path d="M45.9,20.6c0-0.5-0.2-0.9-0.5-1.3l-8.8-8.8c-0.4-0.3-0.9-0.5-1.3-0.5c-0.5,0-0.9,0.2-1.3,0.5c-0.3,0.4-0.5,0.9-0.5,1.3
	c0,0.5,0.2,0.9,0.6,1.3l5.6,5.6H21.3c-0.5,0-0.9,0.2-1.2,0.5c-0.4,0.4-0.6,0.9-0.6,1.3c0,0.5,0.2,0.9,0.6,1.2
	c0.3,0.4,0.7,0.6,1.2,0.6h18.3L34,28.1c-0.4,0.4-0.6,0.9-0.6,1.3c0,0.5,0.2,0.9,0.5,1.2c0.2,0.2,0.4,0.4,0.6,0.5
	c0.2,0.1,0.5,0.1,0.7,0.1c0.2,0,0.5,0,0.7-0.1c0.2-0.1,0.4-0.2,0.6-0.5l8.8-8.7C45.7,21.5,45.9,21.1,45.9,20.6L45.9,20.6z"/>
</svg>
