<?xml version="1.0" encoding="utf-8"?>
<!-- Generator: Adobe Illustrator 25.4.2, SVG Export Plug-In . SVG Version: 6.00 Build 0)  -->
<svg version="1.1" id="Capa_1" xmlns="http://www.w3.org/2000/svg" xmlns:xlink="http://www.w3.org/1999/xlink" x="0px" y="0px"
	 viewBox="0 0 50 50" style="enable-background:new 0 0 50 50;" xml:space="preserve">
<style type="text/css">
	.st0{fill:#020203;}
</style>
<path class="st0" d="M33.6,10.6h-21c-0.2,0-0.5,0.1-0.8,0.4c-0.2,0.2-0.4,0.4-0.4,0.8v26.5c0,0.4,0.1,0.7,0.4,0.9
	c0.2,0.3,0.5,0.4,0.8,0.4h24.8c0.3,0,0.6-0.1,0.8-0.4c0.2-0.2,0.4-0.5,0.4-0.9V15.6L33.6,10.6z M17.6,12.5h11.2v3.2h2.3v-3.2h1.3V19
	H17.6V12.5z M34.9,36.9H15.1V25.7h19.8V36.9z"/>
</svg>
