<?xml version="1.0" encoding="utf-8"?>
<!-- Generator: Adobe Illustrator 25.4.2, SVG Export Plug-In . SVG Version: 6.00 Build 0)  -->
<svg version="1.1" id="Capa_1" xmlns="http://www.w3.org/2000/svg" xmlns:xlink="http://www.w3.org/1999/xlink" x="0px" y="0px"
	 viewBox="0 0 50 50" style="enable-background:new 0 0 50 50;" xml:space="preserve">
<style type="text/css">
	.st0{fill:#020203;}
</style>
<path class="st0" d="M25.6,35.2c-0.1-0.4-0.2-0.7-0.5-0.9c-0.6-0.4-1.1-0.9-1.6-1.4c-2.3-2.3-3.5-5-3.5-8.2c0.1-2.6,0.8-4.8,2.2-6.8
	c0.3-0.3,0.4-0.7,0.4-1.1c0-0.4-0.2-0.7-0.5-1c-0.3-0.2-0.6-0.4-1-0.4h-0.8c-3.1,0-5.7,1.1-7.9,3.3C10.1,21,9,23.6,9,26.7
	c0,3.1,1.1,5.7,3.3,7.9c2.2,2.2,4.8,3.3,7.8,3.3h0.1c1.6,0.1,3.1-0.2,4.5-0.9c0.4-0.1,0.6-0.4,0.8-0.7
	C25.7,35.9,25.7,35.6,25.6,35.2z M20.2,34.8c-2.2,0-4.2-0.8-5.8-2.4c-1.6-1.6-2.4-3.5-2.4-5.8c0-2.2,0.8-4.2,2.4-5.8
	c1.1-1.1,2.4-1.9,3.8-2.2c-0.8,1.8-1.3,3.8-1.3,5.9v0.1c0.1,3.9,1.5,7.3,4.2,10.1C20.8,34.8,20.5,34.8,20.2,34.8z"/>
<path class="st0" d="M40.8,20.6c0-0.4-0.1-0.6-0.4-0.9c-0.3-0.2-0.6-0.4-1-0.4c-0.3,0-0.6,0.1-0.9,0.4l-4.3,4.3l-4.3-4.3
	c-0.2-0.2-0.5-0.4-0.9-0.4c-0.4,0-0.6,0.1-0.9,0.4s-0.4,0.5-0.4,0.9c0,0.4,0.1,0.7,0.4,1l4.3,4.3L28,30.4c-0.2,0.3-0.4,0.6-0.4,0.9
	c0,0.4,0.1,0.7,0.4,1c0.2,0.2,0.5,0.4,0.9,0.4c0.4,0,0.7-0.1,1-0.4l4.4-4.5l4.3,4.3c0.3,0.2,0.6,0.4,0.9,0.4c0.4,0,0.7-0.1,1-0.4
	c0.2-0.3,0.4-0.6,0.4-0.9c0-0.4-0.1-0.7-0.4-1l-4.3-4.2l4.3-4.3C40.7,21.3,40.8,21,40.8,20.6L40.8,20.6z"/>
</svg>
