<?xml version="1.0" encoding="utf-8"?>
<!-- Generator: Adobe Illustrator 25.4.2, SVG Export Plug-In . SVG Version: 6.00 Build 0)  -->
<svg version="1.1" id="Capa_1" xmlns="http://www.w3.org/2000/svg" xmlns:xlink="http://www.w3.org/1999/xlink" x="0px" y="0px"
	 viewBox="0 0 50 50" style="enable-background:new 0 0 50 50;" xml:space="preserve">
<style type="text/css">
	.st0{fill:#020203;}
</style>
<polygon class="st0" points="35.2,24.1 31.8,24.8 34.1,28 32.7,28.9 30.8,25.5 28.7,28.9 27.4,28 29.9,24.8 26.2,24.1 26.7,22.5 
	30.1,23.8 29.9,19.9 31.6,19.9 31.3,23.8 34.8,22.5 "/>
<path class="st0" d="M46,33.5l-5.5-4v-0.1c-0.1,0-0.1,0,0-0.1c0.6-1.3,0.9-2.8,0.9-4.4c0-2.9-1-5.4-3.1-7.5
	c-2.1-2.1-4.7-3.2-7.6-3.2c-2.9,0-5.5,1.1-7.6,3.2c-2.1,2.1-3.1,4.6-3.1,7.5c0,2.9,1,5.5,3.1,7.6c2.1,2.1,4.7,3.1,7.6,3.1
	c2.6,0,4.8-0.8,6.8-2.4h0.2l5.6,4.1c0.4,0.4,1,0.5,1.7,0.4c0.6-0.1,1.1-0.3,1.4-0.9c0.4-0.5,0.5-1.1,0.5-1.7
	C46.8,34.4,46.5,33.9,46,33.5z M35.7,29.8c-1.4,1.4-3.1,2.1-5,2.1s-3.6-0.7-5-2.1c-1.3-1.3-2-3-2-5c0-1.9,0.7-3.6,2-4.9
	c1.4-1.4,3.1-2.1,5-2.1s3.6,0.7,5,2.1c1.3,1.3,2,3,2,4.9C37.7,26.8,37.1,28.5,35.7,29.8z"/>
<polygon class="st0" points="31.8,24.8 34.1,28 32.7,28.9 30.8,25.5 28.7,28.9 27.4,28 29.9,24.8 26.2,24.1 26.7,22.5 30.1,23.8 
	29.9,19.9 31.6,19.9 31.3,23.8 34.8,22.5 35.2,24.1 "/>
<polygon class="st0" points="31.8,24.8 34.1,28 32.7,28.9 30.8,25.5 28.7,28.9 27.4,28 29.9,24.8 26.2,24.1 26.7,22.5 30.1,23.8 
	29.9,19.9 31.6,19.9 31.3,23.8 34.8,22.5 35.2,24.1 "/>
<polygon class="st0" points="3,24.1 3,27.5 14.3,32.7 15.5,29.7 6.7,25.9 15.5,21.9 14.3,19 3,24.1 "/>
</svg>
