<?xml version="1.0" encoding="utf-8"?>
<!-- Generator: Adobe Illustrator 25.4.2, SVG Export Plug-In . SVG Version: 6.00 Build 0)  -->
<svg version="1.1" id="Capa_1" xmlns="http://www.w3.org/2000/svg" xmlns:xlink="http://www.w3.org/1999/xlink" x="0px" y="0px"
	 viewBox="0 0 50 50" style="enable-background:new 0 0 50 50;" xml:space="preserve">
<style type="text/css">
	.st0{fill:#020203;}
</style>
<path class="st0" d="M40.4,35.5l-6.5-4.8v-0.1c-0.1,0-0.1,0,0-0.1c0.7-1.6,1-3.3,1-5.2c0-3.5-1.2-6.4-3.6-8.9
	c-2.5-2.5-5.5-3.7-9-3.7c-3.5,0-6.5,1.2-9,3.7c-2.4,2.5-3.6,5.4-3.6,8.9c0,3.5,1.2,6.5,3.6,9c2.5,2.4,5.5,3.6,9,3.6
	c3,0,5.7-1,8.1-2.8h0.2l6.6,4.9c0.5,0.5,1.2,0.6,2,0.5c0.7-0.1,1.2-0.4,1.7-1c0.5-0.6,0.6-1.3,0.6-2C41.4,36.6,41,36,40.4,35.5z
	 M28.3,31.2c-1.7,1.7-3.6,2.5-5.9,2.5s-4.2-0.8-5.9-2.5c-1.6-1.6-2.4-3.6-2.4-5.9c0-2.3,0.8-4.2,2.4-5.8c1.7-1.7,3.6-2.5,5.9-2.5
	s4.2,0.8,5.9,2.5c1.6,1.6,2.4,3.5,2.4,5.8C30.6,27.6,29.8,29.6,28.3,31.2z"/>
</svg>
