<?xml version="1.0" encoding="utf-8"?>
<!-- Generator: Adobe Illustrator 25.4.2, SVG Export Plug-In . SVG Version: 6.00 Build 0)  -->
<svg version="1.1" id="Capa_1" xmlns="http://www.w3.org/2000/svg" xmlns:xlink="http://www.w3.org/1999/xlink" x="0px" y="0px"
	 viewBox="0 0 50 50" style="enable-background:new 0 0 50 50;" xml:space="preserve">
<style type="text/css">
	.st0{fill:#020203;}
</style>
<polygon class="st0" points="19.8,26.6 16.5,27.3 18.7,30.4 17.4,31.3 15.5,27.9 13.5,31.3 12.2,30.4 14.6,27.3 11,26.6 11.5,25 
	14.9,26.4 14.6,22.5 16.3,22.5 16,26.4 19.4,25 "/>
<path class="st0" d="M30.3,35.7L25,31.8v-0.1c-0.1,0-0.1,0,0-0.1c0.6-1.3,0.8-2.7,0.8-4.3c0-2.9-1-5.3-3-7.3
	c-2.1-2.1-4.5-3.1-7.4-3.1c-2.9,0-5.3,1-7.4,3.1c-2,2.1-3,4.5-3,7.3c0,2.9,1,5.3,3,7.4c2.1,2,4.5,3,7.4,3c2.5,0,4.7-0.8,6.6-2.3h0.2
	l5.4,4c0.4,0.4,1,0.5,1.7,0.4c0.6-0.1,1-0.3,1.4-0.8c0.4-0.5,0.5-1.1,0.5-1.7C31.1,36.6,30.8,36.1,30.3,35.7z M20.3,32.2
	c-1.4,1.4-3,2.1-4.9,2.1s-3.5-0.7-4.9-2.1c-1.3-1.3-2-2.9-2-4.9c0-1.9,0.7-3.5,2-4.8c1.4-1.4,3-2.1,4.9-2.1s3.5,0.7,4.9,2.1
	c1.3,1.3,2,2.9,2,4.8C22.3,29.2,21.6,30.8,20.3,32.2z"/>
<polygon class="st0" points="16.5,27.3 18.7,30.4 17.4,31.3 15.5,27.9 13.5,31.3 12.2,30.4 14.6,27.3 11,26.6 11.5,25 14.9,26.4 
	14.6,22.5 16.3,22.5 16,26.4 19.4,25 19.8,26.6 "/>
<polygon class="st0" points="16.5,27.3 18.7,30.4 17.4,31.3 15.5,27.9 13.5,31.3 12.2,30.4 14.6,27.3 11,26.6 11.5,25 14.9,26.4 
	14.6,22.5 16.3,22.5 16,26.4 19.4,25 19.8,26.6 "/>
<polygon class="st0" points="46,27.9 46,24.7 35.1,19.7 33.9,22.5 42.5,26.4 33.9,30.1 35.1,33 46,27.9 "/>
</svg>
