<?xml version="1.0" encoding="utf-8"?>
<!-- Generator: Adobe Illustrator 25.4.2, SVG Export Plug-In . SVG Version: 6.00 Build 0)  -->
<svg version="1.1" id="Capa_1" xmlns="http://www.w3.org/2000/svg" xmlns:xlink="http://www.w3.org/1999/xlink" x="0px" y="0px"
	 viewBox="0 0 50 50" style="enable-background:new 0 0 50 50;" xml:space="preserve">
<style type="text/css">
	.st0{fill:#020203;}
</style>
<path class="st0" d="M22.2,30.5c-0.6-0.7-1.6-1.1-2.9-1.1h-7c-2.5,0-3.7,1.2-3.7,3.8v2.7c0,2.5,1.2,3.8,3.7,3.8h7
	c1.3,0,2.3-0.4,2.9-1.1c0.5-0.6,0.8-1.5,0.8-2.7v-2.7C23,32.1,22.7,31.2,22.2,30.5z M19,35.6h-6.4v-2.1H19V35.6z"/>
<path class="st0" d="M42.4,12.4H32.2c-2.5,0-3.7,1.2-3.7,3.7v19.5c0,2.5,1.2,3.7,3.7,3.7h10.2c2.5,0,3.7-1.2,3.7-3.7V16.1
	C46.1,13.6,44.9,12.4,42.4,12.4z M42.1,35.4h-9.6v-19h9.6V35.4z"/>
<path class="st0" d="M22.2,12.6c-0.5-0.4-1.3-0.5-2.3-0.5H7.6c-2.5,0-3.7,1.2-3.7,3.7v7.6c0,2.5,1.2,3.7,3.7,3.7h12.3
	c1,0,1.7-0.2,2.3-0.5c1-0.5,1.5-1.6,1.5-3.2v-7.6C23.7,14.3,23.2,13.3,22.2,12.6z M19.7,23.2H7.9v-7.1h11.8V23.2z"/>
</svg>
