<?xml version="1.0" encoding="utf-8"?>
<!-- Generator: Adobe Illustrator 25.4.2, SVG Export Plug-In . SVG Version: 6.00 Build 0)  -->
<svg version="1.1" id="Capa_1" xmlns="http://www.w3.org/2000/svg" xmlns:xlink="http://www.w3.org/1999/xlink" x="0px" y="0px"
	 viewBox="0 0 50 50" style="enable-background:new 0 0 50 50;" xml:space="preserve">
<path d="M20,17.4c-0.2,0.1-0.4,0.2-0.6,0.3c-0.1,0.1-0.3,0.3-0.3,0.4C19,18.4,19,18.7,19,18.9v10.8c0,0.4,0.1,0.8,0.4,1.1
	c0.3,0.3,0.7,0.4,1.1,0.4h10.8c0.4,0,0.8-0.1,1.1-0.4c0.4-0.3,0.6-0.7,0.6-1.1c0-0.4-0.2-0.8-0.6-1.1c-0.3-0.4-0.7-0.6-1.1-0.6h-6.9
	l11.2-11.2c0.3-0.3,0.4-0.7,0.4-1.1c0-0.4-0.1-0.8-0.4-1.1c-0.3-0.3-0.7-0.4-1.1-0.4s-0.8,0.1-1.1,0.4L22.2,25.8v-6.9
	c0-0.4-0.2-0.8-0.6-1.1c-0.3-0.4-0.7-0.6-1.1-0.6C20.3,17.2,20.1,17.3,20,17.4"/>
<path d="M17,12.5v-2.1h-3.3c-0.9,0-1.7,0.3-2.3,0.9c-0.6,0.7-0.9,1.4-0.9,2.3v22.7c0,0.9,0.3,1.6,0.9,2.2c0.7,0.7,1.4,1,2.3,1h22.7
	c0.9,0,1.6-0.3,2.2-1c0.7-0.6,1-1.3,1-2.2v-2.7h-2.1v2.7c0,0.3-0.1,0.6-0.3,0.8c-0.2,0.1-0.5,0.2-0.8,0.2H13.6
	c-0.3,0-0.6-0.1-0.8-0.2c-0.2-0.2-0.3-0.5-0.3-0.8V13.6c0-0.3,0.1-0.6,0.3-0.8c0.2-0.2,0.5-0.3,0.8-0.3H17"/>
</svg>
