<?xml version="1.0" encoding="utf-8"?>
<!-- Generator: Adobe Illustrator 25.4.2, SVG Export Plug-In . SVG Version: 6.00 Build 0)  -->
<svg version="1.1" id="Capa_1" xmlns="http://www.w3.org/2000/svg" xmlns:xlink="http://www.w3.org/1999/xlink" x="0px" y="0px"
	 viewBox="0 0 50 50" style="enable-background:new 0 0 50 50;" xml:space="preserve">
<path d="M19.6,18.3c1.6,1.5,3.4,2.2,5.3,2.2c2.1,0,3.8-0.7,5.3-2.1l0.1-0.1c1.4-1.4,2-3.2,2-5.3c0-2-0.7-3.7-2.1-5.2
	C28.8,6.2,27,5.4,25,5.4c-2,0-3.8,0.8-5.3,2.4c-1.5,1.5-2.2,3.2-2.2,5.2C17.4,15.1,18.1,16.9,19.6,18.3"/>
<path d="M25.2,23.7c-0.1,0-0.1,0-0.2,0c-0.1,0-0.2,0-0.3,0L12.5,36.2c-0.1,0.1-0.1,0.1-0.1,0.2c0,0.1,0,0.1,0.1,0.2h5.9v6.8
	c0,0.1,0,0.1,0.1,0.1c0.1,0.1,0.2,0.2,0.3,0.2h12.5c0.1,0,0.1-0.1,0.1-0.2c0.1,0,0.1,0,0.1-0.1v-6.8h5.9c0.1,0,0.2,0,0.3,0
	c0-0.1,0-0.1,0-0.2c0-0.1,0-0.1,0-0.2L25.2,23.7"/>
<path d="M29.1,34.1c-0.1,0-0.1,0-0.2,0c-0.1,0.1-0.1,0.1-0.1,0.2v6.7h-7.6v-6.7c0-0.1,0-0.1-0.1-0.2h-2.8l6.6-6.7l6.7,6.7H29.1"/>
</svg>
