<?xml version="1.0" encoding="utf-8"?>
<!-- Generator: Adobe Illustrator 25.4.2, SVG Export Plug-In . SVG Version: 6.00 Build 0)  -->
<svg version="1.1" id="Capa_1" xmlns="http://www.w3.org/2000/svg" xmlns:xlink="http://www.w3.org/1999/xlink" x="0px" y="0px"
	 viewBox="0 0 50 50" style="enable-background:new 0 0 50 50;" xml:space="preserve">
<path d="M20,13.8c-0.6,0.9-0.9,2-0.9,3.3c0,1.9,0.7,3.6,2,4.9c0.8,0.8,1.3,1.3,1.3,1.4c0,0.3-0.1,0.4-0.4,0.4
	c-0.1,0-0.3-0.1-0.5-0.3c-1.3-1.1-2.6-1.6-4-1.6c-1.7,0-3.1,0.6-4.2,1.8c-1.2,1.1-1.8,2.6-1.8,4.4c0,1.7,0.6,3.1,1.8,4.3
	c1.2,1.3,2.5,1.9,4,1.9c1.6,0,2.9-0.5,4-1.5c1.1-1,1.7-2.1,1.9-3.4l0.3-1c0.1-0.2,0.2-0.3,0.3-0.3c0.3,0,0.4,0.3,0.4,0.8
	c0,2.3-0.2,4.1-0.6,5.5c-0.4,1.3-1.3,2.9-2.5,4.7c1.1-0.2,2.4-0.3,3.9-0.3c1.5,0,2.9,0.1,4.2,0.3c-1.1-1.4-1.8-2.7-2.3-3.8
	c-0.5-1.5-0.8-3.4-0.8-5.7c0-1,0.1-1.5,0.3-1.5c0.2,0,0.3,0.2,0.4,0.5c0.2,0.9,0.4,1.7,0.6,2.3c1.2,2.4,2.9,3.5,5.3,3.5
	c1.7,0,3.1-0.7,4.3-2c1.1-1.2,1.6-2.7,1.6-4.5c0-1.7-0.6-3.1-1.8-4.2c-1.2-1.2-2.6-1.8-4.4-1.8c-1.4,0-2.6,0.5-3.7,1.5
	c-0.3,0.3-0.5,0.4-0.6,0.4c-0.3,0-0.4-0.1-0.4-0.3c0-0.2,0.1-0.4,0.4-0.6l1.1-1.1c1.2-1.3,1.8-2.9,1.8-4.5c0-1.7-0.6-3.1-1.8-4.4
	C28,11.6,26.6,11,25,11c-1,0-2,0.3-2.9,0.8C21.3,12.3,20.5,12.9,20,13.8"/>
</svg>
