<?xml version="1.0" encoding="utf-8"?>
<!-- Generator: Adobe Illustrator 25.4.2, SVG Export Plug-In . SVG Version: 6.00 Build 0)  -->
<svg version="1.1" id="Capa_1" xmlns="http://www.w3.org/2000/svg" xmlns:xlink="http://www.w3.org/1999/xlink" x="0px" y="0px"
	 viewBox="0 0 50 50" style="enable-background:new 0 0 50 50;" xml:space="preserve">
<path d="M11.8,19.5l-1.3-0.1c-0.5,0-1,0-1.5,0.1c-0.5,0.1-0.9,0.3-1.3,0.5c-0.4,0.2-0.7,0.6-0.9,1c-0.2,0.3-0.4,0.8-0.4,1.3
	c0,0.4,0,0.7,0.1,1c0.1,0.3,0.2,0.5,0.4,0.7c0.2,0.2,0.4,0.4,0.7,0.6l1,0.4l0.7,0.2l1.2,0.6c0.1,0.1,0.2,0.2,0.2,0.4
	c0,0.3-0.1,0.5-0.4,0.7c-0.3,0.1-0.7,0.2-1.3,0.2c-0.4,0-0.8-0.1-1.3-0.2c-0.4-0.1-0.9-0.4-1.4-0.7v2.4c0.9,0.3,1.8,0.4,2.9,0.4
	c0.5,0,1.1,0,1.6-0.1c0.5-0.1,0.9-0.3,1.3-0.5c0.4-0.2,0.7-0.6,1-1c0.2-0.4,0.4-0.9,0.4-1.5c0-0.4-0.1-0.7-0.2-1
	c-0.1-0.3-0.2-0.5-0.4-0.7c-0.2-0.2-0.5-0.4-0.8-0.6l-2.3-0.9l-0.4-0.3c-0.1-0.1-0.1-0.3-0.1-0.4c0-0.1,0-0.3,0.1-0.4l0.3-0.2
	l0.4-0.1l0.5-0.1c0.4,0,0.8,0.1,1.2,0.2c0.4,0.1,0.8,0.2,1.2,0.4v-2.2L11.8,19.5L11.8,19.5z"/>
<path d="M24,19.7h-2.9V25c0,0.6-0.1,1.1-0.4,1.5C20.4,26.8,20,27,19.5,27c-1,0-1.5-0.6-1.5-1.9v-5.4h-2.9v5.6c0,2.6,1.1,3.9,3.2,3.9
	c1.2,0,2.1-0.5,2.9-1.6V29H24V19.7L24,19.7z"/>
<path d="M35.1,20.7c-0.6-0.8-1.6-1.3-2.8-1.3c-1.3,0-2.3,0.5-2.9,1.6h-0.1v-1.4h-2.9v13.5h2.9v-5.4h0.1c0.6,0.9,1.4,1.3,2.5,1.3
	c1.3,0,2.3-0.5,3.1-1.4c0.7-0.9,1.1-2.2,1.1-3.8C36,22.7,35.7,21.6,35.1,20.7z M32.6,26.2c-0.3,0.5-0.8,0.7-1.5,0.7
	c-0.6,0-1-0.2-1.3-0.6c-0.3-0.4-0.5-0.9-0.5-1.5v-0.7c0-0.7,0.2-1.3,0.5-1.8c0.4-0.4,0.9-0.7,1.5-0.7c1.3,0,1.9,0.8,1.9,2.4
	C33.1,25,33,25.7,32.6,26.2z"/>
<path d="M44,19.6c-0.2,0-0.4-0.1-0.7-0.1c-1.2,0-2,0.6-2.4,1.8h-0.1v-1.7h-2.9V29h2.9v-4.4c0-0.8,0.2-1.4,0.5-1.8
	c0.4-0.5,0.9-0.7,1.5-0.7c0.5,0,0.9,0.1,1.3,0.3V19.6L44,19.6z"/>
</svg>
