<?xml version="1.0" encoding="utf-8"?>
<!-- Generator: Adobe Illustrator 25.4.2, SVG Export Plug-In . SVG Version: 6.00 Build 0)  -->
<svg version="1.1" id="Capa_1" xmlns="http://www.w3.org/2000/svg" xmlns:xlink="http://www.w3.org/1999/xlink" x="0px" y="0px"
	 viewBox="0 0 50 50" style="enable-background:new 0 0 50 50;" xml:space="preserve">
<style type="text/css">
	.st0{fill:#020203;}
</style>
<path class="st0" d="M25.6,20.3h1.5v12h-2.5v-9.1l-0.5,0.4l-0.7,0.3L22,24.3v-2.2c0.7-0.2,1.3-0.5,1.9-0.8
	C24.5,21,25.1,20.7,25.6,20.3z"/>
<path class="st0" d="M39.5,15.8c0-0.8-0.3-1.4-0.9-2C38,13.2,37.3,13,36.4,13H14.1c-0.9,0-1.6,0.3-2.2,0.8c-0.6,0.5-0.9,1.1-0.9,1.9
	v19.9c0,0.8,0.3,1.5,0.9,2.1c0.6,0.6,1.3,0.8,2.2,0.8h22.4c0.9,0,1.6-0.3,2.2-0.8c0.5-0.4,0.8-0.9,0.9-1.4L39.5,15.8z M37.5,35.6
	c0,0.3-0.1,0.6-0.3,0.8c-0.2,0.2-0.5,0.3-0.8,0.3H14.1c-0.2,0-0.5-0.1-0.8-0.3c-0.2-0.2-0.3-0.4-0.3-0.8V15.7c0-0.2,0.1-0.4,0.3-0.6
	c0.3-0.2,0.5-0.3,0.8-0.3h22.4c0.3,0,0.5,0.1,0.8,0.3c0.3,0.2,0.4,0.4,0.4,0.7V35.6z"/>
<path class="st0" d="M27.1,20.3v12h-2.5v-9.1l-0.5,0.4l-0.7,0.3L22,24.3v-2.2c0.7-0.2,1.3-0.5,1.9-0.8c0.6-0.3,1.2-0.7,1.7-1H27.1z"
	/>
<path class="st0" d="M27.1,20.3v12h-2.5v-9.1l-0.5,0.4l-0.7,0.3L22,24.3v-2.2c0.7-0.2,1.3-0.5,1.9-0.8c0.6-0.3,1.2-0.7,1.7-1H27.1z"
	/>
</svg>
