<?xml version="1.0" encoding="utf-8"?>
<!-- Generator: Adobe Illustrator 25.4.2, SVG Export Plug-In . SVG Version: 6.00 Build 0)  -->
<svg version="1.1" id="Capa_1" xmlns="http://www.w3.org/2000/svg" xmlns:xlink="http://www.w3.org/1999/xlink" x="0px" y="0px"
	 viewBox="0 0 50 50" style="enable-background:new 0 0 50 50;" xml:space="preserve">
<path d="M38.9,18.6c-0.3-0.4-0.7-0.6-1.2-0.6c-0.5-0.1-1,0-1.4,0.3c-0.4,0.3-0.6,0.7-0.6,1.2c-0.1,0.5,0,1,0.3,1.4
	c0.9,1.2,1.4,2.6,1.4,4.1c0,1.5-0.5,2.9-1.4,4.1c-0.3,0.4-0.4,0.8-0.3,1.4c0,0.5,0.2,0.8,0.6,1.2c0.4,0.3,0.8,0.5,1.4,0.5
	c0.5-0.1,0.8-0.3,1.2-0.7c1.5-1.9,2.2-4.1,2.2-6.5C41.1,22.6,40.4,20.5,38.9,18.6L38.9,18.6z"/>
<path d="M32,11.8c-0.1-0.3-0.4-0.5-0.7-0.7c-0.2-0.2-0.5-0.2-0.9-0.2c-0.3,0-0.6,0.1-0.8,0.2l-12,6.8h-6.7c-0.5,0-0.9,0.2-1.3,0.6
	c-0.3,0.3-0.5,0.7-0.5,1.3v10.6c0,0.5,0.2,1,0.5,1.3c0.4,0.4,0.8,0.6,1.3,0.6h6.7l12,6.8c0.4,0.2,0.8,0.3,1.3,0.1
	c0.5-0.1,0.9-0.3,1.1-0.8c0.2-0.2,0.2-0.5,0.2-0.8V12.6C32.2,12.3,32.2,12,32,11.8z M28.7,34.3l-9.8-5.5c-0.2-0.1-0.5-0.2-0.8-0.2
	h-5.3v-7.1h5.3c0.3,0,0.6-0.1,0.8-0.2l9.8-5.5V34.3z"/>
</svg>
