<?xml version="1.0" encoding="utf-8"?>
<!-- Generator: Adobe Illustrator 25.4.2, SVG Export Plug-In . SVG Version: 6.00 Build 0)  -->
<svg version="1.1" id="Capa_1" xmlns="http://www.w3.org/2000/svg" xmlns:xlink="http://www.w3.org/1999/xlink" x="0px" y="0px"
	 viewBox="0 0 50 50" style="enable-background:new 0 0 50 50;" xml:space="preserve">
<path d="M21.2,14.7l-8.9,5.1h-5c-0.4,0-0.7,0.1-1,0.3c-0.2,0.3-0.3,0.6-0.3,1v7.9c0,0.4,0.1,0.7,0.3,1c0.3,0.3,0.6,0.4,1,0.4h5
	l9,5.1c0.3,0.1,0.6,0.2,1,0.1c0.3-0.1,0.6-0.3,0.8-0.7c0.1-0.2,0.1-0.4,0.1-0.7V15.9c0-0.2,0-0.4-0.1-0.7c-0.1-0.2-0.3-0.4-0.6-0.4
	c-0.1-0.1-0.4-0.2-0.7-0.2C21.6,14.5,21.4,14.6,21.2,14.7"/>
<path d="M32.6,15.9c-0.4-0.1-0.7,0-0.9,0.3c-0.3,0.2-0.5,0.5-0.6,0.9c0,0.3,0.1,0.6,0.3,0.9c1.6,2.2,2.3,4.6,2.3,7.2
	c0,2.6-0.8,5-2.3,7.1c-0.2,0.3-0.3,0.6-0.3,1c0.1,0.4,0.3,0.7,0.6,0.9c0.2,0.2,0.5,0.3,0.9,0.2c0.4,0,0.7-0.1,0.9-0.4h0.1
	c0.9-1.3,1.6-2.7,2.1-4.2c0.5-1.5,0.8-3,0.8-4.6c0-1.6-0.3-3.2-0.8-4.7c-0.5-1.5-1.2-2.9-2.1-4.2C33.3,16.1,33,15.9,32.6,15.9"/>
<path d="M27.4,19.9c-0.4-0.1-0.7,0-1,0.3c-0.3,0.2-0.5,0.5-0.6,0.8c0,0.4,0.1,0.7,0.3,1c0.7,1,1,2,1,3.2c0,1.1-0.3,2.2-1,3.1
	c-0.2,0.3-0.3,0.6-0.3,1c0.1,0.4,0.3,0.7,0.6,0.9c0.3,0.2,0.6,0.3,1,0.3c0.3-0.1,0.6-0.3,0.8-0.6h0.1c1-1.4,1.6-3,1.6-4.8
	c0-1.9-0.5-3.5-1.6-4.9C28.1,20,27.8,19.9,27.4,19.9"/>
<path d="M38.8,12.3c-0.2-0.2-0.5-0.4-0.9-0.4c-0.4,0-0.7,0.1-0.9,0.3c-0.3,0.2-0.5,0.5-0.6,0.9c0,0.4,0.1,0.7,0.3,0.9
	c1.2,1.6,2.1,3.4,2.8,5.3c0.6,1.9,0.9,3.9,0.9,5.9c0,1.9-0.3,3.9-0.9,5.8c-0.7,1.9-1.6,3.7-2.8,5.3c-0.2,0.3-0.3,0.6-0.3,1
	c0.1,0.4,0.2,0.7,0.4,0.9c0.3,0.2,0.6,0.3,1,0.2c0.4,0,0.7-0.1,0.9-0.4c1.4-1.9,2.5-4,3.2-6.1c0.7-2.2,1.1-4.4,1.1-6.7
	c0-2.3-0.4-4.5-1.1-6.7C41.3,16.3,40.2,14.2,38.8,12.3"/>
</svg>
