<?xml version="1.0" encoding="utf-8"?>
<!-- Generator: Adobe Illustrator 25.4.2, SVG Export Plug-In . SVG Version: 6.00 Build 0)  -->
<svg version="1.1" id="Capa_1" xmlns="http://www.w3.org/2000/svg" xmlns:xlink="http://www.w3.org/1999/xlink" x="0px" y="0px"
	 viewBox="0 0 50 50" style="enable-background:new 0 0 50 50;" xml:space="preserve">
<style type="text/css">
	.st0{opacity:0.5;fill:#FFFFFF;enable-background:new    ;}
	.st1{fill:#020203;}
</style>
<g id="Capa_1_00000106855749326036549140000018308998415981303200_">
	<path class="st0" d="M5.6,49.4h38.7c2.8,0,5-2.2,5-5V5.6c0-2.8-2.2-5-5-5H5.6c-2.8,0-5,2.2-5,5v38.7C0.6,47.1,2.9,49.4,5.6,49.4z"
		/>
</g>
<g id="Capa_2_00000040546708832197930810000010517503183828918159_">
</g>
<g transform="matrix( 0.03594970703125, 0, 0, 0.0350799560546875, 493,459.4) ">
	<g transform="matrix( 1, 0, 0, 1, 0,0) ">
		<g>
			<g id="talesfromtheloop2_0_Layer0_0_FILL">
				<path class="st1" d="M-13117.8-12490.8l-0.2,0.3c-21.8,21.8-32.7,48.3-32.7,79.4c0,16.6,3.1,32,9.4,46.2c0.2,0.3,0.4,0.6,0.6,1
					c5.4,11.7,12.9,22.5,22.6,32.2c9.2,9.2,19.1,16.4,29.8,21.8c15.2,7.5,31.8,11.3,49.8,11.3c13.9,0,26.9-2.2,38.9-6.5
					c0.4-0.2,0.9-0.3,1.5-0.3c14.2-5.5,27.2-14.2,39.1-26.2c10.2-10.2,18.1-21.4,23.6-33.6c0.2-0.4,0.4-0.7,0.6-0.9
					c5.9-13.6,8.8-28.6,8.8-45c0-31.1-11-57.7-33-79.7c-21.8-21.8-48.3-32.7-79.5-32.7
					C-13069.5-12523.6-13096-12512.7-13117.8-12490.8 M-12736.9-12089.7c-2.6,0-5-1-7-2.9v0.2c-2-2-3-4.3-3-7c0-2.9,0.9-5.3,2.8-7.2
					c75.7-77.4,113.6-170.4,113.6-278.9c0-110.4-39-204.6-117-282.8c-78.1-78-172.3-117-282.7-117s-204.5,39-282.4,117
					c-78,78.2-117,172.4-117,282.8c0,102,33.4,190.2,100.2,264.6c1.9,2,2.7,4.3,2.5,7v0.2c-0.1,2.5-1.1,4.8-2.9,6.8
					c-2,1.8-4.3,2.7-7,2.7h-133.4v91.5h320.5c12.9-0.1,24.3-4.9,34-14.3c7.1-10.3,10.7-22.1,10.8-35.4v-136.9h-0.1v-29.5
					c-39.2-11.4-69.9-32-92.3-61.7v165.1c-0.4,0.1-0.8,0.2-1.2,0.3c-2.5,0.3-4.8-0.3-7-1.7c-15.8-11.2-30.8-24-45.1-38.3
					c-60.9-60.9-91.3-134.4-91.3-220.4s30.4-159.4,91.3-220.4c60.9-60.9,134.4-91.3,220.3-91.3c86,0,159.5,30.4,220.6,91.3
					c60.9,60.9,91.3,134.4,91.3,220.4s-30.4,159.4-91.3,220.4c-21.1,21-43.7,38.5-67.9,52.4c-2.1,1.1-4.3,1.5-6.5,1.1l0.1,0.2
					c-2.4-0.5-4.4-1.6-5.9-3.4h-0.2c-1.5-2-2.3-4.1-2.3-6.4v-155.5c-22.3,29.7-53.1,50.2-92.3,61.7v44.2h-0.1l0.1,22h0.1l0.5,99.3
					c0.1,12.9,4.9,24.2,14.4,33.9c10.3,7.1,22.1,10.7,35.4,10.8h307.4v-84.9H-12736.9z"/>
			</g>
		</g>
	</g>
</g>
</svg>
