<?xml version="1.0" encoding="utf-8"?>
<!-- Generator: Adobe Illustrator 25.4.2, SVG Export Plug-In . SVG Version: 6.00 Build 0)  -->
<svg version="1.1" xmlns="http://www.w3.org/2000/svg" xmlns:xlink="http://www.w3.org/1999/xlink" x="0px" y="0px"
	 viewBox="0 0 50 50" style="enable-background:new 0 0 50 50;" xml:space="preserve">
<style type="text/css">
	.st0{opacity:0.5;fill:#FFFFFF;}
	.st1{fill:#020203;}
</style>
<g id="Capa_1">
	<path class="st0" d="M5.6,49.4h38.7c2.8,0,5-2.2,5-5V5.6c0-2.8-2.2-5-5-5H5.6c-2.8,0-5,2.2-5,5v38.7C0.6,47.1,2.9,49.4,5.6,49.4z"
		/>
</g>
<g id="Capa_2">
	<polygon class="st1" points="20.2,29.7 24.5,25.3 20.2,21 21.8,19.3 26.1,23.7 30.4,19.3 32.1,21 27.8,25.3 32.1,29.7 30.4,31.4 
		26.1,27 21.8,31.4 	"/>
	<path class="st1" d="M18.1,15.3l-10,10L18,35.4h20.3V15.3H18.1z M36.1,33.1H19.2l-7.6-7.7l7.6-7.7h16.9V33.1z"/>
	<polygon class="st1" points="27.8,25.3 32.1,29.7 30.4,31.4 26.1,27 21.8,31.4 20.2,29.7 24.5,25.3 20.2,21 21.8,19.3 26.1,23.7 
		30.4,19.3 32.1,21 	"/>
	<polygon class="st1" points="27.8,25.3 32.1,29.7 30.4,31.4 26.1,27 21.8,31.4 20.2,29.7 24.5,25.3 20.2,21 21.8,19.3 26.1,23.7 
		30.4,19.3 32.1,21 	"/>
</g>
</svg>
