<?xml version="1.0" encoding="utf-8"?>
<!-- Generator: Adobe Illustrator 25.4.2, SVG Export Plug-In . SVG Version: 6.00 Build 0)  -->
<svg version="1.1" id="Capa_1" xmlns="http://www.w3.org/2000/svg" xmlns:xlink="http://www.w3.org/1999/xlink" x="0px" y="0px"
	 viewBox="0 0 271 73.1" style="enable-background:new 0 0 271 73.1;" xml:space="preserve">
<style type="text/css">
	.st0{fill:#FCD6AE;}
	.st1{fill:#C66402;}
</style>
<path class="st0" d="M10.7,1.6C4.3,1.6,1.1,5,1.1,11.7v50.6c0,6.8,3.2,10.2,9.6,10.2h250.8c6.4,0,9.6-3.4,9.6-10.2V11.7
	c0-6.8-3.2-10.2-9.6-10.2H10.7V1.6z"/>
<path class="st1" d="M208.1,46.9l0.3,10.4l21.4-0.3V46.3L208.1,46.9z M226.5,53.9L211.6,54l-0.1-3.9l0.1-0.1l14.8-0.1l0.1,0.1
	L226.5,53.9L226.5,53.9z"/>
<path class="st1" d="M229.6,35.5l10.7-0.3l-21.9-21.1L197.2,36h10.7c0.1,0,0.1,0,0.1,0.1v6.6l21.6-0.3l-0.3-6.6
	C229.4,35.7,229.5,35.6,229.6,35.5z M211.4,39.5c-0.1,0-0.1,0-0.1-0.1c-0.2,0-0.3,0-0.3-0.1v-6.6h-5.7v-0.4l13-13.3h0.3l13.5,13v0
	c0,0.1-0.1,0.1-0.3,0.1l-5.6,0.1l0.1,6.9L211.4,39.5z"/>
<g>
	<path class="st1" d="M40,44.7c-1.1,0.7-2.8,1-5,1c-2.5,0-4.6-0.8-6.2-2.3s-2.4-3.5-2.4-5.9c0-2.8,0.8-5,2.5-6.6s3.9-2.4,6.7-2.4
		c1.9,0,3.4,0.3,4.2,0.8v4.3c-1.1-0.8-2.3-1.2-3.6-1.2c-1.5,0-2.6,0.4-3.5,1.3c-0.9,0.9-1.3,2-1.3,3.5c0,1.5,0.4,2.6,1.2,3.4
		s1.9,1.2,3.4,1.2c1.3,0,2.5-0.4,3.7-1.2V44.7z"/>
	<path class="st1" d="M57.1,45.3h-4.8v-2.4h-0.1c-1.1,1.8-2.7,2.8-4.9,2.8c-1.6,0-2.9-0.5-3.8-1.4c-0.9-0.9-1.4-2.1-1.4-3.6
		c0-3.2,1.9-5,5.7-5.5l4.5-0.6c0-1.8-1-2.7-2.9-2.7c-2,0-3.8,0.6-5.6,1.8v-3.8c0.7-0.4,1.7-0.7,2.9-1s2.4-0.4,3.4-0.4
		c4.7,0,7.1,2.3,7.1,7V45.3z M52.3,38.6v-1.1l-3,0.4c-1.7,0.2-2.5,1-2.5,2.2c0,0.6,0.2,1.1,0.6,1.4c0.4,0.4,0.9,0.6,1.6,0.6
		c1,0,1.7-0.3,2.3-1C52,40.4,52.3,39.6,52.3,38.6z"/>
	<path class="st1" d="M66.2,43.4L66.2,43.4l-0.1,9.5h-5.1V28.8h5.1v2.5h0.1c1.3-1.9,3-2.9,5.3-2.9c2.1,0,3.8,0.7,5,2.2
		c1.2,1.5,1.7,3.5,1.7,6c0,2.8-0.7,5-2,6.6c-1.4,1.7-3.2,2.5-5.4,2.5C68.8,45.7,67.3,44.9,66.2,43.4z M66.1,36.6v1.3
		c0,1.1,0.3,2.1,0.9,2.8s1.4,1.1,2.4,1.1c1.2,0,2.1-0.4,2.7-1.3s1-2.2,1-3.8c0-2.9-1.1-4.4-3.4-4.4c-1,0-1.9,0.4-2.6,1.2
		C66.4,34.2,66.1,35.3,66.1,36.6z"/>
	<path class="st1" d="M80.5,44.8v-4.1c0.8,0.5,1.7,0.9,2.5,1.1c0.8,0.2,1.6,0.4,2.4,0.4c0.9,0,1.6-0.1,2.1-0.4s0.8-0.6,0.8-1.1
		c0-0.3-0.1-0.6-0.4-0.8s-0.5-0.4-0.9-0.6c-0.4-0.2-0.8-0.3-1.2-0.4s-0.9-0.3-1.3-0.4c-0.7-0.2-1.2-0.5-1.7-0.8
		c-0.5-0.3-0.9-0.6-1.3-1c-0.3-0.4-0.6-0.8-0.8-1.3c-0.2-0.5-0.3-1.1-0.3-1.8c0-0.9,0.2-1.7,0.6-2.4c0.4-0.7,0.9-1.2,1.6-1.6
		c0.7-0.4,1.4-0.7,2.3-0.9s1.8-0.3,2.7-0.3c0.7,0,1.5,0.1,2.2,0.2c0.8,0.1,1.5,0.3,2.2,0.5V33c-0.6-0.4-1.3-0.7-2.1-0.8
		c-0.7-0.2-1.5-0.3-2.2-0.3c-0.3,0-0.6,0-0.9,0.1s-0.6,0.1-0.8,0.3c-0.2,0.1-0.4,0.3-0.5,0.4c-0.1,0.2-0.2,0.4-0.2,0.6
		c0,0.3,0.1,0.6,0.3,0.8s0.4,0.4,0.8,0.6c0.3,0.2,0.7,0.3,1,0.4c0.4,0.1,0.8,0.2,1.1,0.4c0.7,0.2,1.3,0.5,1.8,0.8s1,0.6,1.4,1
		s0.7,0.8,0.9,1.3c0.2,0.5,0.3,1.1,0.3,1.8c0,1-0.2,1.8-0.6,2.5c-0.4,0.7-1,1.3-1.7,1.7c-0.7,0.4-1.5,0.8-2.4,1
		c-0.9,0.2-1.9,0.3-2.9,0.3C83.7,45.7,82,45.4,80.5,44.8z"/>
	<path class="st1" d="M129.1,28.8l-4.8,16.5H119l-2.4-9.7c-0.2-0.6-0.3-1.3-0.3-2.1h-0.1c-0.1,0.8-0.2,1.5-0.3,2l-2.6,9.7h-5.3
		l-4.7-16.5h5.2l2.3,10.8c0.1,0.5,0.2,1.1,0.2,1.8h0.1c0.1-0.8,0.2-1.4,0.3-1.9l2.8-10.7h4.9l2.5,10.8c0.1,0.3,0.1,0.9,0.2,1.9h0.1
		c0.1-0.6,0.1-1.2,0.3-1.9l2.1-10.8H129.1z"/>
	<path class="st1" d="M139.2,45.7c-2.8,0-4.9-0.8-6.5-2.3s-2.4-3.6-2.4-6.3c0-2.7,0.8-4.9,2.4-6.4c1.6-1.5,3.8-2.3,6.6-2.3
		c2.7,0,4.9,0.8,6.4,2.3c1.6,1.5,2.3,3.6,2.3,6.1c0,2.7-0.8,4.9-2.4,6.5C144.2,44.9,142,45.7,139.2,45.7z M139.3,32.3
		c-1.2,0-2.1,0.4-2.8,1.2s-1,2-1,3.5c0,3.2,1.3,4.8,3.8,4.8c2.4,0,3.7-1.6,3.7-4.9C143,33.8,141.8,32.3,139.3,32.3z"/>
	<path class="st1" d="M162.3,33.4c-0.6-0.3-1.3-0.5-2.1-0.5c-1.1,0-2,0.4-2.6,1.2s-0.9,1.9-0.9,3.3v7.9h-5.1V28.8h5.1v3.1h0.1
		c0.8-2.2,2.3-3.4,4.4-3.4c0.5,0,1,0.1,1.3,0.2V33.4z"/>
	<path class="st1" d="M180.6,45.3h-5.1V43h-0.1c-1.2,1.8-2.9,2.7-5.1,2.7c-2.1,0-3.7-0.7-5-2.2c-1.3-1.5-1.9-3.5-1.9-6.1
		c0-2.7,0.7-4.9,2.1-6.6c1.4-1.6,3.2-2.5,5.4-2.5c2.1,0,3.6,0.8,4.4,2.3h0.1v-9.8h5.1V45.3z M175.6,37.2V36c0-1.1-0.3-2-0.9-2.7
		s-1.4-1.1-2.4-1.1c-1.1,0-2,0.4-2.6,1.3c-0.6,0.9-1,2.1-1,3.6c0,1.5,0.3,2.6,0.9,3.4s1.5,1.2,2.5,1.2c1,0,1.9-0.4,2.5-1.2
		S175.6,38.6,175.6,37.2z"/>
</g>
</svg>
