<?xml version="1.0" encoding="utf-8"?>
<!-- Generator: Adobe Illustrator 25.4.2, SVG Export Plug-In . SVG Version: 6.00 Build 0)  -->
<svg version="1.1" id="Capa_1" xmlns="http://www.w3.org/2000/svg" xmlns:xlink="http://www.w3.org/1999/xlink" x="0px" y="0px"
	 viewBox="0 0 271 73.1" style="enable-background:new 0 0 271 73.1;" xml:space="preserve">
<style type="text/css">
	.st0{fill:#FCD6AE;}
	.st1{fill:#D85903;}
</style>
<path class="st0" d="M10.7,1.6C4.3,1.6,1.1,5,1.1,11.7v50.6c0,6.8,3.2,10.2,9.6,10.2h250.8c6.4,0,9.6-3.4,9.6-10.2V11.7
	c0-6.8-3.2-10.2-9.6-10.2H10.7V1.6z"/>
<g>
	<path class="st1" d="M36,46.7c-1.1,0.7-2.8,1-5,1c-2.5,0-4.6-0.8-6.2-2.3s-2.4-3.5-2.4-5.9c0-2.8,0.8-5,2.5-6.6s3.9-2.4,6.7-2.4
		c1.9,0,3.4,0.3,4.2,0.8v4.3c-1.1-0.8-2.3-1.2-3.6-1.2c-1.5,0-2.6,0.4-3.5,1.3c-0.9,0.9-1.3,2-1.3,3.5c0,1.5,0.4,2.6,1.2,3.4
		s1.9,1.2,3.4,1.2c1.3,0,2.5-0.4,3.7-1.2V46.7z"/>
	<path class="st1" d="M53.1,47.3h-4.8v-2.4h-0.1c-1.1,1.8-2.7,2.8-4.9,2.8c-1.6,0-2.9-0.5-3.8-1.4c-0.9-0.9-1.4-2.1-1.4-3.6
		c0-3.2,1.9-5,5.7-5.5l4.5-0.6c0-1.8-1-2.7-2.9-2.7c-2,0-3.8,0.6-5.6,1.8v-3.8c0.7-0.4,1.7-0.7,2.9-1s2.4-0.4,3.4-0.4
		c4.7,0,7.1,2.3,7.1,7V47.3z M48.3,40.6v-1.1l-3,0.4c-1.7,0.2-2.5,1-2.5,2.2c0,0.6,0.2,1.1,0.6,1.4c0.4,0.4,0.9,0.6,1.6,0.6
		c1,0,1.7-0.3,2.3-1C48,42.4,48.3,41.6,48.3,40.6z"/>
	<path class="st1" d="M62.2,45.4L62.2,45.4l-0.1,9.5h-5.1V30.8h5.1v2.5h0.1c1.3-1.9,3-2.9,5.3-2.9c2.1,0,3.8,0.7,5,2.2
		c1.2,1.5,1.7,3.5,1.7,6c0,2.8-0.7,5-2,6.6c-1.4,1.7-3.2,2.5-5.4,2.5C64.8,47.7,63.3,46.9,62.2,45.4z M62.1,38.6v1.3
		c0,1.1,0.3,2.1,0.9,2.8s1.4,1.1,2.4,1.1c1.2,0,2.1-0.4,2.7-1.3s1-2.2,1-3.8c0-2.9-1.1-4.4-3.4-4.4c-1,0-1.9,0.4-2.6,1.2
		C62.4,36.2,62.1,37.3,62.1,38.6z"/>
	<path class="st1" d="M76.5,46.8v-4.1c0.8,0.5,1.7,0.9,2.5,1.1c0.8,0.2,1.6,0.4,2.4,0.4c0.9,0,1.6-0.1,2.1-0.4s0.8-0.6,0.8-1.1
		c0-0.3-0.1-0.6-0.4-0.8s-0.5-0.4-0.9-0.6c-0.4-0.2-0.8-0.3-1.2-0.4s-0.9-0.3-1.3-0.4c-0.7-0.2-1.2-0.5-1.7-0.8
		c-0.5-0.3-0.9-0.6-1.3-1c-0.3-0.4-0.6-0.8-0.8-1.3c-0.2-0.5-0.3-1.1-0.3-1.8c0-0.9,0.2-1.7,0.6-2.4c0.4-0.7,0.9-1.2,1.6-1.6
		c0.7-0.4,1.4-0.7,2.3-0.9s1.8-0.3,2.7-0.3c0.7,0,1.5,0.1,2.2,0.2c0.8,0.1,1.5,0.3,2.2,0.5V35c-0.6-0.4-1.3-0.7-2.1-0.8
		c-0.7-0.2-1.5-0.3-2.2-0.3c-0.3,0-0.6,0-0.9,0.1s-0.6,0.1-0.8,0.3c-0.2,0.1-0.4,0.3-0.5,0.4c-0.1,0.2-0.2,0.4-0.2,0.6
		c0,0.3,0.1,0.6,0.3,0.8s0.4,0.4,0.8,0.6c0.3,0.2,0.7,0.3,1,0.4c0.4,0.1,0.8,0.2,1.1,0.4c0.7,0.2,1.3,0.5,1.8,0.8s1,0.6,1.4,1
		s0.7,0.8,0.9,1.3c0.2,0.5,0.3,1.1,0.3,1.8c0,1-0.2,1.8-0.6,2.5c-0.4,0.7-1,1.3-1.7,1.7c-0.7,0.4-1.5,0.8-2.4,1
		c-0.9,0.2-1.9,0.3-2.9,0.3C79.7,47.7,78,47.4,76.5,46.8z"/>
	<path class="st1" d="M125.1,30.8l-4.8,16.5H115l-2.4-9.7c-0.2-0.6-0.3-1.3-0.3-2.1h-0.1c-0.1,0.8-0.2,1.5-0.3,2l-2.6,9.7h-5.3
		l-4.7-16.5h5.2l2.3,10.8c0.1,0.5,0.2,1.1,0.2,1.8h0.1c0.1-0.8,0.2-1.4,0.3-1.9l2.8-10.7h4.9l2.5,10.8c0.1,0.3,0.1,0.9,0.2,1.9h0.1
		c0.1-0.6,0.1-1.2,0.3-1.9l2.1-10.8H125.1z"/>
	<path class="st1" d="M135.2,47.7c-2.8,0-4.9-0.8-6.5-2.3s-2.4-3.6-2.4-6.3c0-2.7,0.8-4.9,2.4-6.4c1.6-1.5,3.8-2.3,6.6-2.3
		c2.7,0,4.9,0.8,6.4,2.3c1.6,1.5,2.3,3.6,2.3,6.1c0,2.7-0.8,4.9-2.4,6.5C140.2,46.9,138,47.7,135.2,47.7z M135.3,34.3
		c-1.2,0-2.1,0.4-2.8,1.2s-1,2-1,3.5c0,3.2,1.3,4.8,3.8,4.8c2.4,0,3.7-1.6,3.7-4.9C139,35.8,137.8,34.3,135.3,34.3z"/>
	<path class="st1" d="M158.3,35.4c-0.6-0.3-1.3-0.5-2.1-0.5c-1.1,0-2,0.4-2.6,1.2s-0.9,1.9-0.9,3.3v7.9h-5.1V30.8h5.1v3.1h0.1
		c0.8-2.2,2.3-3.4,4.4-3.4c0.5,0,1,0.1,1.3,0.2V35.4z"/>
	<path class="st1" d="M176.6,47.3h-5.1V45h-0.1c-1.2,1.8-2.9,2.7-5.1,2.7c-2.1,0-3.7-0.7-5-2.2c-1.3-1.5-1.9-3.5-1.9-6.1
		c0-2.7,0.7-4.9,2.1-6.6c1.4-1.6,3.2-2.5,5.4-2.5c2.1,0,3.6,0.8,4.4,2.3h0.1v-9.8h5.1V47.3z M171.6,39.2V38c0-1.1-0.3-2-0.9-2.7
		s-1.4-1.1-2.4-1.1c-1.1,0-2,0.4-2.6,1.3c-0.6,0.9-1,2.1-1,3.6c0,1.5,0.3,2.6,0.9,3.4s1.5,1.2,2.5,1.2c1,0,1.9-0.4,2.5-1.2
		S171.6,40.6,171.6,39.2z"/>
</g>
<g transform="matrix( 0.14093017578125, 0.03643798828125, -0.03643798828125, 0.14093017578125, 651.3,750.25) ">
	<g transform="matrix( 1, 0, 0, 1, 0,0) ">
		<g>
			<g id="smartlock_0_Layer0_0_FILL">
				<path class="st1" d="M-3987.2-4011.5c0.2,0,0.4-0.1,0.6-0.2l1.4-0.4c0.1,0,0.1,0,0.1,0l81.2-22.5c0.3-0.1,0.6-0.3,0.7-0.6
					l-0.1,0c0.2-0.3,0.2-0.6,0.1-0.9c-0.1-0.3-0.2-0.5-0.5-0.6l-217.1-122l0,0c-0.3-0.2-0.6-0.2-0.9-0.1c-0.3,0.1-0.5,0.2-0.7,0.4
					l-120.9,216.9l0,0c-0.2,0.3-0.2,0.7-0.1,1c0.1,0.3,0.3,0.6,0.6,0.7l-0.2-0.1c0.4,0.2,0.8,0.2,1.2,0.1l80.2-22.1
					c0.6-0.2,1.2-0.1,1.7,0.2c0.6,0.3,1,0.7,1.2,1.2c0.5,1.2,1.2,3.5,2.2,6.8l25.2,95.2l172.4-45.3L-3987.2-4011.5 M-3981.3-4047.8
					c0.6,0.4,1,0.9,1.2,1.5c0.2,0.7,0.1,1.3-0.3,1.9c-0.3,0.6-0.7,1-1.3,1.2c-6.2,2-19.3,5.8-39.2,11.6l0,0
					c-0.3,0.1-0.5,0.2-0.7,0.4c0,0.2,0,0.3-0.1,0.4c-0.1,0.2-0.1,0.5-0.1,0.8l28.4,104.2c0.2,0.7,0.1,1.3-0.3,1.9
					c-0.3,0.6-0.8,1-1.5,1.2l-114.1,30c-0.7,0.2-1.3,0.1-1.9-0.3c-0.6-0.3-1-0.8-1.2-1.5l-26.9-102.3c-0.1-0.3-0.3-0.6-0.6-0.7
					c-0.3-0.2-0.6-0.2-0.9-0.1l-40.8,10.7c-0.7,0.2-1.3,0.1-1.9-0.3c-0.6-0.3-1-0.8-1.2-1.5c-0.2-0.6-0.1-1.3,0.2-1.8l72.7-127.6
					c0.4-0.6,0.9-1,1.5-1.2c0.7-0.2,1.4-0.2,1.9,0.1L-3981.3-4047.8 M-4055.7-4055.9c-4.1-0.4-8.4-0.4-13,0.1
					c-4.6,0.5-9.8,1.4-15.6,2.9c-5.8,1.5-11.1,3.6-16,6.2c-4.9,2.7-9,5.8-12.2,9.5c-3.3,3.7-5.5,7.9-6.8,12.6
					c-1.2,4.7-1.1,10,0.4,15.7c1.9,7.2,5.6,12.9,11.2,17s13.1,6.8,22.7,8.1l19.1,3.8c2.5,0.9,4.6,2,6.2,3.3s2.7,3.1,3.3,5.3
					c0.4,1.6,0.4,3.2,0.1,4.7c-0.4,1.6-1.3,3.1-2.5,4.5c-1.3,1.4-3.1,2.6-5.3,3.8c-2.2,1.2-4.8,2.2-8,3c-5.2,1.4-10.7,1.8-16.5,1.4
					c-5.7-0.5-11.2-2.1-16.7-4.7l6.5,24.6c4.5,0.9,9.6,1.2,15.4,0.8c5.7-0.4,11.5-1.4,17.5-2.9c5.9-1.5,11.3-3.6,16.4-6.1
					c5-2.5,9.1-5.5,12.4-9.1c3.3-3.7,5.6-7.9,6.9-12.7c1.2-4.8,1-10.3-0.6-16.4c-1.2-4.5-2.9-8.1-5.1-11c-2.3-3.1-4.9-5.5-8.1-7.4
					c-3.2-2-6.8-3.5-10.8-4.7l-23.1-4.3l-7.6-2.1c-2.1-0.9-3.9-1.9-5.3-3.1c-1.4-1.3-2.3-2.8-2.7-4.6c-0.4-1.7-0.4-3.3,0.1-4.9
					c0.5-1.6,1.4-3.1,2.8-4.4c1.3-1.4,3.1-2.6,5.3-3.8l7.4-2.8l6.7-1.2l7.2-0.4l7.3,0.6l6.8,1.8L-4055.7-4055.9z"/>
			</g>
		</g>
	</g>
</g>
</svg>
