<?xml version="1.0" encoding="utf-8"?>
<!-- Generator: Adobe Illustrator 25.4.2, SVG Export Plug-In . SVG Version: 6.00 Build 0)  -->
<svg version="1.1" id="Capa_1" xmlns="http://www.w3.org/2000/svg" xmlns:xlink="http://www.w3.org/1999/xlink" x="0px" y="0px"
	 viewBox="0 0 191.5 73.1" style="enable-background:new 0 0 191.5 73.1;" xml:space="preserve">
<style type="text/css">
	.st0{fill:#E8CCE4;}
	.st1{fill:#971C77;}
</style>
<path class="st0" d="M190.5,62.2V11.5c0-6.8-3.4-10.2-10.2-10.2H12.1C5.3,1.4,1.9,4.8,1.9,11.5v50.7c0,6.8,3.4,10.2,10.2,10.2h168.3
	C187.1,72.4,190.5,69,190.5,62.2"/>
<g transform="matrix( 1, 0, 0, 1, 0,0) ">
	<g>
		<g id="S_mbolo_1_0_Layer0_0_FILL">
			<path class="st1" d="M40.3,30.1c-2.1,0-3.8,0.9-5,2.7v-10h-5v23.5h5v-9c0-1.1,0.3-1.8,0.8-2.6c0.5-0.8,1.2-1.1,2.1-1.1
				c1.7,0,2.6,1.2,2.6,3.6v9h4.8v-9.8C45.7,32.4,43.9,30.1,40.3,30.1 M64.6,30.6h-4.8l-3.6,11.9c-0.2-0.9-0.3-1.7-0.5-2.1l-2.9-9.8
				h-5.4l6.5,16l-0.8,2c-0.6,1.2-1.4,1.8-2.6,1.8c-0.8,0-1.5-0.2-2.1-0.6v3.9c0.8,0.3,1.7,0.5,2.9,0.5c3.2,0,5.4-2.1,6.9-6.2
				L64.6,30.6 M76.6,30.1c-2.3,0-3.9,0.9-5.1,2.9v-2.4h-5v23.2h5v-9.2c1.1,1.5,2.6,2.3,4.5,2.3c2.1,0,3.9-0.8,5.1-2.4
				c1.4-1.7,2-3.8,2-6.3c0-2.4-0.6-4.4-1.7-5.7C80.3,30.9,78.6,30.1,76.6,30.1 M72.3,35.1c0.6-0.8,1.4-1.2,2.4-1.2
				c2.1,0,3.3,1.4,3.3,4.2c0,1.5-0.3,2.7-0.9,3.6c-0.6,0.9-1.5,1.4-2.6,1.4c-0.9,0-1.7-0.3-2.3-1.1c-0.6-0.6-0.9-1.5-0.9-2.6v-1.4
				C71.4,36.9,71.7,35.8,72.3,35.1 M98.7,32.2c-1.4-1.4-3.2-2.1-5.4-2.1s-4.1,0.8-5.6,2.3c-1.5,1.5-2.3,3.6-2.3,6.3
				c0,2.6,0.8,4.5,2.1,6s3.5,2.1,6,2.1c2.4,0,4.2-0.5,5.7-1.2V42c-1.4,0.9-2.9,1.4-4.7,1.4c-2.7,0-4.2-1.2-4.4-3.6h10.4v-2
				C100.5,35.5,99.9,33.6,98.7,32.2 M93.1,33.6c1.8,0,2.7,1.2,2.7,3.5h-5.7c0.2-1.1,0.5-1.8,1.1-2.4C91.7,33.9,92.3,33.6,93.1,33.6
				 M113.7,30.4c-0.3-0.2-0.8-0.2-1.2-0.2c-2,0-3.5,1.1-4.2,3.3v-2.9h-5v16h5v-7.5c0-1.4,0.3-2.4,0.9-3.2c0.6-0.8,1.4-1.2,2.4-1.2
				c0.8,0,1.5,0.2,2.1,0.5V30.4"/>
		</g>
	</g>
</g>
<g transform="matrix( 0.386962890625, 0, 0, 0.386962890625, 553.45,1400.9) ">
	<g transform="matrix( 1, 0, 0, 1, 0,0) ">
		<g>
			<g id="hyperSpaceCadet_0_Layer0_0_FILL">
				<path class="st1" d="M-1003.8-3519.9v-2.2c-6.6-2.7-11.8-5.1-15.7-7.3c-3.9-2.2-6.9-4.3-9.1-6.5c-2.1-2.2-4.2-5.2-6.4-9
					c-2.2-3.9-4.7-9.2-7.5-16h-2.2c-2.8,6.7-5.3,12.1-7.5,16c-2.2,3.8-4.3,6.8-6.5,9c-2.1,2.2-5.1,4.3-9,6.5
					c-3.9,2.2-9.2,4.6-15.8,7.3v2.2c6.6,2.8,11.9,5.2,15.8,7.4c3.8,2.2,6.8,4.3,9,6.5c2.2,2.2,4.3,5.2,6.5,9
					c2.2,3.9,4.7,9.2,7.5,15.9h2.2c2.8-6.7,5.3-12,7.5-15.9c2.2-3.8,4.3-6.8,6.4-9c2.2-2.2,5.3-4.3,9.2-6.5
					C-1015.6-3514.7-1010.4-3517.1-1003.8-3519.9z"/>
			</g>
		</g>
	</g>
</g>
</svg>
