<?xml version="1.0" encoding="utf-8"?>
<!-- Generator: Adobe Illustrator 25.4.2, SVG Export Plug-In . SVG Version: 6.00 Build 0)  -->
<svg version="1.1" id="Capa_1" xmlns="http://www.w3.org/2000/svg" xmlns:xlink="http://www.w3.org/1999/xlink" x="0px" y="0px"
	 viewBox="0 0 290.5 73.1" style="enable-background:new 0 0 290.5 73.1;" xml:space="preserve">
<style type="text/css">
	.st0{fill:#E8CCE4;}
	.st1{fill:#971C77;}
</style>
<path class="st0" d="M11.3,1.6C4.5,1.6,1.1,5,1.1,11.7v50.6c0,6.8,3.4,10.2,10.2,10.2h267.6c6.8,0,10.2-3.4,10.2-10.2V11.7
	c0-6.8-3.4-10.2-10.2-10.2H11.3V1.6z"/>
<g transform="matrix( 1.50775146484375, 0, 0, 1.50775146484375, 55.9,286.95) ">
	<g transform="matrix( 1, 0, 0, 1, 0,0) ">
		<g>
			<g id="S_mbolo_2_0_Layer0_0_FILL">
				<path class="st1" d="M-6.3-167v-6.6h-3.3v15.6h3.3v-6c0-0.7,0.2-1.2,0.5-1.7c0.4-0.4,0.8-0.7,1.4-0.7c1.1,0,1.7,0.8,1.7,2.4v6
					h3.2v-6.5c0-2.9-1.2-4.4-3.6-4.4C-4.4-168.8-5.5-168.2-6.3-167 M13.1-168.5H9.9l-2.4,7.9c-0.1-0.6-0.2-1.1-0.3-1.4l-1.9-6.5H1.6
					L5.9-158l-0.5,1.3c-0.4,0.8-0.9,1.2-1.7,1.2c-0.5,0-1-0.1-1.4-0.4v2.6c0.5,0.2,1.1,0.3,1.9,0.3c2.1,0,3.6-1.4,4.6-4.1
					L13.1-168.5 M21.1-168.8c-1.5,0-2.6,0.6-3.4,1.9v-1.6h-3.3v15.4h3.3v-6.1c0.7,1,1.7,1.5,3,1.5c1.4,0,2.6-0.5,3.4-1.6
					c0.9-1.1,1.3-2.5,1.3-4.2c0-1.6-0.4-2.9-1.1-3.8C23.5-168.3,22.4-168.8,21.1-168.8 M22-163.5c0,1-0.2,1.8-0.6,2.4
					c-0.4,0.6-1,0.9-1.7,0.9c-0.6,0-1.1-0.2-1.5-0.7c-0.4-0.4-0.6-1-0.6-1.7v-0.9c0-0.8,0.2-1.5,0.7-1.9c0.4-0.5,0.9-0.8,1.6-0.8
					C21.3-166.3,22-165.4,22-163.5 M35.6-167.4c-0.9-0.9-2.1-1.4-3.6-1.4c-1.5,0-2.7,0.5-3.7,1.5c-1,1-1.5,2.4-1.5,4.2
					c0,1.7,0.5,3,1.4,4c0.9,1,2.3,1.4,4,1.4c1.6,0,2.8-0.3,3.8-0.8v-2.4c-0.9,0.6-1.9,0.9-3.1,0.9c-1.8,0-2.8-0.8-2.9-2.4h6.9v-1.3
					C36.9-165.2,36.5-166.5,35.6-167.4 M32-166.6c1.2,0,1.8,0.8,1.8,2.3H30c0.1-0.7,0.3-1.2,0.7-1.6C31.1-166.3,31.5-166.6,32-166.6
					 M45.7-165.6v-3c-0.2-0.1-0.5-0.1-0.8-0.1c-1.3,0-2.3,0.7-2.8,2.2v-1.9h-3.3v10.6H42v-5c0-0.9,0.2-1.6,0.6-2.1
					c0.4-0.5,0.9-0.8,1.6-0.8C44.8-165.9,45.3-165.8,45.7-165.6 M61.9-173.6h-3.3v15.6h3.3V-173.6 M73.9-159.2c1-1,1.5-2.4,1.5-4.2
					c0-1.6-0.5-2.9-1.5-3.9s-2.4-1.5-4.2-1.5s-3.2,0.5-4.2,1.5s-1.5,2.4-1.5,4.1c0,1.7,0.5,3,1.5,4s2.4,1.5,4.1,1.5
					C71.5-157.7,72.9-158.2,73.9-159.2 M69.8-160.2c-1.7,0-2.5-1-2.5-3c0-1,0.2-1.7,0.7-2.3c0.4-0.5,1-0.8,1.7-0.8
					c1.6,0,2.4,1,2.4,3C72.1-161.2,71.3-160.2,69.8-160.2 M85.5-168.2c-0.5-0.4-1.4-0.5-2.7-0.5c-1.8,0-3.2,0.5-4.3,1.5
					c-1.1,1-1.6,2.4-1.6,4.2c0,1.6,0.5,2.8,1.5,3.8s2.4,1.5,4,1.5c1.4,0,2.4-0.2,3.2-0.7v-2.6c-0.8,0.5-1.5,0.8-2.4,0.8
					s-1.7-0.3-2.2-0.8s-0.8-1.3-0.8-2.2s0.3-1.7,0.8-2.2c0.6-0.6,1.3-0.9,2.2-0.9c0.9,0,1.6,0.3,2.3,0.8V-168.2 M97.9-168.5H94
					l-3.2,4.9v-10h-3.3v15.6h3.3v-5.2l3.4,5.2h4l-4.1-5.6L97.9-168.5"/>
			</g>
		</g>
	</g>
</g>
<g transform="matrix( 0.386962890625, 0, 0, 0.386962890625, 573.85,1401.1) ">
	<g transform="matrix( 1, 0, 0, 1, 0,0) ">
		<g>
			<g id="hyperlockspacecadet_0_Layer0_0_FILL">
				<path class="st1" d="M-845.9-3550.4c-2.6-4.9-5.6-11.6-8.9-20h-2.6c-3.3,8.4-6.3,15.1-8.9,20c-2.6,4.8-5.1,8.6-7.7,11.3
					c-2.5,2.7-6,5.4-10.6,8.1s-10.8,5.7-18.7,9.1v2.8c7.8,3.5,14,6.5,18.7,9.2c4.5,2.7,8.1,5.4,10.6,8.1c2.6,2.7,5.1,6.5,7.7,11.3
					c2.6,4.9,5.5,11.5,8.9,19.9h2.6c3.3-8.4,6.2-15,8.9-19.9c2.6-4.8,5.1-8.6,7.5-11.3c2.6-2.7,6.3-5.4,10.9-8.1
					c4.5-2.7,10.7-5.8,18.4-9.2v-2.8c-7.8-3.4-14-6.4-18.5-9.1c-4.6-2.7-8.2-5.4-10.8-8.1C-840.9-3541.8-843.4-3545.5-845.9-3550.4
					 M-839.8-3520.5v1c-2.6,1.2-4.7,2.2-6.3,3.2c-1.6,1-2.9,2-3.8,2.9c-0.8,0.9-1.7,2.2-2.6,3.9c-0.9,1.7-1.9,4-3,6.8h-1
					c-1.2-2.9-2.2-5.2-3.1-6.8c-0.9-1.7-1.8-3-2.6-3.9c-0.9-0.9-2.1-1.9-3.7-2.9c-1.6-0.9-3.7-2-6.5-3.2v-1c2.7-1.2,4.9-2.2,6.5-3.2
					s2.8-1.9,3.7-2.8c0.9-0.9,1.8-2.2,2.6-3.9c0.9-1.7,1.9-4,3.1-7h1c1.1,3,2.1,5.3,3,7c1,1.7,1.8,3,2.6,3.9
					c0.9,0.9,2.2,1.9,3.8,2.8C-844.6-3522.7-842.5-3521.6-839.8-3520.5z"/>
			</g>
		</g>
	</g>
</g>
</svg>
