<?xml version="1.0" encoding="utf-8"?>
<!-- Generator: Adobe Illustrator 25.4.2, SVG Export Plug-In . SVG Version: 6.00 Build 0)  -->
<svg version="1.1" id="Capa_1" xmlns="http://www.w3.org/2000/svg" xmlns:xlink="http://www.w3.org/1999/xlink" x="0px" y="0px"
	 viewBox="0 0 271 73.1" style="enable-background:new 0 0 271 73.1;" xml:space="preserve">
<style type="text/css">
	.st0{fill:#D7CBF7;}
	.st1{fill:#6A20D3;}
</style>
<path class="st0" d="M10.7,1.6C4.3,1.6,1.1,5,1.1,11.7v50.6c0,6.8,3.2,10.2,9.6,10.2h250.8c6.4,0,9.6-3.4,9.6-10.2V11.7
	c0-6.8-3.2-10.2-9.6-10.2H10.7V1.6z"/>
<g>
	<path class="st1" d="M50.2,48.8h-5.1v-9.2c0-2.6-0.9-3.8-2.7-3.8c-0.9,0-1.6,0.3-2.2,1s-0.9,1.5-0.9,2.6v9.4h-5.1V32.3h5.1v2.6h0.1
		c1.2-2,3-3,5.3-3c3.7,0,5.5,2.3,5.5,6.8V48.8z"/>
	<path class="st1" d="M69.9,48.8h-5.1v-2.5h-0.1c-1.3,1.9-2.9,2.9-5,2.9c-3.8,0-5.7-2.3-5.7-6.9v-10H59v9.5c0,2.3,0.9,3.5,2.8,3.5
		c0.9,0,1.6-0.3,2.2-1c0.5-0.6,0.8-1.5,0.8-2.6v-9.4h5.1V48.8z"/>
	<path class="st1" d="M100.4,48.8h-5.1v-9.4c0-2.4-0.9-3.6-2.6-3.6c-0.8,0-1.5,0.4-2,1.1s-0.8,1.6-0.8,2.7v9.2h-5.1v-9.5
		c0-2.3-0.9-3.5-2.6-3.5c-0.9,0-1.6,0.3-2.1,1c-0.5,0.7-0.8,1.6-0.8,2.8v9.2h-5.1V32.3h5.1v2.6h0.1c0.5-0.9,1.3-1.6,2.2-2.2
		c1-0.6,2-0.8,3.1-0.8c2.3,0,3.9,1,4.8,3.1c1.3-2.1,3.1-3.1,5.5-3.1c3.6,0,5.4,2.2,5.4,6.6V48.8z"/>
	<path class="st1" d="M118.6,48.8h-5.1V24.3h5.1V48.8z"/>
	<path class="st1" d="M130.8,49.2c-2.8,0-4.9-0.8-6.5-2.3c-1.6-1.5-2.4-3.6-2.4-6.3c0-2.7,0.8-4.9,2.4-6.4c1.6-1.5,3.8-2.3,6.6-2.3
		c2.7,0,4.9,0.8,6.4,2.3c1.6,1.5,2.3,3.6,2.3,6.1c0,2.7-0.8,4.9-2.4,6.5C135.8,48.4,133.6,49.2,130.8,49.2z M130.9,35.8
		c-1.2,0-2.1,0.4-2.8,1.2s-1,2-1,3.5c0,3.2,1.3,4.8,3.8,4.8c2.4,0,3.7-1.6,3.7-4.9C134.6,37.3,133.3,35.8,130.9,35.8z"/>
	<path class="st1" d="M155.6,48.2c-1.1,0.7-2.8,1-5,1c-2.5,0-4.6-0.8-6.2-2.3c-1.6-1.5-2.4-3.5-2.4-5.9c0-2.8,0.8-5,2.5-6.6
		s3.9-2.4,6.7-2.4c1.9,0,3.4,0.3,4.2,0.8V37c-1.1-0.8-2.2-1.2-3.6-1.2c-1.5,0-2.6,0.4-3.5,1.3c-0.9,0.9-1.3,2-1.3,3.5
		c0,1.5,0.4,2.6,1.2,3.4c0.8,0.8,1.9,1.2,3.4,1.2c1.3,0,2.5-0.4,3.7-1.2V48.2z"/>
	<path class="st1" d="M175.4,48.8h-6.1l-5.3-8.2H164v8.2h-5.1V24.3h5.1v15.5h0.1l4.9-7.6h6l-5.9,7.8L175.4,48.8z"/>
</g>
<g transform="matrix( 0.5993499755859375, -0.0076904296875, 0.0076904296875, 0.5993499755859375, 620.65,828.3) ">
	<g>
		<g transform="matrix( 1, 0, 0, 1, 0,0) ">
			<g>
				<g id="numlock_0_Layer0_0_FILL_00000062886730258243169410000004511507623896515207_">
					<path class="st1" d="M-613.4-1301.6v-6.9c0-1.5-0.5-2.7-1.6-3.8c-1.1-1-2.3-1.6-3.8-1.6h-6.9c-1.5,0-2.7,0.5-3.8,1.6
						c-1,1.1-1.6,2.3-1.6,3.8v6.9c0,1.5,0.5,2.7,1.6,3.8c1.1,1,2.3,1.6,3.8,1.6h6.9c1.5,0,2.7-0.5,3.8-1.6
						C-613.9-1298.9-613.4-1300.1-613.4-1301.6 M-649.1-1313.9c-1.5,0-2.7,0.5-3.8,1.6c-1,1.1-1.6,2.3-1.6,3.8v6.9
						c0,1.5,0.5,2.7,1.6,3.8c1.1,1,2.3,1.6,3.8,1.6h6.9c1.5,0,2.7-0.5,3.8-1.6c1-1.1,1.6-2.3,1.6-3.8v-6.9c0-1.5-0.5-2.7-1.6-3.8
						c-1.1-1-2.3-1.6-3.8-1.6L-649.1-1313.9 M-660.2-1301.6v-6.9c0-1.5-0.5-2.7-1.6-3.8c-1.1-1-2.3-1.6-3.8-1.6h-6.9
						c-1.5,0-2.7,0.5-3.8,1.6c-1,1.1-1.6,2.3-1.6,3.8v6.9c0,1.5,0.5,2.7,1.6,3.8c1.1,1,2.3,1.6,3.8,1.6h6.9c1.5,0,2.7-0.5,3.8-1.6
						C-660.7-1298.8-660.2-1300.1-660.2-1301.6 M-672.4-1337.4c-1.5,0-2.7,0.5-3.8,1.6c-1,1.1-1.6,2.3-1.6,3.8v6.9
						c0,1.5,0.5,2.7,1.6,3.8c1.1,1,2.3,1.6,3.8,1.6h6.9c1.5,0,2.7-0.5,3.8-1.6c1-1.1,1.6-2.3,1.6-3.8v-6.9c0-1.5-0.5-2.7-1.6-3.8
						c-1.1-1-2.3-1.6-3.8-1.6H-672.4 M-660.2-1348.8v-6.9c0-1.5-0.5-2.7-1.6-3.8c-1.1-1-2.3-1.6-3.8-1.6h-6.9
						c-1.5,0-2.7,0.5-3.8,1.6c-1,1.1-1.6,2.3-1.6,3.8v6.9c0,1.5,0.5,2.7,1.6,3.8c1.1,1,2.3,1.6,3.8,1.6h6.9c1.5,0,2.7-0.5,3.8-1.6
						C-660.7-1346.1-660.2-1347.4-660.2-1348.8 M-629.5-1335.9c-1,1.1-1.6,2.3-1.6,3.8v6.9c0,1.5,0.5,2.7,1.6,3.8
						c1.1,1,2.3,1.6,3.8,1.6h6.9c1.5,0,2.7-0.5,3.8-1.6c1-1.1,1.6-2.3,1.6-3.8v-6.9c0-1.5-0.5-2.7-1.6-3.8c-1.1-1-2.3-1.6-3.8-1.6
						h-6.9C-627.2-1337.4-628.4-1336.9-629.5-1335.9 M-638.4-1321.3c1-1.1,1.6-2.3,1.6-3.8v-6.9c0-1.5-0.5-2.7-1.6-3.8
						c-1.1-1-2.3-1.6-3.8-1.6h-6.9c-1.5,0-2.7,0.5-3.8,1.6c-1,1.1-1.6,2.3-1.6,3.8v6.9c0,1.5,0.5,2.7,1.6,3.8c1.1,1,2.3,1.6,3.8,1.6
						h6.9C-640.7-1319.8-639.4-1320.3-638.4-1321.3 M-642.2-1343.5c1.5,0,2.7-0.5,3.8-1.6c1-1.1,1.6-2.3,1.6-3.8v-6.9
						c0-1.5-0.5-2.7-1.6-3.8c-1.1-1-2.3-1.6-3.8-1.6h-6.9c-1.5,0-2.7,0.5-3.8,1.6c-1,1.1-1.6,2.3-1.6,3.8l0,6.9
						c0,1.5,0.5,2.7,1.6,3.8c1.1,1,2.3,1.6,3.8,1.6H-642.2 M-625.7-1343.5h6.9c1.5,0,2.7-0.5,3.8-1.6c1-1.1,1.6-2.3,1.6-3.8v-6.9
						c0-1.5-0.5-2.7-1.6-3.8c-1.1-1-2.3-1.6-3.8-1.6h-6.9c-1.5,0-2.7,0.5-3.8,1.6c-1,1.1-1.6,2.3-1.6,3.8v6.9c0,1.5,0.5,2.7,1.6,3.8
						C-628.4-1344.1-627.2-1343.5-625.7-1343.5z"/>
				</g>
			</g>
		</g>
	</g>
</g>
</svg>
