<?xml version="1.0" encoding="utf-8"?>
<!-- Generator: Adobe Illustrator 25.4.2, SVG Export Plug-In . SVG Version: 6.00 Build 0)  -->
<svg version="1.1" id="Capa_1" xmlns="http://www.w3.org/2000/svg" xmlns:xlink="http://www.w3.org/1999/xlink" x="0px" y="0px"
	 viewBox="0 0 50 50" style="enable-background:new 0 0 50 50;" xml:space="preserve">
<style type="text/css">
	.st0{opacity:0.5;fill:#FFFFFF;enable-background:new    ;}
	.st1{fill:#020203;}
</style>
<g id="Capa_1_00000106855749326036549140000018308998415981303200_">
	<path class="st0" d="M5.6,49.4h38.7c2.8,0,5-2.2,5-5V5.6c0-2.8-2.2-5-5-5H5.6c-2.8,0-5,2.2-5,5v38.7C0.6,47.1,2.9,49.4,5.6,49.4z"
		/>
</g>
<g id="Capa_2_00000040546708832197930810000010517503183828918159_">
</g>
<g transform="matrix( 0.14093017578125, 0.03643798828125, -0.03643798828125, 0.14093017578125, 651.3,750.25) ">
	<g transform="matrix( 1, 0, 0, 1, 0,0) ">
		<g>
			<g id="smartlock_0_Layer0_0_FILL">
				<path class="st1" d="M-5338.3-3735.1c0.1,0,0.3-0.1,0.5-0.1l1.1-0.3c0,0,0.1,0,0.1,0l62.7-17.4c0.2-0.1,0.4-0.2,0.6-0.4l-0.1,0
					c0.1-0.2,0.2-0.5,0.1-0.7c-0.1-0.2-0.2-0.4-0.4-0.5l-167.6-94.2l0,0c-0.2-0.1-0.5-0.2-0.7-0.1c-0.2,0.1-0.4,0.2-0.5,0.3
					l-93.4,167.5l0,0c-0.1,0.3-0.2,0.5-0.1,0.8c0.1,0.2,0.2,0.4,0.4,0.6l-0.1-0.1c0.3,0.1,0.6,0.1,0.9,0.1l61.9-17.1
					c0.5-0.1,0.9-0.1,1.3,0.1c0.4,0.2,0.8,0.5,0.9,0.9c0.4,0.9,0.9,2.7,1.7,5.3l19.4,73.5l133.1-35L-5338.3-3735.1 M-5333.8-3763.1
					c0.5,0.3,0.8,0.7,0.9,1.1c0.1,0.5,0.1,1-0.2,1.4c-0.2,0.5-0.5,0.8-1,1c-4.8,1.5-14.9,4.5-30.2,8.9l0,0c-0.2,0.1-0.4,0.2-0.5,0.3
					c0,0.1,0,0.2-0.1,0.3c-0.1,0.2-0.1,0.4,0,0.6l21.9,80.4c0.1,0.5,0.1,1-0.2,1.4c-0.3,0.5-0.6,0.8-1.1,0.9l-88.1,23.2
					c-0.5,0.1-1,0.1-1.4-0.2c-0.5-0.3-0.8-0.6-0.9-1.1l-20.8-78.9c-0.1-0.2-0.2-0.4-0.4-0.6c-0.2-0.1-0.5-0.2-0.7-0.1l-31.5,8.3
					c-0.5,0.1-1,0.1-1.4-0.2c-0.5-0.3-0.8-0.6-0.9-1.1c-0.1-0.5-0.1-1,0.1-1.4l56.1-98.5c0.3-0.5,0.7-0.8,1.1-0.9
					c0.5-0.2,1-0.1,1.5,0.1L-5333.8-3763.1 M-5391.2-3769.3c-3.2-0.3-6.5-0.3-10,0.1c-3.6,0.4-7.6,1.1-12,2.3
					c-4.5,1.2-8.6,2.8-12.3,4.8c-3.8,2-6.9,4.5-9.4,7.3c-2.5,2.8-4.3,6.1-5.2,9.7c-0.9,3.7-0.8,7.7,0.3,12.1
					c1.5,5.6,4.4,10,8.7,13.1c4.3,3.1,10.1,5.2,17.5,6.2l14.8,2.9c1.9,0.7,3.6,1.5,4.8,2.6s2.1,2.4,2.5,4.1c0.3,1.2,0.3,2.4,0.1,3.6
					c-0.3,1.2-1,2.4-1.9,3.5c-1,1.1-2.4,2-4.1,2.9c-1.7,0.9-3.7,1.7-6.2,2.3c-4.1,1.1-8.3,1.4-12.7,1.1c-4.4-0.4-8.7-1.6-12.9-3.6
					l5,19c3.5,0.7,7.4,0.9,11.9,0.6c4.4-0.3,8.9-1.1,13.5-2.3c4.5-1.2,8.8-2.8,12.6-4.7c3.8-1.9,7-4.3,9.6-7
					c2.5-2.8,4.3-6.1,5.3-9.8c0.9-3.7,0.8-7.9-0.5-12.7c-0.9-3.4-2.2-6.3-3.9-8.5c-1.7-2.4-3.8-4.3-6.2-5.7
					c-2.5-1.5-5.3-2.7-8.3-3.6l-17.8-3.3l-5.8-1.6c-1.6-0.7-3-1.5-4.1-2.4c-1-1-1.8-2.2-2.1-3.6c-0.3-1.3-0.3-2.5,0.1-3.8
					s1.1-2.4,2.2-3.4c1-1.1,2.4-2,4.1-2.9l5.7-2.2l5.2-1l5.5-0.3l5.6,0.5l5.3,1.4L-5391.2-3769.3z"/>
			</g>
		</g>
	</g>
</g>
</svg>
