<?xml version="1.0" encoding="utf-8"?>
<!-- Generator: Adobe Illustrator 25.4.2, SVG Export Plug-In . SVG Version: 6.00 Build 0)  -->
<svg version="1.1" xmlns="http://www.w3.org/2000/svg" xmlns:xlink="http://www.w3.org/1999/xlink" x="0px" y="0px"
	 viewBox="0 0 50 50" style="enable-background:new 0 0 50 50;" xml:space="preserve">
<style type="text/css">
	.st0{opacity:0.5;fill:#FFFFFF;}
</style>
<g id="Capa_1">
	<path class="st0" d="M5.6,49.4h38.7c2.8,0,5-2.2,5-5V5.6c0-2.8-2.2-5-5-5H5.6c-2.8,0-5,2.2-5,5v38.7C0.6,47.1,2.9,49.4,5.6,49.4z"
		/>
	<path d="M17,31.5l0.2,7.1l14.6-0.2v-7.3L17,31.5z M29.6,36.3l-10.2,0.1l-0.1-2.7l0.1-0.1l10.1-0.1l0.1,0.1
		C29.6,33.6,29.6,36.3,29.6,36.3z"/>
	<path d="M31.7,23.7l7.3-0.2L24,9.1L9.6,24h7.3c0.1,0,0.1,0,0.1,0.1v4.5l14.8-0.2l-0.2-4.5C31.6,23.8,31.7,23.8,31.7,23.7z
		 M19.3,26.4C19.2,26.4,19.2,26.4,19.3,26.4c-0.2-0.1-0.3-0.1-0.3-0.2v-4.5h-3.9v-0.3l8.9-9.1h0.2l9.2,8.9v0.1
		c0,0.1-0.1,0.1-0.2,0.1l-3.8,0.1l0.1,4.7L19.3,26.4z"/>
</g>
<g id="Capa_2">
</g>
</svg>
