<?xml version="1.0" encoding="utf-8"?>
<!-- Generator: Adobe Illustrator 25.4.2, SVG Export Plug-In . SVG Version: 6.00 Build 0)  -->
<svg version="1.1" id="Capa_1" xmlns="http://www.w3.org/2000/svg" xmlns:xlink="http://www.w3.org/1999/xlink" x="0px" y="0px"
	 viewBox="0 0 50 50" style="enable-background:new 0 0 50 50;" xml:space="preserve">
<style type="text/css">
	.st0{opacity:0.5;fill:#FFFFFF;enable-background:new    ;}
</style>
<g id="Capa_1_00000106855749326036549140000018308998415981303200_">
	<path class="st0" d="M5.6,49.4h38.7c2.8,0,5-2.2,5-5V5.6c0-2.8-2.2-5-5-5H5.6c-2.8,0-5,2.2-5,5v38.7C0.6,47.1,2.9,49.4,5.6,49.4z"
		/>
	<path d="M14.2,18.5l6.4,6.4l-6.7,6.8c-0.5,0.5-0.8,1.1-0.8,1.8s0.3,1.3,0.8,1.8s1.1,0.8,1.8,0.8c0.7,0,1.3-0.3,1.8-0.8l6.8-6.8
		l6.8,6.8c0.5,0.5,1.1,0.8,1.8,0.8s1.3-0.3,1.8-0.8s0.8-1.1,0.8-1.8s-0.3-1.3-0.8-1.8l-6.8-6.8l6.4-6.4c0.5-0.4,0.7-1,0.8-1.8
		c0-0.7-0.2-1.3-0.8-1.8c-0.4-0.5-1-0.8-1.8-0.8c-0.7,0-1.3,0.2-1.8,0.6l-6.4,6.6l-6.4-6.4c-0.5-0.5-1.1-0.8-1.8-0.8
		c-0.7,0-1.3,0.3-1.8,0.8s-0.8,1.1-0.8,1.8C13.5,17.4,13.7,18,14.2,18.5"/>
</g>
<g id="Capa_2_00000040546708832197930810000010517503183828918159_">
</g>
</svg>
