<?xml version="1.0" encoding="utf-8"?>
<!-- Generator: Adobe Illustrator 25.4.2, SVG Export Plug-In . SVG Version: 6.00 Build 0)  -->
<svg version="1.1" id="Capa_1" xmlns="http://www.w3.org/2000/svg" xmlns:xlink="http://www.w3.org/1999/xlink" x="0px" y="0px"
	 viewBox="0 0 50 50" style="enable-background:new 0 0 50 50;" xml:space="preserve">
<style type="text/css">
	.st0{opacity:0.5;fill:#FFFFFF;enable-background:new    ;}
</style>
<g id="Capa_1_00000106855749326036549140000018308998415981303200_">
	<path class="st0" d="M5.6,49.4h38.7c2.8,0,5-2.2,5-5V5.6c0-2.8-2.2-5-5-5H5.6c-2.8,0-5,2.2-5,5v38.7C0.6,47.1,2.9,49.4,5.6,49.4z"
		/>
</g>
<g id="Capa_2_00000040546708832197930810000010517503183828918159_">
</g>
<polyline points="34.4,18.9 38.9,18.3 37.7,14.9 33.6,16.6 34.3,11.9 30.5,11.9 31.1,16.6 27,14.9 25.8,18.3 30.4,18.9 27.1,22.4 
	30.1,24.3 32.3,20.1 34.7,24.3 37.7,22.4 34.4,18.9 "/>
<polyline points="8.8,39.6 13.5,39.6 25,11.9 20.3,11.9 8.8,39.6 "/>
</svg>
