<?xml version="1.0" encoding="utf-8"?>
<!-- Generator: Adobe Illustrator 25.4.2, SVG Export Plug-In . SVG Version: 6.00 Build 0)  -->
<svg version="1.1" id="Capa_1" xmlns="http://www.w3.org/2000/svg" xmlns:xlink="http://www.w3.org/1999/xlink" x="0px" y="0px"
	 viewBox="0 0 50 50" style="enable-background:new 0 0 50 50;" xml:space="preserve">
<style type="text/css">
	.st0{opacity:0.5;fill:#FFFFFF;enable-background:new    ;}
</style>
<g id="Capa_1_00000106855749326036549140000018308998415981303200_">
	<path class="st0" d="M5.6,49.4h38.7c2.8,0,5-2.2,5-5V5.6c0-2.8-2.2-5-5-5H5.6c-2.8,0-5,2.2-5,5v38.7C0.6,47.1,2.9,49.4,5.6,49.4z"
		/>
</g>
<g id="Capa_2_00000040546708832197930810000010517503183828918159_">
</g>
<polyline points="39.8,27 39.8,31.6 44.2,31.6 44.2,27 39.8,27 "/>
<path d="M5.8,26.4c0,1.4,0.4,2.6,1.3,3.5s2,1.3,3.3,1.3c1.2,0,2.1-0.2,2.7-0.6v-2.4c-0.6,0.5-1.3,0.7-2,0.7c-0.8,0-1.4-0.2-1.8-0.7
	c-0.5-0.5-0.7-1.2-0.7-2c0-0.9,0.3-1.6,0.8-2.1s1.1-0.7,1.9-0.7c0.7,0,1.4,0.2,1.9,0.7v-2.5c-0.5-0.3-1.2-0.5-2.3-0.5
	c-1.5,0-2.8,0.5-3.7,1.4C6.3,23.4,5.8,24.7,5.8,26.4"/>
<polyline points="39.8,20.9 39.8,25.5 44.2,25.5 44.2,20.9 39.8,20.9 "/>
<polyline points="33.7,21 33.7,25.5 38.1,25.5 38.1,21 33.7,21 "/>
<polyline points="38.1,27 33.7,27 33.7,31.7 38.1,31.7 38.1,27 "/>
<path d="M20.4,23.5v-2.2h-2v-2.9l-2.8,0.9v2.1h-1.5v2.2h1.5V28c0,2.2,1,3.3,3,3.3c0.8,0,1.4-0.1,1.8-0.3v-2.2
	C20.1,29,19.8,29,19.5,29c-0.7,0-1.1-0.5-1.1-1.5v-3.9h2"/>
<path d="M27.2,21.1c-1.1,0-2,0.7-2.4,2v-1.8H22V31h2.8v-4.6c0-0.8,0.2-1.5,0.5-2c0.4-0.5,0.8-0.7,1.5-0.7c0.4,0,0.8,0.1,1.1,0.3
	v-2.8C27.7,21.1,27.5,21.1,27.2,21.1"/>
</svg>
