<?xml version="1.0" encoding="utf-8"?>
<!-- Generator: Adobe Illustrator 25.4.2, SVG Export Plug-In . SVG Version: 6.00 Build 0)  -->
<svg version="1.1" id="Capa_1" xmlns="http://www.w3.org/2000/svg" xmlns:xlink="http://www.w3.org/1999/xlink" x="0px" y="0px"
	 viewBox="0 0 50 50" style="enable-background:new 0 0 50 50;" xml:space="preserve">
<style type="text/css">
	.st0{opacity:0.5;fill:#FFFFFF;enable-background:new    ;}
	.st1{fill:#020203;}
</style>
<g id="Capa_1_00000106855749326036549140000018308998415981303200_">
	<path class="st0" d="M5.6,49.4h38.7c2.8,0,5-2.2,5-5V5.6c0-2.8-2.2-5-5-5H5.6c-2.8,0-5,2.2-5,5v38.7C0.6,47.1,2.9,49.4,5.6,49.4z"
		/>
</g>
<g id="Capa_2_00000040546708832197930810000010517503183828918159_">
</g>
<path class="st1" d="M28,25.9l14-6.2c-0.6-0.5-1.3-0.8-1.9-1c-0.6-0.2-1.2-0.3-1.8-0.3c-1,0.1-2.6,0.5-4.9,1.4
	c-2.4,0.9-5.8,2.4-10.4,4.5c-1.6-0.6-3.3-1-4.9-1.2c-1.7-0.2-2.5-0.4-2.5-0.6l0.1-0.1l0.4-1.2l0.1-1.1c-0.1-1.1-0.5-1.9-1.2-2.4
	c-0.8-0.6-1.8-0.9-3-0.8c-1.1,0.1-2.1,0.5-2.7,1.2c-0.8,0.8-1.1,1.7-1,2.8C8.4,22.1,9,23,9.9,23.5c1,0.6,2.4,0.9,4.1,0.8l1.5-0.1
	c1.6-0.1,2.8,0.1,3.5,0.4c0.8,0.3,1.3,0.9,1.7,1.8c-0.3,0.9-0.8,1.5-1.5,2c-0.6,0.4-1.8,0.6-3.4,0.7L14.2,29c-1.8,0.1-3.1,0.5-4,1.1
	C9.3,30.9,8.9,31.8,9,33c0.1,1.1,0.5,2.1,1.3,2.7c0.8,0.7,1.7,1,2.8,0.9c1.2-0.1,2.2-0.5,2.9-1.2c0.7-0.8,1-1.6,0.9-2.6l-0.8-2.2
	v-0.1c-0.1,0-0.1,0-0.1-0.1c-0.1-0.1,0.8-0.4,2.4-0.8s3.2-1,4.7-1.8c4.6,1.5,8.1,2.6,10.6,3.3c2.4,0.7,4.2,1,5.2,0.9
	c0.6-0.1,1.2-0.2,1.8-0.5s1.1-0.8,1.7-1.3L28,25.9z M14.4,22.3c-0.5,0.5-1.1,0.7-1.9,0.8c-0.9,0.1-1.6-0.2-2.1-0.7
	c-0.6-0.4-1-1-1-1.8c0-0.7,0.2-1.3,0.7-1.9c0.5-0.4,1.1-0.7,2-0.8c0.8-0.1,1.5,0.2,2,0.7c0.6,0.4,0.9,0.9,0.9,1.7
	C15,21.1,14.8,21.8,14.4,22.3z M15,34.7c-0.5,0.5-1.2,0.8-2,0.8c-0.8,0.1-1.5-0.1-2-0.6c-0.5-0.4-0.8-1-0.8-1.8
	c-0.1-0.8,0.2-1.4,0.8-2c0.5-0.5,1.1-0.8,2-0.8c0.8-0.1,1.4,0.2,2,0.7c0.5,0.5,0.8,1,0.8,1.7C15.8,33.4,15.5,34.1,15,34.7z"/>
</svg>
