<?xml version="1.0" encoding="utf-8"?>
<!-- Generator: Adobe Illustrator 25.4.2, SVG Export Plug-In . SVG Version: 6.00 Build 0)  -->
<svg version="1.1" id="Capa_1" xmlns="http://www.w3.org/2000/svg" xmlns:xlink="http://www.w3.org/1999/xlink" x="0px" y="0px"
	 viewBox="0 0 50 50" style="enable-background:new 0 0 50 50;" xml:space="preserve">
<style type="text/css">
	.st0{opacity:0.5;fill:#FFFFFF;enable-background:new    ;}
	.st1{fill:#020203;}
</style>
<g id="Capa_1_00000106855749326036549140000018308998415981303200_">
	<path class="st0" d="M5.6,49.4h38.7c2.8,0,5-2.2,5-5V5.6c0-2.8-2.2-5-5-5H5.6c-2.8,0-5,2.2-5,5v38.7C0.6,47.1,2.9,49.4,5.6,49.4z"
		/>
</g>
<g id="Capa_2_00000040546708832197930810000010517503183828918159_">
</g>
<path class="st1" d="M37.7,16.2l-0.6-2c-0.2-0.6-0.5-1-0.9-1.2c-0.4-0.3-0.9-0.5-1.5-0.5h-5v-1.1c0-0.6-0.2-1.1-0.6-1.6V9.6H29
	C28.6,9.2,28.1,9,27.4,9h-5.1c-0.6,0-1.2,0.2-1.6,0.6h-0.1c-0.4,0.5-0.6,1-0.6,1.7v1.1h-5c-0.5,0-1,0.2-1.5,0.5
	c-0.4,0.3-0.7,0.7-0.8,1.2l-0.7,2c-0.1,0.4-0.1,0.7-0.1,0.9c0.1,0.4,0.2,0.7,0.4,0.9c0.2,0.3,0.5,0.5,0.7,0.6
	c0.3,0.2,0.6,0.3,0.9,0.3h0.2l1.5,18.3c0.1,0.9,0.4,1.6,1,2.2c0.7,0.6,1.5,0.9,2.3,0.9H31c0.9,0,1.7-0.3,2.3-0.9
	c0.6-0.5,1-1.3,1-2.2l1.6-18.3c0.2-0.1,0.5-0.1,0.7-0.2v0.1c0.3-0.1,0.5-0.3,0.7-0.6c0.2-0.3,0.4-0.6,0.4-0.9
	C37.9,16.8,37.9,16.5,37.7,16.2z M31.4,37.1c0,0.1,0,0.1-0.1,0.2c-0.1,0.1-0.1,0.1-0.2,0.1H19c-0.1,0-0.1,0-0.2-0.1
	s-0.1-0.1-0.1-0.2L17.2,19h15.7L31.4,37.1z"/>
</svg>
