<?xml version="1.0" encoding="utf-8"?>
<!-- Generator: Adobe Illustrator 25.4.2, SVG Export Plug-In . SVG Version: 6.00 Build 0)  -->
<svg version="1.1" id="Capa_1" xmlns="http://www.w3.org/2000/svg" xmlns:xlink="http://www.w3.org/1999/xlink" x="0px" y="0px"
	 viewBox="0 0 50 50" style="enable-background:new 0 0 50 50;" xml:space="preserve">
<style type="text/css">
	.st0{opacity:0.5;fill:#FFFFFF;enable-background:new    ;}
	.st1{fill:#020203;}
</style>
<g id="Capa_1_00000106855749326036549140000018308998415981303200_">
	<path class="st0" d="M5.6,49.4h38.7c2.8,0,5-2.2,5-5V5.6c0-2.8-2.2-5-5-5H5.6c-2.8,0-5,2.2-5,5v38.7C0.6,47.1,2.9,49.4,5.6,49.4z"
		/>
</g>
<g id="Capa_2_00000040546708832197930810000010517503183828918159_">
</g>
<g transform="matrix( 0.1392822265625, 0, 0, 0.1392822265625, 1082.4,527) ">
	<g transform="matrix( 1, 0, 0, 1, 0,0) ">
		<g>
			<g id="basurano_0_Layer0_0_FILL">
				<path class="st1" d="M-7517.6-3678.1c-3-2.2-6.5-3.3-10.3-3.3h-35.4v-8.6c0-4.3-1.5-8-4.5-11.1l-0.1-0.1v-0.2
					c-0.1,0-0.1,0-0.2-0.1c-3.2-3-6.9-4.5-11.2-4.5h-36.4c-4.4,0-8.1,1.5-11.2,4.5c-0.1,0.1-0.1,0.1-0.2,0.2
					c-3.2,3.2-4.8,7-4.8,11.4v8.6h-35.3c-3.8,0-7.2,1.1-10.2,3.3h-0.2c-3,2.3-5.2,5.2-6.4,8.7l-4.7,14.3v0.1c-0.8,2.2-1,4.5-0.6,6.9
					c0.4,2.4,1.3,4.5,2.6,6.5c0,0.1,0.1,0.2,0.2,0.3c1.3,1.7,2.9,3.1,4.8,4.2c0.1,0.1,0.2,0.1,0.3,0.1l0.1,0.1
					c1.1,0.6,2.2,1,3.4,1.3l10.7,133.3c0.5,5.9,2.9,10.9,7.3,15c0.1,0.1,0.1,0.1,0.2,0.1c4.4,4,9.5,6,15.3,6h102c5.9,0,11-2,15.4-6
					c0.1,0,0.1,0,0.1-0.1c4.5-4.1,6.9-9.1,7.4-15l7.5-135.4c1.4-1,2.5-2.1,3.6-3.5c0.1-0.1,0.1-0.2,0.1-0.3c1.4-1.9,2.3-4.1,2.7-6.5
					c0.3-2.4,0.1-4.7-0.6-6.9v-0.1l-4.7-14.3c-0.1,0-0.1,0-0.1-0.1C-7512.4-3673-7514.5-3675.9-7517.6-3678.1 M-7540.1-3504.2
					L-7540.1-3504.2c-0.1,0.6-0.3,1.1-0.7,1.5c0,0.1,0,0.1-0.1,0.1c-0.5,0.4-1,0.6-1.5,0.6h-102c-0.5,0-1-0.2-1.5-0.5
					c0-0.1,0-0.1-0.1-0.1v-0.1c-0.5-0.4-0.7-0.9-0.7-1.5l-11.4-131.2h126.1L-7540.1-3504.2z"/>
				<path class="st1" d="M-7563.9-3615.6c-2.7,0-5,0.9-6.8,2.8l-23.9,24l-24-24c-1.8-1.9-3.9-2.8-6.4-2.8c-2.4,0-4.5,0.9-6.3,2.8
					c-1.9,1.7-2.8,3.8-2.8,6.2c0,2.5,0.9,4.6,2.8,6.4l23.9,24l-25.4,25.5c-1.7,1.7-2.6,3.8-2.6,6.3c0,2.5,0.9,4.5,2.6,6.3
					c1.8,1.8,3.9,2.7,6.4,2.7c2.4,0,4.5-0.9,6.3-2.7l25.5-25.5l25.4,25.5c1.7,1.8,3.8,2.7,6.2,2.7c2.5,0,4.6-0.9,6.4-2.7
					c1.7-1.7,2.6-3.8,2.6-6.3c0-2.5-0.9-4.5-2.6-6.3l-24.9-25l23.5-24c1.9-1.8,2.8-3.9,2.8-6.3c0-2.8-0.8-5-2.4-6.8
					C-7559.4-3614.7-7561.5-3615.6-7563.9-3615.6z"/>
			</g>
		</g>
	</g>
</g>
</svg>
