<?xml version="1.0" encoding="utf-8"?>
<!-- Generator: Adobe Illustrator 25.4.2, SVG Export Plug-In . SVG Version: 6.00 Build 0)  -->
<svg version="1.1" id="Capa_1" xmlns="http://www.w3.org/2000/svg" xmlns:xlink="http://www.w3.org/1999/xlink" x="0px" y="0px"
	 viewBox="0 0 50 50" style="enable-background:new 0 0 50 50;" xml:space="preserve">
<style type="text/css">
	.st0{opacity:0.5;fill:#FFFFFF;enable-background:new    ;}
</style>
<g id="Capa_1_00000106855749326036549140000018308998415981303200_">
	<path class="st0" d="M5.6,49.4h38.7c2.8,0,5-2.2,5-5V5.6c0-2.8-2.2-5-5-5H5.6c-2.8,0-5,2.2-5,5v38.7C0.6,47.1,2.9,49.4,5.6,49.4z"
		/>
</g>
<g id="Capa_2_00000040546708832197930810000010517503183828918159_">
</g>
<path d="M18.8,30c1.5-1.6,2.2-3.4,2.2-5.3c0-2.1-0.7-3.8-2.1-5.3l-0.1-0.1c-1.4-1.4-3.2-2-5.3-2c-2,0-3.7,0.7-5.2,2.1
	c-1.6,1.5-2.4,3.3-2.4,5.3s0.8,3.8,2.4,5.3c1.5,1.5,3.2,2.2,5.2,2.2C15.6,32.2,17.3,31.5,18.8,30"/>
<path d="M24.1,24.4c0,0.1,0,0.1,0,0.2s0,0.2,0,0.3l12.5,12.2c0.1,0.1,0.1,0.1,0.2,0.1c0.1,0,0.1,0,0.2-0.1v-5.9h6.8
	c0.1,0,0.1,0,0.1-0.1c0.1-0.1,0.2-0.2,0.2-0.3V18.3c0-0.1-0.1-0.1-0.2-0.1c0-0.1,0-0.1-0.1-0.1H37v-5.9c0-0.1,0-0.2,0-0.3
	c-0.1,0-0.1,0-0.2,0c-0.1,0-0.1,0-0.2,0L24.1,24.4"/>
<path d="M34.6,20.5c0,0.1,0,0.1,0,0.2c0.1,0.1,0.1,0.1,0.2,0.1h6.7v7.6h-6.7c-0.1,0-0.1,0-0.2,0.1v2.8l-6.7-6.6l6.7-6.7V20.5"/>
</svg>
