<?xml version="1.0" encoding="utf-8"?>
<!-- Generator: Adobe Illustrator 25.4.2, SVG Export Plug-In . SVG Version: 6.00 Build 0)  -->
<svg version="1.1" id="Capa_1" xmlns="http://www.w3.org/2000/svg" xmlns:xlink="http://www.w3.org/1999/xlink" x="0px" y="0px"
	 viewBox="0 0 50 50" style="enable-background:new 0 0 50 50;" xml:space="preserve">
<style type="text/css">
	.st0{opacity:0.5;fill:#FFFFFF;enable-background:new    ;}
</style>
<g id="Capa_1_00000106855749326036549140000018308998415981303200_">
	<path class="st0" d="M5.6,49.4h38.7c2.8,0,5-2.2,5-5V5.6c0-2.8-2.2-5-5-5H5.6c-2.8,0-5,2.2-5,5v38.7C0.6,47.1,2.9,49.4,5.6,49.4z"
		/>
</g>
<g id="Capa_2_00000040546708832197930810000010517503183828918159_">
</g>
<path d="M25.4,26h0.5l11.8-12.1c0.1-0.1,0.1-0.1,0.1-0.2c0-0.1,0-0.1-0.1-0.2H32V6.9c0-0.1,0-0.1-0.1-0.1c-0.1-0.1-0.2-0.2-0.3-0.2
	H19.5c-0.1,0-0.1,0.1-0.1,0.2c-0.1,0-0.1,0-0.1,0.1v6.6h-6v0.4L25.4,26z M21.8,15.9c0.1-0.1,0.1-0.1,0.1-0.2V9.2h7.3v6.5
	c0,0.1,0,0.1,0.1,0.2H32l-6.4,6.5l-6.5-6.5C19.1,15.9,21.8,15.9,21.8,15.9z"/>
<path d="M20.4,41.4c1.4,1.5,3.2,2.3,5.2,2.3c1.9,0,3.6-0.7,5.2-2.3c1.4-1.4,2.2-3.1,2.2-5.1c0-2.1-0.7-3.8-2.2-5.2
	c-1.5-1.4-3.2-2.2-5.2-2.2s-3.7,0.7-5.2,2.1l-0.1,0.1c-1.3,1.4-2,3.1-2,5.2C18.4,38.2,19.1,40,20.4,41.4z M22.5,33.2
	c0.8-0.8,1.9-1.2,3.1-1.2s2.3,0.4,3.1,1.2c0.9,0.9,1.3,1.9,1.3,3.1c0,1.2-0.5,2.2-1.3,2.9l-0.2,0.2c-0.8,0.8-1.8,1.1-2.9,1.1
	c-1.2,0-2.3-0.4-3.1-1.1c-0.8-0.8-1.1-1.9-1.1-3.1C21.4,35.2,21.7,34.2,22.5,33.2z"/>
</svg>
