<?xml version="1.0" encoding="utf-8"?>
<!-- Generator: Adobe Illustrator 25.4.2, SVG Export Plug-In . SVG Version: 6.00 Build 0)  -->
<svg version="1.1" id="Capa_1" xmlns="http://www.w3.org/2000/svg" xmlns:xlink="http://www.w3.org/1999/xlink" x="0px" y="0px"
	 viewBox="0 0 50 50" style="enable-background:new 0 0 50 50;" xml:space="preserve">
<style type="text/css">
	.st0{opacity:0.5;fill:#FFFFFF;enable-background:new    ;}
</style>
<g id="Capa_1_00000106855749326036549140000018308998415981303200_">
	<path class="st0" d="M5.6,49.4h38.7c2.8,0,5-2.2,5-5V5.6c0-2.8-2.2-5-5-5H5.6c-2.8,0-5,2.2-5,5v38.7C0.6,47.1,2.9,49.4,5.6,49.4z"
		/>
</g>
<g id="Capa_2_00000040546708832197930810000010517503183828918159_">
</g>
<path d="M26.4,24.3v-0.5L14.3,12c-0.1-0.1-0.1-0.1-0.2-0.1c-0.1,0-0.1,0-0.2,0.1v5.7H7.3c-0.1,0-0.1,0-0.1,0.1C7.1,17.9,7,18,7,18.1
	v12.1c0,0.1,0.1,0.1,0.2,0.1c0,0.1,0,0.1,0.1,0.1h6.6v6h0.4L26.4,24.3z M16.3,27.9c-0.1-0.1-0.1-0.1-0.2-0.1H9.6v-7.3h6.5
	c0.1,0,0.1,0,0.2-0.1v-2.7l6.5,6.4l-6.5,6.5C16.3,30.6,16.3,27.9,16.3,27.9z"/>
<path d="M41.7,29.3c1.5-1.4,2.3-3.2,2.3-5.2c0-1.9-0.7-3.6-2.3-5.2c-1.4-1.4-3.1-2.2-5.1-2.2c-2.1,0-3.8,0.7-5.2,2.2
	c-1.4,1.5-2.2,3.2-2.2,5.2s0.7,3.7,2.1,5.2l0.1,0.1c1.4,1.3,3.1,2,5.2,2C38.6,31.3,40.3,30.6,41.7,29.3z M33.6,27.2
	c-0.8-0.8-1.2-1.9-1.2-3.1s0.4-2.3,1.2-3.1c0.9-0.9,1.9-1.3,3.1-1.3c1.2,0,2.2,0.5,2.9,1.3l0.2,0.2c0.8,0.8,1.1,1.8,1.1,2.9
	c0,1.2-0.4,2.3-1.1,3.1c-0.8,0.8-1.9,1.1-3.1,1.1C35.5,28.3,34.5,28,33.6,27.2z"/>
</svg>
