<?xml version="1.0" encoding="utf-8"?>
<!-- Generator: Adobe Illustrator 25.4.2, SVG Export Plug-In . SVG Version: 6.00 Build 0)  -->
<svg version="1.1" id="Capa_1" xmlns="http://www.w3.org/2000/svg" xmlns:xlink="http://www.w3.org/1999/xlink" x="0px" y="0px"
	 viewBox="0 0 50 50" style="enable-background:new 0 0 50 50;" xml:space="preserve">
<g transform="matrix( 0.386962890625, 0, 0, 0.386962890625, 573.85,1401.1) ">
	<g transform="matrix( 1, 0, 0, 1, 0,0) ">
		<g>
			<g id="hyperlockspacecadet_0_Layer0_0_FILL">
				<path d="M-1409.4-3578.8c-2.4-4.2-5-9.8-8-17h-2.4c-3,7.2-5.7,12.8-8,17c-2.3,4.1-4.6,7.3-6.9,9.6c-2.2,2.3-5.4,4.6-9.6,6.9
					c-4.2,2.3-9.8,4.9-16.8,7.7v2.4c7,2.9,12.6,5.6,16.8,7.9c4.1,2.3,7.3,4.6,9.6,6.9c2.3,2.3,4.6,5.5,6.9,9.6
					c2.3,4.2,4.9,9.8,8,16.9h2.4c2.9-7.1,5.6-12.7,8-16.9c2.3-4.1,4.6-7.3,6.8-9.6c2.4-2.3,5.6-4.6,9.8-6.9
					c4.1-2.3,9.6-4.9,16.6-7.9v-2.4c-7-2.9-12.6-5.5-16.7-7.7c-4.2-2.3-7.4-4.6-9.7-6.9C-1404.9-3571.5-1407.1-3574.7-1409.4-3578.8
					 M-1403.9-3553.4v0.9c-2.4,1-4.3,1.9-5.7,2.7c-1.4,0.9-2.6,1.7-3.4,2.5c-0.7,0.8-1.5,1.9-2.4,3.3c-0.8,1.4-1.7,3.4-2.7,5.8h-0.9
					c-1.1-2.4-2-4.4-2.8-5.8c-0.8-1.4-1.6-2.5-2.4-3.3c-0.8-0.8-1.9-1.6-3.3-2.5c-1.4-0.8-3.4-1.7-5.8-2.7v-0.9
					c2.4-1,4.4-1.9,5.8-2.7s2.5-1.6,3.3-2.4c0.8-0.8,1.6-1.9,2.4-3.3c0.8-1.4,1.7-3.4,2.8-5.9h0.9c1,2.5,1.9,4.5,2.7,5.9
					c0.9,1.4,1.7,2.5,2.4,3.3c0.8,0.8,1.9,1.6,3.4,2.4C-1408.3-3555.3-1406.4-3554.4-1403.9-3553.4z"/>
			</g>
		</g>
	</g>
</g>
</svg>
