<?xml version="1.0" encoding="utf-8"?>
<!-- Generator: Adobe Illustrator 25.4.2, SVG Export Plug-In . SVG Version: 6.00 Build 0)  -->
<svg version="1.1" id="Capa_1" xmlns="http://www.w3.org/2000/svg" xmlns:xlink="http://www.w3.org/1999/xlink" x="0px" y="0px"
	 viewBox="0 0 50 50" style="enable-background:new 0 0 50 50;" xml:space="preserve">
<g id="Capa_2_00000040546708832197930810000010517503183828918159_">
</g>
<g transform="matrix( 0.386962890625, 0, 0, 0.386962890625, 553.45,1400.9) ">
	<g transform="matrix( 1, 0, 0, 1, 0,0) ">
		<g>
			<g id="hyperSpaceCadet_0_Layer0_0_FILL">
				<path d="M-1317.1-3551.3v-2.7c-8.1-3.3-14.5-6.3-19.2-8.9c-4.8-2.6-8.5-5.3-11.1-7.9c-2.6-2.6-5.2-6.3-7.8-11
					c-2.7-4.8-5.8-11.3-9.2-19.6h-2.7c-3.5,8.3-6.5,14.8-9.2,19.6c-2.6,4.7-5.3,8.4-7.9,11c-2.6,2.6-6.2,5.3-11,7.9
					c-4.8,2.6-11.2,5.6-19.3,8.9v2.7c8.1,3.4,14.5,6.4,19.3,9c4.7,2.6,8.4,5.3,11,7.9c2.6,2.6,5.3,6.3,7.9,11
					c2.6,4.8,5.7,11.3,9.2,19.4h2.7c3.4-8.2,6.4-14.7,9.2-19.4c2.6-4.7,5.2-8.4,7.8-11c2.7-2.6,6.5-5.3,11.3-7.9
					C-1331.5-3544.9-1325.1-3547.9-1317.1-3551.3z"/>
			</g>
		</g>
	</g>
</g>
</svg>
