<?xml version="1.0" encoding="utf-8"?>
<!-- Generator: Adobe Illustrator 25.4.2, SVG Export Plug-In . SVG Version: 6.00 Build 0)  -->
<svg version="1.1" id="Capa_1" xmlns="http://www.w3.org/2000/svg" xmlns:xlink="http://www.w3.org/1999/xlink" x="0px" y="0px"
	 viewBox="0 0 50 50" style="enable-background:new 0 0 50 50;" xml:space="preserve">
<style type="text/css">
	.st0{fill:#FF9F9F;}
	.st1{fill:none;}
	.st2{enable-background:new    ;}
	.st3{fill:#9B0A0A;}
</style>
<g id="Capa_1_00000106855749326036549140000018308998415981303200_">
	<path class="st0" d="M5.6,49.4h38.7c2.8,0,5-2.2,5-5V5.6c0-2.8-2.2-5-5-5H5.6c-2.8,0-5,2.2-5,5v38.7C0.6,47.1,2.9,49.4,5.6,49.4z"
		/>
</g>
<g id="Capa_2_00000040546708832197930810000010517503183828918159_">
</g>
<rect x="7.4" y="17.7" class="st1" width="35" height="19.5"/>
<g class="st2">
	<path class="st3" d="M27.3,33.3H24v-8.8c0-1,0-2,0.1-3.1h-0.1c-0.2,0.9-0.3,1.6-0.5,1.9l-3.4,10h-2.7l-3.5-9.9
		c-0.1-0.3-0.2-1-0.5-2.1h-0.1c0.1,1.4,0.1,2.7,0.1,3.8v8.1h-3V18.6h4.9l3,8.7c0.2,0.7,0.4,1.4,0.5,2.1H19c0.2-0.8,0.4-1.5,0.6-2.1
		l3-8.7h4.7V33.3z"/>
	<path class="st3" d="M30.2,32.8V30c1,0.7,2.1,1.1,3.4,1.1c0.8,0,1.5-0.2,1.9-0.5c0.5-0.4,0.7-0.9,0.7-1.5c0-0.7-0.3-1.2-0.9-1.5
		C34.8,27.2,34,27,33,27h-1.4v-2.5h1.3c1.9,0,2.9-0.6,2.9-1.9c0-1.2-0.7-1.8-2.2-1.8c-1,0-1.9,0.3-2.9,1v-2.6c1-0.5,2.2-0.8,3.6-0.8
		c1.5,0,2.7,0.3,3.5,1c0.8,0.7,1.3,1.6,1.3,2.6c0,1.9-1,3.1-2.9,3.6v0.1c1,0.1,1.9,0.5,2.5,1.1c0.6,0.6,0.9,1.4,0.9,2.3
		c0,1.4-0.5,2.5-1.5,3.3s-2.4,1.2-4.2,1.2C32.3,33.5,31.1,33.3,30.2,32.8z"/>
</g>
</svg>
