<?xml version="1.0" encoding="utf-8"?>
<!-- Generator: Adobe Illustrator 25.4.2, SVG Export Plug-In . SVG Version: 6.00 Build 0)  -->
<svg version="1.1" id="Capa_1" xmlns="http://www.w3.org/2000/svg" xmlns:xlink="http://www.w3.org/1999/xlink" x="0px" y="0px"
	 viewBox="0 0 50 50" style="enable-background:new 0 0 50 50;" xml:space="preserve">
<style type="text/css">
	.st0{fill:#A6FFB3;}
	.st1{fill:none;}
	.st2{enable-background:new    ;}
	.st3{fill:#055B1B;}
</style>
<g id="Capa_1_00000106855749326036549140000018308998415981303200_">
	<path class="st0" d="M5.6,49.4h38.7c2.8,0,5-2.2,5-5V5.6c0-2.8-2.2-5-5-5H5.6c-2.8,0-5,2.2-5,5v38.7C0.6,47.1,2.9,49.4,5.6,49.4z"
		/>
</g>
<g id="Capa_2_00000040546708832197930810000010517503183828918159_">
</g>
<rect x="7.4" y="17.7" class="st1" width="35" height="19.5"/>
<g class="st2">
	<path class="st3" d="M27.3,33.3H24v-8.8c0-1,0-2,0.1-3.1h-0.1c-0.2,0.9-0.3,1.6-0.5,1.9l-3.4,10h-2.7l-3.5-9.9
		c-0.1-0.3-0.2-1-0.5-2.1h-0.1c0.1,1.4,0.1,2.7,0.1,3.8v8.1h-3V18.6h4.9l3,8.7c0.2,0.7,0.4,1.4,0.5,2.1H19c0.2-0.8,0.4-1.5,0.6-2.1
		l3-8.7h4.7V33.3z"/>
	<path class="st3" d="M38.7,18.6v9.3h1.8v2.4h-1.8v3h-3v-3h-6.4v-2.5c0.6-0.6,1.2-1.3,1.8-2.1c0.6-0.8,1.2-1.5,1.8-2.3
		s1.1-1.6,1.6-2.4c0.5-0.8,0.9-1.6,1.2-2.3H38.7z M32.3,27.8h3.5v-5.1c-0.2,0.4-0.5,0.9-0.8,1.3c-0.3,0.5-0.6,0.9-0.9,1.3
		c-0.3,0.4-0.6,0.9-0.9,1.3C32.9,27.1,32.6,27.5,32.3,27.8z"/>
</g>
</svg>
