<?xml version="1.0" encoding="utf-8"?>
<!-- Generator: Adobe Illustrator 25.4.2, SVG Export Plug-In . SVG Version: 6.00 Build 0)  -->
<svg version="1.1" id="Capa_1" xmlns="http://www.w3.org/2000/svg" xmlns:xlink="http://www.w3.org/1999/xlink" x="0px" y="0px"
	 viewBox="0 0 50 50" style="enable-background:new 0 0 50 50;" xml:space="preserve">
<style type="text/css">
	.st0{fill:#BDF79F;}
	.st1{fill:none;}
	.st2{enable-background:new    ;}
	.st3{fill:#439B10;}
</style>
<g id="Capa_1_00000106855749326036549140000018308998415981303200_">
	<path class="st0" d="M5.6,49.4h38.7c2.8,0,5-2.2,5-5V5.6c0-2.8-2.2-5-5-5H5.6c-2.8,0-5,2.2-5,5v38.7C0.6,47.1,2.9,49.4,5.6,49.4z"
		/>
</g>
<g id="Capa_2_00000040546708832197930810000010517503183828918159_">
</g>
<rect x="7.4" y="17.7" class="st1" width="35" height="19.5"/>
<g class="st2">
	<path class="st3" d="M27.3,33.3H24v-8.8c0-1,0-2,0.1-3.1h-0.1c-0.2,0.9-0.3,1.6-0.5,1.9l-3.4,10h-2.7l-3.5-9.9
		c-0.1-0.3-0.2-1-0.5-2.1h-0.1c0.1,1.4,0.1,2.7,0.1,3.8v8.1h-3V18.6h4.9l3,8.7c0.2,0.7,0.4,1.4,0.5,2.1H19c0.2-0.8,0.4-1.5,0.6-2.1
		l3-8.7h4.7V33.3z"/>
	<path class="st3" d="M40.3,28.4c0,0.7-0.1,1.4-0.4,2c-0.3,0.6-0.6,1.2-1.1,1.6c-0.5,0.5-1,0.8-1.6,1.1c-0.6,0.3-1.3,0.4-2,0.4
		c-0.8,0-1.6-0.2-2.2-0.5c-0.7-0.3-1.2-0.8-1.7-1.3c-0.5-0.6-0.8-1.3-1-2.1S30,27.8,30,26.7c0-1.3,0.2-2.4,0.5-3.4
		c0.3-1,0.8-1.9,1.3-2.6c0.6-0.7,1.3-1.3,2.1-1.7c0.8-0.4,1.7-0.6,2.8-0.6c1.1,0,2,0.1,2.6,0.4v2.7c-0.7-0.4-1.6-0.6-2.4-0.6
		c-0.5,0-1,0.1-1.5,0.3s-0.8,0.5-1.1,0.9c-0.3,0.4-0.6,0.9-0.7,1.4c-0.2,0.5-0.3,1.2-0.3,1.8h0.1c0.7-1,1.7-1.4,3.1-1.4
		c0.6,0,1.2,0.1,1.7,0.3s0.9,0.5,1.3,0.9c0.3,0.4,0.6,0.9,0.8,1.4C40.2,27.1,40.3,27.7,40.3,28.4z M37.2,28.6c0-1.6-0.6-2.4-1.9-2.4
		c-0.3,0-0.6,0.1-0.8,0.2s-0.4,0.3-0.6,0.5c-0.2,0.2-0.3,0.4-0.4,0.7c-0.1,0.3-0.1,0.6-0.1,0.9c0,0.4,0,0.7,0.1,1s0.2,0.6,0.4,0.8
		c0.2,0.2,0.4,0.4,0.6,0.6S35,31,35.3,31s0.6-0.1,0.8-0.2c0.2-0.1,0.4-0.3,0.6-0.5c0.2-0.2,0.3-0.5,0.4-0.8
		C37.1,29.3,37.2,28.9,37.2,28.6z"/>
</g>
</svg>
