<?xml version="1.0" encoding="utf-8"?>
<!-- Generator: Adobe Illustrator 25.4.2, SVG Export Plug-In . SVG Version: 6.00 Build 0)  -->
<svg version="1.1" id="Capa_1" xmlns="http://www.w3.org/2000/svg" xmlns:xlink="http://www.w3.org/1999/xlink" x="0px" y="0px"
	 viewBox="0 0 50 50" style="enable-background:new 0 0 50 50;" xml:space="preserve">
<style type="text/css">
	.st0{opacity:0.5;fill:#FFFFFF;enable-background:new    ;}
	.st1{fill:#020203;}
</style>
<g id="Capa_1_00000106855749326036549140000018308998415981303200_">
	<path class="st0" d="M5.6,49.4h38.7c2.8,0,5-2.2,5-5V5.6c0-2.8-2.2-5-5-5H5.6c-2.8,0-5,2.2-5,5v38.7C0.6,47.1,2.9,49.4,5.6,49.4z"
		/>
</g>
<g id="Capa_2_00000040546708832197930810000010517503183828918159_">
</g>
<path class="st1" d="M16.4,22.3c-0.2,0-0.4,0-0.6,0.1c-0.2,0.1-0.4,0.2-0.5,0.4c-0.2,0.1-0.4,0.3-0.4,0.5c-0.1,0.2-0.1,0.4-0.1,0.6
	v11.6c0,0.5,0.2,0.9,0.5,1.3c0.3,0.3,0.7,0.4,1.2,0.4h11.7c0.4,0,0.8-0.1,1.2-0.4c0.4-0.4,0.5-0.8,0.5-1.3c0-0.4-0.2-0.8-0.5-1.2
	c-0.4-0.4-0.8-0.5-1.2-0.5h-7.5l12.1-12.1c0.3-0.3,0.4-0.7,0.4-1.2s-0.1-0.9-0.4-1.2c-0.4-0.4-0.8-0.5-1.3-0.5
	c-0.4,0-0.8,0.2-1.2,0.5L18.1,31.5V24c0-0.5-0.2-0.9-0.5-1.2C17.3,22.4,16.9,22.3,16.4,22.3"/>
</svg>
