<?xml version="1.0" encoding="utf-8"?>
<!-- Generator: Adobe Illustrator 25.4.2, SVG Export Plug-In . SVG Version: 6.00 Build 0)  -->
<svg version="1.1" id="Capa_1" xmlns="http://www.w3.org/2000/svg" xmlns:xlink="http://www.w3.org/1999/xlink" x="0px" y="0px"
	 viewBox="0 0 50 50" style="enable-background:new 0 0 50 50;" xml:space="preserve">
<style type="text/css">
	.st0{opacity:0.5;fill:#FFFFFF;enable-background:new    ;}
</style>
<g id="Capa_1_00000106855749326036549140000018308998415981303200_">
	<path class="st0" d="M5.6,49.4h38.7c2.8,0,5-2.2,5-5V5.6c0-2.8-2.2-5-5-5H5.6c-2.8,0-5,2.2-5,5v38.7C0.6,47.1,2.9,49.4,5.6,49.4z"
		/>
</g>
<g id="Capa_2_00000040546708832197930810000010517503183828918159_">
</g>
<path d="M24.3,15.2c-0.1-0.2-0.3-0.3-0.5-0.5c-0.2-0.1-0.5-0.2-0.7-0.2s-0.5,0.1-0.6,0.2l-8.9,5.1h-5c-0.4,0-0.7,0.1-0.9,0.4
	c-0.2,0.3-0.4,0.6-0.4,1v7.9c0,0.4,0.1,0.7,0.4,0.9c0.2,0.2,0.5,0.4,0.9,0.4h5l8.9,5.1c0.3,0.2,0.6,0.2,1,0.2
	c0.4-0.1,0.6-0.3,0.8-0.6c0.1-0.2,0.2-0.4,0.2-0.6V15.9C24.5,15.7,24.4,15.5,24.3,15.2z M21.9,32.1l-7.3-4.2
	c-0.2-0.1-0.4-0.2-0.7-0.2H10v-5.3h3.9c0.2,0,0.5-0.1,0.7-0.2l7.3-4.1V32.1z"/>
<path d="M41.7,18.6c-0.4,0-0.7,0.1-0.9,0.4l-4.5,4.6L31.7,19c-0.2-0.2-0.5-0.4-0.8-0.4c-0.4,0-0.7,0.1-0.9,0.4
	c-0.2,0.2-0.4,0.5-0.4,0.9c0,0.3,0.1,0.6,0.4,0.8l4.6,4.6L29.7,30c-0.2,0.2-0.4,0.5-0.4,0.9s0.1,0.7,0.4,0.9
	c0.2,0.2,0.5,0.4,0.9,0.4c0.3,0,0.6-0.1,0.8-0.4l4.8-4.8l4.5,4.6c0.2,0.2,0.5,0.4,0.9,0.4s0.7-0.1,0.9-0.4c0.2-0.2,0.4-0.5,0.4-0.9
	s-0.1-0.7-0.4-0.9l-4.6-4.5l4.6-4.6c0.2-0.2,0.4-0.5,0.4-0.8c0-0.4-0.1-0.7-0.4-0.9C42.3,18.7,42,18.6,41.7,18.6L41.7,18.6z"/>
</svg>
