<?xml version="1.0" encoding="utf-8"?>
<!-- Generator: Adobe Illustrator 25.4.2, SVG Export Plug-In . SVG Version: 6.00 Build 0)  -->
<svg version="1.1" id="Capa_1" xmlns="http://www.w3.org/2000/svg" xmlns:xlink="http://www.w3.org/1999/xlink" x="0px" y="0px"
	 viewBox="0 0 50 50" style="enable-background:new 0 0 50 50;" xml:space="preserve">
<style type="text/css">
	.st0{opacity:0.5;fill:#FFFFFF;enable-background:new    ;}
	.st1{fill:#020203;}
</style>
<g id="Capa_1_00000106855749326036549140000018308998415981303200_">
	<path class="st0" d="M5.6,49.4h38.7c2.8,0,5-2.2,5-5V5.6c0-2.8-2.2-5-5-5H5.6c-2.8,0-5,2.2-5,5v38.7C0.6,47.1,2.9,49.4,5.6,49.4z"
		/>
</g>
<g id="Capa_2_00000040546708832197930810000010517503183828918159_">
</g>
<g transform="matrix( 0.5993499755859375, -0.0076904296875, 0.0076904296875, 0.5993499755859375, 620.65,828.3) ">
	<g transform="matrix( 1, 0, 0, 1, 0,0) ">
		<g>
			<g id="numlock_0_Layer0_0_FILL_00000102514104882048738210000002950090552136433296_">
				<path class="st1" d="M-950-1329.9v-5.6c0-1.2-0.4-2.2-1.3-3.1c-0.9-0.8-1.9-1.3-3.1-1.3h-5.6c-1.2,0-2.2,0.4-3.1,1.3
					c-0.8,0.9-1.3,1.9-1.3,3.1v5.6c0,1.2,0.4,2.2,1.3,3.1c0.9,0.8,1.9,1.3,3.1,1.3h5.6c1.2,0,2.2-0.4,3.1-1.3
					C-950.4-1327.7-950-1328.8-950-1329.9 M-978.8-1339.9c-1.2,0-2.2,0.4-3.1,1.3c-0.8,0.9-1.3,1.9-1.3,3.1v5.6
					c0,1.2,0.4,2.2,1.3,3.1c0.9,0.8,1.9,1.3,3.1,1.3h5.6c1.2,0,2.2-0.4,3.1-1.3c0.8-0.9,1.3-1.9,1.3-3.1v-5.6c0-1.2-0.4-2.2-1.3-3.1
					c-0.9-0.8-1.9-1.3-3.1-1.3H-978.8 M-987.8-1329.9v-5.6c0-1.2-0.4-2.2-1.3-3.1c-0.9-0.8-1.9-1.3-3.1-1.3h-5.6
					c-1.2,0-2.2,0.4-3.1,1.3c-0.8,0.9-1.3,1.9-1.3,3.1v5.6c0,1.2,0.4,2.2,1.3,3.1c0.9,0.8,1.9,1.3,3.1,1.3h5.6
					c1.2,0,2.2-0.4,3.1-1.3C-988.2-1327.7-987.8-1328.7-987.8-1329.9 M-997.7-1358.9c-1.2,0-2.2,0.4-3.1,1.3
					c-0.8,0.9-1.3,1.9-1.3,3.1v5.6c0,1.2,0.4,2.2,1.3,3.1c0.9,0.8,1.9,1.3,3.1,1.3h5.6c1.2,0,2.2-0.4,3.1-1.3
					c0.8-0.9,1.3-1.9,1.3-3.1v-5.6c0-1.2-0.4-2.2-1.3-3.1c-0.9-0.8-1.9-1.3-3.1-1.3H-997.7 M-987.8-1368.1l0-5.6
					c0-1.2-0.4-2.2-1.3-3.1c-0.9-0.8-1.9-1.3-3.1-1.3h-5.6c-1.2,0-2.2,0.4-3.1,1.3c-0.8,0.9-1.3,1.9-1.3,3.1v5.6
					c0,1.2,0.4,2.2,1.3,3.1c0.9,0.8,1.9,1.3,3.1,1.3h5.6c1.2,0,2.2-0.4,3.1-1.3C-988.2-1365.9-987.8-1366.9-987.8-1368.1
					 M-963-1357.7c-0.8,0.9-1.3,1.9-1.3,3.1v5.6c0,1.2,0.4,2.2,1.3,3.1c0.9,0.8,1.9,1.3,3.1,1.3h5.6c1.2,0,2.2-0.4,3.1-1.3
					c0.8-0.9,1.3-1.9,1.3-3.1v-5.6c0-1.2-0.4-2.2-1.3-3.1c-0.9-0.8-1.9-1.3-3.1-1.3h-5.6C-961.1-1358.9-962.1-1358.5-963-1357.7
					 M-970.2-1345.9c0.8-0.9,1.3-1.9,1.3-3.1v-5.6c0-1.2-0.4-2.2-1.3-3.1c-0.9-0.8-1.9-1.3-3.1-1.3h-5.6c-1.2,0-2.2,0.4-3.1,1.3
					c-0.8,0.9-1.3,1.9-1.3,3.1v5.6c0,1.2,0.4,2.2,1.3,3.1c0.9,0.8,1.9,1.3,3.1,1.3h5.6C-972-1344.6-971-1345-970.2-1345.9
					 M-973.2-1363.8c1.2,0,2.2-0.4,3.1-1.3c0.8-0.9,1.3-1.9,1.3-3.1v-5.6c0-1.2-0.4-2.2-1.3-3.1c-0.9-0.8-1.9-1.3-3.1-1.3h-5.6
					c-1.2,0-2.2,0.4-3.1,1.3c-0.8,0.9-1.3,1.9-1.3,3.1l0,5.6c0,1.2,0.4,2.2,1.3,3.1c0.9,0.8,1.9,1.3,3.1,1.3H-973.2 M-959.9-1363.9
					h5.6c1.2,0,2.2-0.4,3.1-1.3c0.8-0.9,1.3-1.9,1.3-3.1v-5.6c0-1.2-0.4-2.2-1.3-3.1c-0.9-0.8-1.9-1.3-3.1-1.3h-5.6
					c-1.2,0-2.2,0.4-3.1,1.3c-0.8,0.9-1.3,1.9-1.3,3.1v5.6c0,1.2,0.4,2.2,1.3,3.1C-962.1-1364.3-961.1-1363.9-959.9-1363.9z"/>
			</g>
		</g>
	</g>
</g>
</svg>
