<?xml version="1.0" encoding="utf-8"?>
<!-- Generator: Adobe Illustrator 25.4.2, SVG Export Plug-In . SVG Version: 6.00 Build 0)  -->
<svg version="1.1" id="Capa_1" xmlns="http://www.w3.org/2000/svg" xmlns:xlink="http://www.w3.org/1999/xlink" x="0px" y="0px"
	 viewBox="0 0 50 50" style="enable-background:new 0 0 50 50;" xml:space="preserve">
<style type="text/css">
	.st0{opacity:0.5;fill:#FFFFFF;enable-background:new    ;}
</style>
<g id="Capa_1_00000106855749326036549140000018308998415981303200_">
	<path class="st0" d="M5.6,49.4h38.7c2.8,0,5-2.2,5-5V5.6c0-2.8-2.2-5-5-5H5.6c-2.8,0-5,2.2-5,5v38.7C0.6,47.1,2.9,49.4,5.6,49.4z"
		/>
</g>
<g id="Capa_2_00000040546708832197930810000010517503183828918159_">
</g>
<polygon points="18.1,32.2 30.6,21.3 30.6,24.8 18.1,35.7 "/>
<path d="M36.5,13.6c0-0.9-0.3-1.6-0.8-2.1c-0.6-0.6-1.2-0.9-2-0.9l-5.8,0.1c-0.2-0.9-0.7-1.7-1.4-2.2C25.8,7.9,25,7.6,24,7.6
	c-0.9,0-1.7,0.3-2.4,0.9c-0.7,0.5-1.2,1.3-1.5,2.2h-5.8c-0.7,0-1.3,0.3-1.9,0.8c-0.5,0.6-0.8,1.3-0.8,2.1l0.1,24.3
	c0,0.8,0.3,1.6,0.8,2.1c0.6,0.6,1.2,1,1.9,1l19.2-0.1c0.8,0,1.5-0.3,2-1c0.5-0.6,0.8-1.3,0.8-2.1L36.5,13.6z M23.1,11.1
	c0.3-0.2,0.6-0.3,1-0.3s0.8,0.1,1.1,0.3c0.2,0.3,0.3,0.7,0.3,1.2c0,0.4-0.1,0.8-0.3,1.1c-0.3,0.3-0.6,0.4-1.1,0.4
	c-0.4,0-0.7-0.1-1-0.4c-0.2-0.3-0.3-0.6-0.3-1.1C22.8,11.8,22.9,11.4,23.1,11.1z M14.6,38.1l-0.1-24.3h2.8v4.6H31v-4.6l2.7-0.1
	L33.8,38L14.6,38.1z"/>
<polygon points="30.6,21.3 30.6,24.8 18.1,35.7 18.1,32.2 "/>
<polygon points="30.6,21.3 30.6,24.8 18.1,35.7 18.1,32.2 "/>
</svg>
