<?xml version="1.0" encoding="utf-8"?>
<!-- Generator: Adobe Illustrator 25.4.2, SVG Export Plug-In . SVG Version: 6.00 Build 0)  -->
<svg version="1.1" id="Capa_1" xmlns="http://www.w3.org/2000/svg" xmlns:xlink="http://www.w3.org/1999/xlink" x="0px" y="0px"
	 viewBox="0 0 50 50" style="enable-background:new 0 0 50 50;" xml:space="preserve">
<style type="text/css">
	.st0{opacity:0.5;fill:#FFFFFF;enable-background:new    ;}
</style>
<g id="Capa_1_00000106855749326036549140000018308998415981303200_">
	<path class="st0" d="M5.6,49.4h38.7c2.8,0,5-2.2,5-5V5.6c0-2.8-2.2-5-5-5H5.6c-2.8,0-5,2.2-5,5v38.7C0.6,47.1,2.9,49.4,5.6,49.4z"
		/>
</g>
<g id="Capa_2_00000040546708832197930810000010517503183828918159_">
</g>
<path d="M27.2,25.2c-0.7-0.7-1.6-1.1-2.7-1.1c-1,0-1.9,0.4-2.6,1.1s-1.1,1.6-1.1,2.6s0.4,1.9,1.1,2.6s1.6,1.1,2.6,1.1
	s1.9-0.4,2.7-1.1c0.7-0.7,1.1-1.6,1.1-2.6C28.2,26.9,27.9,26,27.2,25.2z M25.5,28.9c-0.3,0.3-0.6,0.4-1,0.4s-0.8-0.2-1.1-0.4
	c-0.3-0.3-0.4-0.7-0.4-1.1s0.1-0.8,0.4-1.1c0.3-0.3,0.7-0.4,1.1-0.4s0.7,0.2,1,0.4c0.4,0.3,0.5,0.7,0.5,1.1
	C26,28.2,25.9,28.6,25.5,28.9z"/>
<path d="M36.8,11.1c-0.6-0.7-1.3-1-2.1-1h-6c-0.4-1-0.9-1.7-1.5-2.3C26.5,7.2,25.7,7,24.7,7s-1.8,0.3-2.5,0.9s-1.2,1.4-1.5,2.3h-6.1
	c-0.7,0-1.4,0.3-2,1c-0.6,0.6-0.9,1.3-0.9,2.2V39c0,0.9,0.3,1.6,0.9,2.2c0.6,0.7,1.2,1,2,1h20.2c0.8,0,1.5-0.3,2.1-1
	c0.5-0.6,0.8-1.3,0.8-2.2V13.3C37.6,12.5,37.4,11.7,36.8,11.1z M23.6,10.6c0.3-0.3,0.7-0.4,1.1-0.4s0.8,0.1,1,0.4
	c0.3,0.3,0.4,0.7,0.4,1.2c0,0.4-0.1,0.8-0.4,1.1c-0.2,0.3-0.5,0.4-1,0.4c-0.4,0-0.8-0.1-1.1-0.4c-0.2-0.3-0.3-0.7-0.3-1.1
	C23.3,11.3,23.4,10.9,23.6,10.6z M34.8,38.9H14.6V13.3h2.9V18h14.4v-4.7h2.9V38.9z"/>
<path d="M27.2,25.2c-0.7-0.7-1.6-1.1-2.7-1.1c-1,0-1.9,0.4-2.6,1.1s-1.1,1.6-1.1,2.6s0.4,1.9,1.1,2.6s1.6,1.1,2.6,1.1
	s1.9-0.4,2.7-1.1c0.7-0.7,1.1-1.6,1.1-2.6C28.2,26.9,27.9,26,27.2,25.2z M25.5,28.9c-0.3,0.3-0.6,0.4-1,0.4s-0.8-0.2-1.1-0.4
	c-0.3-0.3-0.4-0.7-0.4-1.1s0.1-0.8,0.4-1.1c0.3-0.3,0.7-0.4,1.1-0.4s0.7,0.2,1,0.4c0.4,0.3,0.5,0.7,0.5,1.1
	C26,28.2,25.9,28.6,25.5,28.9z"/>
<path d="M27.2,25.2c-0.7-0.7-1.6-1.1-2.7-1.1c-1,0-1.9,0.4-2.6,1.1s-1.1,1.6-1.1,2.6s0.4,1.9,1.1,2.6s1.6,1.1,2.6,1.1
	s1.9-0.4,2.7-1.1c0.7-0.7,1.1-1.6,1.1-2.6C28.2,26.9,27.9,26,27.2,25.2z M25.5,28.9c-0.3,0.3-0.6,0.4-1,0.4s-0.8-0.2-1.1-0.4
	c-0.3-0.3-0.4-0.7-0.4-1.1s0.1-0.8,0.4-1.1c0.3-0.3,0.7-0.4,1.1-0.4s0.7,0.2,1,0.4c0.4,0.3,0.5,0.7,0.5,1.1
	C26,28.2,25.9,28.6,25.5,28.9z"/>
</svg>
