<?xml version="1.0" encoding="utf-8"?>
<!-- Generator: Adobe Illustrator 25.4.2, SVG Export Plug-In . SVG Version: 6.00 Build 0)  -->
<svg version="1.1" id="Capa_1" xmlns="http://www.w3.org/2000/svg" xmlns:xlink="http://www.w3.org/1999/xlink" x="0px" y="0px"
	 viewBox="0 0 156.4 120.9" style="enable-background:new 0 0 156.4 120.9;" xml:space="preserve">
<style type="text/css">
	.st0{opacity:0.6;fill:#FFFFFF;}
	.st1{fill:#CCE8E7;}
	.st2{fill:#ED6C3F;}
	.st3{fill:#EFD13D;}
	.st4{fill:#33408A;}
</style>
<path class="st0" d="M139.4,114.9H16c-6.6,0-12-5.4-12-12V72.4c0-6.6,5.4-12,12-12h123.4c6.6,0,12,5.4,12,12v30.5
	C151.4,109.5,146,114.9,139.4,114.9z"/>
<g>
	<path class="st1" d="M87.3,1.8H62c-8.6,0-15.5,7-15.5,15.5V29c0,8.6,7,15.5,15.5,15.5h7.7l6.8,12.5l6.8-12.5h3.9
		c8.6,0,15.5-7,15.5-15.5V17.4C102.8,8.8,95.9,1.8,87.3,1.8z"/>
	<g>
		<rect x="56.9" y="10.7" class="st2" width="35.5" height="8.1"/>
		<rect x="56.9" y="18.7" class="st3" width="35.5" height="8.1"/>
		<rect x="56.9" y="26.8" class="st2" width="35.5" height="8.1"/>
	</g>
</g>
<g>
	<path class="st4" d="M22.2,83c-0.8,0.4-1.8,0.6-3.1,0.6c-1.6,0-2.8-0.5-3.8-1.5c-1-1-1.4-2.3-1.4-3.9c0-1.7,0.5-3.2,1.6-4.2
		c1.1-1.1,2.4-1.6,4.1-1.6c1.1,0,1.9,0.1,2.6,0.4v1.8c-0.7-0.4-1.5-0.7-2.4-0.7c-1.2,0-2.1,0.4-2.9,1.1c-0.7,0.8-1.1,1.8-1.1,3
		c0,1.2,0.3,2.2,1,2.9c0.7,0.7,1.6,1.1,2.7,1.1c1,0,1.9-0.2,2.7-0.7V83z"/>
	<path class="st4" d="M27.5,83.6c-1.2,0-2.2-0.4-2.9-1.1c-0.7-0.7-1.1-1.7-1.1-2.9c0-1.3,0.4-2.3,1.1-3.1c0.7-0.7,1.8-1.1,3-1.1
		c1.2,0,2.2,0.4,2.8,1.1c0.7,0.7,1,1.7,1,3c0,1.2-0.4,2.2-1.1,3C29.7,83.3,28.7,83.6,27.5,83.6z M27.6,76.9c-0.7,0-1.2,0.2-1.6,0.7
		c-0.4,0.5-0.6,1.1-0.6,2c0,0.8,0.2,1.5,0.6,1.9c0.4,0.5,0.9,0.7,1.6,0.7c0.7,0,1.2-0.2,1.6-0.7s0.6-1.1,0.6-2c0-0.9-0.2-1.5-0.6-2
		C28.8,77.1,28.3,76.9,27.6,76.9z"/>
	<path class="st4" d="M40.3,83.5h-1.8v-4.4c0-1.5-0.5-2.2-1.5-2.2c-0.5,0-1,0.2-1.3,0.6c-0.4,0.4-0.5,0.9-0.5,1.5v4.4h-1.8v-7.8h1.8
		V77h0c0.6-1,1.4-1.5,2.5-1.5c0.8,0,1.5,0.3,1.9,0.8s0.7,1.3,0.7,2.4V83.5z"/>
	<path class="st4" d="M46.6,83.4c-0.3,0.2-0.8,0.3-1.4,0.3c-1.5,0-2.3-0.7-2.3-2.2v-4.4h-1.3v-1.4h1.3v-1.8l1.8-0.5v2.3h1.9v1.4
		h-1.9v3.9c0,0.5,0.1,0.8,0.3,1c0.2,0.2,0.4,0.3,0.8,0.3c0.3,0,0.6-0.1,0.8-0.3V83.4z"/>
	<path class="st4" d="M49,74c-0.3,0-0.5-0.1-0.7-0.3c-0.2-0.2-0.3-0.4-0.3-0.7s0.1-0.5,0.3-0.7c0.2-0.2,0.5-0.3,0.7-0.3
		c0.3,0,0.6,0.1,0.8,0.3c0.2,0.2,0.3,0.4,0.3,0.7c0,0.3-0.1,0.5-0.3,0.7C49.5,73.9,49.3,74,49,74z M49.8,83.5h-1.8v-7.8h1.8V83.5z"
		/>
	<path class="st4" d="M59.1,83.5h-1.8v-4.4c0-1.5-0.5-2.2-1.5-2.2c-0.5,0-1,0.2-1.3,0.6c-0.4,0.4-0.5,0.9-0.5,1.5v4.4h-1.8v-7.8h1.8
		V77h0c0.6-1,1.4-1.5,2.5-1.5c0.8,0,1.5,0.3,1.9,0.8s0.7,1.3,0.7,2.4V83.5z"/>
	<path class="st4" d="M68,83.5h-1.8v-1.2h0c-0.5,0.9-1.3,1.4-2.4,1.4c-1.8,0-2.8-1.1-2.8-3.3v-4.7h1.8v4.5c0,1.4,0.5,2.1,1.6,2.1
		c0.5,0,1-0.2,1.3-0.6c0.3-0.4,0.5-0.9,0.5-1.5v-4.5H68V83.5z"/>
	<path class="st4" d="M76.3,83.5h-1.7v-1.2h0c-0.5,0.9-1.3,1.4-2.4,1.4c-0.8,0-1.4-0.2-1.8-0.6c-0.4-0.4-0.7-1-0.7-1.7
		c0-1.5,0.8-2.3,2.5-2.6l2.3-0.3c0-1.1-0.5-1.7-1.6-1.7c-0.9,0-1.8,0.3-2.5,1v-1.5c0.8-0.5,1.8-0.7,2.8-0.7c2,0,3,1,3,2.9V83.5z
		 M74.6,79.6L73,79.9c-0.5,0.1-0.9,0.2-1.1,0.4c-0.3,0.2-0.4,0.5-0.4,0.9c0,0.3,0.1,0.6,0.4,0.8s0.6,0.3,0.9,0.3
		c0.5,0,1-0.2,1.3-0.6c0.4-0.4,0.5-0.9,0.5-1.4V79.6z"/>
	<path class="st4" d="M83,77.3c-0.2-0.2-0.5-0.3-0.9-0.3c-0.5,0-1,0.2-1.3,0.7c-0.3,0.5-0.5,1.1-0.5,1.9v3.7h-1.8v-7.8h1.8v1.6h0
		c0.2-0.5,0.4-1,0.8-1.3s0.8-0.5,1.2-0.5c0.3,0,0.6,0,0.7,0.1V77.3z"/>
	<path class="st4" d="M90.3,83.5h-1.8V71.9h1.8V83.5z"/>
	<path class="st4" d="M99.2,80h-5.3c0,0.7,0.2,1.3,0.7,1.7c0.4,0.4,1,0.6,1.7,0.6c0.8,0,1.6-0.2,2.3-0.7V83
		c-0.7,0.4-1.6,0.7-2.8,0.7c-1.1,0-2-0.4-2.7-1.1c-0.7-0.7-1-1.7-1-3c0-1.2,0.4-2.2,1.1-3c0.7-0.8,1.6-1.1,2.7-1.1
		c1.1,0,1.9,0.3,2.5,1c0.6,0.7,0.9,1.6,0.9,2.9V80z M97.5,78.8c0-0.6-0.2-1.1-0.4-1.5s-0.7-0.5-1.2-0.5c-0.5,0-0.9,0.2-1.3,0.6
		c-0.4,0.4-0.6,0.9-0.7,1.5H97.5z"/>
	<path class="st4" d="M107.6,75.7l-3.5,9c-0.7,1.6-1.8,2.4-3.1,2.4c-0.4,0-0.7,0-0.9-0.1v-1.5c0.3,0.1,0.5,0.1,0.8,0.1
		c0.7,0,1.2-0.3,1.5-1l0.5-1.3l-3.1-7.8h2l1.9,5.7c0,0.1,0.1,0.3,0.1,0.6h0c0-0.1,0.1-0.3,0.1-0.5l1.9-5.7H107.6z"/>
	<path class="st4" d="M115.2,80h-5.3c0,0.7,0.2,1.3,0.7,1.7c0.4,0.4,1,0.6,1.7,0.6c0.8,0,1.6-0.2,2.3-0.7V83
		c-0.7,0.4-1.6,0.7-2.8,0.7c-1.1,0-2-0.4-2.7-1.1c-0.7-0.7-1-1.7-1-3c0-1.2,0.4-2.2,1.1-3c0.7-0.8,1.6-1.1,2.7-1.1
		c1.1,0,1.9,0.3,2.5,1c0.6,0.7,0.9,1.6,0.9,2.9V80z M113.5,78.8c0-0.6-0.2-1.1-0.4-1.5s-0.7-0.5-1.2-0.5c-0.5,0-0.9,0.2-1.3,0.6
		c-0.4,0.4-0.6,0.9-0.7,1.5H113.5z"/>
	<path class="st4" d="M123.9,83.5h-1.8v-4.4c0-1.5-0.5-2.2-1.5-2.2c-0.5,0-1,0.2-1.3,0.6c-0.4,0.4-0.5,0.9-0.5,1.5v4.4h-1.8v-7.8
		h1.8V77h0c0.6-1,1.4-1.5,2.5-1.5c0.8,0,1.5,0.3,1.9,0.8s0.7,1.3,0.7,2.4V83.5z"/>
	<path class="st4" d="M133.1,83.5h-1.8v-1.3h0c-0.6,1-1.4,1.5-2.6,1.5c-1,0-1.7-0.3-2.3-1c-0.6-0.7-0.9-1.6-0.9-2.8
		c0-1.3,0.3-2.3,1-3.1c0.6-0.8,1.5-1.2,2.5-1.2c1,0,1.8,0.4,2.3,1.3h0v-4.8h1.8V83.5z M131.3,79.9v-1c0-0.6-0.2-1-0.5-1.4
		s-0.8-0.6-1.4-0.6c-0.7,0-1.2,0.2-1.6,0.7c-0.4,0.5-0.6,1.2-0.6,2c0,0.8,0.2,1.4,0.5,1.9c0.4,0.5,0.9,0.7,1.5,0.7
		c0.6,0,1.1-0.2,1.5-0.7C131.2,81.1,131.3,80.6,131.3,79.9z"/>
	<path class="st4" d="M138.8,83.6c-1.2,0-2.2-0.4-2.9-1.1c-0.7-0.7-1.1-1.7-1.1-2.9c0-1.3,0.4-2.3,1.1-3.1c0.7-0.7,1.8-1.1,3-1.1
		c1.2,0,2.2,0.4,2.8,1.1c0.7,0.7,1,1.7,1,3c0,1.2-0.4,2.2-1.1,3C141.1,83.3,140.1,83.6,138.8,83.6z M138.9,76.9
		c-0.7,0-1.2,0.2-1.6,0.7c-0.4,0.5-0.6,1.1-0.6,2c0,0.8,0.2,1.5,0.6,1.9c0.4,0.5,0.9,0.7,1.6,0.7c0.7,0,1.2-0.2,1.6-0.7
		s0.6-1.1,0.6-2c0-0.9-0.2-1.5-0.6-2C140.2,77.1,139.6,76.9,138.9,76.9z"/>
	<path class="st4" d="M47.9,98.7h-5.3c0,0.7,0.2,1.3,0.7,1.7c0.4,0.4,1,0.6,1.7,0.6c0.8,0,1.6-0.2,2.3-0.7v1.4
		c-0.7,0.4-1.6,0.7-2.8,0.7c-1.1,0-2-0.4-2.7-1.1c-0.7-0.7-1-1.7-1-3c0-1.2,0.4-2.2,1.1-3c0.7-0.8,1.6-1.1,2.7-1.1
		c1.1,0,1.9,0.3,2.5,1c0.6,0.7,0.9,1.6,0.9,2.9V98.7z M46.2,97.5c0-0.6-0.2-1.1-0.4-1.5s-0.7-0.5-1.2-0.5c-0.5,0-0.9,0.2-1.3,0.6
		c-0.4,0.4-0.6,0.9-0.7,1.5H46.2z"/>
	<path class="st4" d="M56.5,102.1h-1.8v-4.4c0-1.5-0.5-2.2-1.5-2.2c-0.5,0-1,0.2-1.3,0.6c-0.4,0.4-0.5,0.9-0.5,1.5v4.4h-1.8v-7.8
		h1.8v1.3h0c0.6-1,1.4-1.5,2.5-1.5c0.8,0,1.5,0.3,1.9,0.8s0.7,1.3,0.7,2.4V102.1z"/>
	<path class="st4" d="M69.6,98.7h-5.3c0,0.7,0.2,1.3,0.7,1.7c0.4,0.4,1,0.6,1.7,0.6c0.8,0,1.6-0.2,2.3-0.7v1.4
		c-0.7,0.4-1.6,0.7-2.8,0.7c-1.1,0-2-0.4-2.7-1.1c-0.7-0.7-1-1.7-1-3c0-1.2,0.4-2.2,1.1-3c0.7-0.8,1.6-1.1,2.7-1.1
		c1.1,0,1.9,0.3,2.5,1c0.6,0.7,0.9,1.6,0.9,2.9V98.7z M67.9,97.5c0-0.6-0.2-1.1-0.4-1.5s-0.7-0.5-1.2-0.5c-0.5,0-0.9,0.2-1.3,0.6
		c-0.4,0.4-0.6,0.9-0.7,1.5H67.9z"/>
	<path class="st4" d="M70.8,101.9v-1.6c0.7,0.5,1.4,0.8,2.2,0.8c1.1,0,1.6-0.3,1.6-0.9c0-0.2,0-0.3-0.1-0.5
		c-0.1-0.1-0.2-0.2-0.4-0.3c-0.2-0.1-0.3-0.2-0.5-0.3c-0.2-0.1-0.4-0.2-0.7-0.3c-0.3-0.1-0.6-0.3-0.9-0.4c-0.3-0.1-0.5-0.3-0.6-0.5
		c-0.2-0.2-0.3-0.4-0.4-0.6c-0.1-0.2-0.1-0.5-0.1-0.8c0-0.4,0.1-0.7,0.3-1c0.2-0.3,0.4-0.5,0.7-0.7c0.3-0.2,0.6-0.3,1-0.4
		c0.4-0.1,0.8-0.1,1.2-0.1c0.7,0,1.4,0.1,1.9,0.3V96c-0.5-0.4-1.2-0.6-1.9-0.6c-0.2,0-0.4,0-0.6,0.1c-0.2,0-0.3,0.1-0.5,0.2
		c-0.1,0.1-0.2,0.2-0.3,0.3c-0.1,0.1-0.1,0.2-0.1,0.4c0,0.2,0,0.3,0.1,0.4c0.1,0.1,0.2,0.2,0.3,0.3c0.1,0.1,0.3,0.2,0.5,0.2
		c0.2,0.1,0.4,0.2,0.7,0.2c0.3,0.1,0.6,0.3,0.9,0.4s0.5,0.3,0.7,0.5s0.3,0.4,0.4,0.6c0.1,0.2,0.2,0.5,0.2,0.8c0,0.4-0.1,0.7-0.3,1
		c-0.2,0.3-0.4,0.5-0.7,0.7c-0.3,0.2-0.7,0.3-1.1,0.4s-0.8,0.1-1.3,0.1C72.1,102.3,71.4,102.2,70.8,101.9z"/>
	<path class="st4" d="M79.8,101L79.8,101l0,4.7H78V94.4h1.8v1.4h0c0.6-1,1.5-1.6,2.6-1.6c1,0,1.8,0.3,2.3,1c0.6,0.7,0.8,1.6,0.8,2.8
		c0,1.3-0.3,2.3-0.9,3.1c-0.6,0.8-1.5,1.2-2.6,1.2C81.1,102.3,80.3,101.9,79.8,101z M79.7,97.9v1c0,0.6,0.2,1,0.5,1.4
		c0.4,0.4,0.8,0.6,1.4,0.6c0.7,0,1.2-0.3,1.5-0.8c0.4-0.5,0.6-1.2,0.6-2.1c0-0.8-0.2-1.4-0.5-1.8c-0.3-0.4-0.8-0.7-1.4-0.7
		c-0.6,0-1.1,0.2-1.5,0.7C79.9,96.7,79.7,97.3,79.7,97.9z"/>
	<path class="st4" d="M93.1,102.1h-1.7v-1.2h0c-0.5,0.9-1.3,1.4-2.4,1.4c-0.8,0-1.4-0.2-1.8-0.6c-0.4-0.4-0.7-1-0.7-1.7
		c0-1.5,0.8-2.3,2.5-2.6l2.3-0.3c0-1.1-0.5-1.7-1.6-1.7c-0.9,0-1.8,0.3-2.5,1v-1.5c0.8-0.5,1.8-0.7,2.8-0.7c2,0,3,1,3,2.9V102.1z
		 M91.4,98.3l-1.6,0.2c-0.5,0.1-0.9,0.2-1.1,0.4c-0.3,0.2-0.4,0.5-0.4,0.9c0,0.3,0.1,0.6,0.4,0.8s0.6,0.3,0.9,0.3
		c0.5,0,1-0.2,1.3-0.6c0.4-0.4,0.5-0.9,0.5-1.4V98.3z"/>
	<path class="st4" d="M102.2,102.1h-1.8v-4.4c0-1.5-0.5-2.2-1.5-2.2c-0.5,0-1,0.2-1.3,0.6c-0.4,0.4-0.5,0.9-0.5,1.5v4.4h-1.8v-7.8
		h1.8v1.3h0c0.6-1,1.4-1.5,2.5-1.5c0.8,0,1.5,0.3,1.9,0.8s0.7,1.3,0.7,2.4V102.1z M101.3,90.9c0,0.6-0.1,1.1-0.4,1.4
		s-0.6,0.6-1.1,0.6c-0.4,0-0.8-0.1-1.3-0.4c-0.4-0.2-0.7-0.3-0.9-0.3c-0.4,0-0.6,0.3-0.6,0.8h-0.9c0-0.6,0.1-1.1,0.4-1.4
		c0.3-0.4,0.6-0.5,1.1-0.5c0.3,0,0.7,0.1,1.2,0.4c0.4,0.2,0.7,0.3,1,0.3c0.4,0,0.6-0.3,0.6-0.9H101.3z"/>
	<path class="st4" d="M107.8,102.3c-1.2,0-2.2-0.4-2.9-1.1c-0.7-0.7-1.1-1.7-1.1-2.9c0-1.3,0.4-2.3,1.1-3.1c0.7-0.7,1.8-1.1,3-1.1
		c1.2,0,2.2,0.4,2.8,1.1c0.7,0.7,1,1.7,1,3c0,1.2-0.4,2.2-1.1,3C110.1,102,109.1,102.3,107.8,102.3z M107.9,95.6
		c-0.7,0-1.2,0.2-1.6,0.7c-0.4,0.5-0.6,1.1-0.6,2c0,0.8,0.2,1.5,0.6,1.9c0.4,0.5,0.9,0.7,1.6,0.7c0.7,0,1.2-0.2,1.6-0.7
		s0.6-1.1,0.6-2c0-0.9-0.2-1.5-0.6-2C109.1,95.8,108.6,95.6,107.9,95.6z"/>
	<path class="st4" d="M115.5,102.1h-1.8V90.6h1.8V102.1z"/>
</g>
</svg>
