<?xml version="1.0" encoding="utf-8"?>
<!-- Generator: Adobe Illustrator 25.4.2, SVG Export Plug-In . SVG Version: 6.00 Build 0)  -->
<svg version="1.1" id="Capa_1" xmlns="http://www.w3.org/2000/svg" xmlns:xlink="http://www.w3.org/1999/xlink" x="0px" y="0px"
	 viewBox="0 0 156.4 120.9" style="enable-background:new 0 0 156.4 120.9;" xml:space="preserve">
<style type="text/css">
	.st0{opacity:0.6;fill:#FFFFFF;}
	.st1{fill:#CCE8E7;}
	.st2{fill:#4362AC;}
	.st3{fill:#FFFCFD;}
	.st4{fill:#ED6C3F;}
	.st5{fill:#33408A;}
</style>
<path class="st0" d="M136.9,115.9h-117c-6.6,0-12-5.4-12-12V74.1c0-6.6,5.4-12,12-12h117c6.6,0,12,5.4,12,12v29.8
	C148.9,110.5,143.5,115.9,136.9,115.9z"/>
<g>
	<path class="st1" d="M90.4,2.7H65.1c-8.6,0-15.5,7-15.5,15.5v11.7c0,8.6,7,15.5,15.5,15.5h7.7l6.8,12.5l6.8-12.5h3.9
		c8.6,0,15.5-7,15.5-15.5V18.2C105.9,9.6,99,2.7,90.4,2.7z"/>
	<g>
		<rect x="60" y="11.5" class="st2" width="35.5" height="24.2"/>
		<polygon class="st3" points="95.5,19.2 81.4,19.2 81.4,11.5 74.1,11.5 74.1,19.2 60,19.2 60,28 74.1,28 74.1,35.7 81.4,35.7 
			81.4,28 95.5,28 		"/>
		<polygon class="st4" points="95.5,21.1 79.9,21.1 79.9,11.5 75.7,11.5 75.7,21.1 60,21.1 60,26.1 75.7,26.1 75.7,35.7 79.9,35.7 
			79.9,26.1 95.5,26.1 		"/>
		<g>
			<polygon class="st3" points="62.3,11.5 75,19.6 66.1,19.6 60,15.7 60,11.5 			"/>
			<polygon class="st4" points="60,12.6 70.6,19.2 67.5,19.2 60,14.8 			"/>
		</g>
		<g>
			<polygon class="st3" points="93.2,11.5 80.4,19.6 89.4,19.6 95.5,15.7 95.5,11.5 			"/>
			<polygon class="st4" points="95.5,12.6 84.9,19.2 88,19.2 95.5,14.8 			"/>
		</g>
		<g>
			<polygon class="st3" points="93.2,35.7 80.4,27.6 89.4,27.6 95.5,31.5 95.5,35.7 			"/>
			<polygon class="st4" points="95.5,34.6 84.9,28 88,28 95.5,32.4 			"/>
		</g>
		<g>
			<polygon class="st3" points="62.3,35.7 75,27.6 66.1,27.6 60,31.5 60,35.7 			"/>
			<polygon class="st4" points="60,34.6 70.6,28 67.5,28 60,32.4 			"/>
		</g>
	</g>
</g>
<g>
	<path class="st5" d="M27.3,84.8c-0.8,0.4-1.8,0.6-3.1,0.6c-1.6,0-2.8-0.5-3.8-1.5c-1-1-1.4-2.3-1.4-3.9c0-1.7,0.5-3.2,1.6-4.2
		c1.1-1.1,2.4-1.6,4.1-1.6c1.1,0,1.9,0.1,2.6,0.4v1.8c-0.7-0.4-1.5-0.7-2.4-0.7c-1.2,0-2.1,0.4-2.9,1.1c-0.7,0.8-1.1,1.8-1.1,3
		c0,1.2,0.3,2.2,1,2.9c0.7,0.7,1.6,1.1,2.7,1.1c1,0,1.9-0.2,2.7-0.7V84.8z"/>
	<path class="st5" d="M32.7,85.4c-1.2,0-2.2-0.4-2.9-1.1s-1.1-1.7-1.1-2.9c0-1.3,0.4-2.3,1.1-3.1c0.7-0.7,1.8-1.1,3-1.1
		c1.2,0,2.2,0.4,2.8,1.1c0.7,0.7,1,1.7,1,3c0,1.2-0.4,2.2-1.1,3C34.9,85.1,33.9,85.4,32.7,85.4z M32.7,78.7c-0.7,0-1.2,0.2-1.6,0.7
		c-0.4,0.5-0.6,1.1-0.6,2c0,0.8,0.2,1.5,0.6,1.9c0.4,0.5,0.9,0.7,1.6,0.7c0.7,0,1.2-0.2,1.6-0.7c0.4-0.5,0.6-1.1,0.6-2
		c0-0.9-0.2-1.5-0.6-2C34,78.9,33.4,78.7,32.7,78.7z"/>
	<path class="st5" d="M45.4,85.3h-1.8v-4.4c0-1.5-0.5-2.2-1.5-2.2c-0.5,0-1,0.2-1.3,0.6c-0.3,0.4-0.5,0.9-0.5,1.5v4.4h-1.8v-7.8h1.8
		v1.3h0c0.6-1,1.4-1.5,2.5-1.5c0.8,0,1.5,0.3,1.9,0.8s0.7,1.3,0.7,2.4V85.3z"/>
	<path class="st5" d="M51.7,85.2c-0.3,0.2-0.8,0.3-1.4,0.3c-1.5,0-2.3-0.7-2.3-2.2v-4.4h-1.3v-1.4h1.3v-1.8l1.8-0.5v2.3h1.9v1.4
		h-1.9v3.9c0,0.5,0.1,0.8,0.3,1c0.2,0.2,0.4,0.3,0.8,0.3c0.3,0,0.6-0.1,0.8-0.3V85.2z"/>
	<path class="st5" d="M54.1,75.8c-0.3,0-0.5-0.1-0.7-0.3s-0.3-0.4-0.3-0.7s0.1-0.5,0.3-0.7c0.2-0.2,0.5-0.3,0.7-0.3
		c0.3,0,0.6,0.1,0.8,0.3c0.2,0.2,0.3,0.4,0.3,0.7c0,0.3-0.1,0.5-0.3,0.7C54.7,75.7,54.4,75.8,54.1,75.8z M55,85.3h-1.8v-7.8H55V85.3
		z"/>
	<path class="st5" d="M64.2,85.3h-1.8v-4.4c0-1.5-0.5-2.2-1.5-2.2c-0.5,0-1,0.2-1.3,0.6c-0.3,0.4-0.5,0.9-0.5,1.5v4.4h-1.8v-7.8h1.8
		v1.3h0c0.6-1,1.4-1.5,2.5-1.5c0.8,0,1.5,0.3,1.9,0.8c0.4,0.6,0.7,1.3,0.7,2.4V85.3z"/>
	<path class="st5" d="M73.2,85.3h-1.8V84h0c-0.5,0.9-1.3,1.4-2.4,1.4c-1.8,0-2.8-1.1-2.8-3.3v-4.7H68v4.5c0,1.4,0.5,2.1,1.6,2.1
		c0.5,0,1-0.2,1.3-0.6c0.3-0.4,0.5-0.9,0.5-1.5v-4.5h1.8V85.3z"/>
	<path class="st5" d="M82.1,81.8h-5.3c0,0.7,0.2,1.3,0.7,1.7c0.4,0.4,1,0.6,1.7,0.6c0.8,0,1.6-0.2,2.3-0.7v1.4
		c-0.7,0.4-1.6,0.7-2.8,0.7c-1.1,0-2-0.4-2.7-1.1c-0.7-0.7-1-1.7-1-3c0-1.2,0.4-2.2,1.1-3s1.6-1.1,2.7-1.1c1.1,0,1.9,0.3,2.5,1
		c0.6,0.7,0.9,1.6,0.9,2.9V81.8z M80.4,80.6c0-0.6-0.2-1.1-0.4-1.5s-0.7-0.5-1.2-0.5c-0.5,0-0.9,0.2-1.3,0.6
		c-0.4,0.4-0.6,0.9-0.7,1.5H80.4z"/>
	<path class="st5" d="M92.5,79.2c-0.2-0.2-0.5-0.3-0.9-0.3c-0.5,0-1,0.2-1.3,0.7c-0.3,0.5-0.5,1.1-0.5,1.9v3.7H88v-7.8h1.8v1.6h0
		c0.2-0.5,0.4-1,0.8-1.3s0.8-0.5,1.2-0.5c0.3,0,0.6,0,0.7,0.1V79.2z"/>
	<path class="st5" d="M100.2,81.8h-5.3c0,0.7,0.2,1.3,0.7,1.7c0.4,0.4,1,0.6,1.7,0.6c0.8,0,1.6-0.2,2.3-0.7v1.4
		c-0.7,0.4-1.6,0.7-2.8,0.7c-1.1,0-2-0.4-2.7-1.1c-0.7-0.7-1-1.7-1-3c0-1.2,0.4-2.2,1.1-3s1.6-1.1,2.7-1.1c1.1,0,1.9,0.3,2.5,1
		c0.6,0.7,0.9,1.6,0.9,2.9V81.8z M98.5,80.6c0-0.6-0.2-1.1-0.4-1.5s-0.7-0.5-1.2-0.5c-0.5,0-0.9,0.2-1.3,0.6
		c-0.4,0.4-0.6,0.9-0.7,1.5H98.5z"/>
	<path class="st5" d="M107.9,85.3h-1.7V84h0c-0.5,0.9-1.3,1.4-2.4,1.4c-0.8,0-1.4-0.2-1.8-0.6c-0.4-0.4-0.7-1-0.7-1.7
		c0-1.5,0.8-2.3,2.5-2.6l2.3-0.3c0-1.1-0.5-1.7-1.6-1.7c-0.9,0-1.8,0.3-2.5,1V78c0.8-0.5,1.8-0.7,2.8-0.7c2,0,3,1,3,2.9V85.3z
		 M106.2,81.4l-1.6,0.2c-0.5,0.1-0.9,0.2-1.1,0.4c-0.3,0.2-0.4,0.5-0.4,0.9c0,0.3,0.1,0.6,0.4,0.8s0.6,0.3,0.9,0.3
		c0.5,0,1-0.2,1.3-0.6c0.4-0.4,0.5-0.9,0.5-1.4V81.4z"/>
	<path class="st5" d="M117.1,85.3h-1.8v-1.3h0c-0.6,1-1.4,1.5-2.6,1.5c-1,0-1.7-0.3-2.3-1c-0.6-0.7-0.9-1.6-0.9-2.8
		c0-1.3,0.3-2.3,1-3.1c0.6-0.8,1.5-1.2,2.5-1.2c1,0,1.8,0.4,2.3,1.3h0v-4.8h1.8V85.3z M115.4,81.7v-1c0-0.6-0.2-1-0.5-1.4
		s-0.8-0.6-1.4-0.6c-0.7,0-1.2,0.2-1.6,0.7c-0.4,0.5-0.6,1.2-0.6,2c0,0.8,0.2,1.4,0.5,1.9c0.4,0.5,0.9,0.7,1.5,0.7
		c0.6,0,1.1-0.2,1.5-0.7C115.2,82.9,115.4,82.4,115.4,81.7z"/>
	<path class="st5" d="M120.3,75.8c-0.3,0-0.5-0.1-0.7-0.3s-0.3-0.4-0.3-0.7s0.1-0.5,0.3-0.7c0.2-0.2,0.5-0.3,0.7-0.3
		c0.3,0,0.6,0.1,0.8,0.3c0.2,0.2,0.3,0.4,0.3,0.7c0,0.3-0.1,0.5-0.3,0.7C120.9,75.7,120.6,75.8,120.3,75.8z M121.2,85.3h-1.8v-7.8
		h1.8V85.3z"/>
	<path class="st5" d="M130.4,85.3h-1.8v-4.4c0-1.5-0.5-2.2-1.5-2.2c-0.5,0-1,0.2-1.3,0.6c-0.3,0.4-0.5,0.9-0.5,1.5v4.4h-1.8v-7.8
		h1.8v1.3h0c0.6-1,1.4-1.5,2.5-1.5c0.8,0,1.5,0.3,1.9,0.8s0.7,1.3,0.7,2.4V85.3z"/>
	<path class="st5" d="M139.7,84.6c0,2.9-1.4,4.3-4.3,4.3c-1,0-1.9-0.2-2.7-0.5v-1.6c0.9,0.5,1.7,0.7,2.4,0.7c1.9,0,2.8-0.9,2.8-2.7
		V84h0c-0.6,1-1.5,1.5-2.6,1.5c-0.9,0-1.7-0.3-2.3-1c-0.6-0.7-0.9-1.6-0.9-2.8c0-1.3,0.3-2.4,0.9-3.2c0.6-0.8,1.5-1.2,2.6-1.2
		c1,0,1.8,0.4,2.3,1.3h0v-1.1h1.8V84.6z M137.9,81.7v-1c0-0.5-0.2-1-0.5-1.4s-0.8-0.6-1.4-0.6c-0.7,0-1.2,0.2-1.6,0.7
		s-0.6,1.2-0.6,2.1c0,0.8,0.2,1.4,0.5,1.8c0.4,0.5,0.8,0.7,1.4,0.7c0.6,0,1.1-0.2,1.5-0.7C137.7,82.9,137.9,82.4,137.9,81.7z"/>
	<path class="st5" d="M47.7,94.5c-0.3,0-0.5-0.1-0.7-0.3s-0.3-0.4-0.3-0.7s0.1-0.5,0.3-0.7c0.2-0.2,0.5-0.3,0.7-0.3
		c0.3,0,0.6,0.1,0.8,0.3c0.2,0.2,0.3,0.4,0.3,0.7c0,0.3-0.1,0.5-0.3,0.7C48.3,94.4,48,94.5,47.7,94.5z M48.6,104h-1.8v-7.8h1.8V104z
		"/>
	<path class="st5" d="M57.8,104h-1.8v-4.4c0-1.5-0.5-2.2-1.5-2.2c-0.5,0-1,0.2-1.3,0.6c-0.3,0.4-0.5,0.9-0.5,1.5v4.4h-1.8v-7.8h1.8
		v1.3h0c0.6-1,1.4-1.5,2.5-1.5c0.8,0,1.5,0.3,1.9,0.8s0.7,1.3,0.7,2.4V104z"/>
	<path class="st5" d="M70.6,104h-6.1V93h5.9v1.5h-4.1v3.1H70v1.5h-3.7v3.2h4.3V104z"/>
	<path class="st5" d="M79.2,104h-1.8v-4.4c0-1.5-0.5-2.2-1.5-2.2c-0.5,0-1,0.2-1.3,0.6c-0.3,0.4-0.5,0.9-0.5,1.5v4.4h-1.8v-7.8h1.8
		v1.3h0c0.6-1,1.4-1.5,2.5-1.5c0.8,0,1.5,0.3,1.9,0.8s0.7,1.3,0.7,2.4V104z"/>
	<path class="st5" d="M88.5,103.3c0,2.9-1.4,4.3-4.3,4.3c-1,0-1.9-0.2-2.7-0.5v-1.6c0.9,0.5,1.7,0.7,2.4,0.7c1.9,0,2.8-0.9,2.8-2.7
		v-0.9h0c-0.6,1-1.5,1.5-2.6,1.5c-0.9,0-1.7-0.3-2.3-1c-0.6-0.7-0.9-1.6-0.9-2.8c0-1.3,0.3-2.4,0.9-3.2c0.6-0.8,1.5-1.2,2.6-1.2
		c1,0,1.8,0.4,2.3,1.3h0v-1.1h1.8V103.3z M86.7,100.4v-1c0-0.5-0.2-1-0.5-1.4s-0.8-0.6-1.4-0.6c-0.7,0-1.2,0.2-1.6,0.7
		s-0.6,1.2-0.6,2.1c0,0.8,0.2,1.4,0.5,1.8c0.4,0.5,0.8,0.7,1.4,0.7c0.6,0,1.1-0.2,1.5-0.7C86.5,101.6,86.7,101.1,86.7,100.4z"/>
	<path class="st5" d="M92.6,104h-1.8V92.4h1.8V104z"/>
	<path class="st5" d="M95.7,94.5c-0.3,0-0.5-0.1-0.7-0.3s-0.3-0.4-0.3-0.7s0.1-0.5,0.3-0.7c0.2-0.2,0.5-0.3,0.7-0.3
		c0.3,0,0.6,0.1,0.8,0.3c0.2,0.2,0.3,0.4,0.3,0.7c0,0.3-0.1,0.5-0.3,0.7C96.3,94.4,96,94.5,95.7,94.5z M96.6,104h-1.8v-7.8h1.8V104z
		"/>
	<path class="st5" d="M98.4,103.7v-1.6c0.7,0.5,1.4,0.8,2.2,0.8c1.1,0,1.6-0.3,1.6-0.9c0-0.2,0-0.3-0.1-0.5
		c-0.1-0.1-0.2-0.2-0.4-0.3c-0.2-0.1-0.3-0.2-0.5-0.3c-0.2-0.1-0.4-0.2-0.7-0.3c-0.3-0.1-0.6-0.3-0.9-0.4c-0.3-0.1-0.5-0.3-0.6-0.5
		c-0.2-0.2-0.3-0.4-0.4-0.6c-0.1-0.2-0.1-0.5-0.1-0.8c0-0.4,0.1-0.7,0.3-1s0.4-0.5,0.7-0.7c0.3-0.2,0.6-0.3,1-0.4
		c0.4-0.1,0.8-0.1,1.2-0.1c0.7,0,1.4,0.1,1.9,0.3v1.5c-0.5-0.4-1.2-0.6-1.9-0.6c-0.2,0-0.4,0-0.6,0.1c-0.2,0-0.3,0.1-0.5,0.2
		s-0.2,0.2-0.3,0.3c-0.1,0.1-0.1,0.2-0.1,0.4c0,0.2,0,0.3,0.1,0.4c0.1,0.1,0.2,0.2,0.3,0.3c0.1,0.1,0.3,0.2,0.5,0.2
		c0.2,0.1,0.4,0.2,0.7,0.2c0.3,0.1,0.6,0.3,0.9,0.4c0.3,0.1,0.5,0.3,0.7,0.5c0.2,0.2,0.3,0.4,0.4,0.6s0.2,0.5,0.2,0.8
		c0,0.4-0.1,0.7-0.3,1c-0.2,0.3-0.4,0.5-0.7,0.7c-0.3,0.2-0.7,0.3-1.1,0.4c-0.4,0.1-0.8,0.1-1.3,0.1C99.8,104.1,99.1,104,98.4,103.7
		z"/>
	<path class="st5" d="M112.6,104h-1.8v-4.3c0-1.5-0.5-2.3-1.5-2.3c-0.5,0-1,0.2-1.3,0.7c-0.4,0.4-0.5,1-0.5,1.7v4.2h-1.8V92.4h1.8v5
		h0c0.6-1,1.4-1.5,2.5-1.5c1.7,0,2.6,1.1,2.6,3.2V104z"/>
</g>
</svg>
