<?xml version="1.0" encoding="utf-8"?>
<!-- Generator: Adobe Illustrator 25.4.2, SVG Export Plug-In . SVG Version: 6.00 Build 0)  -->
<svg version="1.1" id="Capa_1" xmlns="http://www.w3.org/2000/svg" xmlns:xlink="http://www.w3.org/1999/xlink" x="0px" y="0px"
	 viewBox="0 0 50 50" style="enable-background:new 0 0 50 50;" xml:space="preserve">
<style type="text/css">
	.st0{opacity:0.5;fill:#FFFFFF;enable-background:new    ;}
</style>
<g id="Capa_1_00000106855749326036549140000018308998415981303200_">
	<path class="st0" d="M5.6,49.4h38.7c2.8,0,5-2.2,5-5V5.6c0-2.8-2.2-5-5-5H5.6c-2.8,0-5,2.2-5,5v38.7C0.6,47.1,2.9,49.4,5.6,49.4z"
		/>
</g>
<g id="Capa_2_00000040546708832197930810000010517503183828918159_">
</g>
<g transform="matrix( 0.07098388671875, 0, 0, 0.07098388671875, 1125.75,531.1) ">
	<g transform="matrix( 1, 0, 0, 1, 0,0) ">
		<g>
			<g id="resetearr_0_Layer0_0_FILL">
				<path d="M-15325.9-7220.3l-8.1,3c-10.7-26.9-27-51.3-49.1-73.3c-42.6-42.6-93.9-63.9-154.1-63.9s-111.5,21.2-154.1,63.7
					l-0.1,0.1c-42.5,42.6-63.7,93.9-63.7,154.1c0,60.1,21.3,111.5,63.9,154.1c42.6,42.6,93.9,63.9,154.1,63.9
					c28.5,0,55-4.7,79.5-14.2l-28.7-51.5c-15.9,5.2-32.8,7.8-50.8,7.8c-44.2,0-81.9-15.6-113.1-46.9s-46.9-69-46.9-113.1
					c0-44.2,15.6-81.9,46.9-113.1c31.2-31.2,69-46.9,113.1-46.9s81.9,15.6,113.1,46.9c15.7,15.7,27.5,33.1,35.4,52.2l-80.9,29.4
					l169.1,158.1l39.2-240.5L-15325.9-7220.3z"/>
			</g>
		</g>
	</g>
</g>
</svg>
