<?xml version="1.0" encoding="utf-8"?>
<!-- Generator: Adobe Illustrator 25.4.2, SVG Export Plug-In . SVG Version: 6.00 Build 0)  -->
<svg version="1.1" id="Capa_1" xmlns="http://www.w3.org/2000/svg" xmlns:xlink="http://www.w3.org/1999/xlink" x="0px" y="0px"
	 viewBox="0 0 50 50" style="enable-background:new 0 0 50 50;" xml:space="preserve">
<style type="text/css">
	.st0{opacity:0.5;fill:#FFFFFF;enable-background:new    ;}
</style>
<g id="Capa_1_00000106855749326036549140000018308998415981303200_">
	<path class="st0" d="M5.6,49.4h38.7c2.8,0,5-2.2,5-5V5.6c0-2.8-2.2-5-5-5H5.6c-2.8,0-5,2.2-5,5v38.7C0.6,47.1,2.9,49.4,5.6,49.4z"
		/>
</g>
<g id="Capa_2_00000040546708832197930810000010517503183828918159_">
</g>
<path d="M43.8,38.5V38c0-0.4-0.1-0.7-0.4-1c-0.3-0.3-0.6-0.4-1-0.4c-0.3,0-0.5,0.1-0.8,0.4l-0.1,0.1h-3.6c-0.4,0-0.6,0.1-0.8,0.4
	c-0.3,0.3-0.4,0.6-0.4,1s0.1,0.7,0.4,1c0.2,0.2,0.5,0.3,0.8,0.3h4.5c0.4,0,0.7-0.1,1-0.3C43.7,39.2,43.8,38.8,43.8,38.5"/>
<path d="M43.8,27.4c0-0.4-0.1-0.7-0.4-1c-0.3-0.3-0.6-0.4-1-0.4c-0.3,0-0.5,0.1-0.8,0.4s-0.4,0.6-0.4,1v5.2c0,0.4,0.1,0.7,0.4,1
	c0.3,0.3,0.5,0.4,0.8,0.4c0.4,0,0.7-0.1,1-0.4c0.3-0.3,0.4-0.6,0.4-1V27.4"/>
<path d="M42.4,15.4c-0.3,0-0.5,0.1-0.8,0.3c-0.3,0.3-0.4,0.6-0.4,1V22c0,0.4,0.1,0.7,0.4,1c0.3,0.3,0.5,0.4,0.8,0.4
	c0.4,0,0.7-0.1,1-0.4s0.4-0.6,0.4-1v-5.4c0-0.4-0.1-0.7-0.4-1C43.1,15.5,42.8,15.4,42.4,15.4"/>
<path d="M43.8,10.7c0-0.4-0.1-0.7-0.4-1s-0.6-0.4-1-0.4H38c-0.4,0-0.7,0.1-1,0.4c-0.2,0.3-0.3,0.6-0.3,1s0.1,0.6,0.3,0.8
	c0.3,0.3,0.6,0.4,1,0.4h3.4c0,0.1,0,0.2,0.1,0.3c0.3,0.3,0.5,0.4,0.8,0.4c0.4,0,0.7-0.1,1-0.4c0.3-0.3,0.4-0.5,0.4-0.8L43.8,10.7"/>
<path d="M26.5,38.5c0,0.4,0.1,0.7,0.3,1c0.3,0.2,0.6,0.3,1,0.3h5.1c0.4,0,0.6-0.1,0.8-0.3c0.3-0.3,0.4-0.6,0.4-1s-0.1-0.7-0.4-1
	c-0.2-0.3-0.5-0.4-0.8-0.4h-5.1c-0.4,0-0.7,0.1-1,0.4C26.6,37.8,26.5,38.1,26.5,38.5"/>
<path d="M16.6,39.4c0.3,0.2,0.6,0.3,1,0.3h5.1c0.3,0,0.5-0.1,0.8-0.3c0.3-0.3,0.4-0.6,0.4-1s-0.1-0.7-0.4-1S23,37,22.7,37h-5.1
	c-0.4,0-0.7,0.1-1,0.4c-0.3,0.3-0.4,0.6-0.4,1S16.3,39.2,16.6,39.4"/>
<path d="M13.3,37.5c-0.3-0.3-0.6-0.4-1-0.4H8.1C7.8,37,7.6,37,7.4,37c-0.3,0-0.5,0.1-0.8,0.4c-0.3,0.3-0.4,0.6-0.4,1v0.1
	c0,0.4,0.1,0.7,0.4,1c0.3,0.2,0.5,0.3,0.8,0.3h4.9c0.4,0,0.7-0.1,1-0.3c0.3-0.3,0.4-0.6,0.4-1S13.6,37.8,13.3,37.5"/>
<path d="M8.8,27.6c0-0.3-0.1-0.5-0.4-0.8c-0.3-0.3-0.6-0.4-1-0.4c-0.3,0-0.5,0.1-0.8,0.4s-0.4,0.5-0.4,0.8V33c0,0.4,0.1,0.7,0.4,1
	s0.5,0.4,0.8,0.4c0.4,0,0.7-0.1,1-0.4c0.3-0.3,0.4-0.6,0.4-1V27.6"/>
<path d="M26.9,9.8c-0.3,0.3-0.4,0.6-0.4,1s0.1,0.6,0.4,0.8c0.3,0.3,0.6,0.4,1,0.4H33c0.4,0,0.6-0.1,0.8-0.4c0.3-0.2,0.4-0.5,0.4-0.8
	s-0.1-0.7-0.4-1c-0.2-0.3-0.5-0.4-0.8-0.4h-5.1C27.5,9.4,27.2,9.5,26.9,9.8"/>
<path d="M8.8,17.1c0-0.4-0.1-0.7-0.4-1c-0.3-0.3-0.6-0.4-1-0.4c-0.3,0-0.5,0.1-0.8,0.4c-0.3,0.3-0.4,0.6-0.4,1v5.4
	c0,0.4,0.1,0.7,0.4,1c0.3,0.2,0.5,0.3,0.8,0.3c0.4,0,0.7-0.1,1-0.3c0.3-0.3,0.4-0.6,0.4-1V17.1"/>
<path d="M16.8,9.8c-0.3,0.3-0.4,0.6-0.4,1s0.1,0.6,0.4,0.8c0.3,0.3,0.6,0.4,1,0.4h5.1c0.3,0,0.5-0.1,0.8-0.4
	c0.3-0.2,0.4-0.5,0.4-0.8s-0.1-0.7-0.4-1s-0.5-0.4-0.8-0.4h-5.1C17.4,9.4,17,9.5,16.8,9.8"/>
<path d="M13.5,9.8c-0.3-0.3-0.6-0.4-1-0.4H7.4c-0.3,0-0.5,0.1-0.8,0.4c-0.3,0.2-0.4,0.6-0.4,0.9v1c0,0.4,0.1,0.7,0.4,1
	s0.5,0.4,0.8,0.4c0.4,0,0.7-0.1,1-0.4c0.2-0.2,0.3-0.4,0.4-0.7h3.7c0.4,0,0.7-0.1,1-0.4c0.3-0.2,0.4-0.5,0.4-0.8S13.7,10,13.5,9.8"
	/>
</svg>
