<?xml version="1.0" encoding="utf-8"?>
<!-- Generator: Adobe Illustrator 25.4.2, SVG Export Plug-In . SVG Version: 6.00 Build 0)  -->
<svg version="1.1" id="Capa_1" xmlns="http://www.w3.org/2000/svg" xmlns:xlink="http://www.w3.org/1999/xlink" x="0px" y="0px"
	 viewBox="0 0 50 50" style="enable-background:new 0 0 50 50;" xml:space="preserve">
<style type="text/css">
	.st0{opacity:0.5;fill:#FFFFFF;enable-background:new    ;}
	.st1{enable-background:new    ;}
	.st2{fill:#020203;}
</style>
<g id="Capa_1_00000106855749326036549140000018308998415981303200_">
	<path class="st0" d="M5.6,49.4h38.7c2.8,0,5-2.2,5-5V5.6c0-2.8-2.2-5-5-5H5.6c-2.8,0-5,2.2-5,5v38.7C0.6,47.1,2.9,49.4,5.6,49.4z"
		/>
</g>
<g id="Capa_2_00000040546708832197930810000010517503183828918159_">
</g>
<g transform="matrix( 0.7349700927734375, 0, 0, 0.7349700927734375, 84.2,231.6) ">
	<g>
		<g class="st1">
			<path class="st2" d="M-64.3-283.5c0,3.6-1.2,6.6-3.5,8.8c-2.3,2.3-5.3,3.4-9,3.5h-0.5v8h-6.4v-8h-0.5c-3.5,0-6.5-1.1-8.9-3.3
				c-2.4-2.2-3.6-5.2-3.6-8.9v-12.3h6.5v11.7c0,4.4,2,6.7,6,6.7h0.6v-18.4h6.4v18.4h0.5c4,0,6-2.2,6-6.7v-11.7h6.5V-283.5z"/>
		</g>
	</g>
</g>
</svg>
