<?xml version="1.0" encoding="utf-8"?>
<!-- Generator: Adobe Illustrator 25.4.2, SVG Export Plug-In . SVG Version: 6.00 Build 0)  -->
<svg version="1.1" id="Capa_1" xmlns="http://www.w3.org/2000/svg" xmlns:xlink="http://www.w3.org/1999/xlink" x="0px" y="0px"
	 viewBox="0 0 50 50" style="enable-background:new 0 0 50 50;" xml:space="preserve">
<style type="text/css">
	.st0{opacity:0.5;fill:#FFFFFF;enable-background:new    ;}
	.st1{fill:#020203;}
</style>
<g id="Capa_1_00000106855749326036549140000018308998415981303200_">
	<path class="st0" d="M5.6,49.4h38.7c2.8,0,5-2.2,5-5V5.6c0-2.8-2.2-5-5-5H5.6c-2.8,0-5,2.2-5,5v38.7C0.6,47.1,2.9,49.4,5.6,49.4z"
		/>
</g>
<g id="Capa_2_00000040546708832197930810000010517503183828918159_">
</g>
<path class="st1" d="M38.3,33.7L33,29.8v-0.1c-0.1,0-0.1,0,0-0.1c0.6-1.3,0.8-2.7,0.8-4.3c0-2.9-1-5.3-3-7.3
	c-2.1-2.1-4.5-3.1-7.4-3.1s-5.3,1-7.4,3.1c-2,2.1-3,4.5-3,7.3c0,2.9,1,5.3,3,7.4c2.1,2,4.5,3,7.4,3c2.5,0,4.7-0.8,6.6-2.3h0.2l5.4,4
	c0.4,0.4,1,0.5,1.7,0.4c0.6-0.1,1-0.3,1.4-0.8s0.5-1.1,0.5-1.7C39.1,34.6,38.8,34.1,38.3,33.7z M28.3,30.2c-1.4,1.4-3,2.1-4.9,2.1
	s-3.5-0.7-4.9-2.1c-1.3-1.3-2-2.9-2-4.9c0-1.9,0.7-3.5,2-4.8c1.4-1.4,3-2.1,4.9-2.1s3.5,0.7,4.9,2.1c1.3,1.3,2,2.9,2,4.8
	C30.3,27.2,29.6,28.8,28.3,30.2z"/>
<polygon class="st1" points="24.5,25.3 26.7,28.4 25.4,29.3 23.5,25.9 21.5,29.3 20.2,28.4 22.6,25.3 19,24.6 19.5,23 22.9,24.4 
	22.6,20.5 24.3,20.5 24,24.4 27.4,23 27.8,24.6 "/>
</svg>
