<?xml version="1.0" encoding="utf-8"?>
<!-- Generator: Adobe Illustrator 25.4.2, SVG Export Plug-In . SVG Version: 6.00 Build 0)  -->
<svg version="1.1" id="Capa_1" xmlns="http://www.w3.org/2000/svg" xmlns:xlink="http://www.w3.org/1999/xlink" x="0px" y="0px"
	 viewBox="0 0 50 50" style="enable-background:new 0 0 50 50;" xml:space="preserve">
<style type="text/css">
	.st0{fill:#9DF9EB;enable-background:new    ;}
	.st1{fill:#078AA8;}
</style>
<g id="Capa_1_00000106855749326036549140000018308998415981303200_">
	<path class="st0" d="M5.6,49.4h38.7c2.8,0,5-2.2,5-5V5.6c0-2.8-2.2-5-5-5H5.6c-2.8,0-5,2.2-5,5v38.7C0.6,47.1,2.9,49.4,5.6,49.4z"
		/>
</g>
<g id="Capa_2_00000040546708832197930810000010517503183828918159_">
</g>
<g transform="matrix( 1, 0, 0, 1, 0,0) ">
	<g>
		<g id="Layer0_0_FILL">
			<path class="st1" d="M11.1,19l6.9-0.1l0.1,7.8l13.8-0.1l-0.1-7.8l6.9,0L24.8,5.1L11.1,19 M24.9,8.3l8.3,8.2h-3.6l0.1,7.8
				l-9.2,0.1l-0.1-7.8l-3.6,0L24.9,8.3z"/>
			<path class="st1" d="M31.7,32.1h-1.8l-0.1,7.8l-10,0V36l-4.8,4.8l4.7,4.9l0.1-3.9l11.8,0L31.7,32.1z"/>
		</g>
	</g>
</g>
</svg>
