<?xml version="1.0" encoding="utf-8"?>
<!-- Generator: Adobe Illustrator 25.4.2, SVG Export Plug-In . SVG Version: 6.00 Build 0)  -->
<svg version="1.1" id="Capa_1" xmlns="http://www.w3.org/2000/svg" xmlns:xlink="http://www.w3.org/1999/xlink" x="0px" y="0px"
	 viewBox="0 0 50 50" style="enable-background:new 0 0 50 50;" xml:space="preserve">
<style type="text/css">
	.st0{opacity:0.5;fill:#FFFFFF;enable-background:new    ;}
	.st1{fill:#020203;}
</style>
<g id="Capa_1_00000106855749326036549140000018308998415981303200_">
	<path class="st0" d="M5.6,49.4h38.7c2.8,0,5-2.2,5-5V5.6c0-2.8-2.2-5-5-5H5.6c-2.8,0-5,2.2-5,5v38.7C0.6,47.1,2.9,49.4,5.6,49.4z"
		/>
</g>
<g id="Capa_2_00000040546708832197930810000010517503183828918159_">
</g>
<path class="st1" d="M21.8,29.7c-0.6-0.7-1.6-1.1-2.8-1.1h-6.8c-2.4,0-3.6,1.1-3.6,3.6v2.6c0,2.4,1.2,3.6,3.6,3.6h6.8
	c1.3,0,2.2-0.4,2.8-1.1c0.5-0.6,0.8-1.4,0.8-2.6v-2.6C22.5,31.2,22.3,30.3,21.8,29.7z M18.6,34.6h-6.2v-2h6.2V34.6z"/>
<path class="st1" d="M41.5,12.4h-10c-2.4,0-3.6,1.1-3.6,3.5v18.6c0,2.4,1.2,3.5,3.6,3.5h10c2.4,0,3.6-1.1,3.6-3.5V15.9
	C45.1,13.5,43.9,12.4,41.5,12.4z M41.2,34.4h-9.4V16.2h9.4V34.4z"/>
<path class="st1" d="M21.8,12.6c-0.5-0.4-1.3-0.5-2.2-0.5h-12c-2.4,0-3.6,1.1-3.6,3.5v7.3c0,2.4,1.2,3.5,3.6,3.5h12
	c1,0,1.7-0.2,2.2-0.5c1-0.5,1.5-1.5,1.5-3.1v-7.3C23.2,14.2,22.7,13.2,21.8,12.6z M19.3,22.7H7.8v-6.8h11.5V22.7z"/>
</svg>
