<?xml version="1.0" encoding="utf-8"?>
<!-- Generator: Adobe Illustrator 25.4.2, SVG Export Plug-In . SVG Version: 6.00 Build 0)  -->
<svg version="1.1" id="Capa_1" xmlns="http://www.w3.org/2000/svg" xmlns:xlink="http://www.w3.org/1999/xlink" x="0px" y="0px"
	 viewBox="0 0 50 50" style="enable-background:new 0 0 50 50;" xml:space="preserve">
<style type="text/css">
	.st0{opacity:0.5;fill:#FFFFFF;enable-background:new    ;}
	.st1{fill:#020203;}
</style>
<g id="Capa_1_00000034066761623017434610000018221061728254236048_">
	<path class="st0" d="M5.6,49.4h38.7c2.8,0,5-2.2,5-5V5.6c0-2.8-2.2-5-5-5H5.6c-2.8,0-5,2.2-5,5v38.7C0.6,47.1,2.9,49.4,5.6,49.4z"
		/>
</g>
<g id="Capa_2_00000108295092838618784570000017143748487541610161_">
	<polygon class="st1" points="28.2,21 23.9,25.4 28.2,29.7 26.6,31.4 22.3,27 18,31.4 16.3,29.7 20.6,25.4 16.3,21 18,19.3 
		22.3,23.7 26.6,19.3 	"/>
	<path class="st1" d="M30.3,35.4l10-10l-9.9-10.1H10.1v20.1H30.3z M12.3,17.6h16.9l7.6,7.7L29.2,33H12.3V17.6z"/>
	<polygon class="st1" points="20.6,25.4 16.3,21 18,19.3 22.3,23.7 26.6,19.3 28.2,21 23.9,25.4 28.2,29.7 26.6,31.4 22.3,27 
		18,31.4 16.3,29.7 	"/>
	<polygon class="st1" points="20.6,25.4 16.3,21 18,19.3 22.3,23.7 26.6,19.3 28.2,21 23.9,25.4 28.2,29.7 26.6,31.4 22.3,27 
		18,31.4 16.3,29.7 	"/>
</g>
</svg>
