<?xml version="1.0" encoding="utf-8"?>
<!-- Generator: Adobe Illustrator 25.4.2, SVG Export Plug-In . SVG Version: 6.00 Build 0)  -->
<svg version="1.1" id="Capa_1" xmlns="http://www.w3.org/2000/svg" xmlns:xlink="http://www.w3.org/1999/xlink" x="0px" y="0px"
	 viewBox="0 0 50 50" style="enable-background:new 0 0 50 50;" xml:space="preserve">
<style type="text/css">
	.st0{opacity:0.5;fill:#FFFFFF;enable-background:new    ;}
</style>
<g id="Capa_1_00000106855749326036549140000018308998415981303200_">
	<path class="st0" d="M5.6,49.4h38.7c2.8,0,5-2.2,5-5V5.6c0-2.8-2.2-5-5-5H5.6c-2.8,0-5,2.2-5,5v38.7C0.6,47.1,2.9,49.4,5.6,49.4z"
		/>
</g>
<g id="Capa_2_00000040546708832197930810000010517503183828918159_">
</g>
<path d="M11.8,19.5l-1.3-0.1c-0.5,0-1,0-1.5,0.1S8.1,19.8,7.7,20c-0.4,0.2-0.7,0.6-0.9,1c-0.2,0.3-0.4,0.8-0.4,1.3
	c0,0.4,0,0.7,0.1,1s0.2,0.5,0.4,0.7c0.2,0.2,0.4,0.4,0.7,0.6l1,0.4l0.7,0.2l1.2,0.6c0.1,0.1,0.2,0.2,0.2,0.4c0,0.3-0.1,0.5-0.4,0.7
	C10,27,9.6,27.1,9,27.1c-0.4,0-0.8-0.1-1.3-0.2c-0.4-0.1-0.9-0.4-1.4-0.7v2.4C7.2,28.9,8.1,29,9.2,29c0.5,0,1.1,0,1.6-0.1
	s0.9-0.3,1.3-0.5c0.4-0.2,0.7-0.6,1-1c0.2-0.4,0.4-0.9,0.4-1.5c0-0.4-0.1-0.7-0.2-1c-0.1-0.3-0.2-0.5-0.4-0.7s-0.5-0.4-0.8-0.6
	l-2.3-0.9l-0.4-0.3c-0.1-0.1-0.1-0.3-0.1-0.4s0-0.3,0.1-0.4l0.3-0.2l0.4-0.1l0.5-0.1c0.4,0,0.8,0.1,1.2,0.2s0.8,0.2,1.2,0.4v-2.2
	L11.8,19.5L11.8,19.5z"/>
<path d="M24,19.7h-2.9V25c0,0.6-0.1,1.1-0.4,1.5C20.4,26.8,20,27,19.5,27c-1,0-1.5-0.6-1.5-1.9v-5.4h-2.9v5.6c0,2.6,1.1,3.9,3.2,3.9
	c1.2,0,2.1-0.5,2.9-1.6V29H24V19.7L24,19.7z"/>
<path d="M35.1,20.7c-0.6-0.8-1.6-1.3-2.8-1.3c-1.3,0-2.3,0.5-2.9,1.6h-0.1v-1.4h-2.9v13.5h2.9v-5.4h0.1c0.6,0.9,1.4,1.3,2.5,1.3
	c1.3,0,2.3-0.5,3.1-1.4c0.7-0.9,1.1-2.2,1.1-3.8C36,22.7,35.7,21.6,35.1,20.7z M32.6,26.2c-0.3,0.5-0.8,0.7-1.5,0.7
	c-0.6,0-1-0.2-1.3-0.6s-0.5-0.9-0.5-1.5v-0.7c0-0.7,0.2-1.3,0.5-1.8c0.4-0.4,0.9-0.7,1.5-0.7c1.3,0,1.9,0.8,1.9,2.4
	C33.1,25,33,25.7,32.6,26.2z"/>
<path d="M44,19.6c-0.2,0-0.4-0.1-0.7-0.1c-1.2,0-2,0.6-2.4,1.8h-0.1v-1.7h-2.9V29h2.9v-4.4c0-0.8,0.2-1.4,0.5-1.8
	c0.4-0.5,0.9-0.7,1.5-0.7c0.5,0,0.9,0.1,1.3,0.3L44,19.6L44,19.6z"/>
</svg>
