<?xml version="1.0" encoding="utf-8"?>
<!-- Generator: Adobe Illustrator 25.4.2, SVG Export Plug-In . SVG Version: 6.00 Build 0)  -->
<svg version="1.1" id="Capa_1" xmlns="http://www.w3.org/2000/svg" xmlns:xlink="http://www.w3.org/1999/xlink" x="0px" y="0px"
	 viewBox="0 0 50 50" style="enable-background:new 0 0 50 50;" xml:space="preserve">
<style type="text/css">
	.st0{fill:#FCCB83;}
	.st1{fill:none;}
	.st2{enable-background:new    ;}
	.st3{fill:#CE5502;}
</style>
<g id="Capa_1_00000106855749326036549140000018308998415981303200_">
	<path class="st0" d="M5.6,49.4h38.7c2.8,0,5-2.2,5-5V5.6c0-2.8-2.2-5-5-5H5.6c-2.8,0-5,2.2-5,5v38.7C0.6,47.1,2.9,49.4,5.6,49.4z"
		/>
</g>
<g id="Capa_2_00000040546708832197930810000010517503183828918159_">
</g>
<rect x="7.4" y="17.7" class="st1" width="35" height="19.5"/>
<g class="st2">
	<path class="st3" d="M35.8,22.9c-0.1,2.3-0.7,4.1-1.8,5.5s-2.6,2.1-4.5,2.1c-1,0-1.9-0.1-2.7-0.4c-0.8-0.3-1.6-0.7-2.6-1.3
		c-1-0.6-1.7-0.9-2.3-0.9c-0.6,0-1.1,0.2-1.5,0.7c-0.4,0.5-0.6,1.2-0.7,2.1h-4.8c0.1-2.4,0.7-4.2,1.8-5.6c1.1-1.4,2.7-2,4.6-2
		c0.9,0,1.7,0.1,2.4,0.3s1.4,0.5,2,0.9c0.6,0.3,1.2,0.6,1.7,0.9s1,0.4,1.5,0.4c0.6,0,1.1-0.3,1.5-0.8c0.4-0.5,0.6-1.2,0.6-1.9H35.8z
		"/>
</g>
</svg>
