<?xml version="1.0" encoding="utf-8"?>
<!-- Generator: Adobe Illustrator 25.4.2, SVG Export Plug-In . SVG Version: 6.00 Build 0)  -->
<svg version="1.1" id="Capa_1" xmlns="http://www.w3.org/2000/svg" xmlns:xlink="http://www.w3.org/1999/xlink" x="0px" y="0px"
	 viewBox="0 0 50 50" style="enable-background:new 0 0 50 50;" xml:space="preserve">
<style type="text/css">
	.st0{opacity:0.5;fill:#FFFFFF;enable-background:new    ;}
	.st1{fill:#020203;}
</style>
<g id="Capa_1_00000106855749326036549140000018308998415981303200_">
	<path class="st0" d="M5.6,49.4h38.7c2.8,0,5-2.2,5-5V5.6c0-2.8-2.2-5-5-5H5.6c-2.8,0-5,2.2-5,5v38.7C0.6,47.1,2.9,49.4,5.6,49.4z"
		/>
</g>
<g id="Capa_2_00000040546708832197930810000010517503183828918159_">
</g>
<path class="st1" d="M25.6,20.3h1.5v12h-2.5v-9.1l-0.5,0.4l-0.7,0.3L22,24.3v-2.2c0.7-0.2,1.3-0.5,1.9-0.8S25.1,20.7,25.6,20.3z"/>
<path class="st1" d="M39.5,15.8c0-0.8-0.3-1.4-0.9-2C38,13.2,37.3,13,36.4,13H14.1c-0.9,0-1.6,0.3-2.2,0.8c-0.6,0.5-0.9,1.1-0.9,1.9
	v19.9c0,0.8,0.3,1.5,0.9,2.1c0.6,0.6,1.3,0.8,2.2,0.8h22.4c0.9,0,1.6-0.3,2.2-0.8c0.5-0.4,0.8-0.9,0.9-1.4L39.5,15.8z M37.5,35.6
	c0,0.3-0.1,0.6-0.3,0.8s-0.5,0.3-0.8,0.3H14.1c-0.2,0-0.5-0.1-0.8-0.3C13.1,36.2,13,36,13,35.6V15.7c0-0.2,0.1-0.4,0.3-0.6
	c0.3-0.2,0.5-0.3,0.8-0.3h22.4c0.3,0,0.5,0.1,0.8,0.3s0.4,0.4,0.4,0.7v19.8H37.5z"/>
<path class="st1" d="M27.1,20.3v12h-2.5v-9.1l-0.5,0.4l-0.7,0.3L22,24.3v-2.2c0.7-0.2,1.3-0.5,1.9-0.8s1.2-0.7,1.7-1H27.1z"/>
<path class="st1" d="M27.1,20.3v12h-2.5v-9.1l-0.5,0.4l-0.7,0.3L22,24.3v-2.2c0.7-0.2,1.3-0.5,1.9-0.8s1.2-0.7,1.7-1H27.1z"/>
</svg>
